<svg xmlns="http://www.w3.org/2000/svg" xmlns:xlink="http://www.w3.org/1999/xlink" viewBox="0 0 1492.423 1344.055" id="ai-development"><defs><linearGradient id="q" x1="982.684" x2="982.684" y1="434.716" y2="142.13" gradientUnits="userSpaceOnUse"><stop offset=".247" stop-color="#fff"></stop><stop offset=".516" stop-color="#f8f9fd"></stop><stop offset=".905" stop-color="#e5e9f6"></stop><stop offset="1" stop-color="#dfe4f4"></stop></linearGradient><linearGradient id="r" x1="892.855" x2="892.855" y1="434.716" y2="142.13" gradientUnits="userSpaceOnUse"><stop offset=".247" stop-color="#fff"></stop><stop offset=".641" stop-color="#f6f7fc"></stop><stop offset="1" stop-color="#e9edf7"></stop></linearGradient><linearGradient id="s" x1="218.567" x2="319.445" y1="553.402" y2="729.293" gradientTransform="matrix(-1 0 0 1 434.4 0)" gradientUnits="userSpaceOnUse"><stop offset="0" stop-color="#ffaf6d"></stop><stop offset=".069" stop-color="#ffa56e"></stop><stop offset=".326" stop-color="#ff8470"></stop><stop offset=".572" stop-color="#ff6d71"></stop><stop offset=".802" stop-color="#ff5f72"></stop><stop offset="1" stop-color="#ff5a72"></stop></linearGradient><linearGradient id="a" x1="324.817" x2="584.21" y1="809.061" y2="809.061" gradientUnits="userSpaceOnUse"><stop offset="0" stop-color="#cfd5f1"></stop><stop offset=".283" stop-color="#e1e5f6"></stop><stop offset=".719" stop-color="#f7f8fd"></stop><stop offset="1" stop-color="#fff"></stop></linearGradient><linearGradient id="t" x1="765.61" x2="915.469" y1="1147.74" y2="1147.74" xlink:href="#a"></linearGradient><linearGradient id="u" x1="1083.479" x2="1380.626" y1="698.54" y2="698.54" xlink:href="#a"></linearGradient><linearGradient id="v" x1="371.579" x2="438.954" y1="791.529" y2="674.834" gradientUnits="userSpaceOnUse"><stop offset=".354" stop-color="#8990ad"></stop><stop offset=".399" stop-color="#9aa0bf"></stop><stop offset=".49" stop-color="#c6cbef"></stop><stop offset=".506" stop-color="#ced3f8"></stop></linearGradient><linearGradient id="w" x1="1028.833" x2="1154.67" y1="452.403" y2="452.403" gradientUnits="userSpaceOnUse"><stop offset="0" stop-color="#d1d6f0"></stop><stop offset=".29" stop-color="#d5daf1"></stop><stop offset=".592" stop-color="#e2e5f5"></stop><stop offset=".899" stop-color="#f6f7fc"></stop><stop offset="1" stop-color="#fff"></stop></linearGradient><linearGradient id="b" x1="1059.464" x2="1104.175" y1="434.773" y2="434.773" gradientUnits="userSpaceOnUse"><stop offset="0" stop-color="#bbbfe2"></stop><stop offset="1" stop-color="#ced2f4"></stop></linearGradient><linearGradient id="x" x1="1122.604" x2="1135.114" y1="459.222" y2="459.222" gradientUnits="userSpaceOnUse"><stop offset="0" stop-color="#a5acd4"></stop><stop offset=".635" stop-color="#bec3e7"></stop><stop offset="1" stop-color="#ced2f4"></stop></linearGradient><linearGradient id="y" x1="1028.833" x2="1041.403" y1="459.236" y2="459.236" xlink:href="#b"></linearGradient><linearGradient id="z" x1="1101.702" x2="1117.764" y1="470.829" y2="470.829" gradientUnits="userSpaceOnUse"><stop offset="0" stop-color="#a5acd4"></stop><stop offset=".516" stop-color="#bcc2e6"></stop><stop offset="1" stop-color="#ced2f4"></stop></linearGradient><linearGradient id="A" x1="1046.335" x2="1062.428" y1="470.845" y2="470.845" xlink:href="#b"></linearGradient><linearGradient id="B" x1="1073.37" x2="1090.809" y1="475.536" y2="475.536" xlink:href="#b"></linearGradient><linearGradient id="C" x1="1050.136" x2="1113.505" y1="428.68" y2="428.68" xlink:href="#b"></linearGradient><linearGradient id="D" x1="523.308" x2="687.692" y1="1218.046" y2="1218.046" gradientUnits="userSpaceOnUse"><stop offset=".331" stop-color="#c2c9eb"></stop><stop offset=".577" stop-color="#d5daf1"></stop><stop offset="1" stop-color="#fff"></stop></linearGradient><linearGradient id="E" x1="560.2" x2="609.86" y1="1199.056" y2="1199.056" gradientUnits="userSpaceOnUse"><stop offset="0" stop-color="#b9bfe8"></stop><stop offset="1" stop-color="#d8dff6"></stop></linearGradient><linearGradient id="F" x1="546.175" x2="577.854" y1="1235.645" y2="1235.645" gradientUnits="userSpaceOnUse"><stop offset="0" stop-color="#b9bfe8"></stop><stop offset="1" stop-color="#ccd2fa"></stop></linearGradient><linearGradient id="G" x1="525.549" x2="541.169" y1="322.562" y2="348.685" gradientTransform="rotate(120.001 310.28 806.812)" gradientUnits="userSpaceOnUse"><stop offset="0" stop-color="#ccd2fa"></stop><stop offset="1" stop-color="#b9bfe8"></stop></linearGradient><linearGradient id="H" x1="625.087" x2="646.692" y1="1211.002" y2="1211.002" gradientUnits="userSpaceOnUse"><stop offset=".404" stop-color="#b9bfe8"></stop><stop offset="1" stop-color="#ccd2fa"></stop></linearGradient><linearGradient id="I" x1="1307.481" x2="1379.829" y1="943.284" y2="943.284" xlink:href="#a"></linearGradient><linearGradient id="J" x1="449.477" x2="514.846" y1="977.555" y2="977.555" xlink:href="#a"></linearGradient><linearGradient id="K" x1="323.754" x2="503.756" y1="598.579" y2="598.579" gradientUnits="userSpaceOnUse"><stop offset="0" stop-color="#c6cbe7"></stop><stop offset=".178" stop-color="#dfe1f1"></stop><stop offset=".368" stop-color="#f1f2f9"></stop><stop offset=".568" stop-color="#fbfcfe"></stop><stop offset=".792" stop-color="#fff"></stop></linearGradient><linearGradient id="L" x1="291.821" x2="357.799" y1="582.672" y2="582.672" gradientUnits="userSpaceOnUse"><stop offset="0" stop-color="#5555c6"></stop><stop offset="1" stop-color="#34318f"></stop></linearGradient><linearGradient id="M" x1="289.842" x2="359.823" y1="582.753" y2="582.753" gradientUnits="userSpaceOnUse"><stop offset="0" stop-color="#5555c6"></stop><stop offset=".03" stop-color="#7f7ff4"></stop><stop offset="1" stop-color="#4141aa"></stop></linearGradient><linearGradient id="O" x1="289.576" x2="360.044" y1="560.297" y2="560.297" gradientUnits="userSpaceOnUse"><stop offset="0" stop-color="#fff"></stop><stop offset=".324" stop-color="#eceff9"></stop><stop offset=".662" stop-color="#e0e4f5"></stop><stop offset="1" stop-color="#dce1f4"></stop></linearGradient><linearGradient id="P" x1="338.023" x2="315.254" y1="547.893" y2="508.456" gradientUnits="userSpaceOnUse"><stop offset="0"></stop><stop offset=".12" stop-color="#392719"></stop><stop offset=".244" stop-color="#6d4b2f"></stop><stop offset=".371" stop-color="#9a6a42"></stop><stop offset=".498" stop-color="#be8351"></stop><stop offset=".624" stop-color="#db965d"></stop><stop offset=".75" stop-color="#efa466"></stop><stop offset=".875" stop-color="#fbac6b"></stop><stop offset="1" stop-color="#ffaf6d"></stop></linearGradient><linearGradient id="Q" x1="599.13" x2="1006.773" y1="822.392" y2="822.392" gradientUnits="userSpaceOnUse"><stop offset=".402" stop-color="#cfd5f1"></stop><stop offset="1" stop-color="#fff"></stop></linearGradient><linearGradient id="R" x1="555.557" x2="963.2" y1="867.923" y2="867.923" gradientUnits="userSpaceOnUse"><stop offset="0" stop-color="#ced3f8"></stop><stop offset="1" stop-color="#bbc0e6"></stop></linearGradient><linearGradient id="S" x1="763.6" x2="963.2" y1="776.406" y2="776.406" gradientUnits="userSpaceOnUse"><stop offset="0" stop-color="#c4cae9"></stop><stop offset="1" stop-color="#fff"></stop></linearGradient><linearGradient id="c" x1="734.884" x2="917.212" y1="731.221" y2="731.221" gradientUnits="userSpaceOnUse"><stop offset="0" stop-color="#5652cc"></stop><stop offset="1" stop-color="#362e94"></stop></linearGradient><linearGradient id="T" x1="648.436" x2="874.678" y1="695.155" y2="695.155" gradientUnits="userSpaceOnUse"><stop offset="0" stop-color="#c4cae9"></stop><stop offset=".677" stop-color="#d2d8f0"></stop><stop offset="1" stop-color="#dae0f5"></stop></linearGradient><linearGradient id="U" x1="598.825" x2="853.863" y1="535.728" y2="705.27" gradientUnits="userSpaceOnUse"><stop offset="0" stop-color="#fff"></stop><stop offset=".486" stop-color="#e0e2f4"></stop><stop offset="1" stop-color="#bbc0e6"></stop></linearGradient><linearGradient id="V" x1="691.684" x2="863.152" y1="761.615" y2="513.457" gradientUnits="userSpaceOnUse"><stop offset="0" stop-color="#ced3f8"></stop><stop offset="1" stop-color="#fff"></stop></linearGradient><linearGradient id="W" x1="565.06" x2="760.34" y1="631.565" y2="631.565" gradientUnits="userSpaceOnUse"><stop offset="0" stop-color="#6b67e9"></stop><stop offset=".906" stop-color="#27217b"></stop><stop offset="1" stop-color="#20196f"></stop></linearGradient><linearGradient id="Z" x1="630.479" x2="760.34" y1="672.609" y2="672.609" gradientUnits="userSpaceOnUse"><stop offset="0" stop-color="#d1d7f3"></stop><stop offset="1" stop-color="#fff"></stop></linearGradient><linearGradient id="aa" x1="589.991" x2="848.389" y1="520.565" y2="520.565" xlink:href="#c"></linearGradient><linearGradient id="ab" x1="847.371" x2="820.538" y1="861.308" y2="815.808" gradientUnits="userSpaceOnUse"><stop offset=".038" stop-color="#20196f"></stop><stop offset=".122" stop-color="#19367c"></stop><stop offset=".295" stop-color="#0b6c95"></stop><stop offset=".425" stop-color="#038da4"></stop><stop offset=".496" stop-color="#009aaa"></stop><stop offset=".59" stop-color="#0586a1"></stop><stop offset=".781" stop-color="#125289"></stop><stop offset=".97" stop-color="#20196f"></stop></linearGradient><linearGradient id="ac" x1="868.578" x2="841.745" y1="848.802" y2="803.302" gradientUnits="userSpaceOnUse"><stop offset=".038" stop-color="#20196f"></stop><stop offset=".075" stop-color="#331c6d"></stop><stop offset=".227" stop-color="#7e2a66"></stop><stop offset=".352" stop-color="#b53461"></stop><stop offset=".445" stop-color="#d63a5d"></stop><stop offset=".496" stop-color="#e33c5c"></stop><stop offset=".561" stop-color="#cf385e"></stop><stop offset=".696" stop-color="#9a2f63"></stop><stop offset=".886" stop-color="#47206b"></stop><stop offset=".97" stop-color="#20196f"></stop></linearGradient><linearGradient id="ad" x1="602.897" x2="844.174" y1="518.542" y2="518.542" gradientUnits="userSpaceOnUse"><stop offset="0" stop-color="#ff826a"></stop><stop offset=".555" stop-color="#915481"></stop><stop offset="1" stop-color="#362e94"></stop></linearGradient><linearGradient id="ae" x1="719.19" x2="807.1" y1="520.565" y2="520.565" gradientUnits="userSpaceOnUse"><stop offset="0" stop-color="#a5abcc"></stop><stop offset="1" stop-color="#fff"></stop></linearGradient><linearGradient id="af" x1="996.092" x2="1197.244" y1="1055.041" y2="1055.041" gradientUnits="userSpaceOnUse"><stop offset="0" stop-color="#c4cae8"></stop><stop offset="1" stop-color="#fff"></stop></linearGradient><linearGradient id="ag" x1="886.534" x2="1167.065" y1="1058.711" y2="1058.711" gradientUnits="userSpaceOnUse"><stop offset=".315" stop-color="#ced3f8"></stop><stop offset=".466" stop-color="#bbc0e6"></stop></linearGradient><linearGradient id="ah" x1="963.963" x2="1167.069" y1="1021.438" y2="1021.438" gradientUnits="userSpaceOnUse"><stop offset="0" stop-color="#d1d6f0"></stop><stop offset=".734" stop-color="#f2f3fb"></stop><stop offset="1" stop-color="#fff"></stop></linearGradient><linearGradient id="ai" x1="962.206" x2="1109.81" y1="770.01" y2="945.918" gradientUnits="userSpaceOnUse"><stop offset=".758" stop-color="#ced3f8"></stop><stop offset=".837" stop-color="#bbc0e6"></stop></linearGradient><linearGradient id="aj" x1="907.897" x2="1191.504" y1="844.4" y2="844.4" gradientUnits="userSpaceOnUse"><stop offset="0" stop-color="#34318c"></stop><stop offset=".13" stop-color="#302d86"></stop><stop offset=".648" stop-color="#232172"></stop><stop offset="1" stop-color="#1e1c6b"></stop></linearGradient><linearGradient id="d" x1="1038.209" x2="1076.646" y1="861.423" y2="794.848" gradientUnits="userSpaceOnUse"><stop offset="0" stop-color="#601b2d"></stop><stop offset=".233" stop-color="#42131f"></stop><stop offset=".561" stop-color="#1e080e"></stop><stop offset=".829" stop-color="#080204"></stop><stop offset="1"></stop></linearGradient><linearGradient id="ak" x1="1082.977" x2="1106.669" y1="885.658" y2="844.622" xlink:href="#d"></linearGradient><linearGradient id="al" x1="1091.143" x2="1114.835" y1="896.564" y2="855.528" xlink:href="#d"></linearGradient><linearGradient id="am" x1="1025.32" x2="1070.8" y1="841.598" y2="762.824" xlink:href="#d"></linearGradient><linearGradient id="an" x1="1033.486" x2="1078.966" y1="852.504" y2="773.73" gradientUnits="userSpaceOnUse"><stop offset="0" stop-color="#20196f"></stop><stop offset=".307" stop-color="#130f42"></stop><stop offset=".604" stop-color="#09071e"></stop><stop offset=".845" stop-color="#020208"></stop><stop offset="1"></stop></linearGradient><linearGradient id="ao" x1="1070.22" x2="1101.226" y1="865.909" y2="812.204" gradientUnits="userSpaceOnUse"><stop offset="0" stop-color="#024e56"></stop><stop offset=".171" stop-color="#023c42"></stop><stop offset=".526" stop-color="#011b1e"></stop><stop offset=".815" stop-color="#000708"></stop><stop offset="1"></stop></linearGradient><linearGradient id="ap" x1="1078.386" x2="1109.393" y1="876.815" y2="823.11" xlink:href="#d"></linearGradient><linearGradient id="e" x1="1142.487" x2="1249.262" y1="1120.122" y2="1120.122" gradientUnits="userSpaceOnUse"><stop offset="0" stop-color="#c4c9e4"></stop><stop offset=".095" stop-color="#ced2e8"></stop><stop offset=".409" stop-color="#e9ebf5"></stop><stop offset=".687" stop-color="#f9fafc"></stop><stop offset=".899" stop-color="#fff"></stop></linearGradient><linearGradient id="aq" x1="1190.631" x2="1297.405" y1="1091.782" y2="1091.782" xlink:href="#e"></linearGradient><linearGradient id="f" x1="1163.087" x2="1202.446" y1="1088.027" y2="1088.027" gradientUnits="userSpaceOnUse"><stop offset="0" stop-color="#696adf"></stop><stop offset=".284" stop-color="#5857c4"></stop><stop offset=".756" stop-color="#3e3c9b"></stop><stop offset="1" stop-color="#34318c"></stop></linearGradient><linearGradient id="ar" x1="1114.425" x2="1153.784" y1="1116.354" y2="1116.354" xlink:href="#f"></linearGradient><linearGradient id="as" x1="1131.512" x2="1199.175" y1="1022.313" y2="1022.313" gradientUnits="userSpaceOnUse"><stop offset="0" stop-color="#5455c4"></stop><stop offset=".007" stop-color="#5454c3"></stop><stop offset=".459" stop-color="#373694"></stop><stop offset=".804" stop-color="#252376"></stop><stop offset="1" stop-color="#1e1c6b"></stop></linearGradient><linearGradient id="at" x1="1179.303" x2="1210.353" y1="838.644" y2="934.515" gradientUnits="userSpaceOnUse"><stop offset="0" stop-color="#ced2f4"></stop><stop offset=".432" stop-color="#c4c8ea"></stop><stop offset="1" stop-color="#bbbfe2"></stop></linearGradient><linearGradient id="au" x1="1128.901" x2="1199.576" y1="900.885" y2="900.885" gradientUnits="userSpaceOnUse"><stop offset="0" stop-color="#f0f0f4"></stop><stop offset=".233" stop-color="#e4e6f4"></stop><stop offset=".668" stop-color="#d4d7f4"></stop><stop offset="1" stop-color="#ced2f4"></stop></linearGradient><linearGradient id="av" x1="1087.758" x2="1150.437" y1="888.769" y2="888.769" gradientUnits="userSpaceOnUse"><stop offset="0" stop-color="#fff"></stop><stop offset=".366" stop-color="#f0f2fc"></stop><stop offset="1" stop-color="#ced2f4"></stop></linearGradient><linearGradient id="g" x1="897.822" x2="1036.479" y1="-137.094" y2="-137.094" gradientTransform="matrix(.7494 -1.0114 -.434 -.7486 -144.81 1148.344)" gradientUnits="userSpaceOnUse"><stop offset="0" stop-color="#ffaf6d"></stop><stop offset="1" stop-color="#ff826a"></stop></linearGradient><linearGradient id="aw" x1="-366.788" x2="-217.218" y1="667.5" y2="667.5" gradientTransform="matrix(-.866 .5 0 1.1547 316.643 -278.86)" xlink:href="#g"></linearGradient><linearGradient id="ax" x1="-353.326" x2="-217.218" y1="732.264" y2="732.264" gradientTransform="matrix(-.866 .5 0 1.1547 316.643 -278.86)" xlink:href="#g"></linearGradient><linearGradient id="ay" x1="1158.974" x2="1233.076" y1="645.382" y2="517.033" gradientUnits="userSpaceOnUse"><stop offset="0" stop-color="#34318f"></stop><stop offset="1" stop-color="#7f7ff4"></stop></linearGradient><linearGradient id="h" x1="1257.815" x2="1342.606" y1="828.757" y2="828.757" gradientUnits="userSpaceOnUse"><stop offset="0" stop-color="#c4c9e5"></stop><stop offset=".241" stop-color="#dde0f0"></stop><stop offset=".539" stop-color="#f6f7fb"></stop><stop offset=".719" stop-color="#fff"></stop></linearGradient><linearGradient id="az" x1="1307.399" x2="1392.19" y1="812.449" y2="812.449" xlink:href="#h"></linearGradient><linearGradient id="i" x1="1296.262" x2="1317.313" y1="787.67" y2="787.67" gradientUnits="userSpaceOnUse"><stop offset="0" stop-color="#ced3f8"></stop><stop offset="1" stop-color="#a3a9d0"></stop></linearGradient><linearGradient id="aA" x1="1283.11" x2="1332.913" y1="847.292" y2="847.292" xlink:href="#h"></linearGradient><linearGradient id="aB" x1="1271.973" x2="1293.022" y1="835.473" y2="835.473" gradientUnits="userSpaceOnUse"><stop offset="0" stop-color="#f48a71"></stop><stop offset="1" stop-color="#e33c5c"></stop></linearGradient><linearGradient id="aC" x1="1246.678" x2="1267.729" y1="807.284" y2="807.284" gradientUnits="userSpaceOnUse"><stop offset="0" stop-color="#6a6ae2"></stop><stop offset="1" stop-color="#4141aa"></stop></linearGradient><linearGradient id="aD" x1="1233.526" x2="1318.317" y1="863.598" y2="863.598" xlink:href="#h"></linearGradient><linearGradient id="aE" x1="1222.389" x2="1243.438" y1="844.1" y2="844.1" xlink:href="#i"></linearGradient><linearGradient id="j" x1="145.204" x2="281.977" y1="1108.091" y2="1108.091" gradientTransform="translate(-2.29)" gradientUnits="userSpaceOnUse"><stop offset="0" stop-color="#c4cae9"></stop><stop offset=".095" stop-color="#ced3ed"></stop><stop offset=".409" stop-color="#e9ebf7"></stop><stop offset=".687" stop-color="#f9fafd"></stop><stop offset=".899" stop-color="#fff"></stop></linearGradient><linearGradient id="aF" x1="144.965" x2="272.401" y1="1073.323" y2="1073.323" gradientTransform="translate(-23.713)" xlink:href="#j"></linearGradient><linearGradient id="k" x1="121.61" x2="106.207" y1="1080.204" y2="1042.644" gradientUnits="userSpaceOnUse"><stop offset="0" stop-color="#20196f"></stop><stop offset=".512" stop-color="#302b8e"></stop><stop offset="1" stop-color="#423eaf"></stop></linearGradient><linearGradient id="aG" x1="126.661" x2="111.256" y1="1078.136" y2="1040.57" xlink:href="#k"></linearGradient><linearGradient id="aH" x1="108.906" x2="183.249" y1="992.607" y2="992.607" gradientUnits="userSpaceOnUse"><stop offset="0" stop-color="#20196f"></stop><stop offset=".788" stop-color="#161350"></stop><stop offset="1" stop-color="#131147"></stop></linearGradient><linearGradient id="l" x1="161.25" x2="128.148" y1="1117.63" y2="1096.012" gradientUnits="userSpaceOnUse"><stop offset="0" stop-color="#20196f"></stop><stop offset=".846" stop-color="#322a8e"></stop><stop offset="1" stop-color="#362e94"></stop></linearGradient><linearGradient id="aI" x1="164.478" x2="131.368" y1="1112.697" y2="1091.074" xlink:href="#l"></linearGradient><linearGradient id="aJ" x1="139.997" x2="184.488" y1="1008.551" y2="1019.019" gradientTransform="matrix(-1 0 0 1 298.204 0)" gradientUnits="userSpaceOnUse"><stop offset="0" stop-color="#20196f"></stop><stop offset=".609" stop-color="#342f95"></stop><stop offset="1" stop-color="#423eaf"></stop></linearGradient><linearGradient id="aK" x1="188.5" x2="108.658" y1="910.655" y2="910.655" gradientTransform="matrix(-1 0 0 1 298.204 0)" gradientUnits="userSpaceOnUse"><stop offset="0" stop-color="#00d6dc"></stop><stop offset=".154" stop-color="#00cfd5"></stop><stop offset=".648" stop-color="#00bdc5"></stop><stop offset="1" stop-color="#00b6bf"></stop></linearGradient><linearGradient id="aL" x1="-1217.802" x2="-1145.243" y1="1030.722" y2="905.048" gradientTransform="translate(1403.629)" gradientUnits="userSpaceOnUse"><stop offset=".414" stop-color="#423eaf"></stop><stop offset=".62" stop-color="#6b67e9"></stop></linearGradient><linearGradient id="m" x1="212.973" x2="285.533" y1="1046.394" y2="920.718" gradientUnits="userSpaceOnUse"><stop offset=".449" stop-color="#601b2d"></stop><stop offset=".596" stop-color="#e33c5c"></stop></linearGradient><linearGradient id="aM" x1="203.453" x2="276.011" y1="1040.897" y2="915.223" xlink:href="#m"></linearGradient><linearGradient id="aN" x1="193.932" x2="266.49" y1="1035.4" y2="909.725" xlink:href="#m"></linearGradient><linearGradient id="aO" x1="184.411" x2="256.971" y1="1029.906" y2="904.228" xlink:href="#m"></linearGradient><linearGradient id="aP" x1="174.893" x2="247.451" y1="1024.408" y2="898.732" xlink:href="#m"></linearGradient><linearGradient id="aQ" x1="165.369" x2="237.928" y1="1018.911" y2="893.234" xlink:href="#m"></linearGradient><linearGradient id="aR" x1="155.848" x2="228.408" y1="1013.414" y2="887.738" xlink:href="#m"></linearGradient><linearGradient id="aS" x1="129.153" x2="179.491" y1="912.621" y2="960.067" gradientUnits="userSpaceOnUse"><stop offset="0" stop-color="#57ecea"></stop><stop offset=".262" stop-color="#37e4e5"></stop><stop offset=".561" stop-color="#19dce0"></stop><stop offset=".818" stop-color="#07d8dd"></stop><stop offset="1" stop-color="#00d6dc"></stop></linearGradient><linearGradient id="n" x1="740.393" x2="835.76" y1="1192.786" y2="1192.786" gradientTransform="matrix(-1 0 0 1 1211.971 0)" gradientUnits="userSpaceOnUse"><stop offset=".006" stop-color="#fff"></stop><stop offset=".246" stop-color="#fafbfd"></stop><stop offset=".53" stop-color="#eceef8"></stop><stop offset=".835" stop-color="#d4d8ef"></stop><stop offset="1" stop-color="#c4cae9"></stop></linearGradient><linearGradient id="aT" x1="783.221" x2="885.76" y1="1221.607" y2="1221.607" xlink:href="#n"></linearGradient><linearGradient id="o" x1="-194.618" x2="-154.245" y1="1189.148" y2="1189.148" gradientTransform="translate(541.953)" gradientUnits="userSpaceOnUse"><stop offset="0" stop-color="#423eaf"></stop><stop offset=".304" stop-color="#3a35a0"></stop><stop offset=".891" stop-color="#241e77"></stop><stop offset="1" stop-color="#20196f"></stop></linearGradient><linearGradient id="aU" x1="-244.189" x2="-203.773" y1="1217.856" y2="1217.856" xlink:href="#o"></linearGradient><linearGradient id="aV" x1="-222.799" x2="-163.937" y1="1121.613" y2="1121.613" gradientTransform="translate(541.953)" gradientUnits="userSpaceOnUse"><stop offset="0" stop-color="#423eaf"></stop><stop offset=".244" stop-color="#38339c"></stop><stop offset=".732" stop-color="#27207b"></stop><stop offset="1" stop-color="#20196f"></stop></linearGradient><linearGradient id="aW" x1="-285.288" x2="-204.795" y1="784.655" y2="784.655" gradientTransform="rotate(-15.968 871.92 -1172.557)" gradientUnits="userSpaceOnUse"><stop offset="0" stop-color="#e33c5c"></stop><stop offset=".661" stop-color="#f76e66"></stop><stop offset="1" stop-color="#ff826a"></stop></linearGradient><linearGradient id="aX" x1="299.969" x2="330.708" y1="1029.892" y2="1029.892" gradientUnits="userSpaceOnUse"><stop offset="0" stop-color="#d1d7f3"></stop><stop offset=".429" stop-color="#e2e6f7"></stop><stop offset="1" stop-color="#fff"></stop></linearGradient><linearGradient id="aY" x1="757.084" x2="853.356" y1="227.372" y2="227.372" gradientTransform="scale(-1 1) rotate(50.811 -551.954 -529.552)" gradientUnits="userSpaceOnUse"><stop offset="0" stop-color="#ffaf6d"></stop><stop offset="1" stop-color="#e33c5c"></stop></linearGradient><linearGradient id="aZ" x1="924.718" x2="815.492" y1="228.96" y2="119.734" gradientTransform="matrix(.866 .5 0 1.1547 55.013 -270.262)" gradientUnits="userSpaceOnUse"><stop offset="0" stop-color="#20196f"></stop><stop offset="1" stop-color="#807dfb"></stop></linearGradient><linearGradient id="p" x1="832.683" x2="783.944" y1="405.138" y2="333.269" gradientUnits="userSpaceOnUse"><stop offset="0" stop-color="#20196f"></stop><stop offset="1" stop-color="#00d6dc"></stop></linearGradient><linearGradient id="ba" x1="842.247" x2="793.508" y1="398.652" y2="326.783" xlink:href="#p"></linearGradient><linearGradient id="bb" x1="858.269" x2="809.532" y1="394.281" y2="322.414" xlink:href="#p"></linearGradient><linearGradient id="bc" x1="811.963" x2="763.224" y1="419.189" y2="347.319" xlink:href="#p"></linearGradient><linearGradient id="bd" x1="817.417" x2="768.676" y1="415.492" y2="343.621" xlink:href="#p"></linearGradient><linearGradient id="be" x1="824.046" x2="775.309" y1="412.121" y2="340.255" xlink:href="#p"></linearGradient><linearGradient id="bf" x1="832.603" x2="783.865" y1="409.255" y2="337.387" xlink:href="#p"></linearGradient><radialGradient id="N" cx="296.086" cy="486.893" r="110.979" gradientUnits="userSpaceOnUse"><stop offset="0" stop-color="#ffaf6d"></stop><stop offset=".317" stop-color="#ffac6d"></stop><stop offset=".512" stop-color="#ffa46e"></stop><stop offset=".674" stop-color="#ff966e"></stop><stop offset=".817" stop-color="#ff8170"></stop><stop offset=".948" stop-color="#ff6771"></stop><stop offset="1" stop-color="#ff5a72"></stop></radialGradient><radialGradient id="X" cx="841.651" cy="629.251" r="25.552" gradientTransform="matrix(.6238 .4973 -.3521 .7159 379.168 -202.559)" gradientUnits="userSpaceOnUse"><stop offset=".169" stop-color="#f67d66"></stop><stop offset=".261" stop-color="#de715c"></stop><stop offset=".458" stop-color="#9f5142"></stop><stop offset=".74" stop-color="#3d1f19"></stop><stop offset=".904"></stop></radialGradient><radialGradient id="Y" cx="637.051" cy="585.524" r="18.543" gradientTransform="matrix(.6465 .763 -.3375 .9413 364.209 -424.133)" gradientUnits="userSpaceOnUse"><stop offset="0" stop-color="#ff826a"></stop><stop offset=".184" stop-color="#c26350"></stop><stop offset=".447" stop-color="#70392e"></stop><stop offset=".663" stop-color="#331a15"></stop><stop offset=".821" stop-color="#0e0706"></stop><stop offset=".904"></stop></radialGradient></defs><g data-name="Speech bubble"><g style="mix-blend-mode:multiply"><path fill="url(#q)" d="m937.768 434.716 89.832-51.862V142.13l-89.832 51.861v240.725z"></path><path fill="url(#r)" d="m937.768 434.716-89.826-51.862V142.13l89.826 51.861v240.725z"></path><path fill="#f1f3f9" d="m937.768 193.991-89.826-51.861 89.826-51.862 89.832 51.862-89.832 51.861z"></path></g><path fill="#807dfb" d="M197.316 576.355v83.07l-71.94 41.537c0-45.88 32.209-101.667 71.94-124.607Z"></path><path fill="url(#s)" d="m183.733 568.513 49.184 28.395-70.479 125.45-50.644-29.238c0-45.881 32.208-101.668 71.939-124.607Z"></path><path fill="#e33c5c" d="M197.316 576.355v83.07l-71.94 41.537c0-45.88 32.209-101.667 71.94-124.607Z"></path><path fill="#807dfb" d="m125.377 700.962 71.939-41.537-63.698 75.376c-5.254-8.501-8.241-19.902-8.241-33.84Z"></path><path fill="#eaeef9" d="M197.316 659.425v-83.07c39.733-22.938 71.94-4.344 71.94 41.533 0 45.88-32.207 101.667-71.94 124.607-27.66 15.97-51.66 11.789-63.698-7.694Z"></path><path fill="#f7f7fc" d="M183.733 568.513c19.983-11.538 38.059-12.558 51.094-4.897l12.68 7.32-.012.02c-12.961-7.095-30.655-5.873-50.179 5.4l-13.583-7.843Z"></path><path fill="#a3a9d0" d="M131.58 738.878a37.04 37.04 0 0 1-11.545-11.916l13.583 7.84a37.06 37.06 0 0 0 11.546 11.917Z"></path><path fill="#5652cc" d="M120.035 726.962c-5.254-8.502-8.241-19.905-8.241-33.842l13.583 7.842h-.001c0 13.937 2.988 25.338 8.242 33.84Z"></path><path style="mix-blend-mode:multiply" fill="url(#a)" d="M483.497 750.895h-158.68l99.197 59.043-99.197 57.289h158.68l100.713-58.148-100.713-58.184z"></path><path fill="#b9bee4" d="m324.817 867.227 99.197-57.289V600.904l-99.197 57.267v209.056z"></path><path fill="#ccd1f6" d="m324.817 867.227-99.209-57.289V600.904l99.209 57.267v209.056z"></path><path fill="#f4f4f9" d="m324.817 658.171-99.209-57.267 99.209-57.251 99.197 57.251-99.197 57.267z"></path><path style="mix-blend-mode:multiply" fill="url(#t)" d="M857.282 1114.135H765.61l57.309 34.11-57.309 33.099h91.672l58.187-33.595-58.187-33.614z"></path><path fill="#423eaf" d="m765.61 1181.344 57.309-33.099v-120.766l-57.309 33.086v120.779z"></path><path fill="#6b67e9" d="m765.61 1181.344-57.316-33.099v-120.766l57.316 33.086v120.779z"></path><path fill="#f4f4f9" d="m765.61 1060.565-57.316-33.086 57.316-33.076 57.309 33.076-57.309 33.086z"></path><path style="mix-blend-mode:multiply" fill="url(#u)" d="M1265.251 631.907h-181.772l113.633 67.635-113.633 65.631h181.772l115.375-66.616-115.375-66.65z"></path><path fill="#b9bee4" d="m1083.479 765.173 113.633-65.631V460.081l-113.633 65.603v239.489z"></path><path fill="#ccd1f6" d="m1083.479 765.173-113.652-65.631V460.081l113.652 65.603v239.489z"></path><path fill="#f4f4f9" d="m1083.479 525.684-113.652-65.603 113.652-65.586 113.633 65.586-113.633 65.603z"></path><path fill="#f6f6fb" d="M383.795 737.94c0-5.64 3.994-12.557 8.879-15.378l60.818-35.113c4.881-2.818 8.876-.514 8.876 5.125v56.43c0 5.64-3.995 12.558-8.876 15.377l-60.818 35.115c-4.885 2.818-8.879.514-8.879-5.123Z"></path><path fill="url(#v)" d="M383.795 794.373v-56.434c0-5.638 3.994-12.556 8.879-15.377l60.818-35.113c2.413-1.392 4.604-1.531 6.21-.637l-4.647-2.681-.006.008c-1.621-1.038-3.904-.963-6.433.496l-60.817 35.113c-4.883 2.82-8.877 9.738-8.877 15.377v56.432c0 2.95 1.1 4.976 2.842 5.843l4.426 2.559c-1.479-.98-2.395-2.899-2.395-5.586Z"></path><path d="M428.438 721.79a3.097 3.097 0 0 0-1.856 2.286l-8.62 40.941c-.224 1.057.247 1.744 1.05 1.537a3.105 3.105 0 0 0 1.856-2.286l8.62-40.941c.221-1.056-.248-1.743-1.05-1.536Zm-11.891 14.262c-.47-.52-1.41-.18-2.095.762l-14.446 19.817a3.236 3.236 0 0 0-.654 1.811c0 .573.244.97.654 1.06l14.446 3.135c.685.148 1.624-.596 2.097-1.66.47-1.064.299-2.05-.387-2.198l-12.64-2.744 12.64-17.339c.686-.94.858-2.125.385-2.644Zm31.941-7.413-14.445-3.135c-.685-.15-1.627.593-2.097 1.658-.473 1.064-.3 2.048.386 2.198l12.64 2.742-12.64 17.34c-.685.94-.86 2.126-.386 2.645.47.52 1.41.178 2.097-.763l14.445-19.815a3.243 3.243 0 0 0 .655-1.814c0-.573-.244-.969-.655-1.056Z" style="mix-blend-mode:multiply" fill="#6b67e9"></path><path d="M1142.243 465.477a4.97 4.97 0 0 1 1.717-1.125h7.554l3.156-6.91-2.845-.436a7.928 7.928 0 0 1-2.66-.883 2.706 2.706 0 0 1-1.58-2.341 17.99 17.99 0 0 0-.012-2.751c-.06-1.974 2.353-2.936 4.187-3.228l2.852-.439-3.234-6.902h-7.543a5.318 5.318 0 0 1-.721-.346 4.537 4.537 0 0 1-1.016-.784 29.716 29.716 0 0 0-2.39-2.383c-1.754-1.697-.497-3.235.845-4.012l2.076-1.209-8.755-5.053-2.077 1.205a8.61 8.61 0 0 1-6.925.504 64.2 64.2 0 0 0-4.125-1.38 7.253 7.253 0 0 1-1.356-.583c-1.68-.974-1.765-2.27-1.369-3.141l.75-1.645-11.934-1.856-.75 1.652c-.48 1.065-2.14 2.47-5.546 2.444a93.884 93.884 0 0 0-4.747-.004 7.924 7.924 0 0 1-4.058-.905 3.669 3.669 0 0 1-1.526-1.53l-.769-1.657-11.912 1.856.77 1.645c.5 1.068.28 2.762-2.678 3.725-1.403.42-2.778.879-4.116 1.379a8.671 8.671 0 0 1-6.93-.5l-2.09-1.21-8.698 5.054 2.091 1.21c1.344.78 2.622 2.314.89 4.007a31.415 31.415 0 0 0-2.368 2.387c-1.652 1.717-4.568 1.852-6.41 1.572l-2.856-.442-3.156 6.902 2.852.44a8.025 8.025 0 0 1 2.656.886 2.718 2.718 0 0 1 1.584 2.341 17.892 17.892 0 0 0 0 2.743 2.289 2.289 0 0 1-.785 1.784h-19.453v8.794h23.988a5.392 5.392 0 0 1 .709.341 4.703 4.703 0 0 1 1.015.78 30.28 30.28 0 0 0 2.399 2.387 3.064 3.064 0 0 1 .69.947h-11.3v9.327h17.092v-.378l1.428-.826a8.58 8.58 0 0 1 6.926-.5c.521.189 1.056.375 1.59.561v8.035h16.338v-.018l.101.018.754-1.652a3.162 3.162 0 0 1 .205-.36v2.012h16.438l11.916-1.849-.778-1.652c-.443-.95-.306-2.405 1.85-3.39h13.973l8.693-5.054-2.088-1.205c-1.348-.784-2.625-2.323-.889-4.016a28.65 28.65 0 0 0 2.36-2.383Zm-28.024-3.894c-8.76 5.088-23.023 5.095-31.843 0-8.819-5.092-8.862-13.356-.102-18.444 8.766-5.095 23.023-5.095 31.842 0 8.82 5.092 8.869 13.348.103 18.444Z" style="mix-blend-mode:multiply" fill="url(#w)"></path><path fill="url(#b)" d="M1097.579 428.364c-8.758-5.054-22.916-5.058-31.623 0-7.743 4.497-8.555 11.495-2.461 16.541a18.693 18.693 0 0 1 2.46-1.701c8.708-5.062 22.866-5.058 31.624 0a18.602 18.602 0 0 1 2.566 1.77c6.125-5.054 5.266-12.09-2.566-16.61Z"></path><path fill="#bbbfe2" d="M1101.626 408.395a2.19 2.19 0 0 0-.202.89l-.04 14.882a2.146 2.146 0 0 1 .197-.887l.754-1.645.04-14.884ZM1061.903 408.395l-.77-1.644-.04 14.884.769 1.645a2.173 2.173 0 0 1 .207.925l.043-14.89a2.124 2.124 0 0 0-.21-.92ZM1124.153 418.051a2.984 2.984 0 0 0-1.701 2.304l-.041 14.886a2.975 2.975 0 0 1 1.7-2.304l2.079-1.209.043-14.885Z"></path><path fill="#ced2f4" d="m1039.481 418.051-2.09-1.208-.043 14.885 2.092 1.21a3.014 3.014 0 0 1 1.732 2.333l.041-14.89a3.013 3.013 0 0 0-1.732-2.33Z"></path><path fill="#bbbfe2" d="M1135.364 432.918c-1.813.284-4.18 1.227-4.188 3.148l-.04 14.886c.007-1.917 2.374-2.86 4.185-3.149l2.853-.439.041-14.886Z"></path><path fill="#242d3c" d="m1131.233 437.634-.041 14.886q0 .63-.045 1.262l.037-14.886q.05-.63.049-1.262Z"></path><path fill="#ced2f4" d="m1032.667 438.604.007-2.458a2.717 2.717 0 0 0-1.584-2.342 7.838 7.838 0 0 0-2.656-.882l-2.853-.444-.041 14.886 2.85.44a7.995 7.995 0 0 1 2.655.886 2.894 2.894 0 0 1 1.538 1.883l-.008 1.74c0 .487.023.977.056 1.461l.047-14.882c-.008-.098-.008-.19-.011-.288Z"></path><path fill="#242d3c" d="m1032.678 438.968-.043 14.886a.528.528 0 0 0-.004-.08l.047-14.882Z"></path><path fill="#bbbfe2" d="m1138.272 442.56-.041 14.881-3.156 6.911.039-14.882 3.158-6.91z"></path><path fill="#ced2f4" d="m1028.874 449.47-.041 14.882-3.233-6.907.043-14.885 3.231 6.91z"></path><path fill="url(#x)" d="M1132.264 449.02c-1.842-.281-4.761-.148-6.414 1.572a28.312 28.312 0 0 1-2.367 2.383 2.405 2.405 0 0 0-.842 1.674l-.037 14.89a2.368 2.368 0 0 1 .84-1.679 28.678 28.678 0 0 0 2.361-2.383c1.655-1.723 4.58-1.852 6.414-1.568l2.856.443.039-14.882Z"></path><path fill="url(#y)" d="M1040.545 452.975a29.525 29.525 0 0 1-2.392-2.383 4.695 4.695 0 0 0-1.02-.785 8.815 8.815 0 0 0-5.418-.788l-2.841.451-.041 14.882 2.841-.443a8.779 8.779 0 0 1 5.416.784 4.665 4.665 0 0 1 1.016.78 29.976 29.976 0 0 0 2.398 2.387 2.376 2.376 0 0 1 .858 1.705l.04-14.882a2.367 2.367 0 0 0-.857-1.708Z"></path><path fill="#bbbfe2" d="m1126.463 458.192-.041 14.889-8.699 5.053.041-14.884 8.699-5.058z"></path><path fill="#ced2f4" d="m1046.381 463.25-.046 14.884-8.754-5.053.041-14.889 8.759 5.058z"></path><path fill="url(#z)" d="M1115.674 462.04a8.652 8.652 0 0 0-6.925-.495 65.656 65.656 0 0 1-4.116 1.375c-2.2.72-2.886 1.838-2.89 2.803l-.041 14.885c.004-.966.69-2.087 2.89-2.803a61.862 61.862 0 0 0 4.112-1.376 8.625 8.625 0 0 1 6.924.497l2.095 1.208.041-14.884Z"></path><path fill="url(#A)" d="M1060.86 463.507a7.251 7.251 0 0 0-1.356-.587 65.443 65.443 0 0 1-4.12-1.375 8.611 8.611 0 0 0-6.926.496l-2.077 1.209-.046 14.884 2.076-1.204a8.59 8.59 0 0 1 6.93-.5c1.341.496 2.716.958 4.122 1.375a7.194 7.194 0 0 1 1.356.583 2.64 2.64 0 0 1 1.568 2.254l.041-14.88a2.632 2.632 0 0 0-1.568-2.255Z"></path><path fill="#bbbfe2" d="m1102.725 468.292-.043 14.885-11.914 1.849.041-14.885 11.916-1.849z"></path><path fill="url(#B)" d="M1090.04 468.489a3.663 3.663 0 0 0-1.53-1.534 7.875 7.875 0 0 0-4.05-.902c-1.58.034-3.168.034-4.75-.007-3.403-.02-5.055 1.382-5.543 2.443l-.754 1.652-.043 14.885.754-1.652c.49-1.065 2.14-2.466 5.543-2.44 1.587.042 3.175.038 4.748 0a7.946 7.946 0 0 1 4.052.903 3.686 3.686 0 0 1 1.532 1.537l.77 1.652.04-14.885Z"></path><path fill="#fff" d="m1124.38 456.991 2.083 1.201-8.699 5.058-2.09-1.21a8.652 8.652 0 0 0-6.925-.495 65.656 65.656 0 0 1-4.116 1.375c-2.963.965-3.181 2.659-2.681 3.724l.773 1.648-11.916 1.85-.77-1.653a3.663 3.663 0 0 0-1.529-1.534 7.875 7.875 0 0 0-4.05-.902c-1.58.034-3.168.034-4.75-.007-3.403-.02-5.055 1.382-5.543 2.443l-.754 1.652-11.934-1.85.758-1.65c.392-.873.303-2.164-1.377-3.134a7.251 7.251 0 0 0-1.356-.587 65.443 65.443 0 0 1-4.12-1.375 8.611 8.611 0 0 0-6.926.496l-2.077 1.209-8.76-5.058 2.08-1.205c1.339-.776 2.596-2.314.844-4.012a29.525 29.525 0 0 1-2.392-2.383 4.695 4.695 0 0 0-1.02-.785 8.815 8.815 0 0 0-5.418-.788l-2.841.451-3.23-6.91 2.843-.44c1.838-.291 4.248-1.25 4.191-3.228a17.434 17.434 0 0 1-.004-2.746 2.717 2.717 0 0 0-1.584-2.342 7.838 7.838 0 0 0-2.656-.882l-2.853-.444 3.16-6.902 2.857.443c1.838.284 4.758.148 6.406-1.568a30.105 30.105 0 0 1 2.368-2.387c1.732-1.697.459-3.235-.891-4.013l-2.09-1.208 8.697-5.057 2.096 1.212a8.634 8.634 0 0 0 6.922.5q2.019-.75 4.115-1.38c2.961-.961 3.182-2.654 2.682-3.723l-.77-1.644 11.912-1.853.768 1.652a3.648 3.648 0 0 0 1.527 1.53 7.883 7.883 0 0 0 4.059.906 90.706 90.706 0 0 1 4.746.007c3.406.023 5.063-1.379 5.543-2.447l.758-1.648 11.93 1.853-.75 1.644c-.399.875-.315 2.17 1.37 3.14a6.823 6.823 0 0 0 1.354.584c1.403.42 2.781.879 4.125 1.379a8.61 8.61 0 0 0 6.926-.504l2.076-1.208 8.756 5.057-2.08 1.208c-1.338.778-2.596 2.312-.838 4.016a30.262 30.262 0 0 1 2.387 2.384 4.82 4.82 0 0 0 1.015.78 8.775 8.775 0 0 0 5.422.784l2.846-.443 3.23 6.906-2.851.44c-1.834.292-4.244 1.255-4.184 3.228a18.451 18.451 0 0 1 .004 2.75 2.72 2.72 0 0 0 1.584 2.342 8.065 8.065 0 0 0 2.66.883l2.844.44-3.158 6.91-2.85-.452c-1.842-.28-4.761-.147-6.414 1.573a28.312 28.312 0 0 1-2.367 2.383c-1.732 1.698-.455 3.236.896 4.016Zm-58.397-10.29c8.816 5.092 23.076 5.084 31.84-.004 8.765-5.096 8.717-13.35-.104-18.442-8.818-5.092-23.076-5.096-31.841 0-8.76 5.091-8.72 13.354.105 18.446"></path><path fill="#ced2f4" d="m1073.413 470.141-.043 14.885-11.934-1.849.043-14.885 11.934 1.849z"></path><path fill="#e0e0eb" d="M1104.16 425.735c-12.42-7.168-32.484-7.172-44.825 0-5.874 3.413-8.93 7.839-9.184 12.313.242 4.527 3.348 9.024 9.33 12.476 12.416 7.164 32.484 7.16 44.816-.008 5.88-3.418 8.936-7.839 9.19-12.313-.238-4.528-3.348-9.013-9.326-12.468Zm-6.482 20.966c-8.699 5.05-22.861 5.054-31.615 0-4.148-2.395-6.338-5.493-6.578-8.627.25-3.099 2.402-6.152 6.47-8.513 8.708-5.061 22.866-5.057 31.624-.004 4.146 2.395 6.336 5.494 6.574 8.627-.25 3.096-2.402 6.145-6.475 8.517Z"></path><path fill="url(#C)" d="M1059.335 425.735c12.341-7.172 32.406-7.168 44.826 0 5.978 3.451 9.084 7.938 9.326 12.461.285-4.918-2.822-9.896-9.326-13.65-12.42-7.172-32.485-7.18-44.826 0-6.393 3.713-9.446 8.623-9.184 13.494.258-4.47 3.314-8.892 9.184-12.305Z"></path><path d="M669.454 1209.625a23.118 23.118 0 0 0-2.394-3.365c-3.252-3.233 4.244-8.637 7.626-10.588.065 0-9.859-5.733-9.859-5.733l-29.17.034a13.178 13.178 0 0 1-2.451-7.624l-13.998-.003c-.002 2.28-.936 7.382-4.799 9.609a7.907 7.907 0 0 1-2.826.975 66.005 66.005 0 0 0-5.826 1.394.787.787 0 0 1-.244-.043q-2.842-.811-5.807-1.392c-6.252-.944-7.535-7.825-7.521-10.582l-13.999-.002c-.001 2.277-.931 7.382-4.796 9.613a7.973 7.973 0 0 1-2.829.969 68.93 68.93 0 0 0-5.82 1.394c-6.449 1.39-14.887-2.426-18.25-4.379l-9.926 5.73c3.364 1.954 10.791 7.36 7.504 10.579a22.58 22.58 0 0 0-2.426 3.375 3.916 3.916 0 0 1-1.685 1.633c-3.863 2.228-12.672 2.752-16.625 2.752l-.025 8.103c4.761 0 16.64.766 18.24 4.385a21.565 21.565 0 0 0 2.392 3.369c3.25 3.227-4.244 8.63-7.627 10.588l9.862 5.732c.345-.199.767-.424 1.224-.666l-1.154.666 29.148.034a13.128 13.128 0 0 1 2.393 7.562l55.004.043c0-.006 13.707-7.617 13.707-7.617l18.014.017 9.927-5.73c-3.369-1.955-10.798-7.361-7.51-10.584a22.913 22.913 0 0 0 1.551-2.04l9.235.013 9.922-5.733c.007 0 .056-8.097.056-8.097-5.105.197-16.638-.768-18.238-4.391Z" style="mix-blend-mode:multiply" fill="url(#D)"></path><path fill="#f5f5fa" d="M544.892 1180.709c-.008-3.145-5.553-7.108-8.327-8.72l.065 23.644c2.773 1.609 8.322 5.568 8.326 8.72Z"></path><path fill="#b9bfe8" d="m633.737 1195.633-.068-23.645c-2.803 1.615-8.436 5.611-8.426 8.766l.067 23.644c-.008-3.156 5.62-7.144 8.427-8.765Z"></path><path fill="url(#E)" d="M567.579 1207.875c9.727-5.615 25.412-5.615 35.072-.002 4.795 2.785 7.196 6.432 7.21 10.088l-.071-23.645c-.016-3.65-2.412-7.3-7.209-10.088-9.658-5.609-25.346-5.609-35.066 0-4.887 2.82-7.327 6.526-7.315 10.22l.067 23.644c-.01-3.696 2.43-7.399 7.312-10.217Z"></path><path fill="#ccd2fa" d="m546.175 1222.506-9.862-5.733.071 23.643 9.861 5.732-.07-23.642z"></path><path fill="#b9bfe8" d="m633.485 1240.416-.062-23.643-9.934 5.733.069 23.642 9.927-5.732z"></path><path fill="url(#F)" d="M564.54 1241.764a65.768 65.768 0 0 0 5.809 1.394c6.171.928 7.496 7.652 7.505 10.479l-.068-23.645c-.01-2.826-1.336-9.547-7.502-10.475a67.706 67.706 0 0 1-5.812-1.394c-5.559-1.893-14.914 2.424-18.297 4.383l.07 23.642c3.381-1.959 12.734-6.281 18.295-4.384Z"></path><path fill="url(#G)" d="M596.677 1244.117a7.97 7.97 0 0 1 2.81-.957 69.349 69.349 0 0 0 5.81-1.39c5.593-1.903 14.9 2.42 18.26 4.378l-.068-23.642c-3.357-1.955-12.666-6.276-18.254-4.38a70.83 70.83 0 0 1-5.812 1.391 8.047 8.047 0 0 0-2.817.957c-3.808 2.204-4.615 7.231-4.832 9.625l.067 23.641c.219-2.392 1.023-7.424 4.836-9.623Z"></path><path fill="#f6f6fb" d="M543.94 1206.19c3.25 3.224-4.244 8.63-7.627 10.583l9.862 5.733c3.383-1.96 12.738-6.276 18.297-4.383a67.706 67.706 0 0 0 5.812 1.394c6.242.934 7.526 7.823 7.502 10.582h13.988c.217-2.394 1.024-7.421 4.832-9.625a8.047 8.047 0 0 1 2.817-.957 70.83 70.83 0 0 0 5.812-1.39c5.588-1.897 14.897 2.424 18.254 4.379l9.934-5.733c-3.37-1.95-10.803-7.359-7.516-10.584a23.197 23.197 0 0 0 2.432-3.37 3.916 3.916 0 0 1 1.685-1.634c3.856-2.23 12.668-2.755 16.6-2.748l.047-8.107c-5.108.201-16.639-.764-18.238-4.39a22.951 22.951 0 0 0-2.391-3.366c-3.252-3.23 4.244-8.633 7.627-10.586l-9.863-5.73c-3.383 1.95-12.743 6.275-18.293 4.38q-2.842-.808-5.807-1.392c-6.252-.943-7.535-7.826-7.521-10.58l-13.999-.008c-.001 2.285-.931 7.39-4.796 9.62a7.972 7.972 0 0 1-2.829.966c-1.98.389-3.931.85-5.82 1.395-6.449 1.39-14.887-2.43-18.25-4.381l-9.926 5.73c3.364 1.953 10.791 7.36 7.504 10.58a22.683 22.683 0 0 0-2.426 3.375 3.933 3.933 0 0 1-1.685 1.637c-3.863 2.225-12.672 2.75-16.625 2.75l-.025 8.107c4.761-.007 16.64.76 18.24 4.381a21.865 21.865 0 0 0 2.392 3.371Zm23.575-21.962c9.72-5.609 25.408-5.609 35.066 0 9.648 5.614 9.607 14.702-.113 20.317-9.71 5.607-25.408 5.601-35.059-.004-9.658-5.62-9.605-14.7.106-20.313Z"></path><path fill="#ccd2fa" d="M536.313 1216.773c3.383-1.953 10.877-7.359 7.627-10.584a21.865 21.865 0 0 1-2.392-3.37c-1.6-3.622-13.479-4.39-18.24-4.382l.07 23.637a59.181 59.181 0 0 1 12.951 1.395Z"></path><path fill="#b9bfe8" d="m591.841 1253.74-.067-23.641h-13.988l.068 23.645 13.987-.004z"></path><path fill="url(#H)" d="m646.692 1222.074-.068-23.637c-3.932-.007-12.744.518-16.6 2.748a3.916 3.916 0 0 0-1.685 1.633 23.197 23.197 0 0 1-2.432 3.371c-3.287 3.225 4.147 8.633 7.516 10.584l.017 6.793a58.283 58.283 0 0 1 13.252-1.492Z"></path><path style="mix-blend-mode:multiply" fill="url(#I)" d="M1351.741 927.061h-44.26l27.67 16.469-27.67 15.977h44.26l28.088-16.217-28.088-16.229z"></path><path fill="#423eaf" d="m1307.481 959.507 27.67-15.977v-32.439l-27.67 15.97v32.446z"></path><path fill="#5652cc" d="m1307.481 959.507-27.668-15.977v-32.439l27.668 15.97v32.446z"></path><path fill="#807dfb" d="m1307.481 927.061-27.668-15.97 27.668-15.969 27.67 15.969-27.67 15.97z"></path><path style="mix-blend-mode:multiply" fill="url(#J)" d="M489.463 962.897h-39.986l25 14.881-25 14.436h39.986l25.383-14.655-25.383-14.662z"></path><path fill="#b73251" d="m449.477 992.214 25-14.436v-29.312l-25 14.431v29.317z"></path><path fill="#ff5a72" d="m449.477 992.214-25.002-14.436v-29.312l25.002 14.431v29.317z"></path><path fill="#ffaf6d" d="m449.477 962.897-25.002-14.431 25.002-14.426 25 14.426-25 14.431z"></path><path style="mix-blend-mode:multiply" fill="url(#K)" d="M503.756 587.032H338.747l-14.993 11.546 1.057 11.549h138.947l39.998-23.095z"></path><path fill="#4141aa" d="M295.544 594c7.994 7.993 25.214 15.112 29.267 16.127 4.05-1.015 21.272-8.134 29.266-16.126a522.088 522.088 0 0 0-58.533 0Z"></path><path fill="url(#L)" d="M291.82 561.094v24.109c0 4.873 3.222 9.749 9.661 13.468 12.883 7.437 33.772 7.437 46.652 0 6.446-3.72 9.666-8.595 9.666-13.468v-24.109Z"></path><path fill="url(#M)" d="M359.774 573.368a2.065 2.065 0 0 0-1.041-1.656 13.093 13.093 0 0 0 1.09-5.192 2.152 2.152 0 0 0-1.97-1.915c-.987 0-.003 1.915-.003 1.915h-.457c0 4.756-3.295 9.28-9.283 12.739-12.834 7.407-33.717 7.407-46.55 0-5.987-3.458-9.286-7.979-9.286-12.739h-.506s.983-1.915-.004-1.915a2.067 2.067 0 0 0-1.922 1.915 13.031 13.031 0 0 0 1.086 5.171 2.07 2.07 0 0 0-1.086 1.677 13.053 13.053 0 0 0 1.082 5.164 2.085 2.085 0 0 0-1.082 1.68c0 5.66 3.729 10.931 10.5 14.841 13.506 7.796 35.477 7.796 48.983 0 6.77-3.91 10.498-9.182 10.498-14.841a2.236 2.236 0 0 0-1.09-1.652 12.268 12.268 0 0 0 1.041-5.192Zm-11.664 19.58c-12.834 7.406-33.717 7.406-46.55 0-5.624-3.246-8.872-7.432-9.249-11.87a23.825 23.825 0 0 0 8.031 7.132c13.506 7.796 35.477 7.796 48.983 0a23.812 23.812 0 0 0 8.031-7.131c-.375 4.435-3.625 8.623-9.246 11.869Zm0-6.845c-12.834 7.41-33.717 7.41-46.55 0-5.624-3.248-8.872-7.432-9.249-11.87a23.85 23.85 0 0 0 8.031 7.133c13.506 7.793 35.477 7.793 48.983 0a23.85 23.85 0 0 0 8.031-7.134c-.375 4.439-3.623 8.623-9.246 11.871Z"></path><path fill="url(#N)" d="M383.254 503.67a58.445 58.445 0 1 0-99.218 41.854c4.44 4.456 5.54 12.512 5.54 14.773 0 5.205 3.438 10.41 10.321 14.384 13.76 7.946 36.068 7.943 49.824 0 6.883-3.973 10.32-9.18 10.32-14.384 0-2.261 1.102-10.317 5.58-14.796a58.28 58.28 0 0 0 17.633-41.83Z"></path><path d="M299.897 545.914c13.76-7.945 36.064-7.945 49.824 0 13.764 7.944 13.764 20.822 0 28.767-13.756 7.943-36.064 7.946-49.824 0-13.762-7.945-13.762-20.825 0-28.767Z" style="mix-blend-mode:multiply" fill="url(#O)"></path><path fill="#fff" d="M278.167 508.687a5.017 5.017 0 0 1-5.018-5.016 51.721 51.721 0 0 1 51.662-51.663 5.017 5.017 0 1 1 0 10.033 41.675 41.675 0 0 0-41.627 41.63 5.017 5.017 0 0 1-5.017 5.016Z"></path><path d="M337.872 496.738a2.276 2.276 0 0 0-2.35.017c-1.613.933-2.81 3.975-3.586 7.845a5.738 5.738 0 0 0-2.092-3.227 2.26 2.26 0 0 0-2.345.015c-1.616.934-2.815 3.976-3.588 7.842a5.762 5.762 0 0 0-2.088-3.224 2.269 2.269 0 0 0-2.352.017c-1.61.93-2.81 3.972-3.586 7.841a5.756 5.756 0 0 0-2.09-3.227 2.265 2.265 0 0 0-2.345.018c-3.035 1.753-4.623 10.945-4.623 19.121 0 8.326 1.984 10.785 3.9 13.163 2.027 2.515 4.125 5.112 4.125 16.225a1.216 1.216 0 0 0 2.432 0c0-11.967-2.477-15.041-4.662-17.75-1.803-2.239-3.364-4.171-3.364-11.638 0-9.265 1.96-16.099 3.38-16.992.782.52 2.214 4.617 2.214 12.36a1.216 1.216 0 0 0 2.432 0c0-9.265 1.955-16.1 3.375-16.995.787.524 2.219 4.621 2.219 12.362a1.216 1.216 0 0 0 2.431 0c0-9.267 1.957-16.101 3.375-16.993.785.52 2.217 4.617 2.217 12.36a1.217 1.217 0 0 0 2.434 0c0-9.266 1.955-16.1 3.373-16.994.787.523 2.218 4.622 2.218 12.36 0 7.69-1.728 11.88-3.564 16.316-2.09 5.056-4.461 10.788-4.461 22.338a1.217 1.217 0 0 0 2.434 0c0-11.068 2.171-16.326 4.275-21.412 1.924-4.662 3.748-9.07 3.748-17.242 0-6.04-.918-13.02-3.486-14.506Z" style="mix-blend-mode:screen" fill="url(#P)"></path><path fill="#ffc16b" d="M324.092 436.332a2.508 2.508 0 0 1-2.508-2.509v-29.817a2.508 2.508 0 1 1 5.016 0v29.817a2.508 2.508 0 0 1-2.508 2.509ZM357.555 444.87a2.508 2.508 0 0 1-2.199-3.71l10.002-18.33a2.508 2.508 0 1 1 4.402 2.403l-10.002 18.33a2.505 2.505 0 0 1-2.203 1.307ZM290.631 444.87a2.506 2.506 0 0 1-2.203-1.307l-10.006-18.329a2.508 2.508 0 1 1 4.403-2.404l10.006 18.329a2.509 2.509 0 0 1-2.2 3.71Z"></path><path d="M599.13 822.391c-.002-30.115 19.897-60.232 59.696-83.21 79.597-45.954 208.652-45.954 288.25.001 39.797 22.979 59.697 53.094 59.697 83.21.002 30.114-19.898 60.232-59.697 83.21-79.596 45.955-208.653 45.953-288.248-.002-39.797-22.978-59.696-53.094-59.698-83.209Z" style="mix-blend-mode:multiply" fill="url(#Q)"></path><path fill="url(#R)" d="M903.503 878.989c-79.596 45.955-208.653 45.953-288.249-.002-39.796-22.978-59.695-53.094-59.697-83.209v26.615c.002 30.116 19.9 60.23 59.697 83.207 79.596 45.955 208.653 45.957 288.249.002 39.798-22.976 59.699-53.093 59.697-83.209v-26.615c.002 30.115-19.899 60.232-59.697 83.211Z"></path><path fill="#f6f6fb" d="M555.557 795.778c-.002-30.115 19.897-60.232 59.696-83.211 79.597-45.953 208.652-45.953 288.25.002 39.796 22.979 59.697 53.094 59.697 83.209.002 30.115-19.899 60.232-59.697 83.211-79.596 45.955-208.653 45.953-288.249-.002-39.796-22.978-59.695-53.094-59.697-83.209Z"></path><path d="M963.2 795.778c0-30.115-19.9-60.23-59.697-83.209-17.243-9.953-36.809-17.744-57.686-23.385L763.6 863.628c62.246 0 127.262-3.895 177.153-14.112 14.957-16.816 22.449-35.277 22.447-53.738Z" style="mix-blend-mode:multiply" fill="url(#S)"></path><path fill="url(#c)" d="M885.247 775.456c-6.274-37.727-24.116-141.29-24.116-141.29.036 11.569-101.837 60.678-157.525 28.524-34.41-19.865-53.758-43.741-55.17-63.95v128.364l.068.018c-1.431 9.56 2.723 11.502-1.472 23.414-10.838 10.406-16.881 22.002-18.154 33.746l-.028.043.022.012a43.262 43.262 0 0 0-.282 4.658c.004 19.119 12.639 38.238 37.903 52.824 50.537 29.178 132.47 29.178 183.008 0 25.267-14.586 37.9-33.709 37.9-52.83a44.545 44.545 0 0 0-2.154-13.533Z"></path><path d="M874.678 713.11c-6.713-39.215-13.547-78.944-13.547-78.944.036 11.585-101.837 60.678-157.525 28.524-26.853-15.494-44.377-33.412-51.521-50.144l-3.649.343v69.7l111.1 95.175c57.562-64.654 86.517-20.793 115.142-64.654Z" style="mix-blend-mode:multiply" fill="url(#T)"></path><path fill="url(#U)" d="M564.69 598.74c0-34.787 6.393-67.572 17.686-96.356 25.853-65.89 247.195-66.289 273.156-.877 11.508 28.994 18.027 62.091 18.027 97.233 0 52.331-54.396 83.987-78.254 120.464-28.299 43.275-29.883 86.724-76.172 86.724-85.295 0-154.443-92.765-154.443-207.188Z"></path><path d="M828.78 474.693c-9.842-.505-20.328 2.903-31.236 12.225-56.739 48.474 18.177 150.382-20.383 193.348-38.283 42.657-44.016 118.914-67.34 125.026.123.008.246.123.369.281 2.961.228 5.941.355 8.943.355 46.29 0 47.873-43.449 76.172-86.724 23.858-36.477 78.254-68.133 78.254-120.464 0-35.142-6.52-68.24-18.027-97.233-4.248-10.705-13.752-19.634-26.752-26.814Z" style="mix-blend-mode:multiply" fill="url(#V)"></path><path fill="url(#W)" d="M728.9 638.277c-41.446 1.551-83.79-6.822-115.464-25.113-29.174-16.84-40.857-38.924-43.784-61.008v-.031l-.52.008a267.777 267.777 0 0 0-1.394 84.309c4.435 18.367 18.707 36.097 43.177 50.223 20.373 11.761 45.068 19.518 71.115 23.266 50.403 7.248 74.716-23.718 77.846-46.341.855-6.213 3.96-26.632-30.977-25.313Z"></path><path d="M666.677 653.774c4.998-10.117 16.095-12.616 24.92-5.604 8.847 7.045 11.908 20.925 6.98 31.021-4.954 10.086-16.098 12.605-24.922 5.581-8.868-7.012-11.909-20.912-6.978-30.998Z" style="mix-blend-mode:color-dodge" fill="url(#X)"></path><path d="M566.477 598.925c3.467-9.634 11.572-11.11 18.234-3.297 6.665 7.81 9.207 21.936 5.72 31.595-3.444 9.645-11.573 11.12-18.258 3.32-6.597-7.822-9.163-21.948-5.696-31.618Z" style="mix-blend-mode:color-dodge" fill="url(#Y)"></path><path d="M759.876 663.59c.855-6.213 3.96-26.632-30.977-25.313a253.623 253.623 0 0 1-54.209-4.064c-28.815 13.45-43.919 41.996-44.211 61.862a217.957 217.957 0 0 0 51.55 13.856c50.404 7.248 74.717-23.718 77.847-46.341Z" style="mix-blend-mode:multiply" fill="url(#Z)"></path><path d="M582.033 585.068a75.78 75.78 0 0 1-12.381-32.912v-.031l-.52.008a267.777 267.777 0 0 0-1.394 84.309c2.702 11.187 9.523 22.026 19.608 32.067-7.856-22.445-13.642-50.988-5.313-83.441Z" style="mix-blend-mode:screen" fill="#362e94"></path><path fill="#f6f6fb" d="M578.83 520.564c0-20.739 13.702-41.477 41.108-57.3 54.815-31.65 143.69-31.65 198.508 0 27.404 15.823 41.105 36.561 41.105 57.3.004 20.74-13.7 41.482-41.105 57.306-54.818 31.645-143.693 31.645-198.51-.002-27.406-15.824-41.105-36.564-41.105-57.304Z"></path><path fill="url(#aa)" d="M589.99 520.564c0-19.09 12.612-38.179 37.84-52.744 50.458-29.132 132.264-29.132 182.721 0 25.227 14.565 37.838 33.654 37.838 52.743.002 19.092-12.611 38.184-37.838 52.75-50.457 29.129-132.263 29.129-182.722-.002-25.229-14.565-37.838-33.656-37.838-52.747Z"></path><path fill="#20196f" d="M834.657 860.038a12.3 12.3 0 0 1 11.138 0c3.079 1.775 3.079 4.654 0 6.43a12.313 12.313 0 0 1-11.138 0c-3.076-1.776-3.076-4.655 0-6.43ZM809.631 824.663a13.797 13.797 0 0 1 6.237-10.803c3.443-1.986 6.236-.375 6.236 3.602a13.78 13.78 0 0 1-6.236 10.8c-3.444 1.99-6.237.377-6.237-3.6Z"></path><path fill="url(#ab)" d="M840.225 866.253a3 3 0 0 1-3-3l-.002-26.395-22.855-13.197a3 3 0 1 1 3-5.195l24.355 14.062a2.999 2.999 0 0 1 1.5 2.598l.002 28.127a3 3 0 0 1-3 3Z"></path><path fill="#20196f" d="M855.979 847.727a12.302 12.302 0 0 1 11.139 0c3.078 1.776 3.078 4.655 0 6.428a12.3 12.3 0 0 1-11.139 0c-3.076-1.773-3.076-4.652 0-6.428ZM830.954 812.35a13.794 13.794 0 0 1 6.236-10.8c3.443-1.987 6.234-.375 6.234 3.601a13.777 13.777 0 0 1-6.234 10.8c-3.445 1.99-6.236.378-6.236-3.6Z"></path><path fill="url(#ac)" d="M861.547 853.942a3 3 0 0 1-3-3l-.002-26.394-22.855-13.198a3 3 0 1 1 3-5.195l24.355 14.062a2.999 2.999 0 0 1 1.5 2.598l.002 28.127a3 3 0 0 1-3 3Z"></path><path d="M700.827 531.169a1.454 1.454 0 0 0-1.987-.533l-72.425 41.816c.476.284.927.578 1.414.86.488.281 1 .543 1.494.82l70.972-40.976a1.454 1.454 0 0 0 .532-1.987Zm119.943-32.196-28.557 16.487a10.682 10.682 0 0 0-8.91.379 3.94 3.94 0 0 0 0 7.285 10.588 10.588 0 0 0 9.71 0 4.325 4.325 0 0 0 2.435-3.642 3.635 3.635 0 0 0-.719-2.115l27.158-15.679h22.287a53.328 53.328 0 0 0-1.412-2.909h-21.265a1.456 1.456 0 0 0-.727.194Zm-29.213 21.631a7.641 7.641 0 0 1-6.8 0c-.606-.35-.983-.78-.983-1.122 0-.344.377-.773.982-1.123a7.644 7.644 0 0 1 6.801 0c.608.35.983.78.983 1.122 0 .344-.375.774-.983 1.123Zm-36.008-19.456a1.455 1.455 0 1 0 1.455 2.52l30.4-17.553a10.687 10.687 0 0 0 8.913-.379 3.942 3.942 0 0 0 0-7.285 10.592 10.592 0 0 0-9.711 0 4.335 4.335 0 0 0-2.437 3.643 3.646 3.646 0 0 0 .72 2.115Zm32.512-20.177a7.644 7.644 0 0 1 6.8 0c.606.35.981.78.981 1.122 0 .344-.375.775-.98 1.124a7.646 7.646 0 0 1-6.801 0c-.605-.35-.982-.78-.982-1.123 0-.343.377-.773.982-1.123Zm-59.713 19.995a1.453 1.453 0 0 0 1.987.532l35.183-20.315a1.452 1.452 0 0 0 .729-1.26v-28.83q-1.45-.327-2.91-.633v28.624l-34.458 19.894a1.454 1.454 0 0 0-.53 1.988Zm-7.385-8.838 35.184-20.315a1.452 1.452 0 0 0 .729-1.26v-8.91a1.452 1.452 0 0 0-.729-1.26l-24.342-14.054q-3.135-.178-6.279-.267l28.44 16.421v7.23l-34.458 19.895a1.455 1.455 0 0 0 1.455 2.52Zm62.563 52.324 22.959-13.256a10.681 10.681 0 0 0 8.91-.379 3.942 3.942 0 0 0 0-7.285 10.59 10.59 0 0 0-9.709-.001 4.334 4.334 0 0 0-2.44 3.644 3.636 3.636 0 0 0 .723 2.115l-21.17 12.222-54.591-31.518a1.455 1.455 0 1 0-1.455 2.52l55.318 31.938a1.456 1.456 0 0 0 1.455 0Zm23.613-18.4a7.644 7.644 0 0 1 6.801 0c.607.35.982.78.982 1.123 0 .343-.375.774-.982 1.124a7.648 7.648 0 0 1-6.8 0c-.606-.35-.983-.78-.983-1.124 0-.342.377-.773.982-1.123Zm-17.797-23.224a1.453 1.453 0 0 0 1.987.532l37.896-21.88c-.736-.69-1.465-1.384-2.244-2.063l-37.107 21.424a1.454 1.454 0 0 0-.532 1.987Zm-66.144 79.73a10.591 10.591 0 0 0-9.711 0 5.013 5.013 0 0 0-1.992 2.019q-6.484-.253-12.81-.936l13.167-7.602a1.455 1.455 0 1 0-1.455-2.52l-16.51 9.533a162.623 162.623 0 0 1-38.668-9.828l56.006-32.34a1.455 1.455 0 0 0-1.455-2.52l-58.619 33.849a1.455 1.455 0 0 0 .158 2.598 163.192 163.192 0 0 0 42.397 11.163 1.457 1.457 0 0 0 .287.04 194.024 194.024 0 0 0 17.334 1.466 4.851 4.851 0 0 0 2.16 2.362 10.591 10.591 0 0 0 9.71 0 3.942 3.942 0 0 0 0-7.285Zm-1.455 4.765a7.648 7.648 0 0 1-6.801 0c-.607-.35-.984-.78-.984-1.122 0-.344.377-.775.984-1.123a7.638 7.638 0 0 1 6.8-.001c.606.35.981.78.981 1.123 0 .344-.375.773-.98 1.123Zm68.152-18.583a10.69 10.69 0 0 0-8.912-.379l-50.535-29.177a1.455 1.455 0 0 0-1.455 2.52l26.236 15.147v9.181a9.207 9.207 0 0 0-3.4 1.079 3.94 3.94 0 0 0 0 7.285 10.593 10.593 0 0 0 9.71 0 3.942 3.942 0 0 0 0-7.285 9.187 9.187 0 0 0-3.4-1.079v-7.501l20.328 11.738a3.647 3.647 0 0 0-.72 2.115 4.33 4.33 0 0 0 2.437 3.642 10.59 10.59 0 0 0 9.711 0 3.942 3.942 0 0 0 0-7.286Zm-29.81.89c.605.351.98.78.98 1.124 0 .343-.375.774-.98 1.124a7.646 7.646 0 0 1-6.801 0c-.606-.351-.983-.782-.983-1.123 0-.344.377-.774.983-1.123a6.975 6.975 0 0 1 3.377-.798c.008 0 .015.005.023.005s.016-.005.024-.005a6.981 6.981 0 0 1 3.377.797Zm28.355 3.877a7.648 7.648 0 0 1-6.8 0c-.606-.351-.983-.782-.983-1.123 0-.344.377-.774.982-1.124a7.644 7.644 0 0 1 6.801 0c.605.35.98.78.98 1.123 0 .344-.375.774-.98 1.124Zm-153.102-25.588h14.676a1.46 1.46 0 0 0 .729-.195l38.068-21.98a1.454 1.454 0 1 0-1.453-2.519l-37.732 21.784h-13.897l-16.469-9.508a3.639 3.639 0 0 0 .719-2.113 4.328 4.328 0 0 0-2.435-3.643 10.593 10.593 0 0 0-9.711 0 3.94 3.94 0 0 0 0 7.285 10.685 10.685 0 0 0 8.912.379l17.865 10.315a1.46 1.46 0 0 0 .728.195Zm-19.25-13.409a7.646 7.646 0 0 1-6.8 0c-.606-.35-.983-.78-.983-1.122 0-.343.377-.774.983-1.124a7.641 7.641 0 0 1 6.8 0c.606.35.981.78.981 1.123 0 .344-.375.774-.98 1.123Zm124.086-4.205a1.454 1.454 0 1 0-1.453 2.52l37.787 21.816a1.448 1.448 0 0 0 .727.196h56.734a69.407 69.407 0 0 0 2.487-2.91h-58.83Zm-93.459-17.166h27.903a1.455 1.455 0 0 0 0-2.91h-27.512l-42.28-24.409c-.675.741-1.298 1.494-1.929 2.245l43.09 24.879a1.46 1.46 0 0 0 .728.195Zm23.239-38.123a4.329 4.329 0 0 0 2.44 3.643 10.587 10.587 0 0 0 9.708 0 3.942 3.942 0 0 0 0-7.286 10.69 10.69 0 0 0-8.912-.38l-23.223-13.406q-1.766.648-3.506 1.334l24.215 13.981a3.635 3.635 0 0 0-.722 2.114Zm3.892-1.123a7.644 7.644 0 0 1 6.801 0c.607.35.982.78.982 1.122 0 .345-.375.775-.982 1.124a7.648 7.648 0 0 1-6.8 0c-.606-.35-.983-.78-.983-1.123 0-.342.377-.773.982-1.123Zm26.377 11.109a1.455 1.455 0 0 0 2.91 0v-17.268a1.453 1.453 0 0 0-.728-1.26L674.77 450.52c-1.414.298-2.826.594-4.225.92l29.678 17.135Zm-61.328 5.515h27.838l25.45 14.695a1.455 1.455 0 0 0 1.454-2.52l-55.32-31.938a1.454 1.454 0 1 0-1.453 2.52l24.828 14.334h-22.406l-22.13-12.777c-.853.632-1.708 1.262-2.519 1.906l23.532 13.586a1.455 1.455 0 0 0 .726.194Zm51.346 69.813a1.452 1.452 0 0 0 .726 1.26l9.246 5.337a1.455 1.455 0 0 0 1.456-2.519l-7.065-4.078 25.315-14.614a1.455 1.455 0 0 0-1.456-2.52l-27.496 15.874a1.45 1.45 0 0 0-.726 1.26Z" style="mix-blend-mode:screen" fill="url(#ad)"></path><path style="mix-blend-mode:multiply" fill="url(#ae)" d="M752.534 489.061H719.19l54.566 31.504-54.566 31.504h33.344l54.566-31.504-54.566-31.504z"></path><path fill="#ced3f8" d="m664.626 501.314 54.564 31.504v19.251l-54.564-31.504v-19.251z"></path><path fill="#bbc0e6" d="m719.19 532.818 54.566-31.504v19.251l-54.566 31.504v-19.251z"></path><path fill="#f6f6fb" d="m719.19 467.999 51.688 29.84-51.688 29.841-51.686-29.841 51.686-29.84z"></path><path fill="#a5abcc" d="m744.174 524.371 4.598-2.654v13.273l-4.598 2.653v-13.272zM756.333 517.351l4.597-2.654v13.274l-4.597 2.655v-13.275zM732.014 531.39l4.6-2.655v13.274l-4.6 2.654V531.39z"></path><path fill="#bbc0e6" d="m694.208 524.371-4.598-2.654v13.273l4.598 2.653v-13.272zM682.049 517.351l-4.599-2.654v13.274l4.599 2.655v-13.275zM706.366 531.39l-4.6-2.655v13.274l4.6 2.654V531.39z"></path><path fill="#e8ecf7" d="m664.626 501.314 2.878-3.475 51.686 29.841v5.138l-54.564-31.504z"></path><path fill="#ced3f8" d="M719.19 527.68v5.138l54.566-31.504-2.878-3.475-51.688 29.841z"></path><path d="m1190.315 1008.522-26.793-15.469a9.892 9.892 0 0 1 3.535 7.34h.008v17.942h-.006c-.049 3.478-2.348 6.949-6.92 9.586l-147.408 85.105c-4.578 2.643-10.603 3.973-16.639 3.998v.004h30.707v-.02a33.99 33.99 0 0 0 16.106-3.982l147.41-85.105c9.238-5.334 9.238-14.063 0-19.399Z" style="mix-blend-mode:multiply" fill="url(#af)"></path><path fill="url(#ag)" d="m1160.14 1009.964-147.409 85.105c-9.238 5.334-24.36 5.334-33.598 0l-85.673-49.463c-4.58-2.644-6.885-6.123-6.922-9.611h-.004v17.941h.002c.029 3.494 2.336 6.979 6.924 9.627l85.673 49.463c9.239 5.336 24.36 5.336 33.598 0l147.408-85.105c4.572-2.637 6.871-6.108 6.92-9.586h.006v-17.942h-.008c-.054 3.475-2.353 6.936-6.918 9.57Z"></path><path fill="#f6f6fb" d="M1160.14 990.565c9.24 5.334 9.24 14.063 0 19.399l-147.409 85.105c-9.238 5.334-24.36 5.334-33.598 0l-85.673-49.463c-9.239-5.334-9.239-14.064 0-19.398l147.408-85.106c9.238-5.334 24.36-5.334 33.597 0Z"></path><path d="m1160.14 990.565-31.221-18.025h-27.166l15.55 8.978-153.34 88.819h91.606l104.57-60.373c9.24-5.336 9.24-14.065 0-19.399Z" style="mix-blend-mode:multiply" fill="url(#ah)"></path><path fill="#bbbfe2" d="m948.415 923.075 15.548 8.98v138.282l-15.548-8.979V923.075z"></path><path fill="#939cca" d="m963.963 899.253 153.34-88.819v171.084l-153.34 88.819V899.253z"></path><path fill="#f6f6fb" d="M1098.817 720.096a13.486 13.486 0 0 0-17.057-3.498L902.75 819.95a10.105 10.105 0 0 0-3.103 15.137L999.854 968.89a13.486 13.486 0 0 0 17.055 3.496L1195.92 869.04a10.104 10.104 0 0 0 3.102-15.135Z"></path><path fill="url(#ai)" d="M1016.909 972.387a13.486 13.486 0 0 1-17.055-3.496L899.647 835.087a10.058 10.058 0 0 1 .31-12.844l-12.677 14.984h.002a10.051 10.051 0 0 0-.477 13.035L987.01 984.067a13.485 13.485 0 0 0 17.057 3.498l179.01-103.35a10.828 10.828 0 0 0 3.3-2.92h.004l12.07-14.263a10.99 10.99 0 0 1-2.53 2.008Z"></path><path fill="url(#aj)" d="M1009.436 965.764q-50.768-67.796-101.539-135.588l181.191-107.14 102.416 136.756-182.068 105.972Z"></path><g opacity=".2"><path fill="#eb975a" d="M1087.85 821.956c-16.701-22.672-48.408-43.717-76.885-28.7 3.43 4.585 5.213 6.963 8.864 11.836 21.799-11.23 46.123 5.297 58.847 22.504 8.424 11.389 12.98 23.614 13.096 33.922 5.275 1.99 7.9 2.963 13.102 4.854.078-13.293-5.944-29.377-17.024-44.416Z"></path><path fill="#696adf" d="M1021.163 862.956c-16.909-22.58-17.221-48.104-1.334-57.864-3.65-4.873-5.434-7.251-8.864-11.835-26.591 17.851-14.603 54.82 1.022 75.34 14.746 19.363 38.781 36.617 64.635 32.486a837.563 837.563 0 0 0-5.86-12.7c-15.515 2.819-35.586-6.716-49.6-25.427Z"></path><path fill="#bbbfe2" d="M1104.874 866.372a959.593 959.593 0 0 1-13.102-4.854c.113 10.303-4.021 18.797-12.027 23.584a26.692 26.692 0 0 1-8.983 3.282c2.45 5.22 3.631 7.771 5.86 12.699a37.305 37.305 0 0 0 11.789-4.407c10.597-6.269 16.388-17.017 16.463-30.304Z"></path></g><path fill="#f5f5f9" d="m946.434 826.137-20.926 12.659c-1.207-1.616-1.804-2.41-2.986-3.987l20.965-12.607c1.166 1.553 1.754 2.344 2.947 3.935ZM952.788 834.62l-20.868 12.742c-1.253-1.676-1.875-2.51-3.107-4.152 8.357-5.086 12.535-7.623 20.893-12.703 1.22 1.628 1.836 2.455 3.082 4.113ZM948.967 849.819c-4.164 2.559-6.25 3.838-10.412 6.4a2923.199 2923.199 0 0 1-3.207-4.285c4.168-2.554 6.252-3.83 10.42-6.388 1.27 1.697 1.91 2.554 3.2 4.273Z"></path><path fill="#7e7ef1" d="M1062.81 787.214a1.293 1.293 0 0 1-1.292-1.284c-.021-6.017-.004-9.029.145-15l.017-.705 24.518-14.998a1.292 1.292 0 1 1 1.346 2.205l-23.317 14.264c-.13 5.486-.148 8.475-.125 14.223a1.288 1.288 0 0 1-1.289 1.295ZM1131.29 863.444l-.569-.201a767.82 767.82 0 0 1-15.55-5.596 1.29 1.29 0 1 1 .89-2.422c6.072 2.24 9.18 3.366 14.945 5.381l23.602-14.053a1.292 1.292 0 0 1 1.32 2.221ZM1012.014 934.241a1.292 1.292 0 0 1-.658-2.402l23.52-14.002c.224-5.407.289-8.325.357-13.897a1.29 1.29 0 0 1 1.291-1.277h.016a1.295 1.295 0 0 1 1.275 1.306c-.07 5.834-.139 8.78-.389 14.678l-.029.694-24.719 14.718a1.28 1.28 0 0 1-.664.182Z"></path><path fill="#eb975a" d="M1091.94 812.571c-16.701-22.672-48.412-43.713-76.889-28.695l8.864 11.836c21.8-11.233 46.123 5.293 58.85 22.5 8.421 11.388 12.982 23.619 13.093 33.927 5.275 1.985 7.9 2.961 13.105 4.852.075-13.297-5.945-29.379-17.023-44.42Z"></path><path fill="#696adf" d="M1025.249 853.575c-16.909-22.58-17.221-48.108-1.334-57.863l-8.864-11.836c-26.591 17.847-14.603 54.816 1.024 75.336 14.746 19.367 38.779 36.617 64.635 32.486a858.67 858.67 0 0 0-5.862-12.7c-15.512 2.825-35.586-6.716-49.6-25.423Z"></path><path fill="#f0f0f4" d="M1108.963 856.991a1027.91 1027.91 0 0 1-13.105-4.852c.113 10.297-4.02 18.791-12.027 23.58a26.67 26.67 0 0 1-8.983 3.28 858.67 858.67 0 0 1 5.862 12.699 37.234 37.234 0 0 0 11.79-4.406c10.596-6.27 16.387-17.018 16.463-30.301Z"></path><path fill="#362e93" d="m1191.504 859.792-182.068 105.972q-50.768-67.796-101.539-135.588 90.6-53.566 181.191-107.14 51.209 68.382 102.416 136.756Z"></path><path fill="#dae0f5" d="M1104.182 743.19q-90.63 53.528-181.254 107.059c-6.386-8.53-9.445-12.614-15.031-20.073q90.6-53.566 181.191-107.14c5.588 7.459 8.66 11.562 15.094 20.154Z"></path><path fill="#fff" d="M922.686 830.64c7.096-4.196 10.725-6.34 18.09-10.696 1.967 2.629 2.977 3.973 5.031 6.72-7.369 4.356-10.998 6.497-18.094 10.692-2.052-2.748-3.062-4.092-5.027-6.717Z"></path><path fill="#807cfb" d="M1131.178 842.827c-2.082 1.215-3.127 1.826-5.226 3.049-1.66-2.194-2.498-3.291-4.182-5.516 2.098-1.228 3.147-1.842 5.229-3.057 1.683 2.227 2.52 3.33 4.18 5.524ZM1140.903 837.147c-2.045 1.197-3.072 1.795-5.139 3-1.66-2.193-2.494-3.299-4.178-5.527 2.067-1.205 3.094-1.807 5.143-3 1.682 2.226 2.516 3.334 4.174 5.527ZM1150.448 831.579l-5.037 2.94c-1.66-2.198-2.496-3.305-4.178-5.536 2.03-1.185 3.037-1.77 5.043-2.943l4.172 5.539Z"></path><path d="M980.208 845.592a1.054 1.054 0 0 0-.51.96 1.8 1.8 0 0 0 1.379 1.652l9.318 1.941-2.037 8.555a1.716 1.716 0 0 0 1.047 1.844 1.283 1.283 0 0 0 1.176-.018.997.997 0 0 0 .476-.654l2.404-10.153a1.479 1.479 0 0 0-.265-1.205 1.75 1.75 0 0 0-1.08-.734l-11.043-2.299a1.169 1.169 0 0 0-.865.111ZM964.06 855a1.014 1.014 0 0 0-.484.676l-2.416 10.136a1.559 1.559 0 0 0 .279 1.201 1.78 1.78 0 0 0 1.066.74l11.065 2.305a1.179 1.179 0 0 0 .85-.115 1.065 1.065 0 0 0 .515-.969 1.8 1.8 0 0 0-1.377-1.652l-9.318-1.94 2.035-8.556a1.73 1.73 0 0 0-1.047-1.844 1.274 1.274 0 0 0-1.168.018Zm7.531-10.936a1.168 1.168 0 0 0-.406 1.502l9.729 24.922a1.714 1.714 0 0 0 1.804 1.115 1.075 1.075 0 0 0 .313-.12 1.2 1.2 0 0 0 .418-1.522l-9.717-24.907a1.716 1.716 0 0 0-1.809-1.115 1.024 1.024 0 0 0-.332.125ZM1043.028 872.522a1.053 1.053 0 0 0-.51.96 1.8 1.8 0 0 0 1.379 1.652l9.318 1.941-2.037 8.555a1.717 1.717 0 0 0 1.047 1.843 1.283 1.283 0 0 0 1.176-.017.998.998 0 0 0 .477-.655l2.404-10.152a1.48 1.48 0 0 0-.266-1.205 1.752 1.752 0 0 0-1.08-.734l-11.043-2.3a1.17 1.17 0 0 0-.865.112Zm-16.147 9.406a1.016 1.016 0 0 0-.484.676l-2.416 10.137a1.56 1.56 0 0 0 .28 1.201 1.781 1.781 0 0 0 1.066.74l11.064 2.305a1.178 1.178 0 0 0 .85-.115 1.066 1.066 0 0 0 .515-.969 1.8 1.8 0 0 0-1.377-1.652l-9.318-1.94 2.035-8.556a1.73 1.73 0 0 0-1.047-1.844 1.274 1.274 0 0 0-1.168.017Zm7.532-10.935a1.168 1.168 0 0 0-.407 1.502l9.729 24.922a1.714 1.714 0 0 0 1.805 1.115 1.072 1.072 0 0 0 .312-.121 1.199 1.199 0 0 0 .418-1.522l-9.717-24.906a1.716 1.716 0 0 0-1.808-1.115 1.032 1.032 0 0 0-.332.125Z" style="mix-blend-mode:screen" fill="#131147"></path><g style="mix-blend-mode:screen"><path fill="url(#d)" d="M1096.112 808.9c-17.24 10.146-56.379 33.302-73.617 43.45-.621-.824-3.233-4.459-3.752-4.978 17.226-10.158 56.361-33.309 73.586-43.469l3.783 4.996Z"></path><path fill="url(#ak)" d="M1118.93 854.512c-17.24 10.147-27.224 16.084-44.463 26.233-.62-.824-3.232-4.46-3.752-4.979 17.227-10.158 27.207-16.09 44.432-26.25l3.783 4.996Z"></path><path fill="url(#al)" d="M1127.096 865.419c-17.24 10.146-27.224 16.084-44.463 26.232-.62-.824-3.232-4.459-3.752-4.978 17.227-10.159 27.207-16.09 44.432-26.25l3.783 4.996Z"></path><path fill="url(#am)" d="M1089.926 773.866c-10.894 6.426-36.125 21.338-57.56 34.004l3.742 4.996c21.445-12.666 46.693-27.584 57.602-34.004l-3.784-4.996Zm-87.515 51.693c.52.52 3.13 4.155 3.752 4.979 5.002-2.946 13.027-7.682 22.312-13.164l-3.742-4.994c-9.289 5.486-17.32 10.23-22.322 13.18Z"></path><path fill="url(#an)" d="M1010.577 836.466c.52.519 3.13 4.154 3.752 4.978 8.185-4.818 24.447-14.424 41.119-24.271l-3.744-4.998c-16.674 9.851-32.944 19.464-41.127 24.29Zm87.515-51.694a78701.548 78701.548 0 0 0-38.756 22.893l3.745 5c15.841-9.358 30.99-18.303 38.795-22.897-.612-.806-3.131-4.134-3.784-4.996Z"></path><path fill="url(#ao)" d="M1113.28 819.163c-9.53 5.62-21.268 12.562-32.774 19.361l3.745 4.998c11.515-6.803 23.267-13.746 32.812-19.363l-3.783-4.996Zm-58.897 34.79c.52.52 3.131 4.155 3.752 4.98 5.569-3.278 11.893-7.01 18.48-10.901l-3.741-4.996c-6.592 3.894-12.92 7.633-18.49 10.918Z"></path><path fill="url(#ap)" d="M1121.446 830.069c-6.135 3.62-13.192 7.79-20.508 12.111l3.746 5.002c7.328-4.326 14.397-8.5 20.545-12.117l-3.783-4.996Zm-58.897 34.791c.52.52 3.131 4.154 3.752 4.979 8.975-5.284 19.9-11.739 30.748-18.147l-3.742-5c-10.851 6.414-21.783 12.877-30.758 18.168Z"></path></g><path fill="#807dfb" d="M980.208 842.253a1.054 1.054 0 0 0-.51.959 1.8 1.8 0 0 0 1.379 1.652l9.318 1.941-2.037 8.555a1.716 1.716 0 0 0 1.047 1.844 1.283 1.283 0 0 0 1.176-.018.998.998 0 0 0 .476-.654l2.404-10.152a1.479 1.479 0 0 0-.265-1.205 1.75 1.75 0 0 0-1.08-.735l-11.043-2.299a1.169 1.169 0 0 0-.865.112Zm-16.147 9.406a1.015 1.015 0 0 0-.484.676l-2.416 10.136a1.559 1.559 0 0 0 .279 1.202 1.78 1.78 0 0 0 1.066.74l11.065 2.304a1.178 1.178 0 0 0 .85-.115 1.065 1.065 0 0 0 .515-.968 1.8 1.8 0 0 0-1.377-1.653l-9.318-1.94 2.035-8.556a1.73 1.73 0 0 0-1.047-1.844 1.274 1.274 0 0 0-1.168.018Zm7.531-10.936a1.168 1.168 0 0 0-.406 1.502l9.729 24.922a1.714 1.714 0 0 0 1.804 1.115 1.075 1.075 0 0 0 .313-.12 1.2 1.2 0 0 0 .418-1.522l-9.717-24.906a1.716 1.716 0 0 0-1.809-1.116 1.024 1.024 0 0 0-.332.125ZM1043.028 869.182a1.053 1.053 0 0 0-.51.96 1.8 1.8 0 0 0 1.379 1.652l9.318 1.941-2.037 8.555a1.717 1.717 0 0 0 1.047 1.844 1.284 1.284 0 0 0 1.176-.018.998.998 0 0 0 .477-.654l2.404-10.153a1.48 1.48 0 0 0-.266-1.205 1.751 1.751 0 0 0-1.08-.734l-11.043-2.299a1.169 1.169 0 0 0-.865.111Zm-16.147 9.407a1.016 1.016 0 0 0-.484.675l-2.416 10.137a1.56 1.56 0 0 0 .28 1.201 1.78 1.78 0 0 0 1.066.74l11.064 2.305a1.179 1.179 0 0 0 .85-.115 1.066 1.066 0 0 0 .515-.969 1.8 1.8 0 0 0-1.377-1.652l-9.318-1.94 2.035-8.556a1.73 1.73 0 0 0-1.047-1.844 1.274 1.274 0 0 0-1.168.018Zm7.532-10.936a1.168 1.168 0 0 0-.407 1.502l9.729 24.922a1.713 1.713 0 0 0 1.805 1.115 1.072 1.072 0 0 0 .312-.121 1.199 1.199 0 0 0 .418-1.521l-9.717-24.907a1.716 1.716 0 0 0-1.808-1.115 1.028 1.028 0 0 0-.332.125Z"></path><g style="mix-blend-mode:screen"><path fill="#ff826a" d="M1096.112 805.56c-17.24 10.146-56.379 33.302-73.617 43.45-.621-.824-3.233-4.459-3.752-4.978 17.226-10.158 56.361-33.309 73.586-43.469l3.783 4.996Z"></path><path fill="#ff5a72" d="M1118.93 851.173c-17.24 10.146-27.224 16.084-44.463 26.232-.62-.824-3.232-4.459-3.752-4.979 17.227-10.158 27.207-16.09 44.432-26.25l3.783 4.997Z"></path><path fill="#ff826a" d="M1127.096 862.079c-17.24 10.146-27.224 16.084-44.463 26.232-.62-.824-3.232-4.459-3.752-4.978 17.227-10.158 27.207-16.09 44.432-26.25l3.783 4.996ZM1089.926 770.526c-10.894 6.426-36.125 21.338-57.56 34.004l3.742 4.996c21.445-12.666 46.693-27.584 57.602-34.004-.612-.806-3.131-4.135-3.784-4.996Zm-87.515 51.693c.52.52 3.13 4.155 3.752 4.979a25067.23 25067.23 0 0 0 22.312-13.164l-3.742-4.994c-9.289 5.486-17.32 10.23-22.322 13.18Z"></path><path fill="#807dfb" d="M1010.577 833.126c.52.52 3.13 4.154 3.752 4.978a42942.37 42942.37 0 0 0 41.119-24.271l-3.744-4.998c-16.674 9.851-32.944 19.465-41.127 24.29Zm87.515-51.694a78701.548 78701.548 0 0 0-38.756 22.893l3.745 5a37560.54 37560.54 0 0 1 38.795-22.897c-.612-.806-3.131-4.134-3.784-4.996Z"></path><path fill="#57ecea" d="M1113.28 815.823c-9.53 5.621-21.268 12.562-32.774 19.361l3.745 4.998c11.515-6.802 23.267-13.746 32.812-19.363l-3.783-4.996Zm-58.897 34.791c.52.52 3.131 4.154 3.752 4.978 5.569-3.277 11.893-7.01 18.48-10.9l-3.741-4.996c-6.592 3.895-12.92 7.633-18.49 10.918Z"></path><path fill="#ff5a72" d="M1121.446 826.73c-6.135 3.618-13.192 7.788-20.508 12.11l3.746 5.002c7.328-4.326 14.397-8.5 20.545-12.117l-3.783-4.996Zm-58.897 34.79c.52.52 3.131 4.155 3.752 4.979 8.975-5.283 19.9-11.739 30.748-18.147l-3.742-5c-10.851 6.414-21.783 12.877-30.758 18.168Z"></path></g><path style="mix-blend-mode:multiply" fill="url(#e)" d="M1142.487 1110.311h106.775v19.621h-106.775z"></path><path style="mix-blend-mode:multiply" fill="url(#aq)" d="M1190.631 1081.971h106.773v19.621h-106.773z"></path><path fill="url(#f)" d="M1202.446 1095.557c0-15.418-9.772-15.861-9.772-15.861s-5.29 0-13.884-3.57c-8.479-3.524-20.434-2.159-13.752 10.162a3.421 3.421 0 0 0 .228.455 5.971 5.971 0 0 0 2.168 1.896l21.346 12.526c3.254 1.861 13.588-2.436 13.666-5.608Z"></path><path fill="#1e1c6b" d="M1202.39 1094.175c-.186 3.167-10.382 7.376-13.61 5.535l-21.346-12.522a19.789 19.789 0 0 1-3.014-2.193c.2.426.372.83.618 1.293a3.421 3.421 0 0 0 .228.455 5.971 5.971 0 0 0 2.168 1.896l21.346 12.526c3.047 1.74 12.306-1.916 13.53-4.996a3.233 3.233 0 0 0 .093-.625 10.288 10.288 0 0 0-.014-1.37Z"></path><path fill="#fff" d="M1198.473 1077.669c-2.515 0-11.37 2.25-11.37 2.25a4.979 4.979 0 0 1-.792 2.293 5.145 5.145 0 0 0-.246.298c-1.75 1.215-3.527 3.137.62 5.74a5.748 5.748 0 0 0 7.464-.53 6.802 6.802 0 0 1 2.404-2.733 6.134 6.134 0 0 1 2.313-.973 1.198 1.198 0 0 1 .02-.213s.642-6.132-.413-6.132Z"></path><path fill="#1e1c6b" d="M1198.63 926.928c-9.653.17-33.778.6-43.426.778 3.591 29.015 10.818 55.365 15.648 83.465 5.18 27.312 11.018 46.502 16.117 69.228 1.864 4.233 10.399 2.635 12.133-1.44 1.35-20.931 2.902-46.431-3.305-70.58 1.041-26.03 3.442-55.173 2.832-81.45Z"></path><path fill="url(#ar)" d="M1153.784 1123.882c0-15.416-9.774-15.864-9.774-15.864s-5.289 0-13.886-3.564c-8.475-3.524-20.432-2.164-13.748 10.16a3.112 3.112 0 0 0 .228.455 5.933 5.933 0 0 0 2.166 1.898l21.348 12.526c3.25 1.86 13.588-2.442 13.666-5.611Z"></path><path fill="#1e1c6b" d="M1153.723 1122.499c-.185 3.168-10.38 7.379-13.605 5.535l-21.348-12.518a19.993 19.993 0 0 1-3.014-2.193c.202.424.372.83.62 1.291a3.112 3.112 0 0 0 .228.455 5.933 5.933 0 0 0 2.166 1.898l21.348 12.526c3.043 1.738 12.306-1.918 13.529-4.998a3.377 3.377 0 0 0 .094-.625 9.994 9.994 0 0 0-.018-1.371Z"></path><path fill="#fff" d="M1149.807 1105.991c-2.512 0-11.371 2.252-11.371 2.252a4.962 4.962 0 0 1-.787 2.295c-.09.1-.164.197-.248.299-1.748 1.216-3.527 3.136.619 5.74a5.75 5.75 0 0 0 7.465-.531 6.818 6.818 0 0 1 2.408-2.73 6.236 6.236 0 0 1 2.307-.98 1.225 1.225 0 0 1 .023-.206s.64-6.139-.416-6.139Z"></path><path fill="url(#as)" d="M1167.999 995.919c2.644-12.473 33.08-14.022 31.082-63.065-9.551-1.406-57.729 21.19-67.276 19.783-1.193 29.215 1.63 56.393 1.809 84.903.646 27.789 3.275 47.672 4.594 70.933 1.148 4.479 9.832 4.293 12.203.56 4.75-20.427 10.449-45.337 8.27-70.171 2.845-13.756 6.228-28.338 9.318-42.943Z"></path><path fill="url(#at)" d="M1177.057 837.62c33.988 22.709 38.04 67.808 19.664 96.431 0 0 3.95-63.417-19.664-96.431Z"></path><path fill="url(#au)" d="M1178.612 960.659c-20.69 11.607-42.332 11.63-49.711-2.64 2.76-26.575 5.344-48.2.02-73.667 1.576-14.066 2.68-16.18.876-24.386.639-2.75 9.096-8.62 15.264-14.249 6.662-6.082 11.16-11.863 14.588-12.562 28.289-5.775 42.033 44.633 39.666 98.373-2.184 14.291-10.52 23.414-20.703 29.13Z"></path><path fill="#fcd1a9" d="M1175.338 836.362c-6.136-4.432-5.226-7.334-4.308-13.37a29.967 29.967 0 0 0 1.85-10.417c0-13.44-8.56-25.05-19.05-24.33-21.138 1.451-17.376 12.574-17.376 26.015 0 12.45 5.644 21.02 15.09 22.463 0 2.041-.54 3.217-3.114 5.79 6.903 4.136 16.985 2.189 20.965.388 4.242-1.916 8.82-3.56 5.943-6.539ZM1098.292 868.608l.039.117c0-5.304-1.11-8.392-3.153-9.297-.44-1.27-.906-2.591-1.355-3.857-2.643-7.398-10.926-13.744-12.69-11.979-1.06 1.061 3.155 4.315 5.377 7.838 1.467 2.327 1.477 3.614 1.85 5.555 0 0-9.91.924-9.91 9.16 0 6.697 3.611 4.053 3.611 2.73 2.559 6.786 5.596 2.778 6.772 8.305l10.726-4.742s-.5-1.535-1.267-3.83Z"></path><path fill="#34318c" d="M1163.118 784.842c-2.725-1.402-5.178-.677-6.7-1.652-3.609-2.209-7.029-3.617-8.94-2.568a20.538 20.538 0 0 0-2.686 2.137c-1.881 1.878-5.735-2.122-6.66 2.732a18.407 18.407 0 0 0-.319 3.773c-9.027 1.159-4.584 9.38 2.67 25.215.01-2.572 5.469-8.512 5.469 2.91 0 1.229-.916 1.467-.112 3.096.811 1.625 5.998 5.72 9.42 9.143 4.774 4.777 7.58.492 15.473 1.351a12.598 12.598 0 0 1 2.078-7.197c.758-1.338 5.092-5.59 5.094-13.008-6.129.754 4.765-15.857-14.787-25.932Z"></path><path fill="url(#av)" d="M1129.797 859.966c-2.662 10.533-4.87 27.334-5.712 36.957-8.653-9.002-16.604-12.938-24.094-24.899l-12.233 5.104c2.303 8.361 24.98 42.742 41.143 45.273 15.799-5.922 18.8-34.941 21.139-47.383 3.427-18.217-16.334-25.547-20.243-15.052Z"></path><path fill="url(#g)" d="m654.329 295.488-9.508-13.465c21.889-27.273 29.355-63.937 16.68-81.89l16.414-20.456c17.925 25.391 7.367 77.24-23.586 115.811Z"></path><path fill="#57ecea" d="m654.329 295.488-9.508-13.465c21.889-27.273 29.355-63.937 16.68-81.89l16.414-20.456c17.925 25.391 7.367 77.24-23.586 115.811Z"></path><path fill="#bbc0e6" d="M661.5 200.133c-12.675-17.954-40.695-10.4-62.581 16.873-13.46 16.771-21.438 37.084-22.659 54.421-.765 10.858 1.1 20.557 5.98 27.47 8.106 11.482 22.489 12.486 37.528 4.618 8.479-4.435 17.162-11.66 25.053-21.492l9.508 13.465c-11.159 13.906-23.442 24.123-35.432 30.395-21.268 11.126-41.607 9.705-53.07-6.532-6.903-9.777-9.543-23.492-8.461-38.847 1.73-24.52 13.012-53.246 32.047-76.965 30.95-38.569 70.576-49.252 88.502-23.862Z"></path><path fill="#5652cc" d="M612.616 245.25c-.631-.538-1.776-.025-2.565 1.156l-11.384 17.056a3.792 3.792 0 0 0-.682 2.03 1.193 1.193 0 0 0 .68 1.245l11.39 3.907c.787.27 1.93-.538 2.563-1.807.625-1.267.498-2.51-.287-2.783l-9.606-3.297 9.608-14.393c.783-1.176.912-2.57.283-3.114Zm38.433-12.033-11.388-3.906c-.783-.271-1.928.534-2.563 1.807-.625 1.265-.498 2.51.287 2.782l9.61 3.296-9.612 14.394c-.785 1.18-.91 2.568-.283 3.113.629.54 1.778.024 2.563-1.152l11.388-17.059a3.848 3.848 0 0 0 .682-2.032 1.2 1.2 0 0 0-.684-1.243Zm-23.39-3.779-9.11 41.948c-.275 1.275.287 2.11 1.25 1.873a3.736 3.736 0 0 0 2.256-2.74l9.11-41.952c.277-1.275-.282-2.112-1.252-1.868a3.729 3.729 0 0 0-2.254 2.74Z"></path><path fill="url(#aw)" d="M569.518 308.508v21.904c-25.29 14.601-45.795 50.115-45.795 79.32l-18.969 10.951c0-41.3 28.997-91.523 64.764-112.175Z"></path><path fill="#807dfb" d="M569.518 308.508v21.904c-25.29 14.601-45.795 50.115-45.795 79.32l-18.969 10.951c0-41.3 28.997-91.523 64.764-112.175Z"></path><path fill="#5652cc" d="M569.518 330.412v-21.904c12.897-7.446 24.881-9.961 34.975-8.288l-10.244 24.33c-7.137-1.183-15.612.596-24.73 5.862Z"></path><path fill="url(#ax)" d="M523.723 409.732c0 29.205 20.504 41.043 45.795 26.44 15.555-8.979 29.276-25.875 37.553-44.34l15.553 3.537c-11.705 26.113-31.11 50.008-53.106 62.707-35.767 20.65-64.764 3.91-64.764-37.393Z"></path><path fill="#dae0f5" d="M615.315 356.851c0-18.676-8.406-30.2-21.066-32.3l10.244-24.33c17.904 2.966 29.79 19.267 29.79 45.68 0 15.901-4.33 33.116-11.66 49.468l-15.552-3.537c5.182-11.563 8.244-23.735 8.244-34.98Z"></path><path fill="#34318f" d="M570.436 378.556c-1.848 1.067-3.586 1.24-4.89.485-1.305-.752-2.026-2.342-2.026-4.477a15.313 15.313 0 0 1 6.916-11.982c3.813-2.201 6.918-.41 6.918 3.994l6.275-3.623c0-7.15-4.293-10.672-10.056-8.977v-5.717l-6.274 3.625v5.717c-5.761 4.957-10.054 13.436-10.054 20.586 0 4.07 1.37 7.104 3.863 8.541 2.492 1.438 5.805 1.11 9.328-.924 3.813-2.203 6.918-.412 6.918 3.993a15.32 15.32 0 0 1-6.918 11.982c-3.812 2.201-6.916.408-6.916-3.996l-6.275 3.623c0 7.15 4.293 10.672 10.054 8.978v5.274l6.274-3.623v-5.274c5.763-4.96 10.056-13.437 10.056-20.59 0-8.398-5.918-11.816-13.193-7.615Z"></path><path fill="#5555c6" d="M1218.149 633.963c-19.127 11.043-34.63 2.09-34.63-19.996 0-22.084 15.503-48.938 34.63-59.981 15.596-9.005 28.78-4.71 33.117 9.155l16.996-15.822c-6.562-20.981-26.513-27.478-50.113-13.854-28.941 16.709-52.404 57.345-52.404 90.763 0 33.42 23.463 46.962 52.404 30.255a91.06 91.06 0 0 0 20.973-17.165l-7.114-14.701a60.187 60.187 0 0 1-13.859 11.346Z"></path><path fill="url(#ay)" d="M1165.745 624.228c0-33.418 23.463-74.054 52.404-90.763 14.62-8.442 27.836-9.15 37.34-3.487l.002-.003-7.48-4.32-.005.004c-9.503-5.665-22.718-4.956-37.34 3.487-28.94 16.708-52.402 57.344-52.402 90.762 0 16.687 5.852 28.419 15.313 33.903l.025.016.022.012 7.433 4.293h.002c-9.463-5.485-15.314-17.216-15.314-33.904Z"></path><path fill="#34318f" d="M1238.58 549.91a21.38 21.38 0 0 1 5.204 8.913l7.482 4.318c-2.21-7.068-6.728-11.632-12.685-13.231ZM1224.526 618.299a60.086 60.086 0 0 1-13.86 11.343c-7.654 4.42-14.724 5.627-20.456 4.082 6.3 6.285 16.466 6.86 27.939.239a60.238 60.238 0 0 0 13.861-11.346Z"></path><path fill="#00b6bf" d="m1251.266 563.141-7.482-4.318a36.295 36.295 0 0 1 1.513 10.837c0 16.391-8.546 35.406-20.771 48.639l7.484 4.318c12.225-13.23 20.77-32.245 20.77-48.638a36.302 36.302 0 0 0-1.514-10.838Z"></path><path fill="#57ecea" d="M1251.266 563.141a36.302 36.302 0 0 1 1.514 10.838c0 16.393-8.545 35.407-20.772 48.638l7.114 14.701c18.498-20.023 31.427-48.795 31.427-73.599a55.01 55.01 0 0 0-2.287-16.4Z"></path><path d="M1339.524 824.46a15.202 15.202 0 0 0-7.443-1.78h-74.266v12.153h74.266a15.222 15.222 0 0 0 7.443-1.78c2.055-1.187 3.082-2.742 3.082-4.296 0-1.555-1.027-3.112-3.082-4.297Z" style="mix-blend-mode:multiply" fill="url(#h)"></path><path d="M1389.108 808.153a15.203 15.203 0 0 0-7.443-1.781h-74.266v12.154h74.266a15.227 15.227 0 0 0 7.443-1.78c2.055-1.187 3.082-2.741 3.082-4.296 0-1.557-1.027-3.111-3.082-4.297Z" style="mix-blend-mode:multiply" fill="url(#az)"></path><path fill="url(#i)" d="M1296.262 756.813v55.637c0 1.555 1.028 3.11 3.082 4.297a16.45 16.45 0 0 0 14.885 0c2.055-1.188 3.084-2.742 3.084-4.297v-55.637Z"></path><path fill="#eaeef9" d="M1299.344 752.516a16.45 16.45 0 0 1 14.885 0c2.055 1.186 3.084 2.743 3.084 4.297s-1.03 3.11-3.084 4.297a16.45 16.45 0 0 1-14.885 0c-2.054-1.187-3.082-2.742-3.082-4.297s1.028-3.111 3.082-4.297Z"></path><path d="M1329.83 842.995a15.212 15.212 0 0 0-7.443-1.78h-39.277v12.153h39.277a15.232 15.232 0 0 0 7.444-1.78c2.054-1.187 3.082-2.742 3.082-4.296 0-1.555-1.028-3.112-3.082-4.297Z" style="mix-blend-mode:multiply" fill="url(#aA)"></path><path fill="url(#aB)" d="M1271.973 817.577v29.715c0 1.554 1.028 3.109 3.082 4.297a16.45 16.45 0 0 0 14.885 0c2.055-1.188 3.082-2.743 3.082-4.297v-29.715Z"></path><path fill="#f3b378" d="M1275.055 813.28a16.45 16.45 0 0 1 14.885 0c2.055 1.187 3.082 2.742 3.082 4.297 0 1.555-1.027 3.111-3.082 4.297a16.45 16.45 0 0 1-14.885 0c-2.054-1.186-3.082-2.742-3.082-4.297 0-1.555 1.028-3.11 3.082-4.297Z"></path><path fill="url(#aC)" d="M1246.678 779.735v49.022c0 1.554 1.028 3.109 3.082 4.296a16.45 16.45 0 0 0 14.885 0c2.057-1.187 3.084-2.742 3.084-4.296v-49.022Z"></path><path fill="#7f7ff4" d="M1249.76 775.438a16.45 16.45 0 0 1 14.885 0c2.057 1.188 3.084 2.742 3.084 4.297 0 1.555-1.027 3.111-3.084 4.297a16.45 16.45 0 0 1-14.885 0c-2.054-1.186-3.082-2.742-3.082-4.297 0-1.555 1.028-3.11 3.082-4.297Z"></path><path d="M1315.233 859.301a15.221 15.221 0 0 0-7.441-1.779h-74.266v12.153h74.266a15.233 15.233 0 0 0 7.443-1.78c2.055-1.187 3.082-2.742 3.082-4.297 0-1.554-1.027-3.109-3.084-4.297Z" style="mix-blend-mode:multiply" fill="url(#aD)"></path><path fill="url(#aE)" d="M1222.39 818.526v45.072c0 1.555 1.027 3.11 3.081 4.297a16.45 16.45 0 0 0 14.885 0c2.055-1.187 3.082-2.742 3.082-4.297v-45.072Z"></path><path fill="#eaeef9" d="M1225.471 814.23a16.45 16.45 0 0 1 14.885 0c2.055 1.185 3.082 2.741 3.082 4.296 0 1.555-1.027 3.11-3.082 4.297a16.45 16.45 0 0 1-14.885 0c-2.054-1.188-3.082-2.742-3.082-4.297 0-1.555 1.028-3.111 3.082-4.297Z"></path><path style="mix-blend-mode:multiply" fill="url(#j)" d="M279.688 1096.495H142.915l10.572 23.193h126.201v-23.193z"></path><path style="mix-blend-mode:multiply" fill="url(#aF)" d="M248.688 1065.946H121.253l1.234 14.754h126.201v-14.754z"></path><path fill="url(#k)" d="M112.897 1044.415c-4.256-2.897-10.967 2.035-12.662 7.513-.074 2.362 1.676 6.307 1.676 6.307s7.109 15.836 9.529 18.527c2.416 2.704 12.225 6.563 16.947 2.534 3.393-4.399-3.34-7.028-4.566-11.38-1.606-5.663-.916-10.193-2.488-14.462-1.295-3.508-8.436-9.04-8.436-9.04Z"></path><path fill="#131147" d="m100.641 1050.84-.02.063c-.072 2.357 1.669 6.31 1.669 6.31s7.115 15.83 9.529 18.528c2.418 2.701 12.23 6.568 16.955 2.531a5.977 5.977 0 0 0 .47-.726 4.263 4.263 0 0 1-.857 1.75c-4.722 4.029-14.531.17-16.947-2.534-2.42-2.691-9.53-18.527-9.53-18.527s-1.75-3.945-1.675-6.307a10.612 10.612 0 0 1 .406-1.087Z"></path><path fill="#fff" d="M124.573 1047.995c-2.076-1.412-10.654-4.53-10.654-4.53a4.881 4.881 0 0 1-1.938 1.442c-.125.033-.244.08-.377.123-2.117.016-5.959 2.006-3.586 6.271 4.602 8.286 15.235 7.995 14.067 4.065-.793-2.639 1.39-5.756 2.488-7.371Z"></path><path fill="url(#aG)" d="M122.28 1057.522c.328-1.308.709-4.142-2.643-4.61-3.508-.5-7.47 1.124-7.148 3.182.68 4.282 9.463 2.747 9.79 1.428Z"></path><path fill="url(#aH)" d="M109.174 1043.626c3.979-5.362 33.47-40.862 47.362-47.932-4.67-19.592-16.791-45.047-12.942-66.035h29.586s17.545 62.144 6.315 76.953c-8.504 11.227-46.139 39.9-60.157 48.943-4.808 0-11.904-7.765-10.164-11.93Z"></path><path fill="url(#l)" d="M134.284 1095.225c-5.082.832-6.553 9.02-4.012 14.164 1.576 1.766 5.563 3.424 5.563 3.424s16.052 6.588 19.662 6.875c3.613.297 11.632-1.058 12.29-7.224-.622-3.774-3.784-4.805-7.677-7.116-5.059-3.004-9.4-7.367-13.482-9.37-3.356-1.647-12.344-.753-12.344-.753Z"></path><path fill="#131147" d="M155.385 1118.036c-3.715-.291-20.236-7.063-20.236-7.063s-3.854-1.62-5.553-3.375a11.764 11.764 0 0 0 .676 1.791c1.576 1.766 5.563 3.424 5.563 3.424s16.052 6.588 19.662 6.875c3.613.297 11.632-1.058 12.29-7.224-.027-.127-.076-.245-.097-.377-1.705 5.08-8.906 6.23-12.305 5.949Z"></path><path fill="#fff" d="M145.223 1089.786c-2.478.402-10.855 4.045-10.855 4.045a4.85 4.85 0 0 1-.41 2.379c-.065.111-.125.226-.19.343-1.521 1.475-3.129 4.084 1.527 5.551 9.038 2.842 16.743-3.224 13.188-5.263-2.389-1.368-2.947-5.135-3.26-7.055Z"></path><path fill="url(#aI)" d="M150.018 1098.06c-.672-.895-2.236-3.28-4.996-1.313-2.889 2.058-3.537 4.527-3.2 6.588.339 2.056 6.284.535 6.513.222.222-.306 1.683-5.498 1.683-5.498Z"></path><path fill="url(#aJ)" d="M147.227 938.077c0 27.789.283 49.445.283 73.71 0 27.749 2.121 62.151 1.826 85.409-4.462 5.523-15.794 4.137-18.183-.133-2.945-21.11-9.524-53.263-7.895-76.303-7.025-30.36-13.802-66.08-10.941-89.904 6.72 2.135 28.184 5.088 34.91 7.22Z"></path><path fill="#009aaa" d="M180.961 860.217c9.977 5.555 19.532 36.319 23.825 41.963 4.29 5.645 12.306 12.823 12.306 12.823-4.615 3.845-14.716 9.486-14.716 9.486-4.873-4.104-13.065-3.258-22.864-27.76-9.795-24.502 1.45-36.512 1.45-36.512Z"></path><path fill="url(#aK)" d="M129.128 870.44c5.875-7.353 20.32-17.617 29.779-18.316 16.084-1.184 28.21 11.107 30.494 23.215 2.02 10.712-17.809 64.814-14.361 79.025-1.7 7.498-14.162 11.559-19.385 12.705-22.701 4.98-45.652 1.797-45.908-12.705-.842-48.08 10.9-75.443 19.38-83.924Z"></path><path fill="#362e94" d="m305.645 1029.128-56.625 32.693c-3.11 1.791-5.93 1.961-7.969.785-2.039-1.178-3.298-3.701-3.298-7.295v-65.38a24.893 24.893 0 0 1 11.267-19.518l56.625-32.692c3.113-1.796 5.93-1.966 7.965-.789 2.043 1.178 3.3 3.7 3.3 7.295v65.38a24.918 24.918 0 0 1-11.265 19.52Z"></path><path fill="url(#aL)" d="M237.753 1055.311v-65.38a24.893 24.893 0 0 1 11.267-19.518l56.625-32.692c3.113-1.796 5.93-1.966 7.965-.789l-74.172-42.824c-2.039-1.176-4.857-1.006-7.967.787l-56.623 32.694a24.924 24.924 0 0 0-11.27 19.515v65.385c0 3.594 1.264 6.117 3.303 7.293l74.17 42.824c-2.039-1.178-3.298-3.701-3.298-7.295Z"></path><g style="mix-blend-mode:screen"><path fill="url(#m)" d="M229.335 972.06a23.049 23.049 0 0 1 7.968-8.413l56.627-32.693c3.11-1.797 5.926-1.967 7.961-.787l3.559 2.05c-2.04-1.175-4.856-1.005-7.969.792l-56.623 32.689a24.878 24.878 0 0 0-11.268 19.52v65.38c0 3.594 1.26 6.12 3.297 7.293l-3.552-2.05c-2.04-1.176-3.301-3.704-3.301-7.297v-65.381a23.028 23.028 0 0 1 3.3-11.104Z"></path><path fill="url(#aM)" d="M219.815 966.563a23.003 23.003 0 0 1 7.967-8.414l56.625-32.691c3.11-1.797 5.93-1.967 7.965-.787l3.554 2.05c-2.035-1.177-4.851-1.005-7.965.788l-56.625 32.693a24.911 24.911 0 0 0-11.271 19.52v65.38c0 3.592 1.264 6.117 3.303 7.293l-3.553-2.053c-2.041-1.177-3.303-3.7-3.303-7.292v-65.383a23.005 23.005 0 0 1 3.303-11.104Z"></path><path fill="url(#aN)" d="M210.294 961.065a22.997 22.997 0 0 1 7.966-8.412l56.627-32.693c3.11-1.791 5.93-1.965 7.965-.785l3.555 2.048c-2.04-1.177-4.856-1.006-7.969.791l-56.623 32.692a24.917 24.917 0 0 0-11.27 19.515v65.385c0 3.594 1.264 6.117 3.303 7.293l-3.554-2.053c-2.04-1.177-3.301-3.7-3.301-7.293V972.17a23.033 23.033 0 0 1 3.3-11.104Z"></path><path fill="url(#aO)" d="M200.774 955.569a22.997 22.997 0 0 1 7.967-8.412l56.623-32.69c3.11-1.796 5.93-1.97 7.969-.79l3.554 2.05c-2.043-1.176-4.855-1.006-7.968.791l-56.624 32.694a24.887 24.887 0 0 0-11.269 19.513v65.383c0 3.594 1.262 6.12 3.3 7.297l-3.552-2.055c-2.041-1.175-3.303-3.7-3.303-7.293v-65.384a23.01 23.01 0 0 1 3.303-11.104Z"></path><path fill="url(#aP)" d="M191.254 950.073a22.984 22.984 0 0 1 7.967-8.412l56.623-32.694c3.11-1.796 5.926-1.966 7.969-.787l3.555 2.051c-2.043-1.176-4.86-1.006-7.969.791l-56.625 32.69a24.907 24.907 0 0 0-11.268 19.517v65.383c0 3.594 1.26 6.12 3.301 7.293l-3.553-2.05c-2.04-1.177-3.302-3.704-3.302-7.296v-65.383a22.998 22.998 0 0 1 3.302-11.103Z"></path><path fill="url(#aQ)" d="M181.731 944.575a23.012 23.012 0 0 1 7.967-8.412l56.627-32.692c3.11-1.796 5.926-1.966 7.965-.787l3.554 2.05c-2.039-1.179-4.855-1.007-7.968.79l-56.622 32.692a24.88 24.88 0 0 0-11.267 19.515v65.385c0 3.594 1.26 6.117 3.297 7.293l-3.553-2.053c-2.037-1.178-3.299-3.701-3.299-7.295v-65.38a23.048 23.048 0 0 1 3.299-11.106Z"></path><path fill="url(#aR)" d="M172.21 939.079a23.044 23.044 0 0 1 7.966-8.412l56.627-32.694c3.112-1.797 5.928-1.964 7.967-.785l3.555 2.049c-2.04-1.178-4.858-1.008-7.969.789l-56.621 32.693a24.888 24.888 0 0 0-11.27 19.516v65.383c0 3.592 1.262 6.119 3.3 7.295l-3.555-2.053c-2.04-1.178-3.3-3.703-3.3-7.295v-65.383a23.018 23.018 0 0 1 3.3-11.103Z"></path></g><path fill="#a5abcc" d="M161.27 975.634c.656.931 2.402 11.128-5.357 12.724-3.36-2.605-2.871-12.572 5.357-12.724Z"></path><path fill="#fcd1a9" d="m156.965 974.77 4.288 2.54c2.445 1.253 9.22 1.226 13.568-1.723 4.346-2.952 3.713 4.427-.943 5.677-4.667 1.248-5.059 3.032 1.593 5.588a17.599 17.599 0 0 1 7.032 4.979c1.998 2.945 3.685 8.933-.743 10.844-3.59 1.546-12.236-4.514-14.873-6.227-7.273-4.72-5.392-5.982-9.418-8.932-4.017-2.957-5.023-3.056-5.023-3.056Z"></path><path fill="url(#aS)" d="M139.51 870.821c-4.773-1.97-13.38-3.213-18.504 11.566-2.908 8.385-5.382 37.801-1.611 52.674 5.162 20.342 17.916 41.385 36.518 53.297-2.422-4.14.97-11.666 5.357-12.724-12.818-14.563-21.81-33.518-21.81-42.84 0-15.412 2.835-38.979 3.964-43.707 2.38-9.942.801-16.32-3.914-18.266Z"></path><path fill="#fcd1a9" d="M156.881 830.77c-.59-5.21 17.422 5.403 16.698 12.287-.59 5.598-2.221 10.526 3.443 14.03 1.953 1.56 8.63 12.445-1.643 12.56-14.693.18-18.61-3.853-29.23-12.955 6.334-3.578 12.64-9.021 10.732-25.922Z"></path><path fill="#fcd1a9" d="m152.64 827.688 7.316-10.295h31.85v19.17c0 10.594-7.132 19.172-15.92 19.172-8.54 0-16.47-7.068-16.882-17.215l-3.865-1.336Z"></path><path fill="#f2c39d" d="M175.143 860.862c-7.61 0-17.031-12.225-16.139-22.334.387 9.53 8.315 16.398 16.239 17.19a13.81 13.81 0 0 0 1.779 1.369 4.767 4.767 0 0 1 .53.537c0 1.545-1.026 3.238-2.409 3.238Z"></path><path fill="#20196f" d="M189.946 808.737c2.912-.506 3.178-2.93-8.631-7.014-6.86-3.367-16.582-4.398-22.877-.504-8.527 5.28-11.1 13.04-9.57 22.776 1.521 9.744 7.763 19.006 7.763 19.006.944.953 1.082-3.54.313-6.862a6.423 6.423 0 0 1-1.11-2.847c-2.257-9.897 3.797-8.42 4.627-7.586 1.868.77-1.746 8.957 3.727 8.138 2.65-.388 2.287-7.783 2.277-10.382a11.32 11.32 0 0 1 1.194.314c4.517 2.51 19.875 4.334 11.35-1 5.939 0 14.035 2.742 16.769-1.025 3.246-4.489-1.955-9.377-5.832-13.014Z"></path><path style="mix-blend-mode:multiply" fill="url(#n)" d="M376.211 1182.8h95.367v19.973h-95.367z"></path><path style="mix-blend-mode:multiply" fill="url(#aT)" d="M326.211 1211.624H428.75v19.967H326.211z"></path><path fill="url(#o)" d="M387.708 1196.614c0-15.684-9.946-16.135-9.946-16.135s-5.523.56-14.39-2.77c-11.168-4.195-20.536-3.068-13.735 9.477a4.97 4.97 0 0 0 .235.465 6.156 6.156 0 0 0 2.199 1.93l21.73 12.74c3.309 1.896 13.832-2.479 13.907-5.707Z"></path><path fill="#131147" d="M387.649 1195.208c-.188 3.22-10.563 7.511-13.848 5.636l-21.73-12.742a19.867 19.867 0 0 1-3.063-2.23c.207.433.375.844.63 1.314a4.97 4.97 0 0 0 .234.465 6.156 6.156 0 0 0 2.199 1.93l21.73 12.74c3.094 1.775 12.528-1.95 13.766-5.084a2.881 2.881 0 0 0 .09-.63 9.82 9.82 0 0 0-.008-1.4Z"></path><path fill="#fcd1a9" d="M383.665 1178.415a43.95 43.95 0 0 0-6.793 1.154c-2.137-.55-9.188-.807-13.801-2.168-1.371-.402-2.664-1.266-4.117-.164-1.825 2.242 2.922 7.717 12.71 11.94 3.462 2.18 6.266.794 7.602-.53a7.022 7.022 0 0 1 2.445-2.785 6.416 6.416 0 0 1 2.348-.99.866.866 0 0 1 .031-.213s.641-6.244-.425-6.244Z"></path><path fill="#20196f" d="M378.75 1075.296c4.364-13.38 2.352-28.829-.886-44.358-9.82.176-28.414-5.318-38.235-5.142 3.657 29.521 11.891 55.472 16.805 84.066 5.274 27.791 11.535 48.197 16.727 71.332 1.898 4.309 11.144 2.363 11.144-.217 1.375-21.302.453-46.01-5.855-70.58.441-11.115-1.461-24.039.3-35.101Z"></path><path fill="url(#aU)" d="M338.18 1225.44c0-15.687-9.937-16.137-9.937-16.137s-5.828.256-14.696-3.078c-11.168-4.195-20.238-2.76-13.441 9.785.07.149.152.301.242.467a6.084 6.084 0 0 0 2.203 1.928l21.727 12.74c3.308 1.897 13.828-2.478 13.902-5.705Z"></path><path fill="#131147" d="M338.13 1224.03c-.192 3.22-10.567 7.514-13.852 5.645l-21.727-12.749a20.249 20.249 0 0 1-3.066-2.23c.203.43.375.848.621 1.314.07.149.152.301.242.467a6.084 6.084 0 0 0 2.203 1.928l21.727 12.74c3.09 1.774 12.52-1.947 13.766-5.086a3.13 3.13 0 0 0 .093-.634 11.066 11.066 0 0 0-.008-1.395Z"></path><path fill="#fcd1a9" d="M334.141 1207.237a43.866 43.866 0 0 0-6.797 1.156c-2.129-.556-9.183-.804-13.797-2.168-1.375-.402-2.668-1.265-4.117-.162-1.82 2.238 2.926 7.717 12.711 11.94 3.461 2.175 6.262.793 7.598-.53a7.018 7.018 0 0 1 2.453-2.787 6.336 6.336 0 0 1 2.344-.992 1.147 1.147 0 0 1 .027-.21s.645-6.247-.422-6.247Z"></path><path fill="url(#aV)" d="M352.653 1095.216c8.367-33.62 27.242-14.368 25.21-64.278-9.718-1.426-44.433 20.526-54.155 19.098-5.692 36.183-4.512 58.53-4.332 87.537.656 28.285 2.507 47.633 3.851 71.291 1.168 4.566 11.524 4.211 11.524 1.467 4.835-20.787 8.691-46.143 6.472-71.41 2.895-14.004 8.281-28.844 11.43-43.705Z"></path><path fill="url(#aW)" d="M372.856 1082.776c-15.836 9.68-40.746 15.672-56.773 8.588-1.657-9.355 12.82-71.039 3.293-87.285-2.079-3.543-8.762-.649-10.57-4.498-4.692-9.987-9.161-30.75-9.161-33.905 0-6.714 5.395-13.683 10.973-17.392 7.636-5.088 18.476-11.89 28.043-10.025 20.883 5.857 35.668 59.75 51 122.103-1.551 7.063-7.285 16.592-16.805 22.414Z"></path><path d="M330.618 1020.231c1.027-7.693-6.922-21.283-11.465-22.82-4.543-1.54-8.535-3.334-8.535-8.56 0-5.23 2.152-13.46 1.02-19.665l-11.669-.765c1.11 6.765 4.895 22.767 8.836 31.16 1.809 3.85 8.492.955 10.57 4.498 9.524 16.246-4.949 77.93-3.292 87.285 0 0 5.82-29.596 7.625-41.328 1.808-11.733 5.886-22.113 6.91-29.805Z" style="mix-blend-mode:multiply" fill="url(#aX)"></path><path fill="#fcd1a9" d="M335.102 942.985c-6.402-4.28-6.012-7.719-5.312-13.894a30.261 30.261 0 0 0 1.488-10.66c-.512-13.67-9.652-25.159-20.293-24.024-21.445 2.283-17.2 13.453-16.688 27.121.473 12.664 6.547 21.158 16.204 22.27.082 2.078-.551 4.035-3.141 5.96 7.18 3.942 18.324 1.817 22.816-.039 4.383-1.804 7.965-3.816 4.926-6.734ZM245.008 1022.395c-1.884.168-3.263-4.37-6.355-4.754-3.092-.377-9.635-1.382-9.492.506.123 1.584 5.7 1.309 4.943 2.127-2.184 2.352-7.432.024-8.701-1.99-1.28-2.02-3.104-2.178-2.92-.129.182 2.045 1.375 11.217 8.777 13.275 7.4 2.055 16.014.82 16.014.82Z"></path><path fill="url(#aY)" d="M244.616 1033.042s-6.596-4.35-.533-11.79c21.39-3.814 47.988-27.939 54.496-56.615 3.957-11.177 16.492-3.375 13.89 10.83-4.097 22.377-30.14 56.504-67.853 57.575Z"></path><path fill="#20196f" d="M291.446 912.885c.39-7.935 6.82-21.275 20.976-20.277 13.676.963 19.504 10.678 19.649 22.53.113 9.3 8.418 35.61 29.305 34.085-8.938 16.524-72.684 19.477-69.93-36.338Z"></path><path fill="url(#aZ)" d="m857.51 339.891-97.97-56.564c-5.717-3.3-10.393-.6-10.393 6v85c0 6.598 4.678 14.699 10.393 17.999l30.406 17.556 18.576 32.174 18.574-10.724.002-.001 30.412 17.56c5.715 3.3 10.391.599 10.393-6v-85c-.002-6.6-4.678-14.7-10.393-18Z"></path><g style="mix-blend-mode:screen"><path fill="url(#p)" d="M776.409 320.862v-7.397l2.875 1.66v7.398l4.314 2.49v-7.397l2.875 1.66v7.397l3.89 2.246v3.13l-3.89-2.246v5.36l3.89 2.246v3.133l-3.89-2.246v7.395l-2.875-1.659v-7.397l-4.314-2.49v7.397l-2.875-1.661v-7.396l-3.89-2.247v-3.133l3.89 2.248v-5.36l-3.89-2.245v-3.132Zm2.875 10.15 4.314 2.492v-5.359l-4.314-2.491Z"></path><path fill="url(#ba)" d="M794.26 331.283c0-4.793 2.354-6.152 6.535-3.737l15.688 9.056a11.697 11.697 0 0 1 6.145 10.605v15.962c0 2.077-1.11 2.756-2.973 1.68l-4.576-2.642a4.624 4.624 0 0 1-2.385-3.943v-.454l-.459-.261c-.522 1.357-1.797 2.507-4.607.884-3.987-2.3-6.7-7.942-6.7-13.226v-.64c0-5.323 2.682-7.811 6.502-5.606a10.329 10.329 0 0 1 4.64 6l.46.264v-2.792l2.974 1.717v14.152a1.546 1.546 0 0 0 .817 1.49l2.125 1.226c.785.454 1.142.246 1.142-.735v-14.942a6.23 6.23 0 0 0-3.236-5.606l-15.062-8.697c-2.649-1.529-3.99-.755-3.99 2.302v18.34a7.51 7.51 0 0 0 3.99 6.907l20.847 12.036v3.21l-21.342-12.323a12.686 12.686 0 0 1-6.535-11.282Zm13.955 24.244c2.551 1.473 4.284.095 4.284-3.752v-.416c0-3.85-1.733-7.226-4.284-8.7-2.548-1.47-4.248-.035-4.248 3.738v.454c0 3.809 1.7 7.205 4.248 8.676Z"></path><path fill="url(#bb)" d="m832.758 358.73 1.764 1.737.162-.436-1.894-2.187-2.678-4.716 1.797-1.038 2.746 4.677.947 2.736.457.077-.619-2.397v-4.755l2.613 1.51v4.753l-.62 1.68.458.454.947-1.642 2.745-1.508 1.796 3.112-2.68 1.623h-1.894l.162.623 1.768.3 4.115 2.378v3.02l-4.115-2.378-1.768-1.735-.162.432 1.895 2.191 2.68 4.716-1.797 1.038-2.745-4.68-.947-2.735-.459-.076.621 2.395v4.755l-2.613-1.509v-4.754l.62-1.68-.458-.453-.947 1.641-2.746 1.51-1.797-3.113 2.678-1.621 1.894-.002-.162-.62-1.764-.304-4.119-2.377v-3.02Z"></path><path fill="url(#bc)" d="M781.247 361.038c4.636 2.678 7.97 7.773 7.97 12.188v.189c0 4.265-2.35 4.793-4.902 4.604l-.816-.094c-.817-.018-1.112.34-1.112 1.545v1.7l-3.234-1.867v-1.887c0-2.378.59-3.433 2.613-3.282l.819.092c2.189.17 3.396-.226 3.396-2.68 0-2.716-2.055-5.49-4.734-7.036-2.78-1.604-5.002-1.303-5.002 1.943v1.208l-3.235-1.866v-1.36c0-5.17 3.528-6.116 8.237-3.397Zm-.46 21.323a5.47 5.47 0 0 1 2.55 4.415c0 1.697-1.112 2.3-2.55 1.47a5.414 5.414 0 0 1-2.548-4.415c0-1.697 1.076-2.32 2.549-1.47Z"></path><path fill="url(#bd)" d="M795.243 390.705a5.42 5.42 0 0 1 2.55 4.415c0 1.699-1.078 2.322-2.55 1.472a5.477 5.477 0 0 1-2.549-4.415c0-1.697 1.111-2.3 2.549-1.472Zm1.635-20.113v18.946l-3.237-1.87v-18.946Z"></path><path fill="url(#be)" d="M812.885 393.457a1.134 1.134 0 0 0 1.147.018l2.775-.885 1.766 3.585-3.332 1.095a2.913 2.913 0 0 1-2.649-.172 6.267 6.267 0 0 1-2.677-3.434c-.46-1.167-.688-1.716-1.309-2.074a1.064 1.064 0 0 0-1.111 0l-2.78.885-1.763-3.582 3.334-1.095a2.899 2.899 0 0 1 2.613.188 6.198 6.198 0 0 1 2.713 3.415c.457 1.167.687 1.716 1.273 2.056Z"></path><path fill="url(#bf)" d="M827.155 409.13a5.418 5.418 0 0 1 2.549 4.416c0 1.697-1.076 2.322-2.55 1.472a5.477 5.477 0 0 1-2.548-4.415c0-1.699 1.111-2.303 2.549-1.472Zm1.635-20.113v18.944l-3.237-1.87v-18.943Z"></path></g></g></svg>