<svg xmlns="http://www.w3.org/2000/svg" width="1446.458" height="954.752" enable-background="new 0 0 1364 960" viewBox="-41.23 2.624 1446.458 954.752" id="cyber-security"><path fill="#7A83EB" d="M1137.637,646.71c0.722-3.001,4.406-4.512,7.395-3.765c2.989,0.746,5.303,3.13,7.076,5.662  c2.868,4.096,4.604,8.434,6.219,13.047c0.41-4.62,0.987-9.224,1.707-13.793c0.476-3.022,1.02-6.036,1.628-9.039  c-6.739-1.67-12.96-5.395-17.599-10.563c-1.758-1.959-3.379-4.502-2.756-7.059c0.727-2.988,4.411-4.498,7.396-3.761  c2.985,0.737,5.293,3.105,7.06,5.621c2.967,4.226,4.714,8.714,6.372,13.496c1.979-9.231,4.61-18.328,8.01-27.128  c-6.271-2.735-11.717-7.342-15.422-13.095c-1.426-2.213-2.623-4.981-1.603-7.407c1.192-2.834,5.069-3.741,7.899-2.54  c2.831,1.201,4.734,3.904,6.079,6.669c2.18,4.48,3.201,9.021,4.059,13.814c3.73-9.22,8.443-18.441,15.321-25.666  c0.143-0.15,0.293-0.294,0.437-0.444c-5.905-3.602-10.711-8.993-13.589-15.286c-1.095-2.394-1.885-5.305-0.529-7.56  c1.585-2.635,5.551-2.98,8.181-1.387c2.63,1.593,4.128,4.54,5.065,7.469c1.651,5.16,1.935,10.196,2.085,15.533  c8.172-8.129,17.878-14.786,25.758-23.183c-6.045-3.601-10.968-9.066-13.895-15.466c-1.095-2.393-1.885-5.304-0.529-7.56  c1.584-2.635,5.551-2.979,8.181-1.386c2.63,1.593,4.128,4.54,5.065,7.469c1.695,5.299,1.949,10.467,2.096,15.964  c1.932-2.133,3.743-4.382,5.375-6.8c3.306-4.897,5.53-10.455,6.798-16.276c-6.953-1.868-13.3-5.938-17.88-11.493  c-1.674-2.031-3.187-4.64-2.458-7.169c0.852-2.954,4.596-4.309,7.548-3.447c2.952,0.862,5.158,3.324,6.817,5.912  c3.044,4.747,4.622,9.745,6.2,15.099c1.85-9.436,1.222-19.49-1.415-28.508c-6.055-2.451-11.41-6.621-15.238-11.917  c-1.542-2.134-2.886-4.833-1.997-7.311c1.038-2.895,4.861-4.008,7.752-2.96c2.891,1.048,4.936,3.646,6.427,6.335  c2.379,4.29,3.64,8.698,4.74,13.356c0.124,0.127,0.228,0.289,0.294,0.497c2.416,7.625,3.25,15.716,2.688,23.686  c-0.124,1.758-0.313,3.519-0.567,5.273c3.22-5.478,7.947-10.07,13.542-13.086c2.317-1.249,5.17-2.228,7.51-1.022  c2.734,1.409,3.336,5.344,1.919,8.073c-1.417,2.729-4.26,4.416-7.122,5.543c-5.337,2.101-10.634,2.665-16.301,3.182  c-0.696,3.654-1.731,7.239-3.261,10.624c-2.318,5.126-5.523,9.592-9.202,13.68c5.472-3.607,11.971-5.653,18.526-5.787  c2.632-0.054,5.617,0.377,7.148,2.518c1.789,2.501,0.529,6.277-1.978,8.059c-2.506,1.781-5.806,1.984-8.866,1.681  c-5.864-0.582-10.95-2.589-16.391-4.784c-6.263,6.566-13.665,12.205-20.387,18.157c-2.116,1.874-4.163,3.792-6.096,5.812  c5.737-4.213,12.782-6.622,19.899-6.777c2.631-0.057,5.617,0.37,7.151,2.508c1.792,2.499,0.537,6.277-1.967,8.061  c-2.504,1.784-5.804,1.992-8.864,1.693c-5.998-0.587-11.185-2.666-16.77-4.911c-2.037,2.175-3.933,4.476-5.62,6.984  c-3.085,4.587-5.644,9.518-7.881,14.567c-0.595,1.342-1.165,2.696-1.717,4.058c4.815-4.298,10.835-7.245,17.193-8.369  c2.592-0.458,5.608-0.492,7.45,1.387c2.153,2.196,1.49,6.122-0.712,8.267c-2.203,2.146-5.431,2.855-8.502,3.026  c-5.673,0.317-10.835-0.787-16.32-2.059c-3.321,8.598-5.837,17.525-7.755,26.539c3.769-5.583,9.176-10.054,15.385-12.67  c2.426-1.022,5.359-1.724,7.573-0.3c2.586,1.664,2.81,5.638,1.138,8.219c-1.672,2.581-4.663,3.989-7.619,4.837  c-5.609,1.609-11.026,1.637-16.829,1.608c-0.245,1.197-0.482,2.395-0.707,3.594c-1.233,6.581-2.172,13.243-2.739,19.934  c3.754-5.381,9.042-9.688,15.091-12.236c2.426-1.022,5.359-1.723,7.573-0.3c2.586,1.664,2.81,5.639,1.138,8.22  c-1.672,2.581-4.663,3.988-7.619,4.836c-5.455,1.565-10.728,1.635-16.35,1.611c-0.554,7.636-0.612,15.304-0.042,22.928  c0.118,1.588-2.353,1.663-2.471,0.078c-0.576-7.699-0.502-15.443,0.063-23.152c-6.769-1.685-13.022-5.445-17.687-10.662  C1138.647,651.838,1137.02,649.279,1137.637,646.71z"></path><path fill="#5862D1" d="M210.273,636.879c-8.383-13.455-18.683-24.869-29.54-34.541c-0.206-0.17-0.354-0.328-0.56-0.498  c-3.562-3.16-7.201-6.122-10.858-8.874c-1.525,7.226-5.873,11.678-11.894,14.483c5.087-7.104,5.07-14.565,0.371-22.346  c-0.201-0.323-0.496-0.637-0.818-0.835c-9.67-6.328-19.051-11.391-27.303-15.364c-0.256-0.09-0.475-0.202-0.695-0.314  c-14.348-6.8-25.107-10.158-27.453-10.888c-0.315-0.103-0.489-0.144-0.489-0.144s-0.041,0.175-0.086,0.502  c-0.579,3.548-4.021,26.165-1.331,55.021c0.04,0.224,0.044,0.471,0.084,0.695c0.786,7.978,2.016,16.427,3.908,25.059  c2.937,8.232,9.606,10.701,14.231,11.007c-3.871,1.863-7.675,2.391-11.463,0.069c3.919,13.646,9.555,27.568,17.715,40.664  c0.224,0.359,0.47,0.753,0.729,1.09l0.47,0.753c4.376,6.786,9.239,13.07,14.434,18.85c0.169,0.193,0.318,0.35,0.465,0.508  c36.241,40.178,87.204,56.341,92.655,57.975c0.313,0.103,0.488,0.143,0.488,0.143s0.04-0.174,0.087-0.502  c0.505-3.104,3.092-20.057,2.12-42.961c-0.004-0.246-0.022-0.435-0.025-0.681c-0.318-7.224-0.992-15.022-2.23-23.166  c-0.058-0.412-0.115-0.825-0.174-1.237c-1.661-10.819-4.243-22.16-8.197-33.544c-3.727,2.173-6.853,3.872-6.853,3.872l2.79-14.39  C217.902,650.404,214.408,643.516,210.273,636.879z M104.151,579.673c0.15-1.04,1.146-1.76,2.149-1.588  c1.039,0.149,1.737,1.109,1.588,2.149c-0.15,1.039-1.11,1.737-2.149,1.588C104.736,581.65,104.002,580.712,104.151,579.673z   M105.316,586.02c1.4-0.872,3.205-0.453,4.077,0.946c0.872,1.399,0.475,3.241-0.925,4.113c-1.399,0.871-3.263,0.439-4.135-0.96  C103.461,588.72,103.917,586.892,105.316,586.02z M125.375,651.87c0.969-0.604,2.214-0.284,2.818,0.685  c0.581,0.933,0.32,2.192-0.649,2.795c-0.968,0.604-2.214,0.283-2.795-0.649C124.145,653.733,124.407,652.474,125.375,651.87z   M123.458,661.582c1.686-1.05,3.898-0.536,4.927,1.114c1.051,1.686,0.537,3.899-1.149,4.95c-1.651,1.029-3.864,0.515-4.914-1.172  C121.293,664.824,121.807,662.611,123.458,661.582z M170.803,598.712c0.467-0.291,1.049-0.155,1.339,0.311  c0.291,0.467,0.179,1.085-0.288,1.376c-0.466,0.29-1.071,0.119-1.362-0.348C170.201,599.585,170.337,599.003,170.803,598.712z   M150.597,589.785c1.076-0.671,2.474-0.346,3.145,0.73c0.67,1.076,0.346,2.474-0.73,3.145c-1.077,0.671-2.474,0.346-3.145-0.73  C149.196,591.853,149.521,590.455,150.597,589.785z M152.539,598.337c0.43-0.268,1.049-0.156,1.339,0.311  c0.291,0.467,0.141,1.107-0.289,1.375c-0.467,0.291-1.106,0.142-1.397-0.325C151.901,599.232,152.072,598.628,152.539,598.337z"></path><path fill="#E5EFEC" d="M173.047,628.693l14.992-5.356l0.192,0.628l-15.432,5.53l-8.459,29.03l18.689,29.995l9.934-32.738  l0.605,0.171l-10.071,33.32l32.393,51.99l17.217-39.916c0.058,0.412,0.116,0.825,0.174,1.237l-10.916,25.33l13.146-2.164  c0.004,0.246,0.022,0.435,0.025,0.681l-13.5,2.236l-5.722,13.278l17.303,27.771l-0.575,0.358l-25.15-40.365l-20.279-3.851  l0.126-0.676l19.684,3.773l-17.392-27.914l-26.729-3.568c-5.369,3.295-16.55,10.212-23.116,14.303  c-0.147-0.158-0.296-0.315-0.465-0.508c6.961-4.337,18.895-11.722,22.505-13.922l-36.939-4.927l-0.47-0.753l64.744,8.622  l-34.695-55.685l-20.278,0.63l-0.004-0.645l19.879-0.631l-14.71-23.609l-40.056-6.571c-0.04-0.224-0.044-0.471-0.084-0.695  l19.922,3.278c-4.467-6.132-10.85-14.857-11.328-15.306l0.206-0.228l-0.023-0.036l-0.228-0.206l0.274-0.121  c0.211,0.018,0.421,0.036,12.045,16.054l18.803,3.078l-38.339-61.534c0.046-0.327,0.086-0.502,0.086-0.502s0.174,0.041,0.489,0.144  l30.09,48.294l-2.637-37.406c0.219,0.112,0.439,0.224,0.695,0.314l2.702,38.312l31.499,50.555l16.303-55.931  c0.206,0.17,0.354,0.328,0.56,0.498L173.047,628.693z"></path><path fill="#7A83EB" d="M165.922,728.239c-13.896-7.629-28.465-12.54-42.667-15.659c-0.263-0.048-0.469-0.113-0.732-0.16  c-4.653-1.011-9.276-1.814-13.813-2.423c2.207,7.047,0.596,13.058-3.282,18.452c0.958-8.685-2.709-15.182-10.615-19.667  c-0.333-0.183-0.745-0.313-1.122-0.327c-11.53-0.784-22.188-0.607-31.329-0.032c-0.267,0.047-0.513,0.056-0.759,0.066  c-15.84,1.094-26.866,3.433-29.269,3.945c-0.325,0.065-0.497,0.114-0.497,0.114s0.05,0.172,0.171,0.48  c1.232,3.377,9.302,24.783,25.773,48.629c0.144,0.176,0.269,0.39,0.413,0.565c4.591,6.572,9.799,13.337,15.675,19.938  c6.591,5.74,13.615,4.628,17.798,2.632c-2.463,3.52-5.522,5.842-9.962,5.672c10.098,9.981,21.827,19.361,35.353,26.786  c0.371,0.203,0.778,0.427,1.169,0.594l0.778,0.427c7.138,3.775,14.455,6.875,21.813,9.371c0.242,0.086,0.448,0.149,0.654,0.215  c51.27,17.294,103.621,6.44,109.175,5.197c0.324-0.063,0.496-0.114,0.496-0.114s-0.05-0.171-0.17-0.48  c-1.079-2.954-7.122-19.003-19.182-38.5c-0.124-0.213-0.232-0.368-0.355-0.581c-3.813-6.144-8.218-12.613-13.285-19.108  c-0.252-0.331-0.504-0.663-0.757-0.994c-6.744-8.621-14.548-17.246-23.568-25.237c-2.187,3.719-4.081,6.731-4.081,6.731  l-4.611-13.914C179.196,736.298,172.777,732.003,165.922,728.239z M45.381,730.306c-0.379-0.98,0.138-2.096,1.097-2.437  c0.979-0.378,2.058,0.117,2.436,1.096c0.378,0.98-0.117,2.059-1.097,2.437C46.859,731.743,45.76,731.285,45.381,730.306z   M49.505,735.27c0.794-1.446,2.573-1.964,4.018-1.171c1.445,0.793,2,2.593,1.207,4.039c-0.793,1.445-2.631,1.98-4.076,1.187  C49.208,738.532,48.711,736.715,49.505,735.27z M99.231,782.871c0.549-1.001,1.792-1.331,2.792-0.782  c0.964,0.529,1.352,1.755,0.802,2.755c-0.549,1-1.792,1.331-2.755,0.802C99.07,785.097,98.682,783.872,99.231,782.871z   M102.314,792.279c0.956-1.741,3.137-2.376,4.841-1.44c1.742,0.956,2.377,3.137,1.421,4.878c-0.936,1.705-3.117,2.34-4.859,1.384  C102.013,796.165,101.377,793.984,102.314,792.279z M112.821,714.28c0.265-0.482,0.839-0.649,1.32-0.385  c0.482,0.265,0.687,0.858,0.422,1.341c-0.264,0.481-0.876,0.628-1.358,0.364C112.724,715.336,112.557,714.761,112.821,714.28z   M90.832,716.386c0.61-1.112,1.987-1.513,3.1-0.902c1.111,0.61,1.513,1.988,0.903,3.1c-0.61,1.112-1.988,1.513-3.1,0.902  C90.622,718.875,90.221,717.498,90.832,716.386z M96.711,722.893c0.244-0.444,0.838-0.649,1.32-0.384  c0.482,0.264,0.665,0.896,0.421,1.34c-0.265,0.482-0.895,0.666-1.377,0.401C96.594,723.986,96.447,723.376,96.711,722.893z"></path><path fill="#E5EFEC" d="M129.454,739.325l10.451-12.009l0.474,0.454l-10.749,12.376l6.834,29.455l30.98,17.007l-7.363-33.41  l0.612-0.147l7.529,33.984l53.697,29.478l-4.527-43.234c0.253,0.331,0.505,0.663,0.757,0.994l2.881,27.431l10.404-8.323  c0.124,0.213,0.232,0.368,0.355,0.581l-10.677,8.558l1.51,14.379l28.682,15.746l-0.326,0.594l-41.69-22.886l-19.568,6.57  l-0.221-0.651l19.012-6.346l-28.83-15.827l-25.054,9.973c-3.068,5.501-9.432,17.006-13.156,23.788  c-0.206-0.066-0.412-0.13-0.654-0.215c3.947-7.189,10.738-19.471,12.809-23.157l-34.622,13.786l-0.778-0.427l60.676-24.175  l-57.513-31.573l-17.373,10.476l-0.319-0.56l17.026-10.282l-24.384-13.386l-38.145,13.878c-0.144-0.176-0.269-0.389-0.413-0.565  l18.976-6.894c-6.897-3.16-16.734-7.644-17.371-7.801l0.068-0.3l-0.038-0.021l-0.3-0.068l0.18-0.239  c0.192-0.088,0.385-0.175,18.362,8.103l17.903-6.521l-63.554-34.889c-0.12-0.307-0.171-0.48-0.171-0.48s0.172-0.049,0.497-0.114  l49.88,27.382L61.602,708.49c0.246-0.01,0.492-0.02,0.759-0.066l21.111,32.085l52.214,28.664l-13.164-56.752  c0.263,0.047,0.469,0.112,0.732,0.16L129.454,739.325z"></path><path fill="#FFF" d="M1153.662,276.627l1.803,540.475c0.027,8.207-6.714,14.872-15.058,14.9l-910.103,3.035  c-8.344,0.028-15.129-6.591-15.157-14.799l-1.803-540.475c-0.027-8.196,6.714-14.86,15.058-14.888l910.103-3.035  C1146.849,261.812,1153.634,268.431,1153.662,276.627z"></path><path fill="#C7CBFF" d="M273.539 413.248l29.1-.097c1.889-.006 3.426 1.52 3.433 3.41l.097 29.1c.006 1.889-1.52 3.426-3.41 3.433l-29.1.097c-1.89.006-3.426-1.52-3.433-3.41l-.097-29.1C270.123 414.791 271.65 413.254 273.539 413.248zM328.316 413.065l29.1-.097c1.889-.006 3.426 1.52 3.433 3.41l.097 29.101c.006 1.889-1.52 3.426-3.41 3.433l-29.1.097c-1.89.006-3.427-1.52-3.433-3.41l-.097-29.1C324.9 414.609 326.427 413.072 328.316 413.065zM383.093 412.883l29.1-.097c1.89-.006 3.427 1.52 3.433 3.41l.097 29.1c.006 1.889-1.52 3.426-3.41 3.433l-29.1.097c-1.889.006-3.426-1.52-3.433-3.41l-.097-29.1C379.677 414.426 381.204 412.889 383.093 412.883zM437.87 412.7l29.1-.097c1.89-.006 3.426 1.52 3.433 3.41l.097 29.1c.006 1.889-1.52 3.426-3.41 3.433l-29.1.097c-1.89.006-3.427-1.52-3.433-3.41l-.097-29.1C434.454 414.243 435.981 412.706 437.87 412.7zM273.766 481.351l29.1-.097c1.89-.006 3.427 1.52 3.433 3.41l.097 29.1c.006 1.89-1.52 3.426-3.41 3.433l-29.1.097c-1.889.006-3.426-1.52-3.433-3.41l-.097-29.1C270.35 482.894 271.877 481.358 273.766 481.351zM325.661 481.178l29.1-.097c1.89-.006 3.427 1.52 3.433 3.41l.097 29.1c.006 1.89-1.52 3.426-3.41 3.433l-29.1.097c-1.89.006-3.426-1.52-3.433-3.41l-.097-29.1C322.245 482.721 323.772 481.184 325.661 481.178zM380.438 480.995l29.1-.097c1.89-.006 3.426 1.52 3.433 3.41l.097 29.1c.006 1.89-1.52 3.426-3.41 3.433l-29.1.097c-1.89.006-3.427-1.52-3.433-3.41l-.097-29.1C377.022 482.539 378.549 481.002 380.438 480.995zM435.215 480.813l29.1-.097c1.889-.006 3.426 1.52 3.433 3.41l.097 29.101c.006 1.889-1.52 3.426-3.41 3.433l-29.1.097c-1.889.006-3.426-1.52-3.433-3.41l-.097-29.1C431.799 482.356 433.326 480.819 435.215 480.813zM1032.432 314.19l-611.836 2.041c-6.41.021-11.624-5.158-11.646-11.568l-.014-4.26c-.021-6.41 5.158-11.624 11.568-11.646l611.836-2.041c6.41-.021 11.624 5.158 11.646 11.568l.014 4.26C1044.021 308.955 1038.842 314.169 1032.432 314.19zM370.124 316.399l-97.481.325c-6.771.023-12.278-5.448-12.301-12.219l-.01-2.954c-.022-6.771 5.448-12.278 12.219-12.301l97.481-.325c6.771-.023 12.278 5.448 12.301 12.219l.01 2.954C382.365 310.869 376.894 316.377 370.124 316.399zM1105.636 292.56l-37.464.125c-.642.002-1.165-.517-1.167-1.159l-.005-1.421c-.002-.642.517-1.165 1.159-1.167l37.464-.125c.642-.002 1.165.517 1.167 1.159l.005 1.42C1106.798 292.036 1106.279 292.558 1105.636 292.56zM1105.668 302.082l-37.464.125c-.642.002-1.165-.517-1.167-1.159l-.005-1.421c-.002-.642.517-1.165 1.159-1.167l37.464-.125c.642-.002 1.165.517 1.167 1.159l.005 1.42C1106.829 301.558 1106.31 302.08 1105.668 302.082zM1105.7 311.604l-37.464.125c-.642.002-1.165-.517-1.167-1.159l-.005-1.42c-.002-.642.517-1.165 1.159-1.167l37.464-.125c.642-.002 1.165.517 1.167 1.159l.005 1.42C1106.861 311.08 1106.342 311.602 1105.7 311.604z"></path><path fill="#FFF" d="M1032.724 306.768l-6.805-2.762-1.743-.996c-.083-.047-.169-.082-.255-.114.601-1.414.834-3.007.572-4.653-.678-4.243-4.495-7.374-8.852-7.254-5.244.145-9.179 4.777-8.395 9.897.641 4.18 4.338 7.311 8.627 7.304 2.387-.004 4.508-.945 6.065-2.438l8.482 5.559c1.273.627 2.821.118 3.457-1.137l0 0C1034.513 308.921 1033.996 307.395 1032.724 306.768zM1016.408 305.71c-3.424.292-6.45-2.217-6.746-5.593-.295-3.375 2.25-6.358 5.675-6.65 3.424-.291 6.45 2.217 6.746 5.593S1019.833 305.418 1016.408 305.71zM428.428 304.341c-.007-1.983 1.619-3.596 3.63-3.603 2.012-.007 3.648 1.595 3.654 3.578.007 1.983-1.619 3.596-3.63 3.602C430.071 307.926 428.435 306.324 428.428 304.341zM443.79 304.29c-.007-1.983 1.619-3.596 3.63-3.603 2.012-.007 3.648 1.595 3.654 3.578.007 1.983-1.619 3.596-3.63 3.602C445.433 307.875 443.797 306.273 443.79 304.29zM459.151 304.239c-.007-1.983 1.619-3.596 3.631-3.603 2.012-.007 3.648 1.595 3.654 3.578.007 1.983-1.619 3.596-3.63 3.602C460.794 307.823 459.158 306.221 459.151 304.239z"></path><path fill="#C7CBFF" d="M864.45,578.365l-333.484,1.112c-13.183,0.044-23.835,10.767-23.791,23.95l0.553,165.702  c0.044,13.183,10.767,23.835,23.95,23.791l333.484-1.112c13.183-0.044,23.835-10.767,23.791-23.95l-0.553-165.703  C888.356,588.972,877.633,578.321,864.45,578.365z"></path><circle cx="559.838" cy="649.486" r="25.812" fill="#FFF" transform="rotate(-69.236 559.854 649.517)"></circle><circle cx="559.429" cy="642.187" r="10.02" fill="#99A1FF"></circle><path fill="#99A1FF" d="M568.654,652.257c-0.809-0.627-1.936-0.601-2.727,0.048c-1.72,1.413-3.922,2.268-6.327,2.276  c-2.326,0.008-4.469-0.777-6.171-2.104c-0.81-0.631-1.956-0.615-2.734,0.057c-2.016,1.74-3.238,4.244-3.227,7.493l0.001,0.293  c0.006,1.68,1.372,3.038,3.053,3.032l18.725-0.063c1.68-0.006,3.038-1.372,3.032-3.052l-0.001-0.293  C572.267,656.556,570.883,653.987,568.654,652.257z"></path><circle cx="560.859" cy="731.543" r="26.974" fill="#FFF" transform="rotate(-84.399 560.884 731.564)"></circle><path fill="#99A1FF" d="M570.055,720.016l0.012,3.527c0.002,0.701-0.566,1.27-1.267,1.273c-0.35,0.001-0.67-0.14-0.9-0.369  c-0.23-0.229-0.374-0.545-0.375-0.895l-0.011-3.211c-0.006-1.708-1.395-3.088-3.103-3.082l-7.202,0.024  c-1.708,0.006-3.09,1.397-3.085,3.105l0.029,8.601l-2.539,0.008l-0.03-8.92c-0.01-2.935,2.362-5.325,5.3-5.335l7.833-0.026  C567.655,714.706,570.045,717.08,570.055,720.016z"></path><path fill="#C7CBFF" d="M561.49,737.587l0.227,2.722c0.008,0.113-0.079,0.208-0.19,0.208l-1.278,0.004  c-0.114,0-0.201-0.094-0.194-0.207l0.208-2.724c-0.353-0.211-0.589-0.604-0.578-1.049c0.015-0.614,0.508-1.123,1.12-1.159  c0.686-0.039,1.258,0.506,1.26,1.184C562.066,737,561.835,737.378,561.49,737.587z"></path><path fill="#99A1FF" d="M575.627 729.714l-29.55.099c-.151.404-.229.834-.228 1.284l.012 3.701c.025 7.514 6.764 13.587 15.051 13.559 4.146-.014 7.89-1.551 10.598-4.022 2.71-2.474 4.378-5.881 4.365-9.638l-.012-3.701C575.862 730.547 575.778 730.117 575.627 729.714zM560.894 742.718c-2.771.009-5.026-2.23-5.035-5.004-.009-2.771 2.23-5.026 5.001-5.035 2.773-.009 5.028 2.23 5.037 5.001C565.907 740.454 563.667 742.709 560.894 742.718zM575.213 728.918l-28.731.096c.772-1.155 2.17-1.933 3.77-1.938l21.181-.071C573.033 727 574.434 727.768 575.213 728.918z"></path><path fill="#C7CBFF" d="M561.49,737.587l0.227,2.722c0.008,0.113-0.079,0.208-0.19,0.208l-1.278,0.004  c-0.114,0-0.201-0.094-0.194-0.207l0.208-2.724c-0.353-0.211-0.589-0.604-0.578-1.049c0.015-0.614,0.508-1.123,1.12-1.159  c0.686-0.039,1.258,0.506,1.26,1.184C562.066,737,561.835,737.378,561.49,737.587z"></path><path fill="#C7CBFF" d="M561.49,737.587l0.227,2.722c0.008,0.113-0.079,0.208-0.19,0.208l-1.278,0.004  c-0.114,0-0.201-0.094-0.194-0.207l0.208-2.724c-0.353-0.211-0.589-0.604-0.578-1.049c0.015-0.614,0.508-1.123,1.12-1.159  c0.686-0.039,1.258,0.506,1.26,1.184C562.066,737,561.835,737.378,561.49,737.587z"></path><path fill="#99A1FF" d="M561.49,737.587l0.227,2.722c0.008,0.113-0.079,0.208-0.19,0.208l-1.278,0.004  c-0.114,0-0.201-0.094-0.194-0.207l0.208-2.724c-0.353-0.211-0.589-0.604-0.578-1.049c0.015-0.614,0.508-1.123,1.12-1.159  c0.686-0.039,1.258,0.506,1.26,1.184C562.066,737,561.835,737.378,561.49,737.587z"></path><path fill="#FFF" d="M826.04 666.153l-196.362.655c-8.902.03-16.143-7.163-16.173-16.065l-.011-3.258c-.03-8.902 7.163-16.143 16.065-16.173l196.362-.655c8.902-.03 16.143 7.163 16.173 16.066l.011 3.258C842.135 658.882 834.943 666.123 826.04 666.153zM649.948 717.609l-22.943.077c-3.579.012-6.47 2.922-6.458 6.501l.077 22.943c.012 3.578 2.922 6.47 6.501 6.458l22.942-.077c3.578-.012 6.47-2.922 6.458-6.501l-.076-22.943C656.438 720.488 653.527 717.597 649.948 717.609zM709.121 717.412l-22.943.077c-3.579.012-6.47 2.922-6.458 6.501l.076 22.943c.012 3.578 2.922 6.47 6.501 6.458l22.942-.077c3.578-.012 6.47-2.923 6.458-6.501l-.076-22.943C715.61 720.291 712.7 717.4 709.121 717.412zM768.294 717.214l-22.942.077c-3.579.012-6.47 2.922-6.458 6.501l.077 22.943c.012 3.578 2.922 6.47 6.501 6.458l22.942-.077c3.578-.012 6.47-2.923 6.458-6.501l-.077-22.943C774.784 720.094 771.873 717.202 768.294 717.214zM827.468 717.017l-22.943.077c-3.579.012-6.47 2.922-6.458 6.501l.077 22.943c.012 3.578 2.922 6.47 6.501 6.458l22.942-.076c3.578-.012 6.47-2.923 6.458-6.501l-.076-22.943C833.957 719.896 831.046 717.005 827.468 717.017z"></path><path fill="#99A1FF" d="M639.366 725.646l.927 6.352c.046.318.374.513.676.401l6.017-2.236c.54-.201.941.513.489.87l-5.037 3.978c-.252.199-.257.58-.009.785l4.945 4.093c.444.367.026 1.071-.509.858l-5.964-2.373c-.299-.119-.631.068-.685.385l-1.072 6.329c-.096.568-.915.558-.998-.011l-.927-6.352c-.046-.318-.374-.513-.676-.401l-6.017 2.236c-.54.201-.941-.513-.489-.87l5.037-3.978c.252-.199.257-.581.009-.786l-4.945-4.093c-.443-.367-.026-1.071.509-.858l5.964 2.373c.299.119.631-.068.685-.385l1.072-6.329C638.465 725.067 639.283 725.077 639.366 725.646zM697.439 725.453l.927 6.352c.046.318.374.513.676.401l6.017-2.236c.54-.201.941.513.489.87l-5.037 3.978c-.252.199-.257.58-.009.785l4.945 4.093c.443.367.026 1.071-.509.859l-5.964-2.373c-.299-.119-.631.068-.685.385l-1.072 6.329c-.096.568-.915.558-.998-.011l-.927-6.352c-.047-.318-.374-.513-.676-.401l-6.017 2.236c-.54.201-.941-.513-.489-.87l5.037-3.978c.252-.199.257-.581.009-.786l-4.945-4.093c-.443-.367-.026-1.071.509-.858l5.964 2.373c.299.119.631-.068.685-.385l1.072-6.329C696.537 724.874 697.356 724.883 697.439 725.453zM757.492 724.957l.927 6.352c.046.318.374.512.676.4l6.017-2.236c.54-.201.941.513.489.87l-5.037 3.978c-.252.199-.257.581-.009.785l4.945 4.093c.443.367.026 1.071-.509.859l-5.964-2.373c-.299-.119-.631.068-.685.385l-1.072 6.329c-.096.568-.915.558-.998-.011l-.927-6.352c-.046-.318-.374-.513-.676-.401l-6.017 2.236c-.539.201-.941-.513-.489-.87l5.037-3.978c.252-.199.257-.58.009-.786l-4.945-4.093c-.443-.367-.026-1.071.509-.858l5.964 2.373c.299.119.631-.068.685-.385l1.072-6.329C756.59 724.378 757.409 724.387 757.492 724.957zM816.787 724.759l.927 6.352c.047.318.374.513.676.401l6.017-2.236c.539-.201.941.513.489.87l-5.037 3.978c-.252.199-.257.581-.009.785l4.945 4.093c.443.367.026 1.071-.509.858l-5.964-2.373c-.299-.119-.631.068-.685.385l-1.072 6.329c-.096.568-.915.558-.998-.011l-.927-6.352c-.046-.318-.374-.513-.676-.401l-6.017 2.236c-.539.201-.941-.513-.489-.87l5.037-3.978c.252-.199.257-.581.009-.786l-4.945-4.093c-.443-.367-.026-1.071.509-.858l5.964 2.373c.299.119.631-.068.685-.385l1.072-6.328C815.886 724.18 816.704 724.189 816.787 724.759z"></path><circle cx="692.458" cy="455.548" r="95.412" fill="#FE6DDA" transform="rotate(-45.001 692.456 455.558)"></circle><circle cx="690.947" cy="428.564" r="37.04" fill="#FFF" transform="rotate(-45.001 690.945 428.574)"></circle><path fill="#FFF" d="M725.044,465.79c-2.989-2.319-7.155-2.223-10.078,0.177c-6.358,5.222-14.498,8.383-23.386,8.413  c-8.6,0.029-16.521-2.873-22.812-7.776c-2.995-2.334-7.23-2.272-10.105,0.21c-7.451,6.432-11.97,15.688-11.93,27.698l0.004,1.083  c0.021,6.211,5.073,11.229,11.284,11.208l69.217-0.231c6.211-0.021,11.23-5.072,11.209-11.283l-0.004-1.083  C738.401,481.682,733.285,472.184,725.044,465.79z"></path><path fill="#C7CBFF" d="M298.908 563.962l-26.155.087c-1.177.004-2.135-.947-2.139-2.125l-.005-1.592c-.004-1.177.947-2.135 2.125-2.139l26.155-.087c1.177-.004 2.135.947 2.139 2.125l.005 1.592C301.037 563 300.086 563.958 298.908 563.962zM382.462 563.683l-74.982.25c-1.177.004-2.135-.947-2.139-2.125l-.005-1.592c-.004-1.177.947-2.135 2.125-2.139l74.982-.25c1.177-.004 2.135.947 2.139 2.125l.005 1.592C384.591 562.721 383.64 563.679 382.462 563.683zM465.881 563.405l-74.982.25c-1.177.004-2.135-.948-2.139-2.125l-.005-1.592c-.004-1.177.947-2.135 2.125-2.139l74.982-.25c1.178-.004 2.135.947 2.139 2.125l.005 1.592C468.01 562.443 467.058 563.401 465.881 563.405zM427.751 589.001l-154.913.517c-1.177.004-2.135-.948-2.139-2.125l-.005-1.592c-.004-1.178.948-2.135 2.125-2.139l154.913-.517c1.177-.004 2.135.947 2.139 2.125l.005 1.592C429.88 588.04 428.928 588.997 427.751 589.001zM465.966 588.874l-24.981.083c-1.178.004-2.135-.948-2.139-2.125l-.005-1.592c-.004-1.177.948-2.135 2.125-2.139l24.981-.083c1.178-.004 2.135.948 2.139 2.125l.005 1.592C468.095 587.912 467.143 588.87 465.966 588.874zM299.072 613.182l-26.155.087c-1.177.004-2.135-.947-2.139-2.125l-.005-1.592c-.004-1.177.947-2.135 2.125-2.139l26.155-.087c1.177-.004 2.135.947 2.139 2.125l.005 1.592C301.201 612.221 300.25 613.178 299.072 613.182zM382.626 612.904l-74.982.25c-1.177.004-2.135-.948-2.139-2.125l-.005-1.592c-.004-1.177.947-2.135 2.125-2.139l74.982-.25c1.178-.004 2.135.947 2.139 2.125l.005 1.592C384.755 611.942 383.804 612.9 382.626 612.904zM466.045 612.625l-74.982.25c-1.177.004-2.135-.948-2.139-2.125l-.005-1.592c-.004-1.177.948-2.135 2.125-2.139l74.982-.25c1.177-.004 2.135.947 2.139 2.125l.005 1.592C468.174 611.664 467.223 612.621 466.045 612.625zM427.915 638.222l-154.913.517c-1.178.004-2.135-.948-2.139-2.125l-.005-1.592c-.004-1.178.947-2.135 2.125-2.139l154.913-.517c1.178-.004 2.135.947 2.139 2.125l.005 1.592C430.044 637.26 429.093 638.218 427.915 638.222zM466.13 638.094l-24.981.083c-1.178.004-2.135-.948-2.139-2.125l-.005-1.592c-.004-1.177.947-2.135 2.125-2.139l24.981-.083c1.177-.004 2.135.947 2.139 2.125l.005 1.592C468.259 637.133 467.307 638.09 466.13 638.094zM299.236 662.403l-26.155.087c-1.178.004-2.135-.947-2.139-2.125l-.005-1.592c-.004-1.177.947-2.135 2.125-2.139l26.155-.087c1.177-.004 2.135.948 2.139 2.125l.005 1.592C301.365 661.441 300.414 662.399 299.236 662.403zM382.791 662.124l-74.982.25c-1.178.004-2.135-.948-2.139-2.125l-.005-1.592c-.004-1.177.947-2.135 2.125-2.139l74.982-.25c1.178-.004 2.135.947 2.139 2.125l.005 1.592C384.919 661.162 383.968 662.12 382.791 662.124zM466.209 661.846l-74.982.25c-1.177.004-2.135-.947-2.139-2.125l-.005-1.592c-.004-1.177.947-2.135 2.125-2.139l74.982-.25c1.177-.004 2.135.947 2.139 2.125l.005 1.592C468.338 660.884 467.387 661.842 466.209 661.846zM428.079 687.442l-154.913.517c-1.178.004-2.135-.948-2.139-2.125l-.005-1.592c-.004-1.178.947-2.135 2.125-2.139l154.913-.517c1.177-.004 2.135.948 2.139 2.125l.005 1.592C430.208 686.48 429.257 687.438 428.079 687.442zM466.294 687.315l-24.981.083c-1.177.004-2.135-.947-2.139-2.125l-.005-1.592c-.004-1.178.947-2.135 2.125-2.139l24.981-.083c1.177-.004 2.135.947 2.139 2.125l.005 1.592C468.423 686.353 467.472 687.311 466.294 687.315zM299.401 711.623l-26.155.087c-1.177.004-2.135-.948-2.139-2.125l-.005-1.592c-.004-1.177.947-2.135 2.125-2.139l26.155-.087c1.177-.004 2.135.948 2.139 2.125l.005 1.592C301.529 710.661 300.578 711.619 299.401 711.623zM382.955 711.344l-74.982.25c-1.177.004-2.135-.947-2.139-2.125l-.005-1.592c-.004-1.177.947-2.135 2.125-2.139l74.982-.25c1.177-.004 2.135.948 2.139 2.125l.005 1.592C385.084 710.383 384.132 711.34 382.955 711.344zM466.373 711.066l-74.982.25c-1.178.004-2.135-.947-2.139-2.125l-.005-1.592c-.004-1.177.947-2.135 2.125-2.139l74.982-.25c1.177-.004 2.135.947 2.139 2.125l.005 1.592C468.502 710.104 467.551 711.062 466.373 711.066zM428.243 736.663l-154.913.517c-1.178.004-2.135-.948-2.139-2.125l-.005-1.592c-.004-1.177.948-2.135 2.125-2.139l154.913-.517c1.177-.004 2.135.948 2.139 2.125l.005 1.592C430.372 735.701 429.421 736.659 428.243 736.663zM466.458 736.535l-24.981.083c-1.178.004-2.135-.948-2.139-2.125l-.005-1.592c-.004-1.177.948-2.135 2.125-2.139l24.981-.083c1.177-.004 2.135.947 2.139 2.125l.005 1.592C468.587 735.573 467.636 736.531 466.458 736.535zM299.565 760.843l-26.155.087c-1.178.004-2.135-.948-2.139-2.125l-.005-1.592c-.004-1.177.947-2.135 2.125-2.139l26.155-.087c1.177-.004 2.135.947 2.139 2.125l.005 1.592C301.694 759.882 300.742 760.839 299.565 760.843zM383.119 760.565l-74.982.25c-1.177.004-2.135-.947-2.139-2.125l-.005-1.592c-.004-1.177.947-2.135 2.125-2.139l74.982-.25c1.178-.004 2.135.948 2.139 2.125l.005 1.592C385.248 759.603 384.297 760.561 383.119 760.565zM466.538 760.286l-74.982.25c-1.177.004-2.135-.947-2.139-2.125l-.005-1.592c-.004-1.177.948-2.135 2.125-2.139l74.982-.25c1.177-.004 2.135.947 2.139 2.125l.005 1.592C468.666 759.325 467.715 760.283 466.538 760.286zM428.408 785.883L273.495 786.4c-1.178.004-2.135-.947-2.139-2.125l-.005-1.592c-.004-1.177.948-2.135 2.125-2.139l154.913-.517c1.177-.004 2.135.947 2.139 2.125l.005 1.592C430.537 784.921 429.585 785.879 428.408 785.883zM466.622 785.755l-24.981.083c-1.178.004-2.135-.948-2.139-2.125l-.005-1.592c-.004-1.177.947-2.135 2.125-2.139l24.981-.083c1.177-.004 2.135.948 2.139 2.125l.005 1.592C468.751 784.794 467.8 785.752 466.622 785.755z"></path><path fill="#B4B9FA" d="M1101.408,590.018l0.312,93.508c0.015,4.352-2.208,8.192-5.588,10.426c-1.019,0.675-2.143,1.204-3.344,1.556  c-1.1,0.323-2.266,0.498-3.47,0.503l-136.8,0.456c-1.684,0.006-3.29-0.324-4.756-0.925c-1.112-0.453-2.141-1.065-3.063-1.805  c-2.834-2.271-4.652-5.757-4.665-9.671l-0.312-93.508c-0.007-2.228,0.571-4.318,1.59-6.13c0.275-0.486,0.58-0.954,0.916-1.397  c2.259-2.999,5.848-4.944,9.896-4.957l136.8-0.456c4.045-0.013,7.648,1.907,9.929,4.891c0.663,0.867,1.216,1.821,1.633,2.847  C1101.076,586.794,1101.403,588.367,1101.408,590.018z"></path><path fill="#FFF" d="M1020.713,630.747l-76.014,62.989c0.922,0.74,1.952,1.352,3.063,1.805l72.941-60.444l72.085,60.41  c1.201-0.352,2.325-0.881,3.344-1.556L1020.713,630.747z"></path><path fill="#FFF" d="M1101.408,590.018l-3.696,10.1l-55.892,40.056c-5.967,4.276-13.003,6.55-20.345,6.575  c-7.342,0.024-14.392-2.203-20.388-6.439l-56.158-39.682l-5.208-10.07c-0.009-2.826,0.923-5.433,2.506-7.527  c2.259-2.999,5.848-4.944,9.896-4.957l136.8-0.456c4.045-0.013,7.648,1.907,9.929,4.891  C1100.45,584.591,1101.399,587.192,1101.408,590.018z"></path><path fill="#C7CBFF" d="M1100.486 585.354l-6.699 13.297-53.745 38.95c-11.105 8.047-26.033 8.097-37.192.124l-54.004-38.591-7.534-14.708c.275-.486.58-.954.916-1.397 2.259-2.999 5.848-4.944 9.896-4.957l136.8-.456c4.045-.013 7.648 1.907 9.929 4.891C1099.516 583.374 1100.069 584.328 1100.486 585.354zM971.84 725.906c.076.897-4.201 23.751-3.261 23.958 3.202 1.079 6.2-2.862 7.692-5.762 4.765-10.623-1.32-24.36-14.179-23.637-6.947.003-13.235 3.516-16.249 9.901-9.708 21.779 11.295 39.634 30.531 24.862l5.755-.019c-14.459 17.443-43.16 9.84-42.859-14.245-.122-8.58 3.866-17.22 10.961-21.585 7.412-4.703 20.177-4.189 26.243 2.465 5.993 5.627 7.225 16.658 3.463 24.143-2.106 5.371-13.549 13.755-16.713 5.663-6.899 7.639-16.605 1.019-15.918-8.666-.805-10.096 9.844-25.807 18.566-13.885l.495-3.174L971.84 725.906zM953.204 744.338c-.43 4.725 3.669 8.925 7.429 5.007 2.621-3.477 5.198-14.509 2.409-18.471-4.141-3.994-8.068 1.24-8.894 5.988C953.511 739.583 953.197 742.075 953.204 744.338zM1095.073 732.976l-93.49.312c-1.24.004-2.248-.997-2.252-2.237l-.002-.454c-.004-1.24.997-2.248 2.237-2.252l93.49-.312c1.24-.004 2.248.998 2.252 2.237l.002.454C1097.314 731.963 1096.313 732.971 1095.073 732.976zM1057.907 752.201l-56.261.188c-1.24.004-2.248-.998-2.252-2.237l-.001-.454c-.004-1.24.997-2.248 2.237-2.252l56.261-.188c1.24-.004 2.248.998 2.252 2.237l.002.454C1060.149 751.189 1059.147 752.197 1057.907 752.201z"></path><path fill="#8A8EC2" d="M1151.068,895.918l-952.41,3.177c-11.649,0.039-21.125-9.374-21.163-21.023l0,0  c-0.039-11.65,9.374-21.125,21.023-21.163l952.41-3.177c11.649-0.039,21.125,9.373,21.163,21.023l0,0  C1172.129,886.404,1162.717,895.879,1151.068,895.918z"></path><path fill="#B1B5DB" d="M1126.655,224.973l-895.563,2.987c-15.2,0.051-27.475,12.408-27.425,27.608l1.93,578.698  c0.051,15.2,12.408,27.475,27.608,27.424l895.563-2.987c15.2-0.051,27.475-12.407,27.424-27.607l-1.93-578.698  C1154.211,237.198,1141.854,224.923,1126.655,224.973z M1147.226,808.628c0.027,8.057-6.651,14.606-14.922,14.633l-902.166,3.009  c-8.272,0.028-14.993-6.476-15.02-14.534l-1.77-530.764c-0.027-8.046,6.651-14.595,14.923-14.623l902.166-3.009  c8.271-0.028,14.992,6.477,15.019,14.523L1147.226,808.628z"></path><path fill="#FFF" d="M666.828,244.978c-0.027-8.048,6.477-14.595,14.524-14.622c8.048-0.027,14.595,6.477,14.622,14.525  c0.027,8.048-6.477,14.594-14.525,14.621C673.401,259.528,666.854,253.027,666.828,244.978z"></path><path fill="#B1B5DB" d="M671.046,244.964c-0.019-5.719,4.602-10.37,10.32-10.389c5.719-0.019,10.37,4.602,10.389,10.32  c0.019,5.719-4.602,10.369-10.32,10.388C675.717,255.302,671.065,250.683,671.046,244.964z"></path><path fill="#FE6DDA" d="M1103.245,493.875l-79.635-137.932c-2.504-4.337-8.765-4.337-11.269,0l-79.635,137.932  c-2.504,4.337,0.626,9.759,5.634,9.759h159.269C1102.619,503.634,1105.749,498.213,1103.245,493.875z"></path><path fill="#FFF" d="M1090.751,489.309l-69.433-120.261c-1.485-2.573-5.199-2.573-6.684,0l-69.433,120.261  c-1.485,2.573,0.372,5.789,3.342,5.789h138.866C1090.38,495.097,1092.236,491.882,1090.751,489.309z"></path><path fill="#DDE4F0" d="M1090.751,489.309l-69.433-120.261c-1.485-2.573-5.199-2.573-6.684,0l-0.372,0.644l66.76,115.632  c1.485,2.573-0.371,5.789-3.342,5.789H944.688c-0.065,2.062,1.558,3.985,3.855,3.985h138.866  C1090.38,495.097,1092.236,491.882,1090.751,489.309z"></path><path fill="#DDE4F0" d="M1017.976,464.333c-3.575,0-6.612-2.791-6.913-6.353l-4.381-51.838c-0.163-1.929,0.495-3.853,1.805-5.279  c1.31-1.425,3.172-2.243,5.108-2.243h8.761c1.936,0,3.798,0.818,5.108,2.243c1.31,1.426,1.968,3.349,1.805,5.279l-4.381,51.838  C1024.588,461.542,1021.551,464.333,1017.976,464.333z"></path><path fill="#FE6DDA" d="M1022.356,400.867h-8.761c-2.746,0-4.905,2.349-4.674,5.086l4.381,51.838  c0.205,2.429,2.237,4.296,4.674,4.296c2.438,0,4.469-1.867,4.674-4.296l4.381-51.838  C1027.262,403.216,1025.103,400.867,1022.356,400.867z"></path><circle cx="1017.976" cy="474.733" r="7.851" fill="#DDE4F0" transform="rotate(-45.001 1017.975 474.747)"></circle><path fill="#FE6DDA" d="M1012.371 474.733c0-3.095 2.509-5.605 5.605-5.605 3.095 0 5.605 2.509 5.605 5.605 0 3.095-2.509 5.605-5.605 5.605C1014.88 480.338 1012.371 477.828 1012.371 474.733zM930.301 517.518h28.104v7.246h-17.594v5.394h16.321v6.921h-16.321v6.69h18.103v7.686h-28.613V517.518zM964.701 551.455v-33.937h17.478c3.241 0 5.718.277 7.431.833 1.713.556 3.094 1.586 4.144 3.091 1.049 1.504 1.574 3.337 1.574 5.498 0 1.883-.401 3.507-1.205 4.873-.803 1.366-1.907 2.474-3.312 3.322-.896.541-2.123.988-3.683 1.343 1.249.417 2.159.835 2.73 1.251.385.278.944.872 1.677 1.784.732.911 1.222 1.614 1.469 2.109l5.078 9.834h-11.849l-5.606-10.371c-.71-1.343-1.343-2.215-1.898-2.616-.756-.525-1.613-.787-2.569-.787h-.926v13.774H964.701zM975.234 531.268h4.422c.478 0 1.404-.154 2.778-.463.695-.139 1.262-.494 1.702-1.065.44-.571.66-1.227.66-1.968 0-1.095-.347-1.937-1.042-2.523-.694-.586-1.999-.879-3.912-.879h-4.607V531.268zM1001.579 551.455v-33.937h17.478c3.241 0 5.718.277 7.431.833 1.713.556 3.094 1.586 4.144 3.091 1.049 1.504 1.574 3.337 1.574 5.498 0 1.883-.401 3.507-1.204 4.873-.803 1.366-1.907 2.474-3.312 3.322-.896.541-2.123.988-3.683 1.343 1.249.417 2.159.835 2.73 1.251.385.278.944.872 1.677 1.784.733.911 1.222 1.614 1.469 2.109l5.078 9.834h-11.849l-5.606-10.371c-.71-1.343-1.343-2.215-1.898-2.616-.756-.525-1.613-.787-2.569-.787h-.926v13.774H1001.579zM1012.112 531.268h4.422c.478 0 1.404-.154 2.778-.463.695-.139 1.262-.494 1.702-1.065.44-.571.66-1.227.66-1.968 0-1.095-.347-1.937-1.042-2.523-.694-.586-1.999-.879-3.912-.879h-4.607V531.268zM1036.187 534.509c0-5.54 1.543-9.854 4.63-12.941 3.087-3.086 7.385-4.629 12.894-4.629 5.648 0 10.001 1.516 13.056 4.549 3.056 3.033 4.584 7.28 4.584 12.743 0 3.967-.668 7.22-2.003 9.758-1.335 2.538-3.264 4.514-5.787 5.926-2.523 1.412-5.669 2.118-9.434 2.118-3.828 0-6.995-.61-9.503-1.828-2.508-1.22-4.542-3.149-6.1-5.788C1036.967 541.778 1036.187 538.476 1036.187 534.509zM1046.674 534.555c0 3.427.636 5.888 1.91 7.385 1.273 1.497 3.005 2.246 5.197 2.246 2.253 0 3.997-.733 5.232-2.2 1.235-1.466 1.852-4.097 1.852-7.893 0-3.195-.645-5.529-1.933-7.003-1.289-1.474-3.036-2.211-5.243-2.211-2.115 0-3.812.749-5.093 2.246C1047.315 528.622 1046.674 531.099 1046.674 534.555zM1077.139 551.455v-33.937h17.478c3.241 0 5.718.277 7.431.833 1.713.556 3.094 1.586 4.144 3.091 1.049 1.504 1.574 3.337 1.574 5.498 0 1.883-.401 3.507-1.205 4.873-.803 1.366-1.907 2.474-3.312 3.322-.896.541-2.123.988-3.683 1.343 1.249.417 2.159.835 2.73 1.251.385.278.944.872 1.677 1.784.732.911 1.222 1.614 1.469 2.109l5.078 9.834h-11.849l-5.605-10.371c-.71-1.343-1.343-2.215-1.898-2.616-.756-.525-1.613-.787-2.57-.787h-.926v13.774H1077.139zM1087.672 531.268h4.422c.478 0 1.404-.154 2.778-.463.695-.139 1.262-.494 1.702-1.065.44-.571.66-1.227.66-1.968 0-1.095-.348-1.937-1.042-2.523-.694-.586-1.999-.879-3.912-.879h-4.607V531.268z"></path><path fill="#E6B157" d="M197.806,729.866l111.199-85.093c4.531-3.467,11.197-3.47,15.732-0.006l111.417,85.099  c2.707,2.068,4.267,5.097,4.267,8.287v110.769c0,6.01-5.43,10.883-12.129,10.883H205.676c-6.698,0-12.128-4.872-12.128-10.883  V738.146C193.548,734.96,195.104,731.933,197.806,729.866z"></path><path fill="#FFF" d="M247.637,823.6H386.1c1.346,0,2.437-1.091,2.437-2.437V648.883c0-1.346-1.091-2.437-2.437-2.437H275.644  c-0.646,0-1.266,0.256-1.723,0.714l-28.007,28c-0.457,0.457-0.714,1.077-0.714,1.724v144.279  C245.199,822.509,246.291,823.6,247.637,823.6z"></path><polygon fill="#D1D5F0" points="245.199 675.874 274.635 646.446 274.635 675.874"></polygon><path fill="#FFC86B" d="M440.421,731.099v123.477c0,2.272-1.062,4.321-2.765,5.77c-0.189,0.163-0.389,0.317-0.594,0.464  c-1.512,1.078-3.427,1.721-5.507,1.721H202.18c-2.078,0-3.995-0.643-5.505-1.721c-0.165-0.117-0.326-0.24-0.48-0.37  c-1.769-1.452-2.878-3.541-2.878-5.864V729.739c0-6.439,8.082-10.211,13.957-6.513l88.865,55.917l5.426,3.414l0.052,0.033  l3.306,2.08l6.907,4.347c3.029,1.906,7.062,1.924,10.113,0.042l6.987-4.31l3.457-2.134l1.687-1.04l3.839-2.367l88.62-54.663  C432.416,720.916,440.421,724.695,440.421,731.099z"></path><path fill="#EBB150" d="M337.911,779.208l-3.839,2.367l-1.687,1.04l98.24,79.914h0.93c2.08,0,3.995-0.643,5.507-1.721  c0.205-0.147,0.405-0.302,0.594-0.464L337.911,779.208z M296.138,779.143l-99.943,81.296c0.154,0.13,0.316,0.252,0.48,0.37  c1.51,1.078,3.427,1.721,5.505,1.721h1.163l98.274-79.938l-0.052-0.033L296.138,779.143z"></path><path fill="#ADB5D6" d="M359.264,681.84c-1.035-1.216-2.453-1.912-3.925-2.065c-0.006-1.359-0.473-2.724-1.423-3.84  c-2.137-2.51-5.904-2.812-8.414-0.675c-1.496,1.274-1.358,4.119-0.973,6.238c0.309,1.704-0.31,3.444-1.629,4.567l-24.969,21.26  l4.422,5.194l25.155-21.419c1.319-1.123,3.135-1.457,4.768-0.88c2.031,0.718,4.817,1.307,6.313,0.034  C361.099,688.117,361.401,684.35,359.264,681.84z"></path><path fill="#ADB5D6" d="M359.264 681.84c-.877-1.03-2.029-1.685-3.255-1.955.701.348 1.345.839 1.884 1.473 2.137 2.51 1.835 6.277-.675 8.414-1.496 1.273-4.282.684-6.313-.034-1.633-.577-3.449-.243-4.768.88l-24.598 20.945.814.956 25.155-21.419c1.319-1.123 3.135-1.457 4.768-.88 2.031.718 4.817 1.307 6.313.034C361.099 688.117 361.401 684.35 359.264 681.84zM350.659 673.977c.702.349 1.346.841 1.886 1.475.95 1.116 1.417 2.481 1.423 3.84.463.048.921.15 1.362.305-.044-1.3-.506-2.595-1.415-3.663C353.039 674.904 351.886 674.247 350.659 673.977zM276.598 681.84c1.035-1.216 2.453-1.912 3.925-2.065.006-1.359.473-2.724 1.423-3.84 2.137-2.51 5.904-2.812 8.414-.675 1.496 1.274 1.358 4.119.973 6.238-.309 1.704.31 3.444 1.629 4.567l24.969 21.26-4.422 5.194L288.354 691.1c-1.319-1.123-3.135-1.457-4.768-.88-2.031.718-4.817 1.307-6.313.034C274.763 688.117 274.461 684.35 276.598 681.84z"></path><path fill="#ADB5D6" d="M276.598 681.84c.877-1.03 2.029-1.685 3.255-1.955-.701.348-1.345.839-1.885 1.473-2.137 2.51-1.835 6.277.675 8.414 1.496 1.273 4.282.684 6.313-.034 1.633-.577 3.449-.243 4.768.88l24.598 20.945-.814.956L288.354 691.1c-1.319-1.123-3.135-1.457-4.768-.88-2.031.718-4.817 1.307-6.313.034C274.763 688.117 274.461 684.35 276.598 681.84zM285.202 673.977c-.702.349-1.346.841-1.886 1.475-.95 1.116-1.417 2.481-1.423 3.84-.463.048-.921.15-1.362.305.044-1.3.506-2.595 1.415-3.663C282.823 674.904 283.975 674.247 285.202 673.977zM360.011 749.087c-1.035 1.216-2.453 1.912-3.925 2.065-.006 1.359-.473 2.724-1.423 3.84-2.137 2.51-5.904 2.812-8.414.675-1.496-1.274-1.358-4.119-.973-6.238.309-1.704-.31-3.444-1.629-4.567l-24.969-21.26 4.422-5.194 25.155 21.419c1.319 1.123 3.135 1.457 4.768.88 2.031-.718 4.817-1.307 6.313-.034C361.846 742.81 362.148 746.577 360.011 749.087z"></path><path fill="#ADB5D6" d="M360.011 749.087c-.877 1.03-2.029 1.685-3.255 1.955.701-.348 1.345-.839 1.884-1.473 2.137-2.51 1.835-6.277-.675-8.414-1.496-1.274-4.282-.684-6.313.034-1.633.577-3.449.243-4.768-.88l-24.598-20.945.814-.956 25.155 21.419c1.319 1.123 3.135 1.457 4.768.88 2.031-.718 4.817-1.307 6.313-.034C361.846 742.81 362.148 746.577 360.011 749.087zM351.406 756.95c.702-.349 1.346-.841 1.886-1.475.95-1.116 1.417-2.481 1.423-3.84.463-.048.921-.15 1.362-.305-.044 1.3-.506 2.595-1.415 3.663C353.785 756.023 352.633 756.68 351.406 756.95zM273.958 748.325c1.035 1.216 2.453 1.912 3.925 2.065.006 1.359.473 2.724 1.423 3.84 2.137 2.51 5.904 2.812 8.414.675 1.496-1.274 1.358-4.119.973-6.238-.309-1.705.31-3.444 1.629-4.567l24.969-21.26-4.422-5.194-25.155 21.419c-1.319 1.123-3.135 1.457-4.768.88-2.031-.717-4.817-1.307-6.313-.034C272.123 742.048 271.821 745.815 273.958 748.325z"></path><path fill="#ADB5D6" d="M273.958 748.325c.877 1.03 2.029 1.685 3.255 1.955-.701-.348-1.345-.839-1.884-1.473-2.137-2.51-1.835-6.277.675-8.414 1.496-1.274 4.282-.684 6.313.034 1.633.577 3.449.243 4.768-.88l24.598-20.945-.814-.956-25.155 21.419c-1.319 1.123-3.135 1.457-4.768.88-2.031-.717-4.817-1.307-6.313-.034C272.123 742.048 271.821 745.815 273.958 748.325zM282.563 756.188c-.702-.349-1.346-.841-1.886-1.476-.95-1.116-1.417-2.481-1.423-3.84-.463-.048-.92-.15-1.362-.305.044 1.3.506 2.595 1.415 3.663C280.184 755.26 281.336 755.918 282.563 756.188z"></path><path fill="#ADB5D6" d="M346.199,723.944c0,7.842,1.203,9.56-1.026,15.02c-2.26,5.535-9.674,5.209-13.515,11.486  c-0.114,0.185-0.224,0.374-0.33,0.566c-0.35,0.637-1.447,1.604-2.567,2.213c-0.456,0.252-1.014-0.086-1.014-0.609v-1.604  c0-0.68-0.55-1.23-1.23-1.23c-0.338,0-0.649,0.138-0.869,0.362c-0.224,0.22-0.362,0.527-0.362,0.869v1.423  c0,1.356-0.892,2.551-2.193,2.933l-0.063,0.02c-1.981,0.582-3.966-0.904-3.966-2.972v-1.403c0-0.68-0.55-1.23-1.23-1.23  c-0.342,0-0.649,0.138-0.869,0.362c-0.224,0.22-0.362,0.527-0.362,0.869v2.241c0,1.844-1.616,3.302-3.444,3.058  c-0.055-0.008-0.11-0.012-0.165-0.02c-1.506-0.216-2.61-1.529-2.61-3.047v-2.233c0-0.68-0.55-1.23-1.23-1.23  c-0.342,0-0.649,0.138-0.869,0.362c-0.224,0.22-0.362,0.527-0.362,0.869v2.488c0,0.716-0.739,1.191-1.392,0.904  c-2.229-0.983-4.155-2.701-4.533-3.393c-3.734-6.867-11.518-6.357-13.845-12.052c-2.229-5.46-1.026-7.178-1.026-15.02  c0-8.923-5.382-13.57-1.282-24.663c2.905-7.862,9.423-13.165,17.206-15.948c16.538-5.92,38.815-0.472,44.428,15.948  C351.305,710.473,346.199,715.021,346.199,723.944z"></path><path fill="#ADB5D6" d="M302.17,730.01c-4.639,0-8.272-4.85-8.272-11.041c0-6.191,3.634-11.041,8.272-11.041  c5.226,0,11.183,6.947,11.183,13.041C313.353,727.205,306.814,730.01,302.17,730.01z"></path><path fill="#5D6380" d="M311.388,720.969c0,5.012-5.735,7.076-9.218,7.076c-3.483,0-6.307-4.063-6.307-9.076  c0-5.012,2.824-9.076,6.307-9.076C306.221,709.894,311.388,715.957,311.388,720.969z"></path><path fill="#ADB5D6" d="M331.037,730.01c4.639,0,8.272-4.85,8.272-11.041c0-6.191-3.634-11.041-8.272-11.041  c-5.226,0-11.183,6.947-11.183,13.041C319.854,727.205,326.394,730.01,331.037,730.01z"></path><path fill="#5D6380" d="M321.819,720.969c0,5.012,5.735,7.076,9.218,7.076c3.483,0,6.307-4.063,6.307-9.076  c0-5.012-2.824-9.076-6.307-9.076C326.987,709.894,321.819,715.957,321.819,720.969z"></path><path fill="#ADB5D6" d="M346.199 723.944c0 7.842 1.203 9.56-1.026 15.02-2.26 5.535-9.674 5.209-13.515 11.486-.075-.397-.083-.826-.024-1.281.822-6.254 12.436-8.344 12.338-13.82-.055-3.08-.954-9.46.481-18.073 1.435-8.613 2.458-19.508-8.614-27.611-12.815-9.379-23.266-7.691-32.788-6.333 16.538-5.92 38.815-.472 44.428 15.948C351.305 710.473 346.199 715.021 346.199 723.944zM320.468 735.676c-1.304 0-2.577-1.021-3.166-2.54-.328-.844-.404-1.743-.214-2.533.224-.932.805-1.643 1.596-1.95.279-.108.574-.163.877-.163 1.304 0 2.577 1.021 3.166 2.54.328.844.404 1.743.215 2.533-.224.932-.805 1.643-1.596 1.95C321.067 735.621 320.772 735.676 320.468 735.676z"></path><path fill="#5D6380" d="M321.628,731.457c0.499,1.287,0.182,2.611-0.709,2.956c-0.891,0.346-2.018-0.417-2.518-1.704  c-0.5-1.287-0.182-2.61,0.709-2.956C320.001,729.407,321.128,730.17,321.628,731.457z"></path><path fill="#ADB5D6" d="M312.739,735.676c1.304,0,2.577-1.021,3.166-2.54c0.327-0.844,0.404-1.743,0.214-2.533  c-0.223-0.932-0.805-1.643-1.596-1.95c-0.279-0.108-0.574-0.163-0.877-0.163c-1.304,0-2.577,1.021-3.166,2.54  c-0.328,0.844-0.404,1.743-0.214,2.533c0.224,0.932,0.805,1.643,1.596,1.95C312.14,735.621,312.436,735.676,312.739,735.676z"></path><path fill="#5D6380" d="M311.579,731.457c-0.5,1.287-0.182,2.611,0.709,2.956c0.891,0.346,2.018-0.417,2.518-1.704  c0.499-1.287,0.182-2.61-0.709-2.956C313.206,729.407,312.079,730.17,311.579,731.457z"></path><path fill="#FE81DF" d="M332.543,208.618h-89.781l10.878-79.683l0,0c22.402-4.975,45.622-4.975,68.024,0l0,0L332.543,208.618z"></path><path fill="#F573D5" d="M318.464,148.845l8.16,59.774h5.919l-10.878-79.683c-22.402-4.975-45.622-4.975-68.024,0l-0.404,2.961  c15.145-2.853,30.606-3.459,45.884-1.811C309.114,131.163,317.104,138.886,318.464,148.845z"></path><path fill="#FFA6E8" d="M258.342,196.785l5.694-41.707c0.982-7.193,6.9-12.711,14.147-13.163c2.949-0.184,5.903-0.276,8.855-0.276  c2.952,0,5.906,0.092,8.855,0.276c7.246,0.451,13.165,5.969,14.147,13.163l5.694,41.707H258.342z"></path><path fill="#393573" d="M341.518,228.223H233.787v-22.848c0-4.744,3.846-8.59,8.59-8.59h90.55c4.744,0,8.59,3.846,8.59,8.59V228.223  z"></path><path fill="#534E8C" d="M343.55 211.207H231.755c-1.484 0-2.686-1.159-2.686-2.589l0 0c0-1.43 1.203-2.588 2.686-2.588H343.55c1.484 0 2.686 1.159 2.686 2.588l0 0C346.237 210.048 345.034 211.207 343.55 211.207zM343.55 218.997H231.755c-1.484 0-2.686-1.159-2.686-2.589l0 0c0-1.43 1.203-2.589 2.686-2.589H343.55c1.484 0 2.686 1.159 2.686 2.589l0 0C346.237 217.838 345.034 218.997 343.55 218.997z"></path><path fill="#FFA6E8" d="M258.062 137.842c-2.005 12.793-4.01 25.587-6.014 38.38-.307 1.962 2.695 2.807 3.005.829 2.004-12.793 4.009-25.587 6.014-38.38C261.374 136.708 258.371 135.863 258.062 137.842zM254.08 182.345c-.189-.323-.56-.632-.931-.716-.758-.173-1.767.23-1.917 1.089-.347 1.99-.695 3.98-1.042 5.97-.074.423-.067.818.157 1.201.189.323.56.631.931.716.758.173 1.767-.23 1.917-1.088.347-1.99.695-3.98 1.042-5.971C254.311 183.123 254.304 182.727 254.08 182.345z"></path><path fill="#FE81DF" d="M241.039 119.304c-4.141-3.65-8.282-7.3-12.424-10.95-1.004-.885-2.68-.997-3.621.072-.884 1.004-1.003 2.674.072 3.621 4.141 3.65 8.282 7.3 12.423 10.95 1.004.885 2.68.997 3.621-.072C241.995 121.921 242.114 120.251 241.039 119.304zM264.112 111.316c-6.353-13.274-12.706-26.548-19.059-39.822-1.416-2.958-6.165-1.033-4.737 1.952 6.353 13.274 12.706 26.547 19.059 39.822C260.791 116.226 265.54 114.301 264.112 111.316zM288.931 48.495c-.234 19.602-.468 39.204-.703 58.806-.04 3.297 5.082 3.299 5.122 0 .234-19.602.469-39.204.703-58.806C294.093 45.199 288.971 45.196 288.931 48.495zM327.584 76.329c-4.899 10.891-9.797 21.781-14.695 32.672-1.354 3.011 3.335 5.075 4.687 2.069 4.898-10.891 9.796-21.782 14.695-32.672C333.625 75.387 328.936 73.323 327.584 76.329zM350.021 113.559c-.876-1.076-2.437-1.38-3.584-.524-4.299 3.208-8.598 6.415-12.897 9.623-1.074.802-1.397 2.511-.524 3.584.876 1.076 2.437 1.38 3.584.524 4.299-3.208 8.597-6.415 12.896-9.623C350.571 116.342 350.894 114.633 350.021 113.559z"></path><path fill="#3B43A3" d="M606.029,573.662c0.532,3.799,0.815,7.713,0.828,11.706c0.121,36.152-21.826,65.737-49.536,67.611  C558.386,618.832,577.799,589.193,606.029,573.662z"></path><path fill="#3B43A3" d="M503.665,568.604c5.786-29.033,26.192-50.508,50.548-50.589c24.361-0.081,44.91,21.257,50.889,50.251  c-25.169,13.262-43.957,37.042-50.498,65.428C547.868,605.347,528.921,581.697,503.665,568.604z"></path><path fill="#3B43A3" d="M502.024,585.718c-0.013-3.993,0.244-7.908,0.75-11.711c28.338,15.342,47.948,44.851,49.235,78.995  C524.294,651.313,502.145,621.87,502.024,585.718z"></path><path fill="#3B43A3" d="M527.018 657l-.025-7.487c8.384 5.751 17.838 8.788 27.688 8.755 9.854-.033 19.289-3.133 27.634-8.945l.025 7.492c.051 15.275-12.291 27.699-27.571 27.75C539.493 684.617 527.069 672.275 527.018 657zM598.912 631.921c.672-1.015 1.317-2.055 1.931-3.111l14.784 6.918 17.561-12.005c.829-.563 1.956-.355 2.525.474.569.829.354 1.962-.474 2.525l-18.416 12.595c-.534.36-1.214.414-1.796.146L598.912 631.921zM604.097 548.669l16.348-3.824 9.459-17.394c.33-.603.952-.943 1.596-.945.296-.001.592.07.873.22.879.48 1.205 1.585.725 2.464l-9.851 18.107c-.248.453-.678.781-1.181.902l-16.482 3.856C605.117 550.908 604.62 549.783 604.097 548.669zM611.643 594.355c.115-1.231.21-2.467.278-3.708l22.982 6.844 21.469-20.394c.352-.328.798-.496 1.245-.497.488-.002.966.189 1.326.567.693.725.661 1.877-.064 2.57l-22.235 21.113c-.471.448-1.145.606-1.769.422L611.643 594.355zM471.391 624.745c.563-.833 1.694-1.049 2.522-.491l17.641 11.888 16.329-7.775c.611 1.057 1.248 2.099 1.916 3.119l-17.615 8.387c-.586.272-1.266.222-1.797-.134l-18.505-12.472C471.049 626.709 470.833 625.578 471.391 624.745zM474.087 527.254c.275-.151.576-.225.872-.226.639-.002 1.263.333 1.597.935l9.58 17.331 18.212 4.134c-.51 1.118-.995 2.252-1.442 3.4l-18.368-4.17c-.509-.118-.941-.443-1.192-.894l-9.972-18.041C472.888 528.847 473.206 527.74 474.087 527.254zM447.849 577.871c.357-.38.839-.574 1.322-.576.446-.002.894.163 1.248.489l21.604 20.25 24.944-7.606c.066 1.246.154 2.481.277 3.711l-25.161 7.675c-.622.189-1.298.035-1.777-.41l-22.375-20.964C447.201 579.753 447.161 578.601 447.849 577.871z"></path><path fill="#FFF" d="M523.846 550.627l10.628-.035c1.771-.006 3.133.428 4.084 1.302.951.874 1.429 1.959 1.433 3.254.004 1.086-.332 2.019-1.006 2.798-.45.52-1.108.931-1.976 1.235 1.321.313 2.294.855 2.919 1.626.625.771.94 1.741.943 2.911.003.953-.215 1.81-.656 2.572-.44.762-1.044 1.366-1.811 1.811-.475.277-1.193.48-2.154.609-1.278.171-2.126.258-2.543.259l-9.801.033L523.846 550.627zM529.598 557.815l2.469-.008c.886-.003 1.501-.157 1.847-.464.346-.306.518-.748.516-1.324-.002-.535-.177-.952-.524-1.252-.348-.3-.952-.448-1.813-.445l-2.507.008L529.598 557.815zM529.622 565.034l2.895-.01c.978-.003 1.666-.179 2.066-.527.4-.348.599-.815.597-1.399-.002-.543-.202-.979-.6-1.308-.398-.329-1.094-.491-2.089-.488l-2.883.01L529.622 565.034zM555.092 550.523l5.665-.019.036 10.947c.004 1.086-.162 2.111-.497 3.077-.335.965-.863 1.811-1.583 2.535-.721.725-1.477 1.234-2.27 1.529-1.102.413-2.425.622-3.971.627-.894.003-1.87-.057-2.927-.178-1.058-.122-1.942-.367-2.653-.736-.711-.369-1.363-.895-1.954-1.578-.591-.683-.997-1.387-1.217-2.113-.355-1.168-.534-2.203-.537-3.104l-.036-10.947 5.665-.019.037 11.208c.003 1.002.284 1.784.841 2.345.557.562 1.329.841 2.315.838.978-.003 1.743-.283 2.297-.84.554-.557.829-1.345.826-2.363L555.092 550.523zM573.793 562.179l-.013-3.823 8.773-.029.026 7.833c-1.675 1.151-3.158 1.934-4.448 2.352-1.29.418-2.82.63-4.591.636-2.181.007-3.96-.359-5.337-1.098-1.377-.739-2.446-1.843-3.207-3.311-.761-1.468-1.145-3.155-1.151-5.06-.007-2.005.401-3.751 1.223-5.237.822-1.486 2.03-2.616 3.623-3.39 1.243-.597 2.917-.9 5.023-.907 2.03-.007 3.549.172 4.558.536 1.008.364 1.846.932 2.512 1.702.667.771 1.169 1.749 1.508 2.934l-5.474.996c-.228-.693-.612-1.222-1.152-1.588-.54-.366-1.228-.547-2.064-.545-1.245.004-2.236.44-2.972 1.307-.737.867-1.102 2.237-1.096 4.108.007 1.989.385 3.408 1.136 4.258.751.85 1.794 1.272 3.131 1.268.635-.002 1.24-.096 1.816-.282.576-.186 1.235-.501 1.977-.947l-.006-1.73L573.793 562.179z"></path><path fill="#3B43A3" d="M579.537 679.097c.895-.993 1.722-2.042 2.481-3.136l10.805 9.894 5.133 18.068c.299 1.057-.311 2.151-1.368 2.451-1.057.311-2.162-.312-2.462-1.368l-4.834-16.978L579.537 679.097zM511.714 704.211l5.024-18.102 10.727-9.954c.766 1.089 1.6 2.121 2.501 3.108l-9.695 8.995-4.721 17.01c-.292 1.058-1.393 1.688-2.452 1.384C512.04 706.36 511.422 705.27 511.714 704.211z"></path><rect width="5.747" height="355.745" x="551.006" y="166.404" fill="#4C54BD"></rect><path fill="#493D93" d="M186.582,355.354l7.012,15.365c1.395,3.057,0.048,6.667-3.009,8.063l0,0  c-3.058,1.395-6.667,0.048-8.063-3.009l-6.384-13.987c-3.397-7.444-12.186-10.725-19.63-7.327l-31.392,14.327  c-7.447,3.399-10.73,12.192-7.331,19.639l21.593,47.314l-11.072,5.053l-22.225-48.698c-5.842-12.802-0.201-27.916,12.601-33.758  l34.141-15.581C165.626,336.911,180.74,342.552,186.582,355.354z"></path><path fill="#3D3185" d="M152.216 355.837l-31.392 14.327c-7.448 3.399-10.729 12.192-7.331 19.639l21.593 47.314-6.998 3.194.219.479 11.072-5.053-21.593-47.314c-3.399-7.448-.117-16.24 7.331-19.639l30.88-14.093C154.72 354.899 153.45 355.275 152.216 355.837zM153.544 342.446c11.512-2.589 23.652 3.127 28.745 14.287l7.012 15.365c1.169 2.563.407 5.508-1.669 7.218.981.07 1.994-.098 2.952-.535 3.057-1.395 4.405-5.005 3.009-8.063l-7.012-15.365C180.849 342.791 166.188 337.132 153.544 342.446z"></path><path fill="#F578D6" d="M245.001,393.237l8.864,18.027c9.002,18.308,8.97,38.898,1.64,57.4  c-7.33,18.502-21.956,34.906-42.145,44.833c-40.365,19.847-87.687,6.257-105.687-30.351l-8.864-18.027  c-1.073-2.183-1.71-4.48-1.943-6.804c-0.167-1.618-0.132-3.241,0.084-4.86c1.015-7.476,5.991-14.588,13.78-18.418L213.9,384.308  c7.788-3.829,16.459-3.427,23,0.334c1.407,0.821,2.72,1.782,3.9,2.901C242.497,389.148,243.927,391.054,245.001,393.237z"></path><path fill="#EB65CA" d="M219.488,382.3c4.999,1.803,9.218,5.303,11.636,10.221l8.865,18.03c18,36.609-0.134,82.377-40.504,102.226  c-11.733,5.769-24.053,8.708-36.069,9.084c16.188,2.21,33.633-0.349,49.944-8.369c40.37-19.849,58.503-65.617,40.504-102.226  l-8.865-18.03C240.517,384.121,229.859,379.858,219.488,382.3z"></path><circle cx="187.837" cy="461.581" r="31.294" fill="#FFF" transform="rotate(-71.181 187.836 461.56)"></circle><circle cx="187.837" cy="461.582" r="27.244" fill="#FF99DF" transform="rotate(-42.175 187.815 461.554)"></circle><path fill="#FFF" d="M191.941 449.377c-2.282-4.642-8.004-6.465-12.578-3.906-4.071 2.278-5.749 7.424-3.812 11.667 1.414 3.097 4.332 4.99 7.471 5.265l7.682 19.355c.315.794 1.24 1.151 2.007.774l8.739-4.297c.767-.377 1.049-1.327.613-2.062l-10.636-17.902C193.082 455.687 193.393 452.331 191.941 449.377zM240.799 387.544L96.865 458.314c-.167-1.618-.132-3.241.084-4.86L236.9 384.642C238.306 385.464 239.62 386.424 240.799 387.544z"></path><path fill="#4C54BD" d="M1281.041,233.096c-2.237,0-4.397,0.306-6.473,0.826c-1.526-8.473-8.922-14.908-17.835-14.908  c-1.475,0-2.9,0.195-4.273,0.527c0.037-0.57,0.087-1.136,0.087-1.715c0-14.727-11.938-26.665-26.665-26.665  c-3.172,0-6.201,0.583-9.022,1.599c-4.639-15.281-18.827-26.407-35.624-26.407c-18.899,0-34.471,14.092-36.876,32.333  c-5.929-3.881-13.005-6.156-20.62-6.156c-20.834,0-37.724,16.889-37.724,37.723c0,2.837,0.339,5.59,0.932,8.248  c-1.357-0.237-2.745-0.385-4.17-0.385c-13.311,0-24.101,10.791-24.101,24.102c0,12.911,10.161,23.421,22.918,24.042l-0.013,0.06  h3.702c2.102,2.206,4.618,4.012,7.419,5.301v26.861c-1.526,0.646-2.597,2.158-2.597,3.919c0,2.349,1.905,4.254,4.254,4.254  c2.349,0,4.254-1.904,4.254-4.254c0-1.762-1.071-3.273-2.597-3.919v-25.626c2.128,0.619,4.376,0.958,6.705,0.958  c6.485,0,12.359-2.574,16.691-6.74c0.755,1.008,1.582,1.958,2.459,2.859V317.9l-5.185,14.033v14.202  c-1.527,0.646-2.598,2.157-2.598,3.919c0,2.349,1.905,4.254,4.254,4.254c2.349,0,4.254-1.904,4.254-4.254  c0-1.762-1.071-3.273-2.597-3.919v-13.61l5.185-14.033v-25.625c4.845,3.664,10.871,5.843,17.416,5.843  c3.083,0,6.049-0.49,8.833-1.384v23.358l-10.246,22.562v18.469c-1.431,0.685-2.427,2.134-2.427,3.826  c0,2.349,1.904,4.254,4.254,4.254c2.349,0,4.254-1.904,4.254-4.254c0-1.824-1.155-3.368-2.768-3.972v-17.606l10.246-22.562v-25.373  c4.428-2.057,8.254-5.194,11.135-9.078c2.545,2.484,5.637,4.408,9.077,5.58v42.181l7.98,14.746v24.595  c-1.379,0.703-2.333,2.121-2.333,3.776c0,2.349,1.905,4.254,4.254,4.254c2.349,0,4.254-1.905,4.254-4.254  c0-1.859-1.2-3.422-2.861-4.001v-25.21l-7.98-14.746v-40.472c1.439,0.269,2.921,0.415,4.438,0.415  c6.775,0,12.887-2.805,17.266-7.305c1.758,2.81,3.997,5.283,6.592,7.325v39.152c-1.945,0.392-3.41,2.108-3.41,4.169  c0,2.349,1.905,4.254,4.254,4.254c2.349,0,4.254-1.905,4.254-4.254c0-1.426-0.708-2.681-1.785-3.452V296.09  c4.179,2.426,9.029,3.823,14.213,3.823c3.827,0,7.472-0.764,10.805-2.133v27.176l-10.246,22.562v18.264  c-1.382,0.703-2.338,2.122-2.338,3.778c0,2.349,1.905,4.254,4.254,4.254c2.349,0,4.254-1.904,4.254-4.254  c0-1.857-1.198-3.42-2.856-4v-17.326l10.246-22.562v-29.517c3.799-2.177,7.055-5.194,9.494-8.813  c4.257,3.961,9.934,6.41,16.195,6.462v24.678c-1.526,0.646-2.597,2.158-2.597,3.919c0,2.349,1.904,4.254,4.254,4.254  c2.35,0,4.254-1.904,4.254-4.254c0-1.762-1.071-3.273-2.597-3.919v-24.877c5.623-0.729,10.632-3.398,14.35-7.312  c14.455-0.279,26.092-12.064,26.092-26.586C1307.653,245.01,1295.739,233.096,1281.041,233.096z"></path><path fill="#FFF" d="M1195.551 217.995v6.276c0 1.247-1.014 2.257-2.261 2.257-.623 0-1.191-.254-1.599-.662-.408-.408-.662-.971-.662-1.595v-5.713c0-3.039-2.463-5.502-5.502-5.502h-12.814c-3.039 0-5.507 2.467-5.507 5.507v15.303h-4.518v-15.87c0-5.223 4.234-9.461 9.461-9.461h13.936C1191.312 208.534 1195.551 212.772 1195.551 217.995zM1180.209 249.206l.387 4.845c.013.202-.142.37-.339.37h-2.274c-.202 0-.357-.168-.344-.37l.387-4.845c-.628-.378-1.045-1.079-1.023-1.87.03-1.092.911-1.995 1.999-2.055 1.221-.064 2.235.907 2.235 2.115C1181.236 248.166 1180.824 248.837 1180.209 249.206z"></path><path fill="#FFF" d="M1205.407 235.284h-52.575c-.271.718-.413 1.483-.413 2.282v6.585c0 13.368 11.954 24.214 26.698 24.214 7.376 0 14.048-2.712 18.879-7.092 4.836-4.385 7.823-10.437 7.823-17.121v-6.585C1205.82 236.766 1205.674 236.001 1205.407 235.284zM1179.117 258.332c-4.93 0-8.928-3.998-8.928-8.932 0-4.93 3.998-8.928 8.928-8.928 4.935 0 8.932 3.998 8.932 8.928C1188.05 254.335 1184.052 258.332 1179.117 258.332zM1204.677 233.865h-51.118c1.38-2.05 3.873-3.426 6.719-3.426h37.685C1200.808 230.439 1203.297 231.814 1204.677 233.865z"></path><path fill="#FFF" d="M1180.209,249.206l0.387,4.845c0.013,0.202-0.142,0.37-0.339,0.37h-2.274c-0.202,0-0.357-0.168-0.344-0.37  l0.387-4.845c-0.628-0.378-1.045-1.079-1.023-1.87c0.03-1.092,0.911-1.995,1.999-2.055c1.221-0.064,2.235,0.907,2.235,2.115  C1181.236,248.166,1180.824,248.837,1180.209,249.206z"></path><path fill="#FFF" d="M1180.209,249.206l0.387,4.845c0.013,0.202-0.142,0.37-0.339,0.37h-2.274c-0.202,0-0.357-0.168-0.344-0.37  l0.387-4.845c-0.628-0.378-1.045-1.079-1.023-1.87c0.03-1.092,0.911-1.995,1.999-2.055c1.221-0.064,2.235,0.907,2.235,2.115  C1181.236,248.166,1180.824,248.837,1180.209,249.206z"></path><path fill="#FFF" d="M1180.209,249.206l0.387,4.845c0.013,0.202-0.142,0.37-0.339,0.37h-2.274c-0.202,0-0.357-0.168-0.344-0.37  l0.387-4.845c-0.628-0.378-1.045-1.079-1.023-1.87c0.03-1.092,0.911-1.995,1.999-2.055c1.221-0.064,2.235,0.907,2.235,2.115  C1181.236,248.166,1180.824,248.837,1180.209,249.206z"></path><path fill="#A7ACEB" d="M1316.922,749.853c-3.658-35.368,8.537-62.697,14.519-74.171c-16.237-3.543-36.216-12.451-56.631-25.739  l-51.063,0.095h-0.976l-3.309,12.545l-2.715,10.308l-6.384,24.19l28.888,68.965L1222.4,791.7l26.831,21.856  c0,0-11.549,38.518-20.605,68.922c-1.072,3.605-2.111,7.105-3.086,10.404c-1.389,4.634-2.651,8.887-3.733,12.546  c0.806,0.01,1.612,0.021,2.418,0.021c29.726-0.053,56.609-12.154,76.059-31.667c30.755-30.871,31.401-68.996,31.38-76.175  C1326.181,787.394,1319.108,771.02,1316.922,749.853z"></path><path fill="#A7ACEB" d="M1201.307,800.201l16.852-25.653l-28.888-68.965l6.384-24.19l2.715-10.308l3.309-12.546l-50.077,0.096  c-20.372,13.362-40.32,22.345-56.535,25.95c6.023,11.453,18.325,38.729,14.794,74.118c-2.11,21.168-9.121,37.574-14.571,47.808  c0.01,7.168,0.805,45.304,31.666,76.059c18.993,18.909,44.859,32.326,73.758,31.359c1.082-3.659,2.343-7.912,3.733-12.545  c0.975-3.299,2.014-6.798,3.086-10.404c9.057-30.404,20.605-68.922,20.605-68.922L1201.307,800.201z"></path><path fill="#6B79FF" d="M1193.242,800.201l16.852-25.653l-28.888-68.965l6.384-24.19l2.715-10.308l3.309-12.546l-50.077,0.096  c-20.372,13.362-40.32,22.345-56.535,25.95c6.023,11.453,18.325,38.729,14.794,74.118c-2.11,21.168-9.12,37.573-14.571,47.807  c0.01,7.169,0.806,45.304,31.667,76.059c18.993,18.909,44.997,30.776,73.757,31.359c1.082-3.659,2.344-7.912,3.733-12.546  c0.976-3.299,2.015-6.798,3.086-10.404c9.057-30.404,20.605-68.922,20.605-68.922L1193.242,800.201z"></path><path fill="#5D6CF5" d="M1339.48,797.607c0.021,7.18-0.626,45.305-31.38,76.176c-19.449,19.513-46.333,31.614-76.059,31.666  c-0.806,0-1.612-0.01-2.418-0.021c1.082-3.659,2.344-7.912,3.733-12.546c24.901-0.371,48.242-10.277,65.857-27.955  c23.522-23.607,27.213-52.441,27.668-64.351c-7.922-15.6-12.843-32.218-14.624-49.43c-2.799-27.022,2.662-50.151,9.545-67.447  c-13.51-4.73-28.23-11.994-42.844-21.21l-51.678,0.096l3.309-12.546h0.976l51.063-0.095c20.415,13.288,40.394,22.196,56.631,25.738  c-5.981,11.474-18.177,38.804-14.519,74.171C1326.923,771.02,1333.996,787.394,1339.48,797.607z"></path><path fill="#C4C9FF" d="M1193.242,800.201l16.852-25.653l-28.888-68.965l6.384-24.19l2.715-10.308l-43.056,0.085  c-14.582,9.268-29.269,16.586-42.77,21.369c6.947,17.276,12.493,40.384,9.799,67.416c-1.718,17.212-6.575,33.841-14.444,49.483  c0.499,11.899,4.295,40.713,27.913,64.245c17.996,17.922,41.9,27.774,67.299,27.722c0.445,0,0.891,0,1.336-0.021  c0.976-3.299,2.015-6.798,3.086-10.404c9.057-30.404,20.605-68.922,20.605-68.922L1193.242,800.201z"></path><path fill="#B6BCFA" d="M1326.88,800.576c-0.456,11.909-4.146,40.744-27.668,64.351c-17.615,17.678-40.957,27.584-65.857,27.955  c0.975-3.299,2.015-6.798,3.086-10.404c21.22-1.114,40.999-9.916,56.111-25.081c20.478-20.553,24.253-45.644,24.879-56.737  c-7.498-15.112-12.175-31.179-13.893-47.797c-2.163-20.966,0.392-41.773,7.593-61.922c-11.496-4.454-23.734-10.658-35.76-18.146  l-50.809,0.095l2.715-10.308l51.678-0.096c14.614,9.216,29.334,16.48,42.844,21.21c-6.882,17.296-12.344,40.426-9.545,67.447  C1314.038,768.359,1318.959,784.977,1326.88,800.576z"></path><path fill="#C9CDFF" d="M1317.432,800.661c-0.626,11.093-4.401,36.184-24.879,56.737c-15.112,15.165-34.891,23.967-56.111,25.081  c9.057-30.404,20.605-68.922,20.605-68.922l-26.831-21.857l16.852-25.653l-28.888-68.965l6.384-24.19l50.809-0.095  c12.026,7.487,24.264,13.691,35.76,18.146c-7.201,20.149-9.756,40.956-7.593,61.922  C1305.257,769.482,1309.934,785.549,1317.432,800.661z"></path><path fill="#D4D7FF" d="M1220.073,822.057c0,0-11.549,38.518-20.605,68.922c-1.474,0.085-2.959,0.127-4.443,0.127  c-22.886,0.042-44.425-8.834-60.64-24.985c-20.563-20.478-24.434-45.549-25.092-56.641c7.434-15.144,12.048-31.232,13.702-47.839  c2.1-20.987-0.541-41.784-7.826-61.901c11.485-4.497,23.702-10.743,35.697-18.283l36.725-0.064l-6.384,24.19l28.888,68.965  l-16.852,25.653L1220.073,822.057z"></path><path fill="#7D92FF" d="M1290.355 523.665c-.302-.839-.259-1.765.142-2.6.53-1.102 1.575-1.815 2.795-1.907l11.775-.885c1.22-.092 2.36.457 3.049 1.467.688 1.01.784 2.272.253 3.374l-5.121 10.64c-.53 1.102-1.576 1.815-2.795 1.907-1.22.092-2.359-.457-3.048-1.468l-6.654-9.754C1290.584 524.194 1290.452 523.934 1290.355 523.665zM1305.997 521.412c-.027-.074-.061-.131-.085-.168-.07-.103-.273-.339-.645-.31l-11.774.885c-.372.028-.538.292-.591.404-.054.111-.157.404.054.713l6.654 9.755c.21.309.521.32.645.31.124-.009.43-.067.592-.403l5.121-10.64C1306.07 521.74 1306.046 521.548 1305.997 521.412zM1190.536 425.197c.626-.635 1.48-.996 2.406-.995 1.223.002 2.317.636 2.927 1.696l5.886 10.236c.61 1.061.607 2.325-.006 3.384-.614 1.057-1.71 1.688-2.933 1.686l-11.808-.021c-1.223-.002-2.318-.637-2.927-1.697-.609-1.06-.607-2.325.006-3.383l5.922-10.215C1190.159 425.632 1190.335 425.401 1190.536 425.197zM1199.327 438.33c.055-.056.092-.112.114-.149.063-.107.187-.393.001-.716l-5.886-10.236c-.186-.323-.495-.359-.62-.359-.124-.001-.432.034-.62.357l-5.922 10.216c-.187.323-.063.608-.001.716.062.108.246.358.619.359l11.808.021C1199.063 438.538 1199.225 438.434 1199.327 438.33zM991.736 190.418c.608 0 1.193.242 1.635.692.585.595.801 1.43.578 2.235l-2.154 7.762c-.223.804-.839 1.409-1.647 1.617-.807.208-1.639-.022-2.224-.617l-5.645-5.746c-.585-.595-.801-1.431-.578-2.235.223-.804.839-1.408 1.647-1.617l7.798-2.015C991.344 190.443 991.541 190.418 991.736 190.418zM989.566 200.978c.054 0 .098-.009.127-.016.082-.021.28-.097.348-.342l2.154-7.761c.068-.245-.063-.412-.122-.473-.059-.061-.223-.194-.47-.131l-7.799 2.016c-.247.064-.326.26-.348.342-.023.082-.056.291.122.473l5.645 5.746C989.339 200.949 989.468 200.978 989.566 200.978zM64.481 661.877c.112-.885.571-1.69 1.308-2.251.973-.741 2.228-.901 3.356-.429l10.891 4.563c1.128.473 1.894 1.479 2.049 2.693.154 1.213-.335 2.38-1.308 3.12l-9.397 7.15c-.974.741-2.228.901-3.356.428-1.128-.473-1.894-1.479-2.048-2.693l-1.494-11.713C64.445 662.452 64.445 662.161 64.481 661.877zM79.438 666.979c.01-.078.006-.145 0-.188-.016-.123-.09-.426-.434-.569l-10.89-4.563c-.344-.144-.611.016-.71.091-.099.075-.323.289-.276.66l1.494 11.713c.047.37.319.522.433.57.115.048.413.135.71-.09l9.397-7.15C79.354 667.304 79.42 667.123 79.438 666.979zM150.039 281.38c.555-.698 1.366-1.147 2.287-1.244 1.216-.127 2.372.387 3.091 1.377l6.936 9.556c.718.99.85 2.248.352 3.365-.499 1.116-1.522 1.86-2.738 1.987l-11.744 1.229c-1.217.128-2.372-.388-3.09-1.378-.718-.99-.85-2.248-.352-3.365l4.807-10.784C149.71 281.852 149.861 281.603 150.039 281.38zM160.171 293.509c.049-.061.08-.121.098-.16.051-.113.145-.41-.075-.712l-6.936-9.556c-.219-.302-.531-.304-.654-.291-.123.013-.426.079-.579.42l-4.808 10.785c-.152.341.001.612.074.712.073.101.283.33.654.292l11.744-1.229C159.93 293.743 160.081 293.622 160.171 293.509z"></path><path fill="#FFD394" d="M1266.357,612.182c-4.94,0-8.96-4.019-8.96-8.959c0-4.94,4.019-8.96,8.96-8.96  c4.939,0,8.959,4.019,8.959,8.96C1275.316,608.163,1271.297,612.182,1266.357,612.182z M1266.357,597.023  c-3.418,0-6.199,2.781-6.199,6.199c0,3.418,2.781,6.199,6.199,6.199c3.418,0,6.198-2.781,6.198-6.199  C1272.555,599.805,1269.775,597.023,1266.357,597.023z"></path><path fill="#7D92FF" d="M43.373,506.803c-4.94,0-8.96-4.019-8.96-8.959c0-4.94,4.019-8.96,8.96-8.96c4.94,0,8.959,4.019,8.959,8.96  C52.332,502.785,48.313,506.803,43.373,506.803z M43.373,491.645c-3.418,0-6.199,2.781-6.199,6.199c0,3.418,2.781,6.199,6.199,6.199  c3.418,0,6.198-2.781,6.198-6.199C49.572,494.426,46.791,491.645,43.373,491.645z"></path><path fill="#FFD394" d="M1311.831,385.037c-4.94,0-8.96-4.019-8.96-8.959c0-4.94,4.019-8.96,8.96-8.96  c4.939,0,8.959,4.019,8.959,8.96C1320.79,381.018,1316.771,385.037,1311.831,385.037z M1311.831,369.878  c-3.418,0-6.199,2.781-6.199,6.199c0,3.418,2.781,6.199,6.199,6.199s6.198-2.781,6.198-6.199  C1318.03,372.66,1315.25,369.878,1311.831,369.878z"></path><path fill="#7D92FF" d="M1287.714 184.371c-4.94 0-8.96-4.019-8.96-8.959 0-4.94 4.019-8.96 8.96-8.96 4.939 0 8.959 4.019 8.959 8.96C1296.673 180.352 1292.653 184.371 1287.714 184.371zM1287.714 169.212c-3.418 0-6.199 2.781-6.199 6.199 0 3.418 2.781 6.199 6.199 6.199s6.198-2.781 6.198-6.199C1293.912 171.993 1291.132 169.212 1287.714 169.212zM180.947 178.171c-4.94 0-8.96-4.019-8.96-8.959s4.019-8.96 8.96-8.96c4.939 0 8.959 4.019 8.959 8.96S185.887 178.171 180.947 178.171zM180.947 163.013c-3.418 0-6.199 2.781-6.199 6.199s2.781 6.199 6.199 6.199c3.418 0 6.198-2.781 6.198-6.199S184.365 163.013 180.947 163.013z"></path><path fill="#FFD394" d="M174.748,566.518c-4.94,0-8.96-4.019-8.96-8.959c0-4.94,4.019-8.96,8.96-8.96  c4.939,0,8.959,4.019,8.959,8.96C183.707,562.499,179.688,566.518,174.748,566.518z M174.748,551.36  c-3.418,0-6.199,2.781-6.199,6.199c0,3.418,2.781,6.199,6.199,6.199s6.198-2.781,6.198-6.199  C180.947,554.141,178.166,551.36,174.748,551.36z"></path><path fill="#FFCE99" d="M1146.976 121.798c.485-.465.226-1.284-.438-1.386l-3.647-.56c-.264-.041-.491-.208-.607-.448l-1.606-3.322c-.293-.605-1.152-.612-1.454-.012l-1.66 3.295c-.12.238-.35.402-.614.438l-3.656.501c-.666.091-.938.906-.46 1.379l2.621 2.597c.19.188.275.457.227.719l-.653 3.631c-.119.661.572 1.172 1.169.864l3.28-1.69c.237-.122.519-.12.754.006l3.252 1.743c.592.318 1.291-.182 1.183-.845l-.594-3.641c-.043-.263.046-.531.239-.716L1146.976 121.798zM1065.743 199.811c.485-.465.226-1.284-.438-1.386l-3.647-.56c-.264-.041-.491-.208-.607-.448l-1.606-3.322c-.293-.605-1.152-.612-1.454-.012l-1.66 3.295c-.12.238-.35.402-.614.438l-3.656.501c-.666.091-.938.906-.46 1.379l2.621 2.597c.189.188.274.457.227.719l-.653 3.631c-.119.661.572 1.172 1.169.864l3.28-1.69c.237-.122.519-.12.755.006l3.252 1.743c.592.317 1.291-.182 1.183-.845l-.594-3.641c-.043-.263.046-.531.239-.716L1065.743 199.811zM1333.946 608.582c.485-.465.226-1.284-.438-1.386l-3.647-.56c-.264-.041-.491-.208-.607-.448l-1.606-3.322c-.292-.605-1.151-.612-1.454-.012l-1.66 3.295c-.12.238-.35.402-.614.438l-3.655.501c-.666.091-.938.906-.461 1.379l2.621 2.597c.19.188.275.457.227.719l-.653 3.632c-.119.661.572 1.172 1.169.864l3.28-1.69c.237-.122.519-.12.754.006l3.252 1.743c.592.318 1.291-.182 1.183-.845l-.594-3.642c-.043-.263.046-.531.239-.716L1333.946 608.582zM76.168 396.901c.485-.465.226-1.284-.438-1.386l-3.647-.56c-.264-.04-.491-.208-.607-.448l-1.606-3.322c-.292-.605-1.152-.612-1.454-.012l-1.66 3.295c-.12.238-.35.402-.614.439l-3.656.501c-.666.091-.938.906-.46 1.379l2.621 2.597c.189.188.274.457.227.719l-.653 3.631c-.119.661.572 1.172 1.169.864l3.28-1.69c.237-.122.519-.12.754.006l3.252 1.743c.592.317 1.291-.182 1.183-.845l-.594-3.641c-.043-.263.046-.531.239-.716L76.168 396.901zM38.902 597.354c.485-.465.226-1.284-.438-1.386l-3.647-.56c-.264-.041-.491-.208-.607-.448l-1.606-3.322c-.293-.605-1.152-.612-1.454-.012l-1.66 3.295c-.12.238-.35.402-.614.438l-3.656.501c-.666.091-.938.906-.46 1.379l2.621 2.597c.19.188.274.457.227.719l-.653 3.631c-.119.661.572 1.172 1.169.864l3.28-1.69c.237-.122.519-.12.754.006l3.252 1.743c.592.317 1.291-.182 1.183-.845L36 600.624c-.043-.263.046-.531.239-.716L38.902 597.354zM399.249 199.631c.485-.465.226-1.284-.438-1.386l-3.647-.56c-.264-.04-.491-.208-.607-.448l-1.606-3.322c-.293-.605-1.152-.612-1.454-.012l-1.66 3.295c-.12.238-.35.402-.614.438l-3.656.501c-.666.091-.938.906-.461 1.379l2.621 2.597c.19.188.275.457.227.719l-.653 3.631c-.119.661.572 1.172 1.169.864l3.28-1.69c.237-.122.519-.12.754.006l3.252 1.743c.592.317 1.291-.182 1.183-.845l-.594-3.641c-.043-.263.046-.531.239-.716L399.249 199.631zM111.198 215.569c.485-.465.226-1.284-.438-1.386l-3.647-.56c-.264-.04-.491-.208-.607-.448l-1.606-3.322c-.293-.605-1.152-.612-1.454-.012l-1.66 3.295c-.12.238-.35.402-.614.439l-3.656.501c-.666.091-.938.906-.461 1.379l2.621 2.597c.189.188.275.457.227.719l-.653 3.631c-.119.661.572 1.172 1.169.864l3.28-1.69c.237-.122.519-.12.755.006l3.252 1.743c.592.317 1.291-.182 1.183-.845l-.594-3.641c-.043-.263.046-.531.239-.716L111.198 215.569zM1274.871 450.483c.485-.465.226-1.284-.438-1.386l-3.647-.56c-.264-.04-.491-.208-.607-.448l-1.606-3.322c-.293-.605-1.152-.612-1.454-.012l-1.66 3.295c-.12.238-.35.402-.614.439l-3.656.501c-.666.091-.938.906-.46 1.379l2.621 2.597c.19.188.275.457.227.719l-.653 3.631c-.119.661.572 1.172 1.169.864l3.28-1.69c.237-.122.519-.12.754.006l3.252 1.743c.592.317 1.291-.182 1.183-.845l-.594-3.642c-.043-.263.046-.531.239-.716L1274.871 450.483z"></path></svg>