<svg xmlns="http://www.w3.org/2000/svg" enable-background="new 0 0 700 700" viewBox="0 0 700 700" id="data-science"><path fill="#f8f3ff" d="M217.7 532.9c-24.7 0-47.2-15.5-56-38.6l-55.3-144.5c-9.8-25.6-1-54.5 21.3-70.4 10.4-7.4 200-141.8 208.1-147.6 23.4-16.6 55.3-14.3 76.2 5.6l175.6 167.7c20.2 19.2 24.4 49.5 10.4 73.6l-40 68.7c-8.7 15-23.5 25.4-40.5 28.7l-288.4 55.6c-3.8.9-7.6 1.2-11.4 1.2zm118.4-400.7L127.9 279.8c-22.2 15.7-30.9 44.5-21.2 69.9L162 494.2c8.8 22.9 31.1 38.3 55.6 38.3 3.8 0 7.6-.4 11.3-1.1l288.4-55.6c16.9-3.3 31.6-13.7 40.2-28.5l40-68.7c13.9-23.9 9.7-54-10.3-73.1L411.7 137.7c-20.6-19.7-52.3-22-75.6-5.5z"></path><path fill="#f8f3ff" d="m117.3 345.7 55.3 144.5c8.4 21.9 31.3 34.6 54.3 30.2l288.4-55.6c13.7-2.6 25.6-11.1 32.6-23.1l40-68.7c11.3-19.3 7.8-43.8-8.4-59.3L403.9 145.9c-16.7-16-42.5-17.9-61.3-4.5L134.5 289c-18 12.8-25.1 36.1-17.2 56.7z"></path><path fill="#ff987a" d="M556.6 387.4c-2.4.8-4.9 3.1-6.1 2.4-2.8-1.9 5.2-5.9 6.8-9.8l.3-1.7c0-.2.1-.3.1-.5l-1.1 9.6z"></path><path fill="#2c1e70" d="M422.2 440.1c-.1 0-.2-.1-.2-.2v-55.6h-30.3c-.1 0-.2-.1-.2-.2v-49.9c0-.1.1-.2.2-.2s.2.1.2.2v49.7h30.3c.1 0 .2.1.2.2v55.8c0 .2-.1.2-.2.2zM394.3 440.1c-.1 0-.2-.1-.2-.2v-44h-30.3c-.1 0-.2-.1-.2-.2v-61.5c0-.1.1-.2.2-.2s.2.1.2.2v61.3h30.3c.1 0 .2.1.2.2v44.2c0 .2-.1.2-.2.2z"></path><path fill="#fff" d="M474.4 176.7v138.4c0 10.6-8.6 19.1-19.1 19.1H260c-10.6 0-19.1-8.6-19.1-19.1V176.7c0-10.6 8.6-19.1 19.1-19.1h195.4c10.5 0 19 8.5 19 19.1z"></path><path fill="#2c1e70" d="M474.4 242.1c-.1 0-.2-.1-.2-.2v-65.3c0-10.4-8.5-18.9-18.9-18.9h-8.5c-.1 0-.2-.1-.2-.2s.1-.2.2-.2h8.5c10.6 0 19.3 8.7 19.3 19.3v65.3c0 .2-.1.2-.2.2zM240.9 245.7c-.1 0-.2-.1-.2-.2v-68.8c0-10.6 8.7-19.3 19.3-19.3h25c.1 0 .2.1.2.2s-.1.2-.2.2h-25c-10.4 0-18.9 8.5-18.9 18.9v68.8c0 .1-.1.2-.2.2z"></path><path fill="#2c1e70" d="M474 178.9H240.9c-.1 0-.2-.1-.2-.2s.1-.2.2-.2H474c.1 0 .2.1.2.2s-.1.2-.2.2z"></path><path fill="#f8f3ff" d="M257.2 169.9c0 1.7-1.4 3.1-3.1 3.1-1.7 0-3.1-1.4-3.1-3.1s1.4-3.1 3.1-3.1c1.7 0 3.1 1.4 3.1 3.1zM267 169.9c0 1.7-1.4 3.1-3.1 3.1-1.7 0-3.1-1.4-3.1-3.1s1.4-3.1 3.1-3.1c1.7 0 3.1 1.4 3.1 3.1zM276.8 169.9c0 1.7-1.4 3.1-3.1 3.1-1.7 0-3.1-1.4-3.1-3.1s1.4-3.1 3.1-3.1c1.8 0 3.1 1.4 3.1 3.1zM458.6 167.6h-93.9c-.8 0-1.5.7-1.5 1.5s.7 1.5 1.5 1.5h93.9c.8 0 1.5-.7 1.5-1.5 0-.9-.7-1.5-1.5-1.5zM352.5 169.1c0-.8-.7-1.5-1.5-1.5h-12.5c-.8 0-1.5.7-1.5 1.5s.7 1.5 1.5 1.5H351c.9 0 1.5-.7 1.5-1.5z"></path><path fill="#52c1ff" d="M321 290.5v26c0 1.3-1.1 2.4-2.4 2.4h-6.9c-1.3 0-2.4-1.1-2.4-2.4v-26c0-1.3 1.1-2.4 2.4-2.4h6.9c1.3 0 2.4 1.1 2.4 2.4z"></path><path fill="#e7dcf9" d="M339.2 299.4v17.1c0 1.3-1.1 2.4-2.4 2.4h-6.9c-1.3 0-2.4-1.1-2.4-2.4v-17.1c0-1.3 1.1-2.4 2.4-2.4h6.9c1.3 0 2.4 1.1 2.4 2.4z"></path><path fill="#ff6972" d="M303.2 301.8v14.7c0 1.3-1.1 2.4-2.4 2.4h-6.9c-1.3 0-2.4-1.1-2.4-2.4v-14.7c0-1.3 1.1-2.4 2.4-2.4h6.9c1.3 0 2.4 1.1 2.4 2.4z"></path><path fill="#d0f99b" d="M285.5 282.8v33.7c0 1.3-1.1 2.4-2.4 2.4h-6.9c-1.3 0-2.4-1.1-2.4-2.4v-33.7c0-1.3 1.1-2.4 2.4-2.4h6.9c1.3 0 2.4 1.1 2.4 2.4z"></path><path fill="#ffce6c" d="M267.7 296.2v20.3c0 1.3-1.1 2.4-2.4 2.4h-6.9c-1.3 0-2.4-1.1-2.4-2.4v-20.3c0-1.3 1.1-2.4 2.4-2.4h6.9c1.3 0 2.4 1.1 2.4 2.4z"></path><path fill="#2c1e70" d="M297.7 291.3h-.3c-4.1-.4-6.4-5.7-8.7-10.9-2.2-5.1-4.5-10.3-8.4-10.6-6.6-.5-18.2 15.5-18.3 15.7-.1.1-.2.1-.3 0-.1-.1-.1-.2 0-.3.5-.7 11.5-15.9 18.3-15.9h.3c4.1.3 6.5 5.7 8.7 10.9 2.2 5.1 4.5 10.3 8.3 10.6 3.1.3 6-3.5 8.8-7.1 2.8-3.6 5.7-7.3 8.9-7.3 6.3.1 16.7 13.8 17.1 14.4.1.1 0 .2 0 .3s-.2 0-.3 0c-.1-.1-10.8-14.2-16.8-14.3-3 0-5.9 3.6-8.6 7.1-2.7 3.7-5.5 7.4-8.7 7.4z"></path><path fill="#ff6972" d="M293.9 240.6v11.6c-17 0-30.8-13.7-31-30.7v-.3c0-8.5 3.4-16.2 8.9-21.8l8.2 8.2c-3.4 3.5-5.6 8.3-5.6 13.6v.3c.2 10.5 8.9 19.1 19.5 19.1z"></path><path fill="#e7dcf9" d="M324.9 221.1v.3c-.1 17-13.9 30.7-31 30.7v-11.6c10.6 0 19.3-8.6 19.4-19.2v-.3c0-5.3-2.1-10.1-5.6-13.6l8.2-8.2c5.6 5.8 9 13.4 9 21.9z"></path><path fill="#ffce6c" d="m315.9 199.3-8.2 8.2c-3.5-3.6-8.4-5.8-13.9-5.8-5.4 0-10.3 2.2-13.8 5.8l-8.2-8.2c5.7-5.8 13.6-9.2 22-9.2 8.7.1 16.5 3.6 22.1 9.2z"></path><path fill="#ff6972" d="M358.7 197.9v8.7c0 1.2-.9 2.1-2.1 2.1h-8.7c-1.2 0-2.1-.9-2.1-2.1v-8.7c0-1.2.9-2.1 2.1-2.1h8.7c1.2 0 2.1.9 2.1 2.1z"></path><path fill="#fff" d="m355 200.1-3 4.1c-.1.1-.3.1-.4 0l-1.8-2.7c-.1-.2.1-.4.3-.3l1.6.9 2.9-2.2c.3-.3.6 0 .4.2z"></path><path fill="#ff6972" d="M384.6 197.7h-16.3c-.6 0-1 .5-1 1 0 .6.5 1 1 1h16.3c.6 0 1-.5 1-1 0-.6-.4-1-1-1zM390.7 198.7c0 .6.5 1 1 1H422c.6 0 1-.5 1-1 0-.6-.5-1-1-1h-30.2c-.6 0-1.1.4-1.1 1z"></path><path fill="#e7dcf9" d="M420.2 203.8h-52.1c-.1 0-.2-.1-.2-.2s.1-.2.2-.2h52.1c.1 0 .2.1.2.2s0 .2-.2.2zM408.4 207h-20.2c-.1 0-.2-.1-.2-.2s.1-.2.2-.2h20.2c.1 0 .2.1.2.2s-.1.2-.2.2zM378.6 207h-10.4c-.1 0-.2-.1-.2-.2s.1-.2.2-.2h10.4c.1 0 .2.1.2.2s-.1.2-.2.2zM358.7 218.7v8.7c0 1.2-.9 2.1-2.1 2.1h-8.7c-1.2 0-2.1-.9-2.1-2.1v-8.7c0-1.2.9-2.1 2.1-2.1h8.7c1.2.1 2.1 1 2.1 2.1z"></path><path fill="#fff" d="m355 221-3 4.1c-.1.1-.3.1-.4 0l-1.8-2.7c-.1-.2.1-.4.3-.3l1.6.9 2.9-2.2c.3-.3.6 0 .4.2z"></path><path fill="#e7dcf9" d="M384.6 218.5h-16.3c-.6 0-1 .5-1 1 0 .6.5 1 1 1h16.3c.6 0 1-.5 1-1s-.4-1-1-1zM390.7 219.6c0 .6.5 1 1 1H422c.6 0 1-.5 1-1 0-.6-.5-1-1-1h-30.2c-.6-.1-1.1.4-1.1 1zM420.2 224.7h-52.1c-.1 0-.2-.1-.2-.2s.1-.2.2-.2h52.1c.1 0 .2.1.2.2s0 .2-.2.2zM408.4 227.9h-20.2c-.1 0-.2-.1-.2-.2s.1-.2.2-.2h20.2c.1 0 .2.1.2.2s-.1.2-.2.2zM378.6 227.9h-10.4c-.1 0-.2-.1-.2-.2s.1-.2.2-.2h10.4c.1 0 .2.1.2.2s-.1.2-.2.2z"></path><path fill="#ffce6c" d="M358.7 238.7v8.7c0 1.2-.9 2.1-2.1 2.1h-8.7c-1.2 0-2.1-.9-2.1-2.1v-8.7c0-1.2.9-2.1 2.1-2.1h8.7c1.2 0 2.1 1 2.1 2.1z"></path><path fill="#fff" d="m355 241-3 4.1c-.1.1-.3.1-.4 0l-1.8-2.7c-.1-.2.1-.4.3-.3l1.6.9 2.9-2.2c.3-.3.6 0 .4.2z"></path><path fill="#e7dcf9" d="M384.6 238.5h-16.3c-.6 0-1 .5-1 1 0 .6.5 1 1 1h16.3c.6 0 1-.5 1-1s-.4-1-1-1zM390.7 239.6c0 .6.5 1 1 1H422c.6 0 1-.5 1-1 0-.6-.5-1-1-1h-30.2c-.6-.1-1.1.4-1.1 1zM420.2 244.7h-52.1c-.1 0-.2-.1-.2-.2s.1-.2.2-.2h52.1c.1 0 .2.1.2.2s0 .2-.2.2zM408.4 247.8h-20.2c-.1 0-.2-.1-.2-.2s.1-.2.2-.2h20.2c.1 0 .2.1.2.2s-.1.2-.2.2zM378.6 247.8h-10.4c-.1 0-.2-.1-.2-.2s.1-.2.2-.2h10.4c.1 0 .2.1.2.2s-.1.2-.2.2z"></path><path fill="#f8f3ff" d="m425.9 291.4-3.2-.4c-.6-1.3-1.3-2.5-2.2-3.6l1.1-3c.4-1 .1-2.2-.8-2.9l-2-1.5c-.9-.7-2.1-.7-3 0l-2.6 2c-1.3-.5-2.6-.8-4-1l-1.5-3.3c-.5-1-1.5-1.6-2.6-1.4l-2.5.4c-1.1.2-2 1-2.1 2.1l-.5 3.6c-1.2.5-2.4 1.2-3.4 2l-3.4-1.3c-1-.4-2.2-.1-2.9.8l-1.5 2c-.7.9-.6 2.1 0 3l2.2 2.8c-.5 1.2-.8 2.6-1 3.9l-3.2 1.4c-1 .5-1.6 1.5-1.4 2.6l.4 2.5c.2 1.1 1 2 2.1 2.1l3.4.5c.6 1.3 1.3 2.5 2.1 3.6l-1.2 3.2c-.4 1-.1 2.2.8 2.9l2 1.5c.9.7 2.1.7 3 0l2.7-2.1c1.3.5 2.7.9 4.2 1l1.3 2.8c.5 1 1.5 1.6 2.6 1.4l2.5-.4c1.1-.2 2-1 2.1-2.1l.4-3c1.4-.6 2.6-1.4 3.8-2.3l2.9 1.1c1 .4 2.2.1 2.9-.8l1.5-2c.7-.9.7-2.1 0-3L423 304c.5-1.3.9-2.7 1-4.2l2.9-1.3c1-.5 1.6-1.5 1.4-2.6l-.4-2.5c-.1-1-.9-1.8-2-2zm-17.5 15.3c-4.8.7-9.3-2.6-10-7.4-.7-4.8 2.6-9.3 7.4-10 4.8-.7 9.3 2.6 10 7.4.7 4.8-2.6 9.3-7.4 10z"></path><path fill="#ccb0f4" d="M405.1 285.3c-6.9 1-11.6 7.4-10.6 14.3s7.4 11.6 14.3 10.6 11.6-7.4 10.6-14.3-7.5-11.7-14.3-10.6zm3.3 21.4c-4.8.7-9.3-2.6-10-7.4-.7-4.8 2.6-9.3 7.4-10 4.8-.7 9.3 2.6 10 7.4.7 4.8-2.6 9.3-7.4 10z"></path><path fill="#f8f3ff" d="m384.4 275.6-2.7-.4c-.5-1.1-1.1-2.1-1.8-3l1-2.6c.3-.9 0-1.9-.7-2.4l-1.7-1.3c-.8-.6-1.8-.6-2.5 0l-2.2 1.7c-1.1-.4-2.2-.7-3.3-.8l-1.3-2.8c-.4-.9-1.3-1.3-2.2-1.2l-2.1.3c-.9.1-1.7.9-1.8 1.8l-.4 3c-1 .5-2 1-2.9 1.7l-2.8-1.1c-.9-.3-1.9 0-2.4.7l-1.3 1.7c-.6.8-.5 1.8 0 2.5l1.8 2.4c-.4 1.1-.7 2.2-.9 3.3l-2.7 1.2c-.9.4-1.3 1.3-1.2 2.2l.3 2.1c.1.9.9 1.7 1.8 1.8l2.9.4c.5 1.1 1.1 2.1 1.8 3l-1 2.7c-.3.9 0 1.9.7 2.4l1.7 1.3c.8.6 1.8.6 2.5 0l2.3-1.8c1.1.4 2.3.7 3.5.9l1.1 2.4c.4.9 1.3 1.4 2.2 1.2l2.1-.3c.9-.1 1.7-.9 1.8-1.8l.3-2.6c1.2-.5 2.2-1.1 3.2-1.9l2.4.9c.9.3 1.9 0 2.4-.7l1.3-1.7c.6-.7.6-1.8 0-2.5l-1.6-2.1c.4-1.1.7-2.3.9-3.5l2.4-1.1c.9-.4 1.3-1.3 1.2-2.2l-.3-2.1c-.2-.9-.9-1.6-1.8-1.7zm-14.9 12.9c-4.1.6-7.9-2.2-8.5-6.3-.6-4.1 2.2-7.9 6.3-8.5 4.1-.6 7.9 2.2 8.5 6.3.6 4.1-2.2 7.9-6.3 8.5z"></path><path fill="#ccb0f4" d="M366.7 270.4c-5.8.9-9.9 6.3-9 12.1.9 5.8 6.3 9.9 12.1 9 5.8-.9 9.9-6.3 9-12.1-.8-5.9-6.2-9.9-12.1-9zm2.8 18.1c-4.1.6-7.9-2.2-8.5-6.3-.6-4.1 2.2-7.9 6.3-8.5 4.1-.6 7.9 2.2 8.5 6.3.6 4.1-2.2 7.9-6.3 8.5z"></path><path fill="#58082e" d="M532.8 245.4c-.7.5-1.4.9-2.1 1.3-12.5 6.4-31-7-31-7s-6.9-4.5-.7-8.9c0 0-.3-.3-.7-.8-2.5-2.8-10.3-12.6-2.5-17.2 8-4.7 22 5.9 31.7 5.4 9.8-.5 15.7 19.4 5.3 27.2z"></path><path fill="#3d0422" d="M532.8 245.4c-.7.5-1.4.9-2.1 1.3v-.3c-.1-1.3.7-2.5 1.3-3.6 2.1-3.5 3.6-7.5 3.3-11.6-.2-4.1-2.3-8.2-5.9-10.2-2.4-1.4-5.2-1.7-8-2-5.4-.6-10.9-1.1-16.3-1.7-4.5-.5-9.6.1-9.7 4.5 0 1.3.6 2.4 1.3 3.5.7 1.1 1.4 2.2 1.5 3.5 0 .3 0 .7-.1 1-2.5-2.8-10.3-12.6-2.5-17.2 8-4.7 22 5.9 31.7 5.4 10-.3 15.9 19.6 5.5 27.4z"></path><path fill="#f8f3ff" d="M597.4 570.4c0 4.8-112.6 8.7-251.5 8.7s-251.5-3.9-251.5-8.7 112.6-8.7 251.5-8.7 251.5 3.9 251.5 8.7z"></path><path fill="#4f3c94" d="M341 520.9h92.8v5.9H341zM341 480.2h92.8v5.9H341z"></path><path fill="#fff" d="M446.7 531.3V557c0 2.5-2 4.5-4.5 4.5H332c-2.5 0-4.5-2-4.5-4.5v-25.7c0-2.5 2-4.5 4.5-4.5h110.2c2.5 0 4.5 2 4.5 4.5z"></path><path fill="#2c1e70" d="M442.2 561.7H332c-2.6 0-4.7-2.1-4.7-4.7v-25.7c0-2.6 2.1-4.7 4.7-4.7h110.2c2.6 0 4.7 2.1 4.7 4.7V557c0 2.6-2.1 4.7-4.7 4.7zM332 527c-2.4 0-4.3 2-4.3 4.3V557c0 2.4 2 4.3 4.3 4.3h110.2c2.4 0 4.3-2 4.3-4.3v-25.7c0-2.4-2-4.3-4.3-4.3H332z"></path><path fill="#fff" d="M347.8 437.4h78.6v8h-78.6zM347.8 561.4h78.6v5.4h-78.6z"></path><path fill="#ffc43f" d="M345.5 543.1c0 2.9-2.4 5.3-5.3 5.3s-5.3-2.4-5.3-5.3 2.4-5.3 5.3-5.3 5.3 2.4 5.3 5.3z"></path><path fill="#d0f99b" d="M360.9 543.1c0 2.9-2.4 5.3-5.3 5.3s-5.3-2.4-5.3-5.3 2.4-5.3 5.3-5.3c3 0 5.3 2.4 5.3 5.3z"></path><path fill="#ff6972" d="M376.4 543.1c0 2.9-2.4 5.3-5.3 5.3s-5.3-2.4-5.3-5.3 2.4-5.3 5.3-5.3 5.3 2.4 5.3 5.3z"></path><path fill="#f8f3ff" d="M439.4 534.8V553c0 .5-.4.9-.9.9h-3c-.5 0-.9-.4-.9-.9v-18.2c0-.5.4-.9.9-.9h3c.5-.1.9.4.9.9zM430.1 534.8V553c0 .5-.4.9-.9.9h-3c-.5 0-.9-.4-.9-.9v-18.2c0-.5.4-.9.9-.9h3c.5-.1.9.4.9.9zM420.8 534.8V553c0 .5-.4.9-.9.9h-3c-.5 0-.9-.4-.9-.9v-18.2c0-.5.4-.9.9-.9h3c.4-.1.9.4.9.9zM411.4 534.8V553c0 .5-.4.9-.9.9h-3c-.5 0-.9-.4-.9-.9v-18.2c0-.5.4-.9.9-.9h3c.5-.1.9.4.9.9z"></path><path fill="#fff" d="M446.7 490.6v25.7c0 2.5-2 4.5-4.5 4.5H332c-2.5 0-4.5-2-4.5-4.5v-25.7c0-2.5 2-4.5 4.5-4.5h110.2c2.5 0 4.5 2 4.5 4.5z"></path><path fill="#2c1e70" d="M442.2 521.1H332c-2.6 0-4.7-2.1-4.7-4.7v-25.7c0-2.6 2.1-4.7 4.7-4.7h110.2c2.6 0 4.7 2.1 4.7 4.7v25.7c0 2.5-2.1 4.7-4.7 4.7zM332 486.3c-2.4 0-4.3 2-4.3 4.3v25.7c0 2.4 2 4.3 4.3 4.3h110.2c2.4 0 4.3-2 4.3-4.3v-25.7c0-2.4-2-4.3-4.3-4.3H332z"></path><path fill="#ffc43f" d="M345.5 502.4c0 2.9-2.4 5.3-5.3 5.3s-5.3-2.4-5.3-5.3 2.4-5.3 5.3-5.3 5.3 2.4 5.3 5.3z"></path><path fill="#d0f99b" d="M360.9 502.4c0 2.9-2.4 5.3-5.3 5.3s-5.3-2.4-5.3-5.3 2.4-5.3 5.3-5.3c3 0 5.3 2.4 5.3 5.3z"></path><path fill="#ff6972" d="M376.4 502.4c0 2.9-2.4 5.3-5.3 5.3s-5.3-2.4-5.3-5.3 2.4-5.3 5.3-5.3 5.3 2.4 5.3 5.3z"></path><path fill="#f8f3ff" d="M439.4 494.1v18.2c0 .5-.4.9-.9.9h-3c-.5 0-.9-.4-.9-.9v-18.2c0-.5.4-.9.9-.9h3c.5 0 .9.4.9.9zM430.1 494.1v18.2c0 .5-.4.9-.9.9h-3c-.5 0-.9-.4-.9-.9v-18.2c0-.5.4-.9.9-.9h3c.5 0 .9.4.9.9zM420.8 494.1v18.2c0 .5-.4.9-.9.9h-3c-.5 0-.9-.4-.9-.9v-18.2c0-.5.4-.9.9-.9h3c.4 0 .9.4.9.9zM411.4 494.1v18.2c0 .5-.4.9-.9.9h-3c-.5 0-.9-.4-.9-.9v-18.2c0-.5.4-.9.9-.9h3c.5 0 .9.4.9.9z"></path><path fill="#fff" d="M446.7 450v25.7c0 2.5-2 4.5-4.5 4.5H332c-2.5 0-4.5-2-4.5-4.5V450c0-2.5 2-4.5 4.5-4.5h110.2c2.5-.1 4.5 2 4.5 4.5z"></path><path fill="#2c1e70" d="M442.2 561.7H332c-2.6 0-4.7-2.1-4.7-4.7v-25.7c0-2.6 2.1-4.7 4.7-4.7h110.2c2.6 0 4.7 2.1 4.7 4.7V557c0 2.6-2.1 4.7-4.7 4.7zM332 527c-2.4 0-4.3 2-4.3 4.3V557c0 2.4 2 4.3 4.3 4.3h110.2c2.4 0 4.3-2 4.3-4.3v-25.7c0-2.4-2-4.3-4.3-4.3H332zM442.2 521.1H332c-2.6 0-4.7-2.1-4.7-4.7v-25.7c0-2.6 2.1-4.7 4.7-4.7h110.2c2.6 0 4.7 2.1 4.7 4.7v25.7c0 2.5-2.1 4.7-4.7 4.7zM332 486.3c-2.4 0-4.3 2-4.3 4.3v25.7c0 2.4 2 4.3 4.3 4.3h110.2c2.4 0 4.3-2 4.3-4.3v-25.7c0-2.4-2-4.3-4.3-4.3H332z"></path><path fill="#fff" d="M446.7 450v25.7c0 2.5-2 4.5-4.5 4.5H332c-2.5 0-4.5-2-4.5-4.5V450c0-2.5 2-4.5 4.5-4.5h110.2c2.5-.1 4.5 2 4.5 4.5z"></path><path fill="#2c1e70" d="M442.2 480.4H332c-2.6 0-4.7-2.1-4.7-4.7V450c0-2.6 2.1-4.7 4.7-4.7h110.2c2.6 0 4.7 2.1 4.7 4.7v25.7c0 2.6-2.1 4.7-4.7 4.7zM332 445.6c-2.4 0-4.3 2-4.3 4.3v25.7c0 2.4 2 4.3 4.3 4.3h110.2c2.4 0 4.3-2 4.3-4.3V450c0-2.4-2-4.3-4.3-4.3H332z"></path><path fill="#ffc43f" d="M345.5 461.8c0 2.9-2.4 5.3-5.3 5.3s-5.3-2.4-5.3-5.3 2.4-5.3 5.3-5.3 5.3 2.4 5.3 5.3z"></path><path fill="#d0f99b" d="M360.9 461.8c0 2.9-2.4 5.3-5.3 5.3s-5.3-2.4-5.3-5.3 2.4-5.3 5.3-5.3c3 0 5.3 2.4 5.3 5.3z"></path><path fill="#ff6972" d="M376.4 461.8c0 2.9-2.4 5.3-5.3 5.3s-5.3-2.4-5.3-5.3 2.4-5.3 5.3-5.3 5.3 2.4 5.3 5.3z"></path><path fill="#f8f3ff" d="M439.4 453.5v18.2c0 .5-.4.9-.9.9h-3c-.5 0-.9-.4-.9-.9v-18.2c0-.5.4-.9.9-.9h3c.5-.1.9.3.9.9zM430.1 453.5v18.2c0 .5-.4.9-.9.9h-3c-.5 0-.9-.4-.9-.9v-18.2c0-.5.4-.9.9-.9h3c.5-.1.9.3.9.9zM420.8 453.5v18.2c0 .5-.4.9-.9.9h-3c-.5 0-.9-.4-.9-.9v-18.2c0-.5.4-.9.9-.9h3c.4-.1.9.3.9.9zM411.4 453.5v18.2c0 .5-.4.9-.9.9h-3c-.5 0-.9-.4-.9-.9v-18.2c0-.5.4-.9.9-.9h3c.5-.1.9.3.9.9z"></path><path fill="#ff987a" d="M239.4 455.4c0 2.4-1.9 4.3-4.3 4.3h-70.4c-2.4 0-4.3-1.9-4.3-4.3s1.9-4.3 4.3-4.3h70.4c2.4.1 4.3 2 4.3 4.3z"></path><path fill="#1a1459" d="M144.2 570.7c-.1 0-.1 0 0 0-.2 0-.2-.2-.2-.3l34.2-110.8c0-.1.1-.2.3-.1.1 0 .2.1.1.3l-34.2 110.8c-.1.1-.2.1-.2.1zM165.8 570.7s-.1 0 0 0c-.2 0-.2-.2-.2-.3l34.2-110.8c0-.1.1-.2.3-.1.1 0 .2.1.1.3L166 570.6c-.1.1-.1.1-.2.1zM268.1 570.7c-.1 0-.2-.1-.2-.1l-34.2-110.8c0-.1 0-.2.1-.3.1 0 .2 0 .3.1l34.2 110.8c0 .2 0 .3-.2.3zM246.5 570.7c-.1 0-.2-.1-.2-.1l-34.2-110.8c0-.1 0-.2.1-.3.1 0 .2 0 .3.1l34.2 110.8c0 .2-.1.3-.2.3z"></path><path fill="#52c1ff" d="M253.5 400.9c-2.4.8-5.3 1.4-8.7 1.5l-1.5 11.6s-67.1 2.1-75 0c-5.5-1.5-3.5-9.3-2.2-13.6-5-2.3-7.8-5.9-9.1-10.4-2.7-9.2.9-22.4 6.3-36.8 10.6-28.5 20.2-25.6 29.1-24h.2c1.2.2 2.6.4 4.2.6 7.5 1 17.8 1.8 17.8 1.8 2.1-.4 4.7-1 7.4-1.4 1.4-.2 2.9-.3 4.4-.2 8 .2 17.4 4.5 26.3 23.6 9.9 21.6 16.6 41.7.8 47.3z"></path><path fill="#29b2ef" d="M253.5 400.9c-2.4.8-5.3 1.4-8.7 1.5l-1.5 11.6s-67.1 2.1-75 0c-5.5-1.5-3.5-9.3-2.2-13.6-5-2.3-7.8-5.9-9.1-10.4 1.1-1.5 2.3-3 3.7-4.2 4.6-4.1 10.3-6.8 15.9-9.3l6-2.7c1.1-.5 3.5-2.2 4.6-1.1.4.4.4 1.5.7 2.1.3.8.9 1.6 1.4 2.3.7.8 2.8 3.4 3.9 3.4 17.2 11.1 39.4 10.7 58 19.2.8.4 1.5.8 2.3 1.2z"></path><path fill="#ff987a" d="m261.7 374.9-5-12-16.1 1.7.6 37.6c2.9-.3 24.8 1.5 27.4 1.3v-27.3l-6.9-1.3z"></path><path fill="#29b2ef" d="M240.6 365.1c-.1 0-.2-.1-.2-.2-.4-6-2.7-11.9-6.9-17.5-.1-.1 0-.2 0-.3.1-.1.2 0 .3 0 4.2 5.7 6.6 11.7 7 17.7 0 .2-.1.3-.2.3z"></path><path fill="#ff987a" d="m220.4 403.1-.1 3.1s-26.1 1.4-42.2-1.8c-21.4-4.3-25-15.3-19.9-34.4 8-2.9 19.5-2 29.2 0l-4.5 10.7c12.6.8 20.9 10.3 41.5 17.9l-4 4.5z"></path><path fill="#ff987a" d="M213.6 395.2s8.6 1.6 10.5 3.6c1.7 1.8 1.1 5 1.2 7.8.1 2.8-4.2 1.3-4.2-1.4 0-.5-.6-3.1-.6-3.1s.4 3.7-8.2 3.8"></path><path fill="#ef7154" d="M224 408.3c-.4 0-.9-.1-1.4-.4-.8-.5-1.7-1.4-1.7-2.7 0-.3-.2-1.3-.4-2.2-.1.3-.3.5-.5.8-.9 1-2.9 2.2-7.6 2.2-.1 0-.2-.1-.2-.2s.1-.2.2-.2c4.6-.1 6.5-1.2 7.3-2.1.7-.8.6-1.5.6-1.5 0-.1.1-.2.2-.2s.2 0 .2.2c0 .1.6 2.6.6 3.2 0 1.1.8 1.9 1.5 2.3 1.2.6 2.3.4 2.3-1-.1-2.7.5-6-1.1-7.7-1.9-1.9-10.3-3.5-10.4-3.5-.1 0-.2-.1-.2-.2s.1-.2.2-.2c.4.1 8.7 1.6 10.6 3.6 1.8 1.8 1.1 5.2 1.2 7.9.2 1.3-.5 1.9-1.4 1.9z"></path><path fill="#ff987a" d="M224.4 399.2c1.1.4 1.9.9 2.4 1.4 1.7 1.8 1.1 5 1.2 7.8.1 2.8-4.2 1.3-4.2-1.4"></path><path fill="#ef7154" d="M225.4 409.7c-.8-.5-1.7-1.4-1.7-2.7 0-.1.1-.2.2-.2s.2.1.2.2c0 1.1.8 1.9 1.5 2.3 1.2.6 2.3.4 2.3-1-.1-2.7.5-6-1.1-7.7-.4-.4-1.2-.9-2.3-1.3-.1 0-.2-.2-.1-.3 0-.1.2-.1.3-.1 1.2.5 2 1 2.5 1.4 1.8 1.8 1.1 5.2 1.2 7.9-.1 1.8-1.6 2.3-3 1.5z"></path><path fill="#ff987a" d="M227.3 400.8c1 .4 1.8.9 2.3 1.3 1.7 1.8 1.1 5 1.2 7.8.1 2.8-4.2 1.3-4.2-1.4"></path><path fill="#ef7154" d="M228.1 411.2c-.8-.5-1.7-1.4-1.7-2.7 0-.1.1-.2.2-.2s.2.1.2.2c0 1.1.8 1.9 1.5 2.3 1.2.6 2.3.4 2.3-1-.1-2.7.5-6-1.1-7.7-.4-.4-1.2-.9-2.2-1.3-.1 0-.2-.2-.1-.3 0-.1.2-.2.3-.1 1.1.5 1.9.9 2.4 1.4 1.8 1.8 1.1 5.2 1.2 7.9-.1 1.9-1.6 2.3-3 1.5z"></path><path fill="#ff987a" d="m297.5 563.2-16.9-1.6-1.8-18.6h17.1l.4 4.3z"></path><path fill="#f47456" d="M296.3 547.3c-2.2.5-4.5-.4-6.8-.2-2.8.3-5.4 2.4-6.1 5.1-.7 2.6.1 5.5-.7 8.1-.2.5-.4.9-.6 1.3l-1.4-.1-1.8-18.4H296l.3 4.2z"></path><path fill="#ce1938" d="m279.3 552.9.8 16.2c0 .8.7 1.4 1.5 1.4h42.2s4-3.3-6-5.6-15.7-13.6-21.6-16.1c-5.9-2.4-8.8 9.8-8.8 9.8l-.2-1.2c-.6-3-3-5.4-6-6.2-1.1 0-1.9.7-1.9 1.7z"></path><path fill="#fff" d="M299.7 558.3c.1 0 .1-.1.1-.1v-2.5s0-.1-.1-.1h-.1l-2 .8c-.1 0-.1.1-.1.2s.1.1.2.1l1.8-.7v2.3h.2z"></path><path fill="#fff" d="M305.8 561.6h.1c.1-.1 0-.1 0-.2l-8.3-7.9c-.1-.1-.1 0-.2 0-.1.1 0 .1 0 .2l8.4 7.9c-.1 0 0 0 0 0z"></path><path fill="#fff" d="M299.7 555.8c-.1 0-.2-.1-.3-.3-.1-.3.1-.7.2-1 0-.1.1-.1.1-.2.1-.4.3-.8.5-1.2.1-.1.2-.3.3-.4.2-.2.4-.2.5-.2.3 0 .5.4.6.7.1.6-.1 1.2-.5 1.7 0 0-.8.9-1.4.9.1 0 0 0 0 0zm1-2.9c-.1.1-.2.2-.2.4-.2.4-.3.7-.5 1.1 0 .1 0 .1-.1.2-.1.3-.2.6-.2.8 0 .1.1.1.1.1.2.1.8-.5 1.1-.8.4-.5.6-1 .5-1.5 0-.2-.2-.4-.3-.5-.2.1-.3.1-.4.2zM303.3 559.2c-.1 0-.2-.1-.3-.3-.1-.3.1-.7.2-1 0-.1.1-.1.1-.2.1-.4.3-.8.5-1.2.1-.1.2-.3.3-.4.2-.1.4-.2.5-.2.4 0 .5.4.6.7.1.6-.1 1.2-.5 1.7-.1 0-.8.9-1.4.9zm.9-3c-.1.1-.2.2-.2.4-.2.4-.3.7-.5 1.1 0 .1 0 .1-.1.2-.1.3-.2.6-.2.8 0 .1.1.1.1.1.2 0 .8-.5 1.1-.8.4-.5.6-1 .5-1.5 0-.2-.2-.4-.3-.5-.2.1-.3.2-.4.2z"></path><path fill="#fff" d="M303.2 561.6c.1 0 .1 0 0 0 .1 0 .1-.1.1-.1V559s0-.1-.1-.1h-.1l-2 .8c-.1 0-.1.1-.1.2s.1.1.2.1l1.8-.7v2.3c.1-.1.2 0 .2 0zM320.5 565.7c6.3 2.2 3.2 4.8 3.2 4.8h-42.2c-.8 0-1.4-.6-1.5-1.4l-.2-3.4h40.7z"></path><path fill="#4f3c94" d="m294.9 545-10.7 1.2-4.5.5c-1.8.2-3.5-.9-4-2.7l-27.2-91.3s-7.7 0-17.9-.3c-11.5-.3-26.1-.8-36.5-1.9-19.5-2-7.9-36.4-7.9-36.4h73.4c17.3.8 22.6 10 24.5 25.2L298 540.6c.5 2.2-1 4.1-3.1 4.4z"></path><path fill="#1a1459" d="M285.7 541c-.2 1.8-.7 3.6-1.5 5.2l-4.5.5c-1.8.2-3.5-.9-4-2.7l-27.2-91.3s-7.7 0-17.9-.3c-2.5-.2-5.1 0-7.6-.4-5.6-.9-10.3-5-13-10-2.7-5-3.5-10.8-3.6-16.4-.1-4.1.8-8.3 2.9-11.5 2-3 5-4.9 9.4-4.7 9.7.4 19.8.8 29.2 3.5 1.2.4 2.5.8 3.7 1.2 8.3 3.1 16 8.5 20.3 16.2 5.7 10.3 4.7 22.7 4.5 34.4-.5 22.1 2.1 44.2 7.6 65.6 1.1 3.6 2 7.1 1.7 10.7z"></path><path fill="#ffc43f" d="M297.3 534.3h-24.5l2.9 9.8c.5 1.7 2.2 2.9 4 2.7l4.5-.5 10.7-1.2c2.1-.2 3.6-2.1 3.3-4.2l-.9-6.6z"></path><path fill="#ff987a" d="m274.7 563.2-17-1.6-1.8-18.6h17.2l.3 4.3z"></path><path fill="#f47456" d="M273.4 547.3c-2.2.5-4.5-.4-6.8-.2-2.8.3-5.4 2.4-6.1 5.1-.7 2.6.1 5.5-.7 8.1-.2.5-.4.9-.6 1.3l-1.4-.1-1.8-18.4h17.2l.2 4.2z"></path><path fill="#e8354c" d="m256.4 552.9.8 16.2c0 .8.7 1.4 1.5 1.4h42.2s4-3.3-6-5.6-15.7-13.6-21.6-16.1c-5.9-2.4-8.8 9.8-8.8 9.8l-.2-1.2c-.6-3-3-5.4-6-6.2-1 0-1.9.7-1.9 1.7z"></path><path fill="#fff" d="M276.9 558.3c.1 0 .1-.1.1-.1v-2.5s0-.1-.1-.1h-.1l-2 .8c-.1 0-.1.1-.1.2s.1.1.2.1l1.8-.7v2.3h.2z"></path><path fill="#fff" d="M282.9 561.6h.1c.1-.1 0-.1 0-.2l-8.3-7.9c-.1-.1-.1 0-.2 0-.1.1 0 .1 0 .2l8.4 7.9z"></path><path fill="#fff" d="M276.9 555.8c-.1 0-.2-.1-.3-.3-.1-.3.1-.7.2-1 0-.1.1-.1.1-.2.1-.4.3-.8.5-1.2.1-.1.2-.3.3-.4.2-.2.4-.2.5-.2.3 0 .5.4.6.7.1.6-.1 1.2-.5 1.7-.1 0-.8.9-1.4.9zm.9-2.9c-.1.1-.2.2-.2.4-.2.4-.3.7-.5 1.1 0 .1 0 .1-.1.2-.1.3-.2.6-.2.8 0 .1.1.1.1.1.2.1.8-.5 1.1-.8.4-.5.6-1 .5-1.5 0-.2-.2-.4-.3-.5-.2.1-.3.1-.4.2zM280.4 559.2c-.1 0-.2-.1-.3-.3-.1-.3.1-.7.2-1 0-.1.1-.1.1-.2.1-.4.3-.8.5-1.2.1-.1.2-.3.3-.4.2-.1.4-.2.5-.2.4 0 .5.4.6.7.1.6-.1 1.2-.5 1.7 0 0-.8.9-1.4.9.1 0 0 0 0 0zm1-3c-.1.1-.2.2-.2.4-.2.4-.3.7-.5 1.1 0 .1 0 .1-.1.2-.1.3-.2.6-.2.8 0 .1.1.1.1.1.2 0 .8-.5 1.1-.8.4-.5.6-1 .5-1.5 0-.2-.2-.4-.3-.5-.2.1-.3.2-.4.2z"></path><path fill="#fff" d="M280.4 561.6c.1 0 .1-.1.1-.1V559s0-.1-.1-.1h-.1l-2 .8c-.1 0-.1.1-.1.2s.1.1.2.1l1.8-.7v2.3c.1-.1.1 0 .2 0zM297.6 565.7c6.3 2.2 3.2 4.8 3.2 4.8h-42.2c-.8 0-1.4-.6-1.5-1.4l-.2-3.4h40.7z"></path><path fill="#4f3c94" d="m272 545-10.7 1.2-4.5.5c-1.8.2-3.5-.9-4-2.7l-27.2-91.3s-7.7 0-17.9-.3c-11.5-.3-26.1-.8-36.5-1.9-19.5-2-7.9-36.4-7.9-36.4h73.4c17.3.8 22.6 10 24.5 25.2l13.9 101.3c.5 2.2-1 4.1-3.1 4.4z"></path><path fill="#ffc43f" d="M274.4 534.3h-24.5l2.9 9.8c.5 1.7 2.2 2.9 4 2.7l4.5-.5L272 545c2.1-.2 3.6-2.1 3.3-4.2l-.9-6.5z"></path><path fill="#ef7154" d="M169.4 394.8c-.1 0-.2-.1-.2-.2 2.4-11.4 13.5-14 13.6-14 .1 0 .2 0 .2.2s0 .2-.2.2c-.1 0-11 2.5-13.3 13.7.1 0 0 .1-.1.1z"></path><path fill="#ef7154" d="M195.7 384.8h-.1c-5.1-3.1-12.8-3.8-12.9-3.8-.1 0-.1 0-.2-.1s0-.1 0-.2l2.7-6c0-.1.2-.1.3-.1.1 0 .1.2.1.3l-2.6 5.7c1.5.1 8.2 1 12.8 3.8.1.1.1.2.1.3-.1 0-.1.1-.2.1z"></path><path fill="#080730" d="M246.1 359.6c-2 0-3.7 1.3-4.1 3.3l-9.6 40.4c-.1.2-.1.4-.1.6h1v3c.8.9 1.9 1.5 3.2 1.5h-37.6V407c0-1.8 1.4-3.2 3.2-3.2H229c0-.2 0-.4.1-.6l9.6-40.4c.5-1.9 2.2-3.3 4.1-3.3h3.3z"></path><path fill="#1a1459" d="m308.2 364.9-9.6 40.4c-.5 1.9-2.1 3.2-4.1 3.2h-58c-2.7 0-4.7-2.5-4.1-5.2l9.6-40.4c.5-1.9 2.1-3.3 4.1-3.3h58c2.7 0 4.7 2.6 4.1 5.3z"></path><path fill="#080730" d="m308.2 364.8-9.6 40.4c-.5 1.9-2.2 3.2-4.1 3.2h-58c-2.7 0-4.7-2.5-4.1-5.2l2-8.6c7.2 5 16 7.9 25.4 7.9 24.1 0 43.8-19.1 44.7-43 2.5.4 4.3 2.8 3.7 5.3z"></path><path fill="#fff" d="M275.7 383.5c-.5 2.1-2.7 3.8-4.8 3.8-2.1 0-3.4-1.7-2.9-3.8.5-2.1 2.7-3.9 4.8-3.9 2.2.1 3.5 1.8 2.9 3.9z"></path><path fill="#29b2ef" d="M187.4 370.3s-.1 0 0 0c-.2-.1-.2-.2-.2-.3l4.8-10.9c0-.1.2-.1.3-.1.1 0 .1.2.1.3l-4.8 10.9c-.1 0-.1.1-.2.1z"></path><path fill="#ff987a" d="M354.3 413.3c0 2.6-2.1 4.8-4.8 4.8H119.1c-2.6 0-4.8-2.1-4.8-4.8 0-2.6 2.1-4.8 4.8-4.8h230.5c2.6 0 4.7 2.2 4.7 4.8z"></path><path fill="#ff987a" d="M151.2 418 125 570.8h-3.9L141.8 418zM317.4 418l26.3 152.8h3.8L326.9 418z"></path><path fill="#f97a5d" d="m148.5 434.5 2.7-16.5h-9.4l-2.2 16.5zM329 434.5l-2.1-16.5h-9.5l2.7 16.5z"></path><path fill="#58082e" d="M231.9 291.8c.5 5.3.1 8.7-1.6 13.1l-8.2-14.3 9.8 1.2z"></path><path fill="#fff" d="M222 330.3c-.1 11.8-1.9 17.4-5.8 18.7-.5.2-1.1.3-1.7.3-9-.4-17.6-18.8-17.8-19.3 7.5 1 17.8 1.8 17.8 1.8 2.2-.4 4.7-1.1 7.5-1.5z"></path><path fill="#ff987a" d="M219.2 328.9c0 6.9-.5 16.3-3.9 17.4-5.2 1.7-15.8-16.1-15.8-16.1v-10.8.1s8.4 10 19.7 9.4z"></path><path fill="#ff987a" d="M230.4 317.3c-.6 6.9-2.8 9.8-7.3 11-13.1 3.5-23.5-8.6-23.5-8.6s.2-4-.2-5.2c-.6-1.5-2.4-2.7-3.2-5.5-.7-2.3-.5-4.8 2.8-6l1.3-10.8 29.2 5.5s1.1 6.2 1.2 13.2c-.1 2.1-.2 4.3-.3 6.4z"></path><path fill="#ff987a" d="M199.6 319.5c-.1.1-.1.1 0 0-.1.1-.1.1 0 0z"></path><path fill="#58082e" d="M228.6 299.2c-7.6 3.3-23-2.2-23-2.2 2.9 6.6.3 11.8.3 11.8-.9 1.7-1.9 1.9-3 0-.9-5.7-2.2-6-3.9-5.7-2.6.4-3.2 2.2-3.3 4 0 0-.8-2.1-1.7-4.9-.6-1.9-1.2-4-1.7-6-.5-2.2-.8-4.2-.7-5.4.3-3.1 2.2-3.2 3.1-3 .4.1.6.2.6.2 1.1-11.3 9.5-6 9.5-6 .5-6.4 25.6-7.8 29.6 1.3.7 1.6 1.1 3.1 1.3 4.4V288c1 6.6-3.8 9.7-7.1 11.2z"></path><path fill="#3d0422" d="M206.9 302.1c-.1 0-.2-.1-.2-.2-.2-1.6-.6-3.3-1.3-4.8v-.2c.1-.1.1-.1.2-.1.2.1 15.3 5.5 22.8 2.2.1 0 .2 0 .3.1s0 .2-.1.3c-7 3.1-20.1-1.2-22.7-2 .6 1.5 1 3 1.1 4.5.2.1.1.2-.1.2.1 0 0 0 0 0zM235.8 288.1c-.4 0-.8-.1-1.2-.3-1.6-.6-2.9-1.6-4.2-2.7-3.5-2.7-7.4-5-11.7-5.6-4.3-.6-9.1.8-11.6 4.4-2.2-1.6-5.5-1.3-7.5.5s-2.5 5.1-1.1 7.4c-.8-1.5-3.1-1.6-4.4-.5-1.3 1.1-1.7 2.9-1.9 4.6v.3c-.5-2.2-.8-4.2-.7-5.4.3-3.1 2.2-3.2 3.1-3 .4.1.6.2.6.2 1.1-11.3 9.5-6 9.5-6 .5-6.4 25.6-7.8 29.6 1.3.7 1.6 1.1 3.1 1.3 4.4v.1c.2.1.2.2.2.3z"></path><path fill="#3d0422" d="M205.6 297.2c-2.8-.5-4.3-3-4.3-3.1-.1-.1 0-.2.1-.3.1-.1.2 0 .3.1 0 0 1.4 2.4 4 2.9.1 0 .2.1.2.2-.1.1-.2.2-.3.2z"></path><path fill="#58082e" d="M218.4 308.8c0 .8-.4 1.4-.9 1.4-.6 0-1.1-.5-1.1-1.3 0-.7.4-1.4.9-1.4.6 0 1.1.5 1.1 1.3zM228.4 308.8c0 .8-.4 1.4-.9 1.4-.6 0-1.1-.5-1.1-1.3 0-.7.4-1.4.9-1.4.6 0 1.1.5 1.1 1.3zM219.6 304.3c.2 0 .3.1.4.2.1.1.1.4 0 .5-.1.1-.3.2-.4.3-1.7.9-3.8 1.1-5.6.4-.6-.2-.6-.8 0-1.1.4-.3 1.1-.3 1.7-.4 1.2-.2 2.5-.2 3.9.1zM230.6 304.3c.2 0 .3.1.4.2.1.1.1.4 0 .5-.1.1-.3.2-.4.3-1.7.9-3.8 1.1-5.6.4-.6-.2-.6-.8 0-1.1.4-.3 1.1-.3 1.7-.4 1.2-.2 2.6-.2 3.9.1z"></path><path fill="#f97a5d" d="M222.7 319.9h-.3c-1.3-.2-2.1-1.7-2.1-1.7-.1-.1 0-.2.1-.3.1-.1.2 0 .3.1 0 0 .7 1.4 1.9 1.5.6.1 1.2-.2 1.9-.8.1-.1.2-.1.3 0 .1.1.1.2 0 .3-.9.6-1.5.9-2.1.9zM201.3 310.3c-.1 0-.2-.1-.2-.2-.2-3.6-2.1-4.4-2.1-4.4-.1 0-.2-.2-.1-.3 0-.1.1-.2.3-.1.1 0 2.2.8 2.4 4.8-.1.1-.2.2-.3.2z"></path><path fill="#f97a5d" d="M201.2 309.6c-.1 0-.2-.1-.2-.2-.2-1.2-2.1-1.4-2.1-1.4-.1 0-.2-.1-.2-.2s.1-.2.2-.2 2.2.2 2.5 1.7c.1.2 0 .3-.2.3.1 0 0 0 0 0zM222.9 314.1h-.7c-.1 0-.2-.1-.2-.2s.1-.2.2-.2h.3c.8.1 1.5-.1 1.8-.4.3-.4 0-.9-.5-1.6-1.1-1.6-1.5-3.6-1-5.3 0-.1.1-.2.2-.1.1 0 .2.1.1.2-.5 1.7-.1 3.5.9 5 .4.6 1 1.4.4 2.1-.2.4-.9.5-1.5.5zM219.2 328.9s-5.4.4-11.3-2.7c0 0 2.4 4.8 11.3 6.2v-3.5z"></path><path fill="#e8354c" d="M512.9 278.6s-8.8 26.4-22.6 44.5c-5.5 7.2-11.8 13.2-18.7 15.6-1.7.6-3.4 1-5.1 1.1-26 2-36.7-71.8-36.7-71.8l19.5-6.1 18.2 40s14.1-26.7 23.5-30.5c6-2.4 21.9 7.2 21.9 7.2z"></path><path fill="#ce1938" d="M490.4 323.2c-5.5 7.2-11.8 13.2-18.7 15.6 1.3-14.6 6.5-36.6 6.5-36.6l12.2 21z"></path><path fill="#ff987a" d="m563.4 530 1.5 19.7.4 5.6-17.2 4.7-1.7-17.4-.9-9.5z"></path><path fill="#f47456" d="m563.4 530 1.5 19.7c-1-.3-1.9-.9-2.3-1.9-.5-1.3.1-2.8.4-4.2.4-1.5.6-3.1.6-4.7 0-.9-.3-2-1.1-2.2-.7-.2-1.5.4-2 .9-3.9 3.3-9 5.2-14.2 5l-.9-9.5 18-3.1z"></path><path fill="#4f3c94" d="m565.1 546 2.1 17c.1.8-.5 1.6-1.3 1.7l-43.7 7.6s-4.7-2.7 5.2-6.9 13.8-17 19.4-20.6c5.6-3.6 10.9 8.6 10.9 8.6v-1.3c.1-3.3 2.1-6.2 5.1-7.5 1.1-.2 2.2.4 2.3 1.4z"></path><path fill="#fff" d="M544.9 555.4c-.1 0-.2 0-.2-.1l-.4-2.6v-.1h.1l2.2.4c.1 0 .1.1.1.2s-.1.1-.2.1l-2-.4.4 2.4c.1 0 .1 0 0 .1z"></path><path fill="#fff" d="M539.1 559.8c-.1 0-.1-.1 0-.2l7.2-9.7c0-.1.1-.1.2 0 .1 0 .1.1 0 .2l-7.2 9.7h-.2z"></path><path fill="#fff" d="M544.3 552.8c-.5.1-1.5-.7-1.5-.7-.6-.5-.9-1.1-.9-1.7 0-.3.1-.7.5-.8.4-.1.7.2 1 .5.3.4.5.7.7 1.1.2.3.5.8.5 1.2.1.2-.1.3-.3.4.1 0 .1 0 0 0zm-1.7-3c-.2.1-.3.3-.3.5 0 .5.3 1 .8 1.5.3.3 1 .7 1.3.6 0 0 .1 0 .1-.2 0-.3-.3-.8-.5-1-.2-.4-.4-.7-.7-1.1-.2-.1-.5-.4-.7-.3zM541.3 556.9c-.5.1-1.5-.7-1.5-.7-.6-.5-.9-1.1-.9-1.7 0-.3.1-.7.5-.8.4-.1.7.2 1 .5.3.4.5.7.7 1.1.2.3.5.8.5 1.2 0 .2-.1.3-.3.4zm-1.8-3c-.2.1-.3.3-.3.6 0 .5.3 1 .8 1.5.3.3 1 .7 1.3.6 0 0 .1 0 .1-.2 0-.3-.4-.8-.5-1-.2-.4-.4-.7-.7-1.1-.2-.2-.4-.4-.7-.4z"></path><path fill="#fff" d="M541.8 559.4c-.1 0-.2 0-.2-.1l-.4-2.6v-.1h.1l2.2.4c.1 0 .1.1.1.2s-.1.1-.2.1l-2-.4.4 2.4c.1 0 .1.1 0 .1zM524.7 566.8c-6.2 3.4-2.5 5.5-2.5 5.5l43.7-7.6c.8-.1 1.4-.9 1.3-1.7l-.4-3.5-42.1 7.3z"></path><path fill="#ff987a" d="m508.9 535.2-2 20.3-.3 2.7-.2 2.2-17.8 1.7 1.4-17.9.2-2.2.5-6.6v-.2z"></path><path fill="#f47456" d="m508.9 535.2-2 20.3c-1.1-.8-2-1.9-2.3-3.2-.2-1.3.2-2.7.7-4 .5-1.3 1-2.5 1-3.9s-.6-2.8-1.9-3.3c-1.4-.5-2.9.3-4.3.9-2 .8-4.1 1-6.2.7-.8-.1-2.4-.3-3.8-.7l.5-6.6.1-.2h18.2z"></path><path fill="#4f3c94" d="m507.8 551.2-.8 17.1c0 .8-.7 1.5-1.5 1.5H461s-4.2-3.4 6.3-5.9c10.5-2.4 16.5-14.4 22.7-16.9 6.2-2.6 9.2 10.3 9.2 10.3l.3-1.2c.7-3.2 3.1-5.7 6.3-6.5 1.1-.2 2 .6 2 1.6z"></path><path fill="#fff" d="M486.3 556.9c-.1 0-.1-.1-.1-.1v-2.6s0-.1.1-.1h.1l2.1.8c.1 0 .1.1.1.2s-.1.1-.2.1l-1.9-.7v2.4h-.2z"></path><path fill="#fff" d="M479.8 560.3c-.1-.1-.1-.2 0-.2l8.8-8.3c.1-.1.2-.1.2 0 .1.1.1.2 0 .2l-8.8 8.3c-.1.1-.2.1-.2 0z"></path><path fill="#fff" d="M486.2 554.3c-.5 0-1.3-1-1.3-1-.5-.6-.7-1.2-.6-1.8.1-.8.9-1.1 1.5-.1.2.4.4.8.5 1.2.1.3.4.9.3 1.2-.1.4-.2.5-.4.5zm-1.3-3.2c-.2 0-.3.3-.4.5-.1.5.1 1.1.5 1.6.3.3.9.9 1.1.9 0 0 .1 0 .1-.1.1-.3-.2-.8-.3-1.1-.1-.4-.3-.8-.5-1.2 0-.3-.2-.6-.5-.6zM482.4 557.8c-.5 0-1.3-1-1.3-1-.5-.6-.7-1.2-.6-1.8.1-.3.2-.7.6-.7.2 0 .4.1.6.2.1.1.2.3.3.4.2.4.4.8.5 1.2.1.4.4.9.3 1.2 0 .4-.2.5-.4.5.1 0 .1 0 0 0zm-1.2-3.2c-.2 0-.4.3-.4.5-.1.5.1 1.1.5 1.6.3.3.9.9 1.1.9 0 0 .1 0 .1-.1.1-.3-.2-.8-.3-1.1-.1-.4-.3-.8-.5-1.2-.1-.1-.1-.3-.2-.4-.1-.1-.2-.2-.3-.2z"></path><path fill="#fff" d="M482.5 560.4c-.1 0-.1-.1-.1-.1v-2.6s0-.1.1-.1h.1l2.1.8c.1 0 .1.1.1.2s-.1.1-.2.1l-1.9-.7v2.4c0-.1-.1 0-.2 0zM464.4 564.8c-6.7 2.3-3.4 5-3.4 5h44.4c.8 0 1.5-.6 1.5-1.5l.2-3.6h-42.7z"></path><path fill="#58082e" d="M564.9 535.2c-5.3 4.5-13.3 5.8-22 4.8l-28.1-139.8-4.2 137.1c-7.5 2-15.1 4.6-23.3-.5l-4.3-185 6.8.1 53.1.9L545 368l19.9 167.2z"></path><path fill="#3d0422" d="m514.9 400.3-1.4 42.2-5.3-50.8c1.6.1 3.3 0 4.8-.4l1.9 9zM541.3 532.8l1.6 7.2c8.7 1 16.7-.3 22-4.8l-.9-7.2c-6.4 4.5-14.1 5.8-22.7 4.8zM545 368c-34.5 3.5-60-14-60-14s1.9-.8 4.9-2l53.1.9 2 15.1z"></path><path fill="#e8354c" d="M555.7 276.6c-1 8.8-2.4 18.7-3.9 29.9-1.1 7.8-2.2 16.2-3.4 25.2-.9 6.7-1.8 13.8-2.8 21.3-1 8-39 8-62.1 2-1.1-.3-1.9-1.2-2.1-2.3-2.2-11.8-13.2-77.9 14.1-82.6 1.4-.2 3.6-.5 6.1-.7 1.1-.1 2.3-.2 3.5-.3.4 0 .8-.1 1.2-.1 6.2-.5 12.5-.8 12.5-.8 3.7 0 9 .2 14.5.8l3 .3c.7.1 1.3.2 2 .2 10.5 1.3 17.8 3.5 17.4 7.1z"></path><path fill="#ce1938" d="M551.7 306.5c-1.1 7.8-2.2 16.2-3.4 25.2l-1.4-23.5 4.8-1.7z"></path><path fill="#58082e" d="M449.5 261.9c.2.8-4.5 1.6-9.4 4.5-6.9 4.1-10 2.5-10.2 1.8-.2-.8 3.9-2.8 9.4-4.5 5.4-1.8 10-2.5 10.2-1.8z"></path><path fill="#58082e" d="M449.5 261.9c.2.8-4.5 1.6-9.4 4.5-6.9 4.1-10 2.5-10.2 1.8-.2-.8 3.9-2.8 9.4-4.5 5.4-1.8 10-2.5 10.2-1.8z"></path><path fill="#4f3c94" d="M509.5 391.9c-3.6 0-7-1.1-7.2-1.2-.1 0-.2-.1-.1-.3 0-.1.2-.2.3-.1.1 0 9.2 3 13.4-.8.1-.1.2-.1.3 0 .1.1.1.2 0 .3-1.8 1.6-4.3 2.1-6.7 2.1z"></path><path fill="#4f3c94" d="M509.5 391.9c-3.6 0-7-1.1-7.2-1.2-.1 0-.2-.1-.1-.3 0-.1.2-.2.3-.1.1 0 9.2 3 13.4-.8.1-.1.2-.1.3 0 .1.1.1.2 0 .3-1.8 1.6-4.3 2.1-6.7 2.1z"></path><path fill="#4f3c94" d="M509.5 391.9h-1.3c-3.1-.2-5.8-1.1-5.8-1.1-.1 0-.2-.1-.1-.3 0-.1.1-.2.3-.1 0 0 2.7.9 5.7 1.1 1.8.1 3.4 0 4.7-.4 1.2-.3 2.2-.8 2.9-1.5.1-.1.2-.1.3 0 .1.1.1.2 0 .3-.8.7-1.8 1.3-3.1 1.6-1.1.3-2.3.4-3.6.4z"></path><path fill="#3d0422" d="M509.5 391.9h-1.3c-3.1-.2-5.8-1.1-5.8-1.1-.1 0-.2-.1-.1-.3 0-.1.1-.2.3-.1 0 0 2.7.9 5.7 1.1 1.8.1 3.4 0 4.7-.4 1.2-.3 2.2-.8 2.9-1.5.1-.1.2-.1.3 0 .1.1.1.2 0 .3-.8.7-1.8 1.3-3.1 1.6-1.1.3-2.3.4-3.6.4zM511.2 386.5c-.1 0-.2 0-.2-.1-3.7-8.5-2.4-23.1-2.4-23.3 0-.1.1-.2.2-.2s.2.1.2.2-1.3 14.7 2.3 23.1c.1.1.1.2-.1.3zM506.4 386.5c-.1 0-.2 0-.2-.1-3.7-8.5-2.4-23.1-2.4-23.3 0-.1.1-.2.2-.2s.2.1.2.2-1.3 14.7 2.3 23.1c.1.1.1.2-.1.3zM541.5 371.9c-8.3-3.1-7.5-11.5-7.5-11.5 0-.1.1-.2.2-.2s.2.1.2.2-.7 8.1 7.2 11.1c.1 0 .2.2.1.3 0 .1-.1.1-.2.1zM485.9 371.5c-.1 0-.1 0-.2-.1s0-.2.1-.3c7-3.7 7.7-10.6 7.7-10.7 0-.1.1-.2.2-.2s.2.1.2.2c-.1.1-.7 7.3-8 11.1z"></path><path fill="#fff" d="m536.2 269.2-20.5 19c-.8.7-2 .5-2.5-.5l-8.2-18.6c6.6-.5 13.7-.9 13.7-.9 3.7 0 9 .2 14.5.8.9 0 2 .1 3 .2z"></path><path fill="#ff987a" d="m531 244.9-.4 23.7-13.4 12.4c-.8.7-2 .5-2.5-.5l-5.2-11.8.3-7c-17.9-1.7-10.1-28.9-9.4-30.9 2.7 1.2 9 1.2 10-1.6 7.3 5.3 10.7-1.1 10.7-1.1-1.5 7.1 5.5 9 5.5 9v6.4l4.4 1.4z"></path><path fill="#3d0422" d="M526.6 237.3c-.1 0-6.6-1.9-5.8-8.4-2.2 2.8-5.8 3.6-10.3.5-1.3 2.7-7.5 2.7-10.2 1.5-.1 0-.1-.2-.1-.3 0-.1.2-.1.3-.1 2.7 1.2 8.8 1.2 9.8-1.5 0-.1.1-.1.1-.1h.2c4.9 3.5 8.9 1.9 10.4-1 0-.1.1-.1.2-.1s.1.1.1.2c-1.4 6.8 5.1 8.7 5.3 8.8.1 0 .2.1.1.2.1.2 0 .3-.1.3z"></path><circle cx="513.9" cy="238.9" r="1.3" fill="#3d0422"></circle><circle cx="502.4" cy="238.9" r="1.3" fill="#3d0422"></circle><path fill="#ff987a" d="M526.7 242.5c.6-1.5 1.8-2.7 3.3-3.5 1.4-.7 2.3-.4 2.9.4 1.2 1.7.9 6.4-1.7 7.9-3.4 1.9-4.4-1.6-4.4-2.2-.1-.5 0-1 0-1.5-.2-.4-.3-.7-.1-1.1z"></path><path fill="#ef7154" d="M531.1 247.5c-.1 0-.1 0-.2-.1s0-.2.1-.3c2.4-1.4 2.9-6 1.7-7.6-.7-.9-1.6-.9-2.6-.3-1.5.8-2.6 2-3.2 3.4 0 .1-.2.2-.3.1-.1 0-.2-.2-.1-.3.6-1.5 1.8-2.8 3.3-3.6 1.4-.8 2.5-.5 3.1.4 1.3 1.8 1 6.7-1.8 8.3zM519.2 259.7c-2.5 4.1-5.6 6.7-9.6 6.9l.3-4.9c2.3.2 5.6-.7 9.3-2z"></path><path fill="#ef7154" d="M528 244.4c-.1 0-.2-.2-.1-.3 1-2.7 3.4-2.6 3.4-2.6.1 0 .2.1.2.2s-.1.2-.2.2-2.1 0-3 2.4c-.1.1-.2.1-.3.1z"></path><path fill="#ef7154" d="M528 244.4c-.1-.1-.1-.2 0-.3 1.3-1.2 2.6-.6 2.6-.5.1 0 .1.2.1.3 0 .1-.2.1-.3.1 0 0-1.1-.5-2.2.5 0-.1-.1-.1-.2-.1z"></path><path fill="#3d0422" d="M511.4 234.5c-.3.1-.7.2-.7.5s.4.5.7.6c1.9.4 4 .6 5.9.1.8-.2.9-.9.1-1.2-.8-.3-1.9-.3-2.8-.3-1 0-2.1.1-3.2.3zM499.4 234.7c-.3.1-.7.2-.7.5s.4.5.7.6c1.9.4 4 .6 5.9.1.8-.2.9-.9.1-1.2-.8-.3-1.9-.3-2.8-.3-1 0-2.1.1-3.2.3z"></path><path fill="#ef7154" d="M525.3 254.7c-.1-.1-.1-.2 0-.3 2.7-2.9 4.6-6.3 4.6-6.3.1-.1.2-.1.3-.1.1.1.1.2.1.3 0 0-1.9 3.4-4.7 6.4-.1.1-.3.1-.3 0z"></path><path fill="#ce1938" d="M544.3 302.5c-.1 0-.2-.1-.2-.1-3.9-12.1 4.1-21 4.2-21.1.1-.1.2-.1.3 0 .1.1.1.2 0 .3-.1.1-7.9 8.8-4.1 20.7 0 0 0 .1-.2.2.1 0 0 0 0 0zM467.6 302.2c-.1 0-.2 0-.2-.1l-5.5-12.2c0-.1 0-.2.1-.3.1 0 .2 0 .3.1l5.4 11.9 7-11.9c.1-.1.2-.1.3-.1.1.1.1.2.1.3l-7.2 12.2c-.2 0-.2.1-.3.1z"></path><path fill="#ce1938" d="M468.4 320.1c-.1 0-.1 0-.2-.1-4.2-7.5-.9-18-.8-18.1 0-.1.1-.2.3-.1.1 0 .2.1.1.3 0 .1-3.3 10.5.8 17.8 0 0 0 .1-.2.2.1 0 .1 0 0 0z"></path><path fill="#ef7154" d="M504.2 243.6c.4-.7 1.1-1.2 1.8-1.6.6-.4 1.2-.8 1.6-1.4.5-.7.7-1.6.6-2.6-.1-.9-.4-1.8-.7-2.7 0-.1 0-.2.1-.3.1 0 .2 0 .3.1.3.9.6 1.8.7 2.8.1.8 0 1.9-.6 2.8-.4.6-1.1 1.1-1.7 1.5-.7.5-1.3.9-1.7 1.5-.5.9-.6 2.3 1.7 2.2h.9c.1 0 .2.1.2.2s-.1.2-.2.2h-.9c-2.6.3-2.8-1.6-2.1-2.7zM503.4 251c0-.1 0-.2.1-.3.1 0 .2 0 .3.1.6 1.4 2.3 2 4.5.4.1-.1.2-.1.3 0 .1.1.1.2 0 .3-2.5 1.9-4.4 1.1-5.2-.5z"></path><path fill="#ff987a" d="M449.4 262.2c-.6.7-4.9 1.7-9.3 4.3-1.6 1-3.1 1.6-4.3 2-.9-.9-1.6-1.9-2.1-2.8-.2-.3-.4-.7-.5-1-2.1-4.5-.2-7.9-.2-7.9l-4.4 1.2c-1 0-1.7-1.1-1.4-2l2.7-7.2c.4-1 1.1-1.7 2.1-2.1l7.1-2.8s-2.4-10.1-2.8-13.5c-.2-2 .4-2.9 1.4-3.3.4-.2.9 0 1.1.4 1.2 3 6.3 15.6 7.7 20.3.7 2.4 1.8 7.8 2.5 11.7.2.9.3 1.6.4 2.3v.4z"></path><path fill="#f97a5d" d="M449.4 262.2c-.6.7-4.9 1.7-9.3 4.3-1.6 1-3.1 1.6-4.3 2-.9-.9-1.6-1.9-2.1-2.8-.2-.3-.4-.7-.5-1 2.9-.9 5.9-1.2 8.8-1.9h.1c.7-.1 1.3-.3 1.9-.5h.1c.7-.2 1.5-.5 2.2-.8.9-.4 1.8-.9 2.4-1.7.1-.1.2-.2.2-.3.2.9.3 1.6.4 2.3.1.1.1.2.1.4z"></path><path fill="#ff987a" d="m442 246.3-7.8-9.1c-.3-.3-.7-.3-1 0-1.1 1.3-1.1 3-.2 4.4l6 9.4s-3.5 3.6 1.2 9.5"></path><path fill="#f97a5d" d="M440.1 260.6c-4.3-5.3-1.9-8.9-1.3-9.6l-5.9-9.2c-.9-1.4-1-3.3.2-4.7.3-.4.9-.4 1.3 0l7.8 9.1c.1.1.1.2 0 .3-.1.1-.2.1-.3 0l-7.8-9.1c-.2-.2-.5-.2-.7 0-1 1.2-1 2.9-.2 4.2l6 9.4v.2c-.1.1-3.3 3.6 1.2 9.2.1.1.1.2 0 .3-.1 0-.2 0-.3-.1z"></path><path fill="#ff987a" d="m432.6 248.3-4.1 11.1h.2c1.3.2 2.5-.5 2.9-1.7l3.6-9.3"></path><path fill="#f97a5d" d="M428.6 259.6h-.2c-.1 0-.2-.2-.2-.3l4.1-11.1c0-.1.2-.2.3-.1.1 0 .2.2.1.3l-4 10.8c1.1.1 2.2-.5 2.6-1.6l3.6-9.3c0-.1.2-.2.3-.1.1 0 .2.2.1.3l-3.6 9.3c-.4 1.2-1.7 2-3.1 1.8z"></path><path fill="#ff987a" d="M437.2 252.6s-2.4 5.8-6 6.1l2.7-6.9"></path><path fill="#f97a5d" d="M431.2 258.9c-.1 0-.1 0-.2-.1v-.2l2.7-6.9c0-.1.2-.2.3-.1.1 0 .2.2.1.3l-2.6 6.6c3.3-.5 5.5-5.8 5.5-5.9 0-.1.2-.2.3-.1.1 0 .2.2.1.3-.1.2-2.5 5.9-6.2 6.1z"></path><path fill="#ffc43f" d="m587.3 394.2-5.3 33.2c-.4 2.5-2.7 4.2-5.2 3.8l-54.3-8.6c-2.5-.4-4.2-2.7-3.8-5.2l5.3-33.2c.4-2.5 2.7-4.2 5.2-3.8l54.3 8.6c2.5.3 4.2 2.7 3.8 5.2z"></path><path fill="#ff987a" d="M572.8 383c-.5 1.8-.7 3.4-.7 4.1.1 2.7-.6 5.9-1.5 8.8-1.6 5.2-4 9.6-4 9.6-1.2 1.2-3 .9-2.7-.5l3.2-9.1-5 9.9c-1.1 1.8-3.4 1.2-3.1-.5l4.3-11.6-5.2 11.3c-1.1 1.5-3.6.7-3-1l4.3-10.3-5.1 8.8c-1.1 1.7-3.2.6-2.5-1l4.4-13.4 1.1-7.4v-.3l.2-2c0-.2.1-.4.1-.6 7.2-2.9 13.1-3.3 16.4.5-.3 1.4-.8 3.1-1.2 4.7z"></path><path fill="#f97a5d" d="M572.8 383c-.5 1.8-.7 3.4-.7 4.1.1 2.7-.6 5.9-1.5 8.8-.2-.1-.4-.3-.6-.5-1.3-1.3-1.5-3.2-1.4-5 .1-1.8.4-3.6-.1-5.3-.6-2.1-2.6-3.8-4.7-4.1-1-.2-2.1 0-3.2 0-1 0-2.2-.1-3.2-.6l.2-2c0-.2.1-.4.1-.6 7.2-2.9 13.1-3.3 16.4.5-.4 1.4-.9 3.1-1.3 4.7z"></path><path fill="#e8354c" d="M553.2 273.1s23.3 17.4 34.2 44.5c5.5 13.8-7.4 50.1-11.4 60.6-.6 1.7-2.3 2.7-4.1 2.4l-13.2-1.9c-2.1-.3-3.5-2.3-3.2-4.3l6.8-43.2s-18.2-22.7-18.9-32.7c-.5-7.9 9.8-25.4 9.8-25.4z"></path><path fill="#ce1938" d="M560.2 344.7c-.1 0-.2-.1-.2-.2l2.1-13.3-7.8-10.6c-.1-.1 0-.2 0-.3.1-.1.2 0 .3 0l7.9 10.7v.1l-2.1 13.4c0 .2-.1.2-.2.2z"></path><path fill="#ce1938" d="M562.3 331.3c-.1 0-.1 0-.2-.1s0-.2.1-.3c.1 0 6.5-3.5 15-1.6.1 0 .2.1.2.2s-.1.2-.2.2c-8.4-1.8-14.7 1.6-14.9 1.6.1 0 0 0 0 0z"></path><path fill="#3d0422" d="m514 249.9-1.7-.6-5.2.2c-.2 0-.4-.2-.4-.4v-.8c0-.2.2-.4.4-.4h4.8c.4 0 .8.2 1 .5l1.3 1.4s-.1.1-.2.1zM498.3 249.9l1.7-.6 5.2.2c.2 0 .4-.2.4-.4v-.8c0-.2-.2-.4-.4-.4h-4.8c-.4 0-.8.2-1 .5l-1.3 1.4s.1.1.2.1zM510.4 229.4c-2.7-1.5-3.2-4-3.3-4.1 0-.1 0-.2.2-.2.1 0 .2 0 .2.2 0 0 .6 2.4 3 3.8.1.1.1.2.1.3 0-.1-.1 0-.2 0zM500.7 231.1c-2.1-.5-2-3.4-2-3.6 0-.1.1-.2.2-.2s.2.1.2.2c0 0-.1 2.7 1.6 3.2.1 0 .2.1.1.2.1.1 0 .2-.1.2z"></path><path fill="#fff" d="M94.2 253.1c-2.1 22.4 13 43.2 34.9 48.2 9.4 2.2 18.7 1.3 27-2.1l8.3 5.8c.5.4 1.2 0 1.2-.6l-.3-10.1c9.5-6.6 16.5-17 18.7-29.3 4.3-24.6-12.1-48.1-36.8-52.5-25.9-4.5-50.5 13.9-53 40.6z"></path><path fill="#2c1e70" d="M164.8 305.4c-.2 0-.4-.1-.5-.2l-8.2-5.8c-8.5 3.4-17.9 4.1-27 2.1-22.1-5.1-37.2-25.9-35.1-48.4h.2-.2c2.5-27.4 27.8-45.2 53.2-40.7 24.7 4.4 41.3 28 36.9 52.7-2.1 12-8.7 22.4-18.7 29.4l.3 10c0 .4-.2.7-.5.9h-.4zm-8.7-6.4h.1l8.3 5.8c.2.1.4.1.6 0 .2-.1.3-.3.3-.5l-.3-10.1c0-.1 0-.1.1-.2 9.9-6.9 16.5-17.3 18.6-29.2 4.3-24.5-12.1-47.9-36.6-52.2C122 208.2 97 225.8 94.4 253c-2.1 22.3 12.9 43 34.8 48 9 2.2 18.3 1.5 26.9-2-.1.1 0 0 0 0z"></path><path fill="#2c1e70" d="M138.4 285.1c-4.9 0-8.8-12.7-8.8-28.8 0-16.2 3.9-28.8 8.8-28.8 11.6 0 11.5 57.6 0 57.6zm0-57.2c-4.6 0-8.4 12.7-8.4 28.4s3.8 28.4 8.4 28.4c11 0 11-56.8 0-56.8z"></path><path fill="#2c1e70" d="M113.3 271.2c-1.2-2.1.3-5.5 4.3-9.7 12.8-13.6 41.7-26 45.7-19.1 1.2 2.1-.3 5.5-4.3 9.7-8 8.5-23.7 17.6-35.1 20.3-3.3.7-9 1.6-10.6-1.2zm45-30.3c-9.8 0-30.4 10.3-40.4 21-3.7 4-5.3 7.3-4.2 9.2 1.1 1.9 4.8 2.2 10.1 1 11.3-2.7 27-11.7 34.9-20.2 3.8-4 5.3-7.3 4.2-9.2-.7-1.3-2.4-1.8-4.6-1.8z"></path><path fill="#2c1e70" d="M158.2 273.2c-9.3 0-30.1-9.8-40.7-21.1-3.9-4.2-5.5-7.6-4.3-9.7 1.2-2.1 4.9-2.5 10.5-1.2 11.4 2.7 27.1 11.8 35.1 20.3 3.9 4.2 5.4 7.6 4.2 9.7-.6 1.3-2.3 2-4.8 2zm-44.6-30.6c-1.1 1.9.5 5.2 4.2 9.2 12.4 13.2 41.2 25.8 45 19.2 1.1-1.9-.4-5.2-4.2-9.2-8-8.5-23.6-17.5-34.9-20.2-2.9-.7-8.6-1.6-10.1 1z"></path><path fill="#ff6972" d="M156.7 241c0 1-.8 1.7-1.7 1.7-1 0-1.7-.8-1.7-1.7 0-1 .8-1.7 1.7-1.7.9-.1 1.7.7 1.7 1.7z"></path><path fill="#ffce6c" d="M145 279.2c0 1-.8 1.7-1.7 1.7-1 0-1.7-.8-1.7-1.7 0-1 .8-1.7 1.7-1.7.9 0 1.7.8 1.7 1.7z"></path><path fill="#52c1ff" d="M118.6 251.3c0 1-.8 1.7-1.7 1.7-1 0-1.7-.8-1.7-1.7 0-1 .8-1.7 1.7-1.7 1 0 1.7.7 1.7 1.7z"></path><path fill="#ccb0f4" d="M142 256.8c0 2-1.6 3.7-3.7 3.7-2 0-3.7-1.6-3.7-3.7 0-2 1.6-3.7 3.7-3.7s3.7 1.7 3.7 3.7z"></path><path fill="#2c1e70" d="M540.9 201c-.2 0-.3-.1-.4-.2l-6-6.8h-22.9c-2.4 0-4.4-2-4.4-4.4V166c0-2.4 2-4.4 4.4-4.4H565c2.4 0 4.4 2 4.4 4.4v23.7c0 2.4-2 4.4-4.4 4.4h-23.5v6.4c0 .2-.1.5-.4.5h-.2zm-.1-.4c.1.1.2.1.2 0 0 0 .1-.1.1-.2v-6.6c0-.1.1-.2.2-.2H565c2.2 0 4-1.8 4-4V166c0-2.2-1.8-4-4-4h-53.5c-2.2 0-4 1.8-4 4v23.7c0 2.2 1.8 4 4 4h23c.1 0 .1 0 .1.1l6.2 6.8z"></path><path fill="#2c1e70" d="M559.5 172h-26.8c-.1 0-.2-.1-.2-.2s.1-.2.2-.2h26.8c.1 0 .2.1.2.2s-.1.2-.2.2zM521.2 172H517c-.1 0-.2-.1-.2-.2s.1-.2.2-.2h4.2c.1 0 .2.1.2.2s-.1.2-.2.2zM559.5 178.2H517c-.1 0-.2-.1-.2-.2s.1-.2.2-.2h42.5c.1 0 .2.1.2.2s-.1.2-.2.2zM540.6 184.4H517c-.1 0-.2-.1-.2-.2s.1-.2.2-.2h23.5c.1 0 .2.1.2.2s0 .2-.1.2z"></path></svg>