<svg xmlns="http://www.w3.org/2000/svg" data-name="Layer 1" viewBox="0 0 255 250" id="networking"><path fill="#4b6dff" d="M195.22,46.68a104.28,104.28,0,0,0-32.95-19,5.41,5.41,0,0,0-.53-.19c-2.68-.94-5.43-1.76-8.22-2.48A104.63,104.63,0,0,0,23,126.28c0,.24,0,.47,0,.7A104.44,104.44,0,0,0,127.49,230.82c.84,0,1.67,0,2.5,0,2,0,3.94-.15,5.89-.32a103.16,103.16,0,0,0,27.36-5.93,104.53,104.53,0,0,0,32-177.86Z"></path><path fill="#80acff" d="M127.49,231.82A105.46,105.46,0,0,1,22,127c0-.21,0-.46,0-.71A105.64,105.64,0,0,1,153.77,24.06c3,.78,5.73,1.6,8.31,2.51l.49.17a105.11,105.11,0,0,1,33.3,19.18h0a105.55,105.55,0,0,1-32.29,179.56,104.2,104.2,0,0,1-27.63,6c-2,.17-4,.27-5.94.32Q128.77,231.82,127.49,231.82Zm0-209A103.63,103.63,0,0,0,24,126.28c0,.22,0,.43,0,.66A103.45,103.45,0,0,0,127.49,229.82c.83,0,1.66,0,2.47,0,1.89,0,3.85-.15,5.83-.31a103.13,103.13,0,0,0,27.11-5.87,104.55,104.55,0,0,0,38.7-25,103.51,103.51,0,0,0-7-151.15h0a103,103,0,0,0-32.63-18.8,4.33,4.33,0,0,0-.46-.16c-2.59-.92-5.25-1.72-8.21-2.48A104.07,104.07,0,0,0,127.49,22.77Z"></path><path fill="#0dca6f" d="M103.08,36.72s0,0,0,0,0,0,0,0Z"></path><polygon fill="#0dca6f" points="99.86 35.42 99.86 35.42 99.84 35.4 99.86 35.42"></polygon><path fill="#0dca6f" d="M62.6,44.5h0l0,0Z"></path><polygon fill="#0dca6f" points="62.76 44.4 62.89 44.3 62.74 44.41 62.76 44.4"></polygon><path fill="#0dca6f" d="M65.37,42.39l.18-.13,0,0Z"></path><polygon fill="#0dca6f" points="64.81 43.53 64.83 43.52 64.81 43.53 64.81 43.53"></polygon><polygon fill="#0dca6f" points="121.85 228.92 121.85 228.92 121.85 228.92 121.85 228.92"></polygon><path fill="#0dca6f" d="M81,79.22l0,.28.18,0,.11-.1c0-.17,0-.36-.08-.54Z"></path><polygon fill="#0dca6f" points="66.53 45.48 66.57 45.45 66.53 45.48 66.53 45.48"></polygon><path fill="#0dca6f" d="M90.5 199h0a2.56 2.56 0 00-.11-.24A.91.91 0 0090.5 199zM90.38 198.67a.17.17 0 000 .05.43.43 0 000-.05zM89.91 133.77c-.28.33-.28.33-.28.59l.05.39v.17a3.66 3.66 0 01-.49.31l-.12.11a2.69 2.69 0 001.08.39.66.66 0 00.47-.33.92.92 0 00.19-.53l-.08-.25-.07-.24v-.06l.13-.2 0-.07v-.35c-.29-.12-.29-.12-.42-.12A.52.52 0 0089.91 133.77zM86.07 133l-.3-.3c-.09 0-.14.1-.2.32l-.22-.09-.35.2c-.27.21-.27.21-.27.3a.54.54 0 00.27.39l.29.08.29-.06c.37-.22.51-.3.54-.63a.29.29 0 000-.18zM108 63.48l-.13-.12a3.1 3.1 0 01-.44 0 10.29 10.29 0 01-1 0h-.27l-.1-.08-.17-.14h0l0-.07c.24-.27.24-.27.24-.37l-.12-.13c-.09 0-.09 0-.36.18-.43.21-.45.22-.49.44v.08l0 .19.08.08v.14c0 .28 0 .39.26.4h.15a1.2 1.2 0 00.32.16l.33-.08.08.2.11.15.14.11.11 0 .17 0h0l.19-.18 0-.21.11-.11.14-.09h0l.24-.09.22-.07.14-.07v-.21zM110.13 58.66l-.29-.14-.16-.06c-.29-.18-.29-.18-.46-.21l-.54-.09-.12-.06-.18 0c-.3 0-.33 0-.42.13s-.09.24.19.33l.2.16c.13.46.13.46.22.52s.26.26.36.29l.15 0a.85.85 0 01.55 0l.21.06.15 0c.44.07.57.1.66-.26S110.53 58.87 110.13 58.66zM114.82 43.87a1.45 1.45 0 00-.33.21v0a1 1 0 00-.26.11l-.11.08a1 1 0 000 .16c0 .12.15.25.46 0s.37-.19.45-.39 0-.17 0-.21zM110.82 40.46a.14.14 0 00-.12 0 .18.18 0 00-.1 0v0l0 0 0 0-.1.11c0 .07-.12.14-.11.21s.11.08.16.08l.2.05.16.06.11-.06a.36.36 0 000-.32A1.66 1.66 0 00110.82 40.46zM109.93 40.65l-.07 0a2.08 2.08 0 00-.41.11v0l0 0c-.13.2-.15.22-.07.33l.05.1.11.08.15 0 .27-.11A.38.38 0 00110 41a.35.35 0 00.07-.09c.06-.09 0-.12-.1-.21zM110.78 40.06h-.09l-.08 0-.24.08 0 0v.05c0 .16 0 .18.09.19l.08 0c.36 0 .36 0 .39-.06l0 0s0-.11 0-.14A.16.16 0 00110.78 40.06zM112 41.42h0l-.16 0-.11 0-.12.06s0 .09 0 .13 0 .06 0 .09l.08 0 .09 0 .11 0 .19-.07 0-.09C112.08 41.44 112 41.42 112 41.42zM107.48 41.79s-.08 0-.12 0c-.29 0-.29 0-.4.1s-.45.27-.66.45a.43.43 0 00-.19.24c-.08.28-.09.28 0 .45s.15.06.32-.13l.15-.15a8.38 8.38 0 001-.6.13.13 0 000 0l0-.12A.76.76 0 00107.48 41.79zM106.33 41.14a.73.73 0 00-.21-.06.57.57 0 00-.23.05l-.35.14-.08 0 0 0-.08-.07c-.11 0-.16 0-.3.13l-.14.1 0 0-.16.08c-.57.19-.57.19-.61.34s-.1.25 0 .26l.11 0c.19.06.19.06.46 0a3.61 3.61 0 001.67-.76C106.39 41.31 106.47 41.16 106.33 41.14zM94 53.16a1.3 1.3 0 00-.83.28l-.16.17.07.11.09.05.15 0h.12c.27.21.33.24.48.26.3-.1.3-.1.36-.19a.48.48 0 00.07-.22v-.09C94.42 53.23 94.43 53.18 94 53.16zM116.78 36l-.11 0a2.28 2.28 0 00-.51 0 .88.88 0 00-.55.16l-.14.09c-.73.43-.84.5-.82.83h.63a1.55 1.55 0 001.18-.46c.12-.13.3-.22.39-.39C116.85 36.25 117 36 116.78 36zM114.94 35.76l-.11 0-.16.05-.1.09h0l-.15.09c-.18.19-.18.25-.18.27l0 0h0a.36.36 0 00.35-.16l0-.15v0h0l0 0 .06 0 .11 0 0 0 .18-.07.06-.16-.06-.05zM116 34.89c-.12 0-.14 0-.2.11l0 .06-.1.06-.21.13a2.64 2.64 0 00-.3.1 1.12 1.12 0 00-.33.16l0 0-.06.18c.05 0 .06 0 .37-.14l.17 0a.75.75 0 00.32-.09c.16-.09.27-.22.41-.31s.24-.07.33-.13a.12.12 0 00.07-.05h0l0-.17-.06-.07C116.18 34.87 116.18 34.87 116 34.89zM116.78 35c-.07 0-.1 0-.2.09l0 0c-.18.14-.18.14-.22.21l0 0 .16.07h.06l.14-.07.1-.09.14-.15h0l0-.07-.07 0zM59.7 47h0v0l-.19.16 0 0a2.46 2.46 0 01.27-.17v0l.06 0c.14-.13.26-.24.27-.26h0S60 46.84 59.7 47zM60.71 50.73c-.11 0-.1-.17-.19-.21s-.05 0-.15.11-.37.26-.54.42l-.06.06c-.57.48-1.62 1.56-1.62 1.56a4.72 4.72 0 00-.58.66c-.29.39-.3.4-.33.48s.24-.12.85-.73a8.35 8.35 0 011.62-1.5 12.86 12.86 0 001.12-.75l.09-.1v0l.06-.1zM123.24 227.23l-.07 0-.09 0-.09 0 0 0h0l0 0 0 0c-.13-.06-.19-.1-.22-.06h-.1s0 .06.06.15l0 .07 0 0 0 0c0-.1 0-.11 0-.16l0-.07-.15 0a.46.46 0 00-.21-.05c-.07 0-.1 0-.12.05a.49.49 0 01-.11 0c-.08 0-.08 0-.08 0a.37.37 0 00.21.15l.11 0 0 0h0l0 0h0l-.08 0-.12-.06c-.14-.05-.17-.05-.13 0s0 .08 0 .1l.26.14h0a.37.37 0 00.15 0l.07 0 .1 0c.06 0 .08 0 .08-.07s.06-.12.06-.16h0l0 .09a.21.21 0 00.16.12l0 0a.28.28 0 00.29-.11l0-.08.06-.06.16-.17v-.06l-.08 0zM71.62 112.73h0c-.41-.22-.7-.64-1.17-.79l-.18-.06-.29 0h-.2l-.15 0s.18 0 .36-.33c0-.12 0-.26 0-.38-.26-.2-.57-.07-.85-.16s-.44-.43-.73-.57l-.22-.08c-.21-.06-.33-.26-.5-.58a3.18 3.18 0 00-1.46-1.5s-1 .09-1.06-.29-.26-1.3-2.94-1.48c-.59 0-.71.14-.87.31-.33.28-.35.28-.62.19a2.81 2.81 0 00-2.32 1.56l0 .12-.15.13-.17.07c-.37.09-.37.09-.55.31l-.16.22.8-.14-.09.25v.14l0 0h0l.15-.1c.48-.29.48-.29.66-.58s.13-.2.31-.2c.65.07.65.07 1.19-.53l.2-.19.14-.06a1.05 1.05 0 011.07 0h0l.09 0 0 .08 0 .07-.08.07h-.06l-.06 0-.22.11h0c0 .08 0 .17-.06.26a.69.69 0 00.25.1 1.48 1.48 0 01.84.34c.07.12.33.14.46.14h.12a.93.93 0 01.35 0l.15.21c.26.42.26.42.63.48a2.22 2.22 0 001 .13c.14 0 .41 0 .54.66 0 1 0 1 .33 1.42.07 0 .07 0 1.12 0l.08 0a.87.87 0 01.08.41l-.37.29c-.43.28-.59.39-.74.79l0 .11a4.81 4.81 0 001 .05 2.35 2.35 0 01.77-.18 5 5 0 011.31.2c.52 0 .92-.38 1.41-.4l.2 0a3.33 3.33 0 00.48 0 .83.83 0 00.37-.15A1.24 1.24 0 0072 113C71.9 112.85 71.89 112.82 71.62 112.73z"></path><path fill="#0dca6f" d="M60.31 109h0c-.14 0-.18 0-.28.17a3 3 0 00-.32.81l0 .14 0 .17c.06 0 .12.09.18.08a2.06 2.06 0 00.46-.12.48.48 0 00.28-.37S60.61 109 60.31 109zM68.86 103.46v-.1l0-.35c-.13-.45-.15-.51-.33-.53s-.35.32-.39.45l0 .16 0 .15c-.42.52-.42.52-.37.74l0 .13.1.17.06 0 .08 0 .19.09.11 0-.06.08-.12.26h0l0 .33 0 .18c0 .34.11.36.18.38.41 0 .57-.71.57-.71a.39.39 0 00-.35-.49l0 0-.06 0 .21-.17C68.88 103.82 68.91 103.79 68.86 103.46zM73.5 110.86l-.12 0c-.11 0-.2.07-.48.39h0l0 0 0 .39c.12.06.12.06.21 0a2.39 2.39 0 00.51-.25l.07 0 .18-.22-.2-.24zM67.62 117c-.23-.06-.3-.09-.37-.21a1.07 1.07 0 00-.74-.44h-.06a.75.75 0 00-.23 0H66a1.15 1.15 0 00-.85.21l-.12.06-.13.18-.06.39v.15l.1.18.09 0c.26.23.26.23.31.37a.54.54 0 00.29.4l.09.06c.27.08.37.12.89-.2h.12l.24 0c.54 0 .87.06.92-.39S67.79 117.08 67.62 117zM79.72 115.87c-.14-.47-.22-.72-.88-.52l-.13 0-.14-.08c-.24-.32-.24-.32-.28-.53-.09-.55-.09-.55-.15-.64l0 0 .07-.25c-.47-.23-.95.08-1.44 0l-.2 0h-.26l-.23-.06c-.38-.25-.38-.25-.53-.2l-.34.24-.18.14h-.45l-.22-.11-.14-.08-.12 0-.4-.2c-.2-.25-.2-.25-.34-.28a1.65 1.65 0 00-.75.52l0 .06a.75.75 0 00.32.42l.1.06.21.12.14.1a1.23 1.23 0 010 .4l-.35.39-.32.14 0 .31c0 .66 0 .66.2.7a.81.81 0 00.61-.43s0-.08 0-.1c.22.16.22.19.22.29l.08.2 0 .07-.06 0c-.27.07-.55.16-.83.22-.21-.22-.23-.25-.39-.26s-.39-.07-.55-.13l-.14 0-.34-.08-.21 0H71a.8.8 0 00-.32 0 .38.38 0 00-.17.27l-.1.18c-.13.31-.15.35.06.5l0 0c.61.47.61.47.76.49.44 0 .71-.42 1.14-.39l.14.1.28.16h0c.14.11.18.14.67-.11a1.46 1.46 0 01.48-.1h.08c.34 0 .36 0 .4 0 .16.26.1.58.21.84l.08.24.18.28H75c.13.06.13.06.6-1l.06-.11 0-.12 0 0 .18-.16.19-.1.24.14v0c.35.13.46.16.62.13s.26-.27.47-.32l.11 0c.17.23.39-.09.61-.1l.19 0h.13l.13.07a3 3 0 01.41.38l.19.19.09.06.11.12.2-.23.14-.36.11-.21h.06l.07 0s.11 0 .12-.09a1.93 1.93 0 00-.3-1zM84.25 117h-.08a.71.71 0 00-.19-.06c-.21 0-.43.12-.66.06a3 3 0 00-.62-.19.56.56 0 00-.2 0c-.51 0-.51 0-.73.25l-.06.1v0c0 .26-.06.5-.06.73a.56.56 0 000 .31l.2.09.3 0c.21 0 .33.08.48-.16l.09-.08.31.08c.42.21.55.26.73 0a2.82 2.82 0 00.44-.41 1.14 1.14 0 00.19-.45.41.41 0 000-.16l-.1-.3zM88.6 117.54a1 1 0 00-.58.28c0 .08-.06.33.15.65.24.11.24.11.43 0a.91.91 0 00.28-.49C88.89 117.77 88.84 117.56 88.6 117.54z"></path><polygon fill="#0dca6f" points="89.73 119.47 89.7 119.95 89.74 119.97 89.97 120.11 90.18 119.95 90.19 119.67 89.81 119.47 89.73 119.47"></polygon><path fill="#0dca6f" d="M91 121.27a1.33 1.33 0 00-.63.22l-.14.12 0 0a4.67 4.67 0 01-.25.81c0 .29 0 .29.28.49h0l.17-.21 0-.29a1.93 1.93 0 01.4-.35L91 122a1.53 1.53 0 00.2-.3s0-.08 0-.09C91.22 121.3 91.21 121.28 91 121.27zM90.81 123.17l-.28.07h0v.36a1.28 1.28 0 01-.22.8l-.1.26c.61-.32.83-.44.89-.75a3.59 3.59 0 00.08-.35.35.35 0 00-.1-.33zM91 124.75h-.28l-.22.11.06.23a.45.45 0 01.06.14 1.2 1.2 0 00.25.55l0 .08.26.19a1.6 1.6 0 00.29-.18.56.56 0 000-.19S91.6 124.78 91 124.75zM91.27 126.62l-.15-.08-.12 0 0 0a.8.8 0 000 .65v.07l0 .08-.24.62a.51.51 0 00-.4.29l0 0 0 .05c.14.46.14.46.2.52s.48.15.37-.8l0-.07h-.1l.35-.53 0-.07a.91.91 0 00.25-.65l.07-.21-.08.15z"></path><polygon fill="#0dca6f" points="89.81 130.51 89.79 130.51 89.59 130.65 89.55 130.74 89.36 130.96 89.64 131.54 89.74 131.41 90 131.01 90.06 130.87 89.87 130.55 89.81 130.51"></polygon><path fill="#0dca6f" d="M92.52 88l-.57.55a.27.27 0 00-.1.15s-.11.17-.23.33-.27.31-.39.48l0 0c-.08.13-.08.17-.06.26.3.17.3.17.41.13a1.76 1.76 0 00.82-.44 3.86 3.86 0 00.75-.69l.13-.14a2.34 2.34 0 00.25-.3.77.77 0 00.11-.25l.06-.15.1-.24-.17-.09A3.23 3.23 0 0092.52 88zM109.61 61.53l-.11-.07-.1 0a1.14 1.14 0 00-.48.36l-.12.15c-.34.33-.36.36-.31.5s.07.13.24.16.22 0 .27-.23l0-.09a3.07 3.07 0 00.34-.29 1.06 1.06 0 00.28-.21l.09-.14-.07-.11zM120.27 60.21a.73.73 0 00-.28.27l-.09.14-.2.12-.17.08 0 0 0-.06.08-.16c.5-.3.5-.3.58-.42v-.09L120 60l-.06 0c.15-.39.65-.41.77-.8l0-.17-.1 0h-.11l-.09-.09 0 0 0-.17 0-.22a.16.16 0 01-.09-.07c-.19.06-.35.49-.36.59l-.15 0h0V58.8l0 0-.13-.14h0c-.33 0-.34.07-.37.25s-.07.21-.34.33h0l0 0 .12-.3a1.19 1.19 0 01-.74-.16l.08-.11.07-.1.1 0 0 0 .11 0 .29-.35 0-.09-.23 0-.12 0h0l-.11 0-.12-.1c-.18 0-.27.23-.44.28s-.28.09-.42.15l-.09 0 0-.08c.24-.2.5-.36.74-.53l0 0 .31-.34c.27-.32.69-.51 1-.83l.11-.12-.07-.05-.12-.12c.4 0 .48-.06.66-.19l.09-.11-.09-.14c-.1-.15-.12-.18-.34-.18s-.25 0-.55.2a6.62 6.62 0 00-1.1.65l-.32.28-.22.18a6 6 0 00-1.1.85 2.15 2.15 0 00-.49.47 1.43 1.43 0 01-.27.3l-.18.1-.16.14c-.26.19-.24.27-.17.39v.06l0 .09-.1.08-.18.08 0 0v-.07a.34.34 0 00-.08-.09c-.07 0-.09 0-.19.21l-.13.2-.2.2-.11.06-.09.07 0-.07 0 0-.11-.1-.17.06a1.24 1.24 0 00-.36.19s-.38.42.17.44h.1a10.32 10.32 0 00-.9.62l-.12.11c-.6.38-.11.63-.11.63a1.88 1.88 0 001.15 0c.37-.07.37-.07.44-.11h0a.59.59 0 00.45.06 3.63 3.63 0 001 0 2.6 2.6 0 01.68 0h.16l.22-.15.06-.06h0l0 .14v.24l.12.06.09 0h.21l0 0 .16 0 .15-.08-.22.2-.26.19-.21.14-.2.06h-.16a.43.43 0 00-.12.11c0 .1 0 .17.22.29.39.19.52.14.69 0l.06-.06.18-.11c.35-.21.35-.21.49-.41 0 0 0-.09.07-.09.55-.08.55-.08.58-.12l0-.06c.4-.52.4-.52.49-.49h0v.45l-.17.19-.17.17c-.38.36-.38.36-.42.49v.14l.07 0 .14 0c.36-.1.36-.1.47-.24l.1-.11.1-.06c0 .09 0 .14-.23.45s-.14.26-.13.37l.13.08h0l.19-.08.15-.09.06 0c.27.17.28.18.62-.13.14-.13.19-.19.2-.35v0l.16-.27.17-.24.12-.17.19-.29 0-.07v-.31l0 0-.12-.11-.12.05-.17.13-.07.06-.09.06.49-.54 0-.18-.23-.09-.17 0-.23.16 0 .05-.08.07-.13.14 0-.05 0-.06.06-.11.07-.1.19-.17.21-.1.25-.16c.22-.17.2-.28.2-.36v-.07a1.54 1.54 0 000-.17C120.6 60.06 120.54 60.07 120.27 60.21z"></path><path fill="#0dca6f" d="M115.22 63l0 .2.17.07.16-.12 0-.17v-.14l.09-.19-.22-.06C115.29 62.7 115.22 63 115.22 63zM118.62 42.47l-.19-.06-.08.05 0 .07 0 .21a.55.55 0 00-.3 0l0 0v0c-.06.27-.07.27.08.33l.19 0 .14 0c.26-.08.28-.1.33-.25a.62.62 0 000-.21l0-.22zM131.59 26.86h-.09l-.67-.18h0a1.14 1.14 0 01-.29.08.23.23 0 01-.17-.1l-.52 0h-.12c-.16 0-.31-.06-.48-.07a3.78 3.78 0 01-.6 0l-.26 0-.24 0-.16 0h-1.79l-.75.08-.33.08-.3.18-.16-.13-.23-.05-.29.06H124c-.4.08-.4.08-.48.06h0a1 1 0 01-.38 0c-.09 0-.48.06-1.68.29l.31.13-.1.14.19.21h0a2 2 0 01.75.05h-.25L122 28c-.18 0-.2 0-.23 0l.15-.14.06-.05-.21 0-.18.07a1.68 1.68 0 00-.14-.18l-.21 0v-.15l0-.19-.23-.05-.47 0-.16.08-.88.19-.24.05-.29.06-.39.25-.3.27 0 .17.24 0 0 0-.29.13.1.34 0 0a3.9 3.9 0 01.85.13h0c.7-.21.84-.16 1.07-.06l.2.06a.67.67 0 01-.07.17c-.21 0-.33-.25-.57-.23 0 0 0 0-.62.36l-.06 0-.21.15-.23 0-.37.08c-.48.12-.48.12-.62 0l-.35.11v.12l-.16.1 0-.16-.29 0a1.31 1.31 0 00-.47 0 .71.71 0 00-.12-.18l-.23 0a3 3 0 00-.63-.1l-.38.12-.19.22.07.12.1.05.15.15.31 0 .24 0h.13l-.14.14c-1 .56-1.1.58-1.21.91.11.06.11.06.57-.18l.06.18h.37c.22-.08.46-.12.67-.21h0l-.09.09a.51.51 0 01-.34.21l0 0 0 0h.78a.81.81 0 01.49 0 1.9 1.9 0 01.47-.07l.52 0a3.05 3.05 0 00.49-.26 2.26 2.26 0 00.14.26h.55l.51-.11a5.62 5.62 0 001.23-.43l-.08-.21a1.69 1.69 0 00-.89-.25 3.85 3.85 0 00-1 .06l-.28 0-.23.06-.36.07-.1-.05-.36-.07h-.34l-.26.05 0-.06.1-.16.36-.19v0l0 0 .11 0h.07c.19 0 .4.05.59.05 0 0 0 .09 0 .13h0a2.89 2.89 0 00.65-.26l-.06.05 0 0 .2.19.27 0h0a2.44 2.44 0 01.9-.19l0 .1h.06c.23 0 .46-.14.7-.06a.8.8 0 00-.25.3h.16l.39-.09.41 0h0c.21-.07.44 0 .64-.09a2.18 2.18 0 00.65-.47h-.38l.08 0h0c.41 0 .88-.15 1-.4.29 0 .64 0 .93 0L125 29l.53-.28.1-.12.29-.09.15-.17h.45c.27-.13.27-.13 1-.14l.44-.21.42-.09.86-.2.89-.13c.44-.12.53-.18.57-.28h0l-.12-.06h1.06L132 27l0 0A.46.46 0 00131.59 26.86zm-7.9 1.25h-.08l-.12-.18-.22-.1a1.32 1.32 0 00-.26-.05l.58-.07 0 0-.09.14.14.18z"></path><path fill="#0dca6f" d="M118.07 29.19c-.06.07-.13.17-.22.19a1.34 1.34 0 00-.31.17l-.14.1a.63.63 0 01.41 0 2.14 2.14 0 00.67-.27l.06-.05-.21-.11zM117.29 28.69a.6.6 0 01-.22-.17h0a1.28 1.28 0 00-.56.08h0a4.3 4.3 0 00-.54.51l0 0 0 .17.1.08h.31l.21.05h.26l.35-.18c-.07-.06-.1-.08-.17-.07l0 0a1.05 1.05 0 00-.27 0 1.88 1.88 0 01.34-.14h0l.19-.11c.14-.09.14-.09.12-.14A.59.59 0 00117.29 28.69zM117.59 27.81l-.41.19h.18c0 .08-.07.21 0 .21h0l.31-.1.21-.16c-.1 0-.17-.14-.28-.15zM115.72 28.33l-.3.08a.18.18 0 00-.18-.18h-.43l-.33.1-.31.31.3-.08a1.46 1.46 0 01-.18.18h0c-.08.12-.15.22-.08.23s.24 0 .34 0 .18.08.27.11a1.31 1.31 0 00.27.05h0c.4-.14.4-.14.45-.14h0a3.33 3.33 0 00.26-.24c.12-.12.15-.16.16-.19v0l-.13-.09zM112.08 29.45l0 0h.25l.1.09.26-.17 0 0c.07-.15.07-.18.07-.22l.08-.1-.08 0A2 2 0 00112.08 29.45zM113.63 29.81c.05-.1 0-.12 0-.14a4.33 4.33 0 00-.55.08.9.9 0 00-.42.33.58.58 0 000-.18h0c-.1-.06-.22-.13-.76.29h0v0h0a.85.85 0 010-.23 2.34 2.34 0 00.06-.34h0a2.05 2.05 0 00-.64.26c-.13.08-.18.1-.22.1l-.08 0c-.06.11-.13.21 0 .24l-.06.16v0c.08 0 .08 0 .67 0a.58.58 0 010 .14c-.08.09-.19.13-.27.23l0 0h1c.27-.08.52-.2.8-.27 0 0 .77-.41.87-.48a1.29 1.29 0 00.17-.16.86.86 0 00.16-.22H114zM114.52 30.48h0s-.07.05-.72-.08h-.3a.4.4 0 00-.23.09l-.13.12 0 0v0l-.1.06-.11 0h-.1c-.06.05-.06.05 0 .12s0 .14.12.16.13 0 .15.07h0l0 0c.16 0 .19 0 .24 0h.07a1.11 1.11 0 01.26-.07h0a1.71 1.71 0 00.66-.36l.09-.07.11-.11 0-.08zM110.84 31.27a2.27 2.27 0 00-.25.06.5.5 0 00-.32.19l-.14 0 0-.06.08-.09 0-.08v0l-.16.06c-.56.24-.56.24-.7.24h-.08c-.09 0-.09 0-.25.1l-.11 0-.17.09-.09.1 0 .13h0l.21 0-.16.05 0 0a1 1 0 00-.25.07l-.1 0-.17.06H108v-.06h0l0-.06a.15.15 0 000-.08.12.12 0 00-.09 0s0 0-.58.14h0l-.12 0-.17.17 0 .06a.23.23 0 01-.15.19l-.09.06h0l.1.06 0 0a2.08 2.08 0 00.33-.08l.12 0 0 0-.16.12-.11.08s-.06.1.11.19l0 0 0 0-.18.15-.1.08v0a2 2 0 00.5-.07l0 0 .12 0 .09 0c.15 0 .19-.11.29-.29l0 0 .07 0 .08 0-.06.13a.12.12 0 000 .08c0 .07.13.07.24.07h0l.17 0a2.11 2.11 0 01.3-.1l.1 0c.05 0 .07 0 .38-.23a1 1 0 01.34-.13l.12 0 .18-.12.17-.13.13-.08c.23-.17.24-.17.26-.21l0 0-.13 0c-.14 0-.19.05-.4.21h0c0-.11.14-.14.17-.23l0 0h-.11c.05 0 .05 0 .65-.19l0 0h0l.13-.05.14-.11.23-.2.07-.08.16-.2 0 0h-.3A1.17 1.17 0 00110.84 31.27zM107 33.39h0v0z"></path><path fill="#0dca6f" d="M107.24 31.53h-.33l-.17.08-.11.06 0 0h0l-.11 0-.08.08 0 .1 0 .08-.08.06h-.06l0 0 .09-.11a.57.57 0 00-.22 0c-.17.07-.18.07-.2.07v-.11h-.12l0 0 0 0-.15.06-.14.1-.17.08-.22.13a6.27 6.27 0 00-.69.28 2.55 2.55 0 00-.59.4c-.07.06-.07.06-.62.28l.06 0 .35-.23c.64-.35.71-.39.71-.55v-.05a.58.58 0 000-.14.73.73 0 000-.12h-.14l-.13.11a.39.39 0 00-.1.17l0 0-.09 0c-.25.12-.26.12-.41.09h-.05l-.17 0-.14 0-.07 0 .26-.12v.06h0l0 0s.22-.23.15-.39l0 0c-.21 0-.42.08-.63.12l0 0 .13-.06.09-.06.13-.1 0 0a2.06 2.06 0 00-.35 0h0a.58.58 0 00.3-.17.38.38 0 00.09-.12l0 0v0a.35.35 0 010-.12l.06-.08a.33.33 0 010-.06 1.15 1.15 0 00-.77.08l-.14.06a.45.45 0 00-.1-.14l.06-.07 0-.07s0-.07 0-.08 0 0 0 0l-.07 0-.16 0-.18.07c-.4.14-.82-.08-1.2.09a2.65 2.65 0 00-.73.38 2.83 2.83 0 01-.59.17c-.74.17-.74.17-1 .36h0l-.12 0h-.07c-.18 0-.18 0-.68.3 0 0-.05 0-.06 0a4.94 4.94 0 00-1.21.39c-.21.09-.21.09-.26.18h0l.39 0 0 0c-.08.13-.08.13-.25.23l-.42.24-.25.15v0h0a2.62 2.62 0 00.69-.21c.29-.12.3-.09.37 0l.08.06c.78-.1 1.39-.63 2.17-.73l0 0c.35.1.6-.13.9-.19l.31-.09-.19.09-.17.07-.11.05c-.46.19-.49.18-.53.17l0 0-.24.07-.2.1c-.27.13-.27.13-.31.24l.08 0h.15l-.17.11a.61.61 0 010-.06l-.31.1-.1 0-.24.1v0l0 0h0l0 0s-.54.38-.2.54c.06 0 .06 0 .22 0s.59-.12.9-.15v0s0 .05 0 .06a.23.23 0 00.18 0h.14a.33.33 0 00.09.11.6.6 0 00.25 0l0 0V34H99a6.22 6.22 0 01-1.07 0l0 0h0a6 6 0 01-1.3.13c-.07 0-.07 0-.5.21l-.21.11c-.11.1-.11.1-.22.35a.57.57 0 000 .15c.12.09.16.07.37 0h.16a3.27 3.27 0 01.56-.1l-.06 0-.1.11-.16.06a1.71 1.71 0 00-.49.27l-.22.16a.45.45 0 00-.06.14l.16 0 .07 0 .13 0c.22-.05 1.28-.12 1.32-.12a5.69 5.69 0 001.45-.27l.16-.06h0v0l0 0c.15.07.26 0 .5 0l.22-.07v0h0l.61-.22 0 0v0a.25.25 0 01.16.14c0 .06 0 .06-.17.2l0 0h0a1.69 1.69 0 00.51-.11h.07l0 0v.12s0 0 0 .06a.33.33 0 01.14 0c.1 0 .1 0 .35 0s.11 0 .36-.15l.1 0 .09 0a2 2 0 00.47-.16c.16-.06.16-.06.4-.27l.11-.11c-.06 0-.06 0-.16 0l.18-.05.23-.14s0 0 0 0l0 .07 0 0h.09l0 0v0l-.05 0-.08.11h0c.25 0 .25 0 1.1-.53V34.3l0 0s0 0 0-.35a.14.14 0 00-.06-.07H104l-.1 0h-.08l0 0-.07-.05 0-.08.07-.08c.07-.06.07-.06.28-.13s.26-.08.4-.12h0l.1 0a1.6 1.6 0 00.29-.26 3.45 3.45 0 01.68-.51 1.89 1.89 0 01.56-.33l.12-.07.12 0h.08c.19 0 .38-.15.57-.21l.17-.05a3.57 3.57 0 00.35-.1l.14-.07 0-.05A.59.59 0 00107.24 31.53zm-9 1.76h0zm2-1h0l.08 0h.08zm2 2.6l-.17.09.17-.16 0 0h0l.1 0 0 0zM101.72 35.49h0a.65.65 0 00-.37.17l0 0-.06.09h.09a.88.88 0 00.32-.12h.11l0 0 .07-.11.09-.1 0-.07 0 0h0A1.18 1.18 0 00101.72 35.49zM102.52 35.39h0c-.22.16-.29.19-.33.25l0 0a3.15 3.15 0 00.68-.23.61.61 0 00.28-.13.18.18 0 000-.07h0v-.08l-.11 0zM105.31 33.87l0 0-.2.07 0 0-.11.07-.13.09 0 0h0c.25 0 .25 0 .35-.08h0l.1 0s0-.07 0-.1A.13.13 0 00105.31 33.87zM110.11 30.44l-.12 0-.36.14 0 0c-.12.11-.12.11-.1.13v0s0 0 .19 0l.12 0h0a1.5 1.5 0 00.46-.19l.05-.05v-.05a.56.56 0 01-.22 0z"></path><path fill="#0dca6f" d="M110.1,29.6a.83.83,0,0,0-.32.07h0l-.45.09a.19.19,0,0,0-.2.1L109,30l0,.07h0a.52.52,0,0,0-.24.1h-.17l-.06,0v.09l0,0h-.11v0h0l-.17.06-.16,0-.1,0s-.1,0-.19-.1l0,0,.11-.07c.18-.13.18-.13.26-.28l.05-.08c-.05,0-.05,0-.59.1l.13-.07.11-.09v0a.58.58,0,0,1-.18,0h-.12a3.32,3.32,0,0,0,.58-.23,1.53,1.53,0,0,1,.34-.09l0,0a1.15,1.15,0,0,0,.43-.21l0,0h-.08l-.2-.07h-.06l-.06,0c0,.06-.09.07-.25.14l0,0-.09,0a1.08,1.08,0,0,1-.3,0c-.12,0-.25,0-.38,0a5.12,5.12,0,0,0-.66.12l-.24.05a1,1,0,0,0-.23.06h-.1l-.2.05-.06,0c-.43.14-.43.14-.5.14l0,0h-.36l-.22.07a.94.94,0,0,0-.33.09c-.06.05-.06.05-.36.09L104,30l-.09.08-.05,0,0,.07.06,0H104l.21-.06.09,0h0v0c0,.05,0,.05-.21.21l0,.07.19-.11.11-.06.12,0,.22-.09.14-.05h0l-.09.09,0,.05,0,0h.18a1.6,1.6,0,0,0,.38-.15l.09,0a1.33,1.33,0,0,0,.19-.05.43.43,0,0,0-.05.12v0a1.88,1.88,0,0,0-.91.31l0,0a0,0,0,0,1,0,0l0,0c.12,0,.23-.06.35-.08l.36-.11h.08l.4-.12a.61.61,0,0,0,.29-.12v0l-.15.05c-.31.1-.35.1-.43.08s0,0,0,0v0l.09,0c.14,0,.29-.12.45-.16h0l.09,0,.17-.08.06,0c.07,0,.07,0,.19,0l-.15.06a.81.81,0,0,0-.37.27h0l-.07.09v0l0,0h0c-.06,0-.06,0-.24,0a.45.45,0,0,1-.17,0h0l-.16.08c-.3.16-.33.16-.38.16h-.13a.3.3,0,0,0-.27.14l0,0a.2.2,0,0,1,0,.08s0,0,0,0h.33v0h.05l.15,0h0l.08,0,0,0c0,.07,0,.07.84-.16a1.88,1.88,0,0,0,.39-.17l-.19.13-.3.21v0h.1l.15,0,.11-.06c.1,0,.18,0,.27-.05s0,0,0,0l-.13.09-.09,0-.62.07h-.06s0,0-.28,0l0,0c-.06,0-.06,0-.31.06l-.14.06-.13.11,0,.1a.21.21,0,0,0-.06.08s0,0,0,0l.07,0,.09,0h.1l.15,0,.12-.06.55-.14h0a.26.26,0,0,0,.15,0h0a.31.31,0,0,0,.33,0c.29-.1.6-.06.87-.16a2,2,0,0,1,.47-.13h.12a.42.42,0,0,0-.05.12c.08,0,.14,0,.36,0l.11,0c.1,0,.23,0,.33-.06s0,0,0,0,0,.07.22,0l.13,0,.1,0a2.58,2.58,0,0,0,.35-.09h0a2.67,2.67,0,0,1,.3-.17l0,0,.14-.06,0,0,.16,0,.11-.06a1.86,1.86,0,0,1,.19-.11l0-.1V30l-.11,0h-.09a2.83,2.83,0,0,0-.41.11l-.07,0h-.07s-.05,0-.06-.14h0l.12,0c.56-.27.56-.27.6-.31l0,0,0,0h-.35Zm-3.09.24H107l0,0h-.12l0,0-.23.06-.11,0a1.3,1.3,0,0,1,.55-.16h.08Zm.3-.11v0h0Z"></path><path fill="#0dca6f" d="M108.57 29.5l-.08 0a1 1 0 00-.39.12l0 0c-.06.1-.06.1 0 .1l0 0h0l.17 0a1 1 0 00.39-.11h0c0-.05 0-.05-.08-.08zM112.46 28.45l-.09 0-.11 0c-.22.08-.43.12-.64.2h-.47c-.21 0-.21 0-.33.08l-.09.05 0 .07a1.13 1.13 0 01.26 0c-.19 0-.19 0-.24 0h0a.2.2 0 00-.11 0h-.06l-.63.12h0l-.22.11c0 .11-.06.13 0 .16l0 0 0 0h.08l0 0c.12 0 .24 0 .37 0l.16 0a.94.94 0 00.61-.17l.08-.08h.31l.18-.06h0l.1-.09h.08a.64.64 0 00.29-.05l.06 0 .15-.05.09-.08.11-.07v0l0-.05zM148 33.46l.05 0 .08 0a1.38 1.38 0 01.35.19l.19.17a.76.76 0 00.56.28 1.11 1.11 0 00.39.06s.07-.11.1-.14l.07.06.11.07H150l.32.07c-.05-.19-.05-.19-.47-.69A2 2 0 00149 33c-.51-.21-1.16-.13-1.56-.63-.09-.14-.13-.21-.52-.32l0 0 0-.05.06-.08.1.06a.64.64 0 00.33.07l.06 0 .14 0 .05 0 .06 0 0 0-.09.06-.11.07c0 .07.1.12.14.19.31.27.72.25 1.08.41a.93.93 0 00.33.08c.06-.13.08-.17-.21-.58l-.06-.09-.14 0c-.71-.17-.71-.17-.76-.25h0a5.25 5.25 0 00.57.13l.14 0 .05 0V31.9l0 0 .1 0h.06l.24-.06h0c0-.16 0-.16-.22-.38h0l-.22-.06-.1-.05h.13c.52 0 .52-.1.55-.29A.44.44 0 01149 31a.94.94 0 00-.46-.09 1 1 0 01-.28-.07l0 0 0 0 .09-.09a.06.06 0 000 0s0 0 0-.06a.73.73 0 00-.16-.15h0l-.37-.24-.13-.09-.15-.1-.06 0a1.25 1.25 0 00-.41-.2s0 .06 0 .06h0l-.1-.09a.6.6 0 00.08-.08c.45 0 .45 0 .5 0l.32.22c.21.18.21.18.37.23-.06-.14-.06-.14-.46-.43l.07-.1a1 1 0 00-.24-.23 1.42 1.42 0 00-.4-.2l-.1.08h0l-.14 0-.13-.05h-.08l-.12 0v0h0l.41.08.06 0-.06-.07-.09-.05a3.93 3.93 0 01-.52-.17l-.1 0-.12 0-.1-.06h0v.08l-.05 0h0V29l0 0h0l.05.1v0H146a1.15 1.15 0 00-.21-.43l-.08-.07 0 0h.06l.08 0 .14-.05 0-.07 0 0-.09-.07h.09v-.05H146l.13 0 0 0a1.71 1.71 0 00-.38-.13h0l.15-.08.11 0 .07 0 .08 0v0L146 27.9l0 0h.14l0-.08h0l0 0h.09l.07 0-.12 0-.05-.06.05-.06h.23l-.06-.08-.12-.07h.08l.13 0v-.08l0-.05.12 0 0-.12-.06-.07-.1 0a1.33 1.33 0 00-.34 0l-1.11 0v.1h0l0 0 0 0c-.34-.17-.36-.17-.47-.22l.08.08 0 0 .13.09 0 0h0a.29.29 0 00-.16 0h0l0 0v0l0 0-.07 0-.11 0c-.26-.11-.27-.11-.29-.1l0 0 .37.18.07 0-.07 0-.1.05s0 .06 0 .08h-.17l0 0 0 0-.23-.17a.62.62 0 00-.46-.07h-.08l0 .11-.12 0h-.08l0 0-.1-.07h0l.15 0 0 0V27l0 0 .07 0a.15.15 0 01.11 0h0l.13-.07h.13l0-.12-.14-.06 0 0a1 1 0 00-.5 0h0l-.11 0a.53.53 0 00-.19 0h-.05a2 2 0 01-.4-.09l-.07 0c-.32-.06-1.57-.1-1.57-.1a.43.43 0 000 .12v.1a.3.3 0 01-.21.1H140l.11-.07h0l0 0s0-.1-.06-.13a2.09 2.09 0 00-.21-.05l-.22 0a3.66 3.66 0 00-.65.12l-.25 0-.09 0-.12 0 .07.13h0s-.13 0-.17-.08l-.15-.08v0l0 .07 0 .05-.21-.05-.11 0v0l.13.11 0 0v0h-.07c-.1 0-.21-.08-.3-.1h0c-.25.07-.25.07-.37 0l-.11 0h-.06l-.19 0-.07 0H137l-.36.08-.16.06 0 0 .05 0h-.17v0h0l-.19-.09H136c.11.14.11.14.53.3a.62.62 0 00.19 0c.23 0 .23 0 .52.12h-.05l-.28-.05-.13-.05h-.12l-.08 0-.14 0-.06 0-.17-.06-.06 0a.44.44 0 00-.2 0h0l-.2 0h0a2 2 0 00-.26 0h-.11l-.07.06a.7.7 0 00.39.18c-.05 0-.14 0-.19 0l0 0-.22-.09-.1-.05h0a2.46 2.46 0 00-.34-.09h-.1a.24.24 0 000 .16v.12l0 0-.09 0 0 0a.42.42 0 010-.13c-.06 0-.06 0-1.37-.05a6.21 6.21 0 00-1.2.19v.08l0 .13c-.16.07-.2.08-.55 0l0 0-.12 0-.07 0a2 2 0 00.21.2l0 0h0l-.07 0 0-.05-.11-.07-.09 0a6.87 6.87 0 00-1.61.38 1.3 1.3 0 000 .13 3.1 3.1 0 00.71 0s0 .05 0 .08l-.06.05c-.15.2-.4.21-.59.31l-.13.05a13.14 13.14 0 00-1.66.16h-.08c-.23 0-.34 0-.41.17l0 0a.51.51 0 00-.32-.07 1.42 1.42 0 00-.67.24l-.12.05v.13c.36.11.36.11.43.11l.47.18.07 0c-.2 0-.4-.05-.6-.05l-.17 0-.06.06v.13h0l-.08 0h0l-.07.06 0 .07.05.08.08.1a1.19 1.19 0 00.34-.08l-.12.1-.06.08 0 0 .26.07v.1l0 .05h0a1 1 0 00.25.06v0h.68a.39.39 0 000-.06l-.1-.13 0 0a2.54 2.54 0 01.28.16l.14-.08.14-.12-.07.07 0 .14.08.05h.1a.53.53 0 00.33-.06.85.85 0 00.2-.17v.11a.44.44 0 00.2 0c.53-.1.53-.1.63 0l.13.11.05 0 0 0a1.36 1.36 0 01.3 0l.16.05.12.07.07 0 .07 0a.23.23 0 01.2 0l.22 0a.54.54 0 01.35.12s0 0 0 0h0l-.08.06 0 .06 0 .1.09 0a.47.47 0 01.12.18c.14 0 .29 0 .4.1l-.14.07a.37.37 0 00-.13.12v0l.09 0a.33.33 0 00-.18.15.89.89 0 00.25.14c-.18.16-.17.19-.13.33a.77.77 0 00.37 0h.07l0 0a2.39 2.39 0 00-.22.23.5.5 0 01.11.16l.16-.11a.34.34 0 00.09-.12c0 .06 0 .12-.07.19s0 0-.46.17a1.33 1.33 0 000 .28l.12 0 .28-.17-.09.13-.09.13 0 .06s-.1.11-.15.14a1.16 1.16 0 00-.12.2.89.89 0 01-.05.13c.15.15.16.15.4.15l.08 0 .06 0 0 0c.14.13.14.13.41 0l.14-.09.1-.08.11-.09 0-.09.06-.09 0 .17 0 .11v0l0 .12.1 0h0a.3.3 0 00.13 0s0 .07.06.08a.31.31 0 000 .13l.2.07h.07l.06 0 .18.07.09 0 .09-.07v.13l0 .12-.07 0-.09 0-.17 0a3.34 3.34 0 00-.47-.13 2.44 2.44 0 00-.54-.12s.14-.1.2-.16v-.07l0-.08h-.14l-.08 0-.06 0a.32.32 0 00-.17.21H132l-.13-.07h0a.37.37 0 00-.15.22h-.05v0a1.86 1.86 0 00.22.27h-.09a.91.91 0 01-.23 0h0l-.09 0a.63.63 0 00-.12.23.35.35 0 01-.06.18l-.12 0c0 .11 0 .24 0 .38a7.47 7.47 0 00.64.4l.1 0h0c.23-.07.43-.19.65-.24l.14 0 .12 0c.23 0 .23 0 .35-.14V35l-.06-.08a1.17 1.17 0 00-.36-.11l-.08 0-.13-.07-.11-.08 0 0h.26l.23.11 0 0a1 1 0 00.38-.07l0 0 .05 0a.74.74 0 010 .25l0 .1v.19a1.46 1.46 0 01-.21.55l0 .22h-.05c-.17 0-.33 0-.5 0h0l-.11 0-.07 0h0a1.09 1.09 0 00-.24 0h0l-.07 0-.13.09-.1.1c-.49.47-.49.47-.51.47l0 .14 0 .05-.05 0a.39.39 0 00-.33.31V37l-.1 0s0 0-.31.56c.16.09.16.09.55.09h.07l-.17.11-.13.07-.09 0h-.07a.38.38 0 00-.16.2c0 .08 0 .18 0 .26a.31.31 0 00.1.1l.08 0 .13 0 0 .07-.08.08a.38.38 0 000 .36l.11.13.08 0a.58.58 0 01.05-.11l0 0v0l-.06.2v0l.12.09.08 0 0 0 0 0c0 .09 0 .09-.2.69a1 1 0 000 .3l.15.13.09-.08.06-.12v.16l-.08.12h0l-.09.1c0 .16 0 .19.2.34l0 .17v.11c.07.16.09.22.29.22l0 0v0l.06.1v.05l0 .07 0 .09 0 .09s0 .09 0 .14l.14.12.15.08.11 0v0l-.05.1 0 .12.09.06h.23v0l0 .32h0a.77.77 0 000 .26c.06 0 .15.08.21.13l.11 0 .07.09.06.1.12.32v0l0 .08.06.2c.18 0 .21 0 .45-.14l.12-.11v-.06l0 0 .09.11.15.09.1 0 .05-.08.14-.14 0 0c.11.1.17.18.57.2l.14 0h0l.06.09.3.28a2.6 2.6 0 010 .26l.07.07.18 0h.15l.1 0 .13.06.06 0 .18-.1v.11c0 .19.08.22.32.29l.12 0h0l.1 0 .15 0c.42-.26.57-.36.64-.78 0-.19 0-.19.34-.52l.2-.22.09-.21a2 2 0 01.24-.43c.13-.15.15-.18.1-.42s0-.17 0-.5a13.72 13.72 0 011.81-2.1c0-.16 0-.16-.34-.65l.23 0 .11 0 .11 0a1 1 0 00.3-.61l.09 0 .11 0 .15 0 .28 0 .19.06.17 0a.37.37 0 00.15-.2.07.07 0 010 .06s.11.07.16.11l.1 0a.6.6 0 00.4-.22c.2-.21.2-.21.67-.14.18 0 .27-.22.42-.3h.11l.14 0 .11 0 .07 0c.16-.09.21-.1.33-.42a3.37 3.37 0 00.24-.38.55.55 0 01.17-.13V37l0 .05h0v0c.15-.45.23-.48.53-.55l.06 0a.52.52 0 00.13-.06c0-.06-.1-.18-.15-.25a2.44 2.44 0 01-.4-.29h0l.13 0h0a.57.57 0 01.39.27l.11.13.08 0 .14 0c.23-.05.46-.08.7-.14h.1l1.9-.44a1.32 1.32 0 00.25-.21c.2-.21 1.15-1 1.15-1l.11-.06a.6.6 0 010-.12l-.06 0h0a.88.88 0 01-.28 0 3 3 0 00-.78-.13l-.22-.05a.67.67 0 00-.39-.06c-.41.15-.41.15-.48.15h0a1.2 1.2 0 01.49-.21h0c-.08-.21-.13-.24-.33-.37l-.1 0 .12-.1zm-20.68-4v0l.06 0 .06 0z"></path><path fill="#0dca6f" d="M149,30.6l-.11-.1-.1,0-.11-.05-.14,0h-.21s-.16,0,0,.14l.05,0c.11.18.11.18.33.22l.07,0h.07l0,0v0a.24.24,0,0,0,.2,0h.05s0,0,0,0,0,0-.06-.08Z"></path><polygon fill="#0dca6f" points="146.03 28.4 145.93 28.33 145.84 28.29 145.75 28.29 145.72 28.31 145.78 28.39 145.79 28.42 145.82 28.44 145.9 28.46 145.91 28.45 145.94 28.45 146.04 28.47 146.03 28.42 146.03 28.4"></polygon><path fill="#0dca6f" d="M146.53 28.74l-.26-.1-.13-.05-.11 0 .11.08.18.11 0 0h0l.06.07h.09c.07 0 .13 0 .09-.06a0 0 0 010 0zM146.91 28.84a0 0 0 010 0 .18.18 0 010 .06l.05.07h0l.05 0 .11.09h.05l0 0 0-.05 0 0-.14-.12z"></path><polygon fill="#0dca6f" points="146.24 28.45 146.3 28.53 146.48 28.62 146.42 28.53 146.24 28.45"></polygon><polygon fill="#0dca6f" points="146.25 28.39 146.29 28.45 146.45 28.52 146.42 28.45 146.25 28.39"></polygon><path fill="#0dca6f" d="M146.07 28.16h0c0 .05.21.19.32.19s0 0 0-.09A.44.44 0 00146.07 28.16zM157.68 38.54v0l-.42-.28-.17-.08-.11 0a.7.7 0 01-.26-.1l-.19-.06-.12-.13-.16-.05h0a.09.09 0 010 0c0-.07 0-.09.13-.09h0l0-.16c-.11-.07-.11-.07-.52.15h-.11l-.26-.22 0-.07-.13 0H155l-.08.07.14.19.08.1h-.2l-.08 0c-.09.11-.09.11 0 .21V38l-.11 0-.15-.06 0 0c-.16-.1-.2-.12-.29-.11v.19l-.19-.1 0 0-.06-.08-.1-.12h-.09a1.5 1.5 0 01-.18.24l0 .1.14.12-.17 0-.23-.12-.27-.07h0c.06.11.2.31.2.31l0 0 .14.14h0l-.09 0 0 0-.09-.1 0-.08H153a.47.47 0 01-.1.2v.1l.08.15 0 0-.19-.15-.14-.12 0 0h0v-.11h0v0c-.11-.09-.11-.09-.61-.44l-.13-.1-.06 0-.16-.07v0h0l0 0h-.47l-.11.11v.08s0 0 0 0c-.29-.09-.38 0-.29.17v.13c0 .06-.1.1-.13.15l-.1.06h0c0 .22 0 .22 0 .28l.1 0a1.06 1.06 0 01.47 0c.14.06.17.06.23 0a1.27 1.27 0 00.23-.08c.15-.1.15-.1.24-.07l.11.05.1 0v0a.42.42 0 00-.09.18v.07a1 1 0 00-.34.11l-.08 0h-.32l-.08 0-.05.06c0 .16 0 .16.17.25s.18.15.26.16h0a4.25 4.25 0 00.51-.14l0 0 .09 0 0 0h0l.1.07 0 .07 0 .08.1.17.11 0 .08-.06a2 2 0 01.07.3l-.21.1a.84.84 0 01-.19-.07c-.07.1.07.33.18.41l.15.06h.06l.12-.09.1 0 .13 0 .08 0 .12 0c.13.07.16 0 .21 0s0-.07 0-.09l0-.1a1.36 1.36 0 00.31.23l.22.11.18.07.13.1a.67.67 0 00.41.16H155l.19 0a.64.64 0 01.28 0l.18.07.14.07.08-.11c.07-.21.07-.21.12-.23h0l0 0h0l0-.05v-.08l.05 0a2.53 2.53 0 00.44-.19l.13-.06 0 0 .09 0h.09c.06 0 .09 0 .13-.14l0-.16.06-.09.09 0h.21c.29 0 .35 0 .21-.35v-.05s.06 0 .1 0 .25-.3 0-.7zM164.78 42.51l-.16-.15 0 0h0l.06 0 0-.07 0-.07-.13-.16c0-.17-.07-.26-.09-.31a.26.26 0 00-.09-.12.15.15 0 000-.06l-.16-.13v.09l0 .13 0 0c-.26-.12-.27-.12-.38-.1s-.17.06 0 .23h0l0 .07 0 0h0a7.46 7.46 0 01.68.53l.09.16.12 0v0l.07 0h0l0 0 0-.14zM158.57 28.71l-.06-.06-.26-.17a.9.9 0 00-.44-.11h-.16l-.09 0-.22-.09h0l-.1-.05h0s0 .05 0 .06h0c-.08 0-.1 0-.52-.15l-.11 0s0 0 0 0l-.15-.05-.17-.05-.13-.06v0l-.12 0h0v0h0a.39.39 0 01-.19-.06l-.07 0-.08 0h.09a.29.29 0 00-.08-.08l.14 0 .07 0 .08 0c.12.05.12 0 .18 0h0l.1 0a.77.77 0 00.35.07l-.19-.12 0 0 .18 0v0s-.06-.06-.09-.07-.21-.09-.27-.2l-.06-.05-.05 0-.07 0-.16-.06-.44-.13a7.43 7.43 0 00-.81-.09l.1 0 .08 0 .11.08v0l-.2-.09-.18-.05 0 0a2 2 0 00.36.18l-.16 0h-.06c-.29-.11-.35-.07-.37-.05h0l-.11 0-.19-.08s0 0 .15.13 0 0 0 0H154l-.07 0h0l-.23-.07.12.07.15.06.22.1.14 0 .12 0 0 0 .19.06h-.06l-.39-.12-.25 0h-.11v0l0 0a2.15 2.15 0 00.58.24h0l.17.06v.05l-.23-.09c-.19-.05-.35-.12-.52-.17l0 0-.17-.05 0 0 0 0 .05.05.17.1h-.1l-.07 0h.1a1.39 1.39 0 00-.33-.17h-.14a.17.17 0 00-.12 0c-.08 0-.15 0-.24 0h0v0l0 0-.1 0h-.12l.06 0 .25.1a6.56 6.56 0 00.62.23 2.78 2.78 0 01.56.21l.27.1-.11 0-.38-.1-.21-.07a3.15 3.15 0 00.72.3l.36.09h.19l.09 0 .14.05h.07s0 0 0-.06v0h0a.08.08 0 010 0c-.07-.06-.18-.07-.21-.16l0 0h.14l.09 0h0l.09 0 0 0 0 .06.09.08v0h-.08l.06.07.06 0a2.74 2.74 0 00.76.3h0l.15.05.16.07c.18.06.38.05.56.12.59.28.63.25.71.22l.09 0 .12 0s0 0-.22-.14-.5-.25-.74-.38c0 0 0 0-.08 0a.19.19 0 01.08 0h0l-.1-.06-.43-.2 0 0h0v-.05a3.85 3.85 0 00-.35-.17l0 0v0a.73.73 0 00-.14-.1h.08a1.7 1.7 0 00.32.1 4.34 4.34 0 01.47.16l.11 0 .23.11.05 0a1.92 1.92 0 00.41.22l.09 0h0s0 0 0-.1h.06l0 0 .07 0 .14.07.1.05h.21s0-.06 0-.08A.73.73 0 00158.57 28.71zm-3.35-.92l-.14 0-.27-.1 0 0-.06 0h.11s.09 0 .16 0l.16.07.09.06 0 0zm.46.1a.22.22 0 01-.1 0h0l-.06-.06h0l0 0 0 0 .06 0 0 0c.15.07.17.08.17.1zM157.41 28l-.14 0h-.13a4.27 4.27 0 00.46.15h0zM157.6 27.84l-.09 0h-.11l-.05 0h0l0 0a1.46 1.46 0 00-.2 0h0l.28.15h0s.34.11.39.14 0 0 0-.06l.1 0s0 0 0 0h0l-.27-.14z"></path><polygon fill="#0dca6f" points="157.37 27.84 157.35 27.83 157.35 27.83 157.37 27.84"></polygon><path fill="#0dca6f" d="M156.46 27.17l-.11 0h-.23l.06 0 .06 0 .32.13s0 0 0 0h.11s0 0 0 0zM155.64 27.23l-.06 0 .06.05 0 0 0 0 .12 0 .1 0 .05 0h.06l-.19-.08zM161.57 30.65l-.16-.1-.17-.08-.07 0-.12-.05h0l.05.08h0l.24.16.26.11h.06S161.68 30.74 161.57 30.65zM160 29.16l-.22-.11h-.07l.24.15h0l.34.16-.09-.05zM155.58 33.19l0 .06a.11.11 0 010 .06.53.53 0 01.06.1l0 0 0 0-.12 0s-.08 0 .07.2l.2.18 0-.05 0-.08H156a.08.08 0 00.05-.06v-.11l-.15-.13C155.68 33.23 155.62 33.19 155.58 33.19zM169.72 44.11l0-.07-.07-.12 0-.05-.06-.13a.52.52 0 00-.12-.32 1 1 0 00-.32-.29l-.13 0 0 0 0 .09 0 .11v0h0l-.2-.14 0 0 0 0 0 .08 0 .13h0l.05.12.07.08.05.13 0 0 .14.13.1 0h0l.07-.07.05.08v.06l.1.18h0v0l0 0 .13 0h0l.08 0V44.3l0 0zM168 47.61l0 0-.11-.21 0-.1V47l0-.12.06-.08 0-.09v-.26a1.53 1.53 0 00-.23-.46c-.07-.11-.11-.13-.16-.15l-.1 0-.07.09V46l0 .12-.06.09 0 0-.1.1v0a1 1 0 00.26.27v0c.26.16.09.25-.05.32h0s0 0 0 .12a1.31 1.31 0 00.25.36c.17.19.2.21.25.32l0 .15.07.14.09 0c.11 0 .09-.15.08-.25A.44.44 0 00168 47.61zM179.66 55.5c0-.14 0-.21-.25-.25a1.53 1.53 0 01-.49-.11l-.08 0c0-.15 0-.16 0-.23l.14-.09.09-.06v-.18c0-.39 0-.39-.07-.5l-.15-.21-.11-.18-.13-.27a.78.78 0 00-.28-.29 3.31 3.31 0 00-1-.24l-.09.09 0 .09-.07.07V53l0-.08-.16-.33c-.3-.27-.33-.28-.42-.36l-.09 0-.14-.08-.09-.11-.1-.13-.11-.08L176 51.7v-.06l0-.09-.06-.07 0 0-.09-.07a9.18 9.18 0 00-1-.57c-.44-.16-.44-.16-.87-.63l-.19-.24c-.26-.32-.33-.4-.5-.47-.34-.19-.59-.53-1-.57h0l0 0 0 0-.12-.13-.15-.16 0 0-.05 0 0-.07c.09-.12.09-.12.08-.3l0-.22v-.29l0-.16c-.06-.18-.06-.18-.25-.32-.34-.33-.34-.33-1.75-.18-.18-.1-.25-.26-.16-.38l0 0 .1-.09.08-.07.05-.09.05-.13h0v0l-.15-.12-.12-.11-.17-.1.05-.09.07 0 .05-.07c0-.09 0-.09-.08-.23l0 0a.6.6 0 00-.25-.45l0 0 0 0 0 0-.12 0-.09 0-.08-.07-.06.07L169 45l0 0H169L169 45h-.19c.16.21.17.22.32.3l.09.06.11.07.05 0-.07 0 0 .05.06.08-.06 0-.06 0-.12 0 .05.08a.6.6 0 00-.08-.08.35.35 0 00-.12.07l0 0h-.19c-.3-.08-.43-.11-.34.18l.13.26v.16l.14.2.06.08-.07 0h-.1c0 .06 0 .18.28.53l-.06 0-.19-.1 0 0h0l0 0-.11 0 0 0h-.11l0 .11.08.15-.32.05.18.09.1 0 .17.1.12.11.08.07v.1l0 .11a2.25 2.25 0 000 .44l0 .12.15.26h0l.1.06 0-.11v-.29l-.07-.18-.05-.12V48h0l0 0 0-.1A.34.34 0 01169 48v.19l0 .19 0 .06.39.39V49l0 .14 0 0h.05a1.92 1.92 0 00.1-.56v0l0-.09h.06a1.33 1.33 0 01.13.48l0 .05-.05.09 0 .13v0h-.15l0 .09 0 .08.12.25.15 0c.13 0 .15 0 .19-.08a.23.23 0 000-.22l0-.1 0-.13h0c0 .09.18.49.2.51v0l.08.17v0c.11.09.15.24.23.35h.13l.05-.14 0-.1 0-.1 0-.08c.07-.07.08-.09 0-.22s0-.12 0-.17a.51.51 0 01.18.3l0 .12 0 .18H171v.16l.07.14.14.22c.22.26.24.28.37.29h.09l.14-.08c.07-.13.07-.13.13-.16l.07-.06h.09l.18.1.1 0h0a.27.27 0 01.12-.06c.05.13.05.14.1.25l0 .12v0l.18.22c.26.28.35.37.62.31h0l.08 0h0l0 .07a.83.83 0 00.3.76l.15.19v0c-.3 0-.59.18-.9 0l-.14-.08-.19-.05c-.09.05-.09.07-.16.16-.14.34.23.38.24.38l.23-.05 0 .11-.07.17c-.13.15.19.43.28.52l.07 0 .09.06.08-.16.05-.11.12-.05v.08l.05.2 0 .13v.27a.3.3 0 01-.18.07l-.07.07 0 .23a.62.62 0 00-.07.19c0 .16.5.67.85.26l.06 0c.37.44.45.46.56.51h.17l.21 0 .09-.08.11-.07.15 0h0l.08 0a1 1 0 01-.12.34l-.75 0 0 0-.05.26c-.15.19-.15.19-.15.36l0 .18 0 .1 0 .08 0 .13V57a.38.38 0 00-.14.11l-.11.06-.08.08.08.12c.19.22.21.27.44.3H175l.11 0h.08l.1-.11.06-.1 0-.15-.09-.22-.05-.09h.1a1.26 1.26 0 01.45.14 2 2 0 00.39.14h.1l.08-.11-.05-.16 0-.15v-.26l0-.11h0l.1 0 .07-.08 0-.09 0-.06.06 0 .25.23.25.18a.47.47 0 00.34-.31l0-.13.18.17.22.16c.15.09.15.09.24.06a.47.47 0 000-.09l-.11-.22 0 0h.08a1.31 1.31 0 00.37 0 2.35 2.35 0 00.47-.15h.14l.18 0c.12-.08.13-.08.17-.18l.06-.08.1-.16c0-.16 0-.16 0-.26z"></path><path fill="#0dca6f" d="M172.47 54.22l-.09-.2-.06-.15 0-.16a1.46 1.46 0 00-.25-.55l-.06-.11v0l-.1-.16-.14-.2c-.37-.6-.37-.6-.54-.72l0 0 .09 0 0 0h0s.08-.17.11-.33h.11l0-.11s0-.1-.06-.17-.15-.18-.39-.39l-.06 0 0 0-.34-.34a2.47 2.47 0 00-.43-.36L170.2 50l-.14 0L170 50l-.2-.08 0 .11.09.12-.06 0a.86.86 0 00-.24.05c-.06-.09-.22-.3-.34-.29a.36.36 0 00-.22.18l-.14.06-.09 0-.19-.07-.08.07a3.28 3.28 0 000 .7l0 0V51l.09.1 0 0 .25.12.07 0 .08-.11 0 .11-.07.12c-.07.1-.07.1-.12.32h-.15l-.2-.15h0l-.18-.08-.05 0a.58.58 0 01-.35 0l-.08 0-.07.08a1.9 1.9 0 00.22.33L168 52l.12.06 0 0 .05 0h0l0 .15 0 .21v0l0 0 0 .13.14.1.11 0 .13.07.06 0L169 53l0 0-.07.11-.06 0a.3.3 0 00.06.29l.06.25 0 .13v0l0 .06-.06.07 0 .13v.11l-.06.07c-.14.1.11.39.33.44l-.06.08L169 55l.07.1a.87.87 0 00.44.19l0 .14h.27l0 .08.11.07.21-.12h0l.1 0h0l.17 0h.08c.14 0 .17-.06.19-.23l.07-.06c.21.08.21.08.38-.14l.06-.11v0h.07a.28.28 0 00.19-.42l0-.06.05 0c.11 0 .11 0 .37 0l.42.09.11 0h.06l0 0 0-.11zM169.28 53c0 .07-.07.09-.14.11h-.06L169 53l0 0 .12 0h.1zM172.67 51.49l-.2-.25-.17-.06c-.06 0-.14.16-.17.21a.24.24 0 00-.07.13c0 .07 0 .1 0 .12l.12.11h.06c.11.05.11.05.19 0 .25-.11.25-.11.23-.21S172.68 51.5 172.67 51.49z"></path><polygon fill="#0dca6f" points="162.15 47.2 162.38 47.37 162.41 47.19 162.18 47.04 162.15 47.2"></polygon><path fill="#0dca6f" d="M197.07 74a.11.11 0 000-.06c-.22-.47-.42-.94-.65-1.41a2.87 2.87 0 00-1.16-1.46l-.06 0h0c.11-.29-.72-1.75-.72-1.77a3.44 3.44 0 00-.41-.76l-.1-.12-.15-.15a2.2 2.2 0 00-.22 1v0a2.74 2.74 0 00.34.56l0 0 .19.27.22.27c.23.38.23.38.4.44L195 71l0 .15a1.29 1.29 0 01-.18.57l0 .06 0 0-.14-.19-.05-.07a1.44 1.44 0 00.28 1 4.84 4.84 0 011.08 1.85 2 2 0 00.16.56c.27.61.8.57.88.4l-.07-.21-.05-.1v-.15l.1 0 .15.06.26.09c.11-.12.19-.18-.13-.8A.6.6 0 01197.07 74zM191 74.21l0-.15-.18-.12-.16-.06v0l-.07-.09-.21-.19a.82.82 0 00-.25.23L190 74a.33.33 0 00-.07.44.49.49 0 00.41.35l.16.1.14.11.15.05.14 0 .07-.16a.7.7 0 000-.53zM191.4 73.37h-.17l-.08 0-.14 0 .05.06.05.22c.08.18.08.18.14.21a.29.29 0 00.15 0 .68.68 0 01.31.06l0 0h0l0-.12S191.6 73.46 191.4 73.37zM189.57 75.29l-.11-.22h-.16a.48.48 0 00-.08.25l0 .2a.63.63 0 00-.06.27.17.17 0 00.15.12c.23 0 .47-.1.31-.55zM207.07 75.79c-.15-.11-.15-.11-.22-.11l-.1 0h0v0a.62.62 0 00.13.32.83.83 0 00.4.26l0 0a1.24 1.24 0 00-.13-.39A.93.93 0 00207.07 75.79zM210.07 78.46c-.3-.46-.58-.89-.78-1.15l-.08-.13c.11 0 .2 0 .3 0l0-.14a1.71 1.71 0 00-.5-.67l-.09 0c-.35-.34-.39-.35-.52-.26h-.13c-.17-.16-.23-.23-.29-.25h-.07c-.14 0-.14 0-.24 0l-.11 0a1.91 1.91 0 000 .2c.07.34.05.38 0 .4s-.17.09-.37.08h0l0 0v.18l.12.18.09.11.13.12.08 0 .14 0 .08 0 .07-.09h0l.14.09.31.24.06.07.09 0 .09.13.09.28a.92.92 0 00.35.58l.07.08.15.09s.1-.08 0-.39v0l0 0 .14.11c.16.34.16.34.16.36l.14.18.2.17v-.19l-.08-.23 0-.07.3.3.14.09h0l.06 0 .09.1h0c0-.1 0-.1-.19-.35zM175.19 94.51c-.53.15-.58.17-.76.91l0 .06-.11.25c-.43.73-.37.86-.1 1.2l.07.08 0-.06.21-.19c.28-.33.28-.33.33-1.09l0-.18v-.13h0c.5-.3.5-.3.48-.5l.07-.15 0-.18-.1 0zM172.46 96.76l0-.15-.56.48v.45l.12.12.11.06.18 0 .26-.13h0a.89.89 0 000-.43A1.83 1.83 0 00172.46 96.76zM171.21 96v0l-.15-.12a1.7 1.7 0 00-.19.19c-.14.19-.18.21-.23.23l-.08 0h-.23c-.18.33.11.77.11.78V97l.58.21v-.11l0-.23 0-.19a.52.52 0 00.27-.5 1.12 1.12 0 000-.21zM169 95.64c-.25-.52-.25-.52-.4-.56l-.13.1c-.23.27-.23.27-.1.54.23.66.23.66.4.69l.14 0 .1 0 .1-.08v-.12l-.09-.62zM169.88 96.46a.74.74 0 00-.4.31l0 0a2.84 2.84 0 00.13.38.19.19 0 00.15.08.36.36 0 00.25-.16.52.52 0 00.06-.3v-.14l0-.17zM169 97.21a.6.6 0 00-.25.11l-.25.11-.21 0 .07.13a.34.34 0 00.29.23s.59 0 .66-.1h0l0-.12C169.19 97.28 169.13 97.22 169 97.21zM169.18 87.53a1.25 1.25 0 00-.31 0l-.09 0 0 .08c.08.42.19.46.36.48l.1 0 .06 0c.16-.07.16-.07.22-.17a.63.63 0 000-.32v0l-.11-.1zM168.06 85.62a.28.28 0 00-.14-.26l-.18-.1-.21.23-.07.14h0a6.77 6.77 0 010 1l0 0c.07.1.08.14.31.15.4-.07.4-.07.47-.19a.91.91 0 00-.08-.62C168.06 85.88 168.07 85.75 168.06 85.62zM156.53 78.22l-.08-.09-.19-.1h-.16l-.2 0-.23 0v.07c-.06.47-.06.47.12.59l.23.05.18 0h.08l.08 0 .12 0 .16-.15v-.16C156.64 78.29 156.6 78.25 156.53 78.22zM153.84 76.68c0-.15-.06-.34-.27-.35h0a.39.39 0 00-.28.3l0 .12.22.23h.18l.13 0 .07 0h.06v0l0-.16zM152.64 76.91l-.2 0-.08-.08-.2-.12-.18.08-.11.18-.1.14c-.28-.23-.43-.22-.51-.2l-.06 0 0 .09c0 .36 0 .43.26.57l.26 0 .2 0 .18 0 .19 0 .22-.07.09 0s.33-.14.38-.25 0 0 0 0S153 77 152.64 76.91zM157.45 119.76l-.13-.08-.18-.1-.14.13h0l-.19-.07-.16-.08c.1.74.1.74.22.93l.11.18.23.15a.31.31 0 00.13 0c.14 0 .18-.09.26-.21l.08-.11C157.94 119.9 157.45 119.76 157.45 119.76zM159.09 120.84l-.75 0v.32l0 .26.15 0a.94.94 0 00.55-.2l0 0h.3C159.37 120.92 159.23 120.87 159.09 120.84zM161.52 121.87l-.08-.1-.16-.07-.17.07h0a2.25 2.25 0 000 .45.75.75 0 00.1.37l.12.06.07 0 .12 0 .17-.13 0-.62zM161.2 120.42l-.07-.14-.28.37c0 .06 0 .59.28.61l0 0c.13 0 .21 0 .22-.16a1.51 1.51 0 00-.14-.59A.11.11 0 01161.2 120.42zM160.34 124.22a7.34 7.34 0 00-.6-.51l-.18-.1 0 .22a1 1 0 010 .45v.37c0 .24 0 .24.13.35a.78.78 0 00.42.27.51.51 0 00.31-.59C160.39 124.27 160.39 124.27 160.34 124.22zM161 123.28l-.1-.09.07-.08.15-.28 0-.11-.14-.06-.17 0v0s-.29.39-.22.6v.19c0 .62.05.81.19.89h0l.26-.17.1-.32v-.27l0-.26zM158.73 124.42l-.22-.19H158c.09.63.28 1 .45 1.07l.08 0 .11-.07.18-.21h0l0-.42zM169.09 30.37l0 0-.07 0zM169.75 30.65l-.05 0 .59.27z"></path><polygon fill="#0dca6f" points="168.83 30.26 168.84 30.26 168.83 30.26 168.83 30.26"></polygon><path fill="#0dca6f" d="M169.14 30.39l.18.08.21.09h0l0 0 .19.08zM168.77 30.23l.06 0a1.6 1.6 0 00-.23-.1A.67.67 0 01168.77 30.23zM169 30.32l-.06 0-.09 0 .23.1h0zM171.88 31.64l-.36-.17-.83-.37h0l1.54.71a1.14 1.14 0 01-.19-.1z"></path><path fill="#0dca6f" d="M169.6 30.61l0 0 .38.16a3.4 3.4 0 00-.57-.25zM170.13 30.84l.2.08-.32-.13zM175 33.12s0 0 0 0 0 0 0 0zM225.28 89.31c0 .09.06.17.08.25l.31.75-.11-.3C225.48 89.78 225.39 89.55 225.28 89.31z"></path><polygon fill="#0dca6f" points="175.72 33.53 175.73 33.53 175.72 33.52 175.72 33.53"></polygon><path fill="#0dca6f" d="M175.81,33.57l-.08,0,.13.08,0,0h0l0,0c.23.13.46.24.7.36l-.41-.22C176.08,33.72,175.93,33.63,175.81,33.57Z"></path><polygon fill="#0dca6f" points="175.84 33.59 175.86 33.61 175.85 33.6 175.84 33.59"></polygon><path fill="#0dca6f" d="M170.4 30.94l-.11 0 .29.13 0 0zM170.58 31l.33.15-.17-.08zM175.33 33.32l-.15-.08h0l.2.1-.21-.11h0l-.17-.1L174.6 33l-.29-.15-.16-.09h0l0 0h0l-.2-.11-.12-.06-.31-.14-.17-.1-.1 0h0l-.21-.1-.07 0-.23-.1-.15-.08-.6-.29-.28-.14-.51-.23-.24-.11.48.23.18.07c.13.08.33.15.46.22s.36.19.51.27l1 .47h0l0 0 .09 0h0l1 .53.71.33.23.11h0l0 0z"></path><polygon fill="#0dca6f" points="175.63 33.48 175.63 33.48 175.72 33.52 175.63 33.48"></polygon><path fill="#0dca6f" d="M175.18 33.24l-.19-.09.15.08h0zM134.48 166.41c-3.61-2.63-7-5-12.94-4.69-1.19-.77-.5 1.28-1.22-.8.16-.32-.47-2.7-1.37-1-2.11-1.74-5-3.77-7.35 1.2-.17-1 3.12-3.65 1-4.06-1.19-.4-2.18-.61-2.44-1.61-.14-5.43-4.28-12.14-12.25-11.23-1.09.4-1.74-3.16-3.16-1.32 1.36-2.9-3.52-3.91-4-5.14 1-2-2.38-1.52-3.19-3.3 3.73-.53-.23-1.52-4.19.62-1.21-1.62-3.41-.35-4.87-1.51.74-.42-.44-1.73-2.09-1.71.35-.79-1.27-2.94-.74.33-.61-.2-1.44 1.26-1.87.22-.14.19.1.19-.41 1.11-1.3-1.49 2.19-2.1.28-3.7-1-.07-2 3.16-4 2.23-.36.12-.13.19-.52 1a.73.73 0 00-.8-.27c-.77.25-1.32 2.05-1.11 3.51-.85.14-1.81 1.22-1.69 3.22 0-1-2.08-4-4-3.76-4.81 5.14-6.31-5.95-4.26-10.85-.16-.11.51-2-1.25-1.85.32-2.67-2.77-.35-5.46-1.41 1.44-3.09 2.73-7.21 4.5-11.86-3.07-1.17-5.15 3.09-7 6.25-.48-.93-1.7.08-3.48.54C41.46 112 44.2 97.48 50.86 94l-.3 0c.49-.33.38.07 1-1.07a1.17 1.17 0 000 .47c.86-1.26 2.13.7 3.14-.45.11.31 0 2.33 1.13 1 .09.11.23.77.53.18l-.06 0c.13-.24.11 0 .1-.63.27.86 1.46 2.15.7-.27-.17 0 .88-.23.44-.74.6-1 1.35.15 2.34-1.32a1.4 1.4 0 01-.43.93c.76.24 1.34-.8 2.74.2-.8 3.74 3.18-3.65 2.16 4.71-.32.28-1.08 2.19-.19 2.14 0 .08-.78.92-.07.61-.28 6.95 4-.26 3.2-5.42h0l.21 0c.18-6.82 8.32-8.42 11.2-11.56a1.09 1.09 0 001-1.56c.27.25 1.94-1.68.61-1.55.77-1.12 1-3 2.9-4.42-.84.89-1.61 1.4-1.46 2.86-.18.2-.63.12-.57 1a2 2 0 000 .2c.57-1.05 2.43-1.11 2.72-4 .33.15-.11 1.16.27.91a.13.13 0 000 .06c.69-.8 2.28-1.6 3-3.41.2.94 5.07-1.15 1.36-.47.74-.48 1.87 0 2.79-1.09.39.43-.17.63 1 .18a4.23 4.23 0 01-.71.53 2 2 0 001.94-1.62c-.41.12 0 .5-.89.71 0-2.08 2.19-2.65 4.9-4.45.15.16-.76.31-.5.86.39-.29 2.35-1 3.74-1.7a6.57 6.57 0 001-.62c-.43 1 .73-.1 2.3-.73-.11.21 0 .13-1 .64.48.3.17.31 1.25 0-.64.73-2.2.42-3.57 1.61-1.5 1.54 1 2.46 2.8-.4.06 0 0 0 .23.2-.77.54 2.63 0 4.58-1.49.06.31 2.88-.74 1.38-1.37 1.49-1.52-.67-1.15-2.16 1.14-.22-.46-.16-.63-1.1-.06-.12-.07-.07-.16-.52-.21s-.49-.53-1.42-.81a3.32 3.32 0 011.67-2.53 8.67 8.67 0 00-1.7.25c.21-.26-.1-.26-.82-.38 7.5-.83 1.83-4.06-6.16 1.58 3.83-2.85 8.68-5.41 14-5a16.62 16.62 0 011.94.25c1.61-1.35 3.15-1.55 5.41-2.33a2.14 2.14 0 001.17-3c-.35-.49-1.14-.7-2.53-.23.68-.58 3.26.08 1.83-1.64.22 1.22-1.78-.85-1.94 0-.37 0 .52-1.25-.27-.95 0-.33.11-.22-.32-.6.24-.07 1.37-1.13.74-1 .47-.71-.19-.75.12-1.95 0-4-.94-.55-4.74.57-.09 0 .09-.52-.4-.39-.89-1.05.81-1.86 1.35-3v0c-.81.28-.25 0-1.53-.24.22 0 1-.63.25-.43.21-.85-4.75-1.92-4.63.19a2.71 2.71 0 00-1.85 1.91c-2.55.22-1.78 3.27-4.68 5-4.81 1.37-4.35 3.05-7.56 6.18.2-1.91-.9 1.77-1.44-1.28 0-.19.2-.54.55-1l.43-.48c1.36-1.44 3.33-3.25.74-2.68l-.1 0 .09-.21a3.69 3.69 0 00-.69.06c.06-.57.12-.57-1.1-1 .75-1-.74-2.14-2.44-1.42a9.44 9.44 0 002-2.12 1.8 1.8 0 00-.85.07c1.07-1.69 4.75-3 7.65-4.54.8.12 3.18-.42.81-1.35.41-.08.74.62 1.55.52.29.08.38-.11 1.1-.63.47.65 2.72-.32 3.45-1.14.57-.15.67-.29 1.61-.55-1 .63-2.5 1.51-4 2.44a3.11 3.11 0 011.08-.08 4.65 4.65 0 00-.53.52c.42.32 1.75-.58 2.84-1-.86 1.38 3.58.3 1.1 0 .05-.09.2 0 .56-.39-.1-.14-.19-.77-.72-.81.09-.44.13-.2.29-.76-.28.07-.31.58-.84.77.21-.22.31-.19.52-.64l-.17-.06c.16-.14.1-.4.66-.37 0 .07-.06.32.31.21-.67.29.69 1.37.25 0 .2 0 .24.32.63-.25.51.34 2.51-.22 3.1-1.56.27 0 1.83-.72 1.21-1-.1-.3.27-.28.74-.52a1.53 1.53 0 001.48.29l.06 0a1.21 1.21 0 00.66-.62 1.2 1.2 0 00.45.25c-.1.1-.64.48-.07.36 0 .06 0 0 .22.15a.75.75 0 00-.13.17c.09 0 0 0 .33 0-.3.14-1.93.84-.26.5-.4.23-.16.74.44.12a1.65 1.65 0 00-.17.45c-1.11-.16 0 1.41.38-.26 0 .11-.07.25.31.22-.14 1.77-2.13.5-2.82 2.42-1.26.49-3-.51-4.34 1.06.45.78 0 .14 1.31.28.59-.42 1.05.36 1.7-.48.08.14-.34.74.3.31 0 .28-.11.1.18.57-.49.74.17 1.62 2.15 1.91 2.53 1.15.58-1 .85-1.62.92.14 2 3.17 2.52.05.16.76 1.07.31.4-.81 1 .78-.3-1.27-.72-1.42 1.17-.68 1.32-.59 2.15.92 1-.77 5.77-1.55.73-3.26-.22-.17 0 0-.75-.32.35-.36.82-.28 1.62-.62.09-.11-.72 0-.62-.33.72.44.76-.85-.06-.42a1.34 1.34 0 00.37-.38c0-.12-.6.06-1.16-.42.43-.15-.76-.82-1.23 0 0-.24.63-.91-.58-1.14 2.07-1.49-4.24-.17-.44-.07a8.43 8.43 0 01-2.08.4c2.87-1.86-2.54-1.07-3.26.73-.5-.94 1.55-1.26 2.56-1.87a8.14 8.14 0 00-5.31 1.84c.19.33.27-.29 1 .22-2-.47-2 1.28 1.19.8.3.33-.1.33-1.53.12 0 .1-.78.19-.49.83-.53.23-1 0-1.81.54-.12-.14-1.19.29-.88.59-.15.07-.61.24-1 .38 0-.4 0-.46.63-.94 0 .07.16 0 .24.2.26-.27.93-.65.67-1.24a6.31 6.31 0 00-1.87 1.07c.09-.18.79-1.17.94-.68.32-.22.57 0 .27-.71-.25 0-.1.1-.73.15.1-.18.33-.06.68-.4.44.24 1.09-.75 1.11-1.41 1.28-.59 2.5-.51 4.53-1.46-.66-.08-1.42-.64-2.52.13A37.64 37.64 0 00107.37 34h.08c-.37 0-1.77.87-.4.82 0 0-.16.07 0 .19a8 8 0 00-1.4.48.47.47 0 00.24.13c-.85.59-1.69.35-2.76 1.25 0 0 0 0-.06-.14-.08.1-.16.21-.26.32a5 5 0 01.74-.91c-.14.19-.3.38-.45.56a9.6 9.6 0 011.27-.74 2.38 2.38 0 01-.44-.08c.47 0 4-1.61 1.74-1-.22-.5-.73-.35-1.41.37l.25-.3c-.39.2-2.09.38-.73.61-.93.28-2.65 1.56-3.89.41 0 0-.33.17-.5 0 0 0 .95-.13.45-.56 0 0 .09 0 .1-.11-.35.23-2-.26-2.47.83-.43-.09-1 .8-1.52.8.19-.08.75-.75.3-.75 1.5-.7-.78.26-2.42 0 .14-.58 1.43.17 1.56-1.05-1.07.18-1.21-1.09-2.6-.65.12-.06.25-.13.7-.33-.52-.27-1.74.67-1.89.44.38-.38.14.18 1.32-1a5 5 0 01-1.82.63c.07-.05.14 0 .66-.28a14 14 0 00-2.86.46.16.16 0 00.13-.12c-.25 0 0 0-.58.15.09-.21-.47.16-.56.08-.29-.07-.54.46-1.39.38 0-.31.17-.31.71-.67-.31 0-1.41-.62-1.39-.56l-.07 0c0-.12.08 0 .21-.31-.44-.07 0 .06-.83 0 .33 0 1-.63.15-.29.08-.08.67-.4-.07-.17 1.09-.53-.37.09-.84 0-1.1.24-2.37.83-4.75 1.38a14.05 14.05 0 00-3.24 1.82l.14-.07a2.91 2.91 0 01-1.57.66c.73-.37.11 0 .87-.46a2.41 2.41 0 00-1.14.44s0 0 .1-.12a15.92 15.92 0 00-3.17 1.81 4.68 4.68 0 01.56-.2 2 2 0 00-.42.33 7.84 7.84 0 01.92-.41l.06 0-.07 0a28.84 28.84 0 01-3 1.52s.14-.09.4-.29a4.63 4.63 0 00-.53.29v0a36.09 36.09 0 00-4 2.71l.28-.18-.35.24c-.77.55-1.57 1.16-2.74 2.09l-.12.08-.24.22c.23-.15.17-.12.77-.54a1 1 0 01.15-.11l-.15.11-.38.29c.11 0 0 0 .32-.16a32.58 32.58 0 00-2.93 2.23l.15-.11-.06.06a15.81 15.81 0 011.82-1.22v.06a6 6 0 01-.56.41s0 0 .1-.14a8.2 8.2 0 00-1.52 1.24 3.83 3.83 0 00.48-.36s0 0-.06.08h0a3.64 3.64 0 00.55-.4s0 0 0 .06a6.27 6.27 0 001.28-.89l0 0a4.14 4.14 0 001-.72 4.8 4.8 0 00-1.29.79 32.23 32.23 0 012.75-1.9h0a1.56 1.56 0 00.55-.29s0 0 0 .08c.16 0 .62-.39 1.3-.75 0 0-.08 0-.21.18a7.23 7.23 0 011.09-.62c-.7.43-1.9 1.05-3.17 1.92.34.2 1.14-.63 1.79-.62.12-.07.27-.14.38-.22a2.4 2.4 0 00-.38.35c.47-.12 1-.78 2.5-1.47-.37.44-.5.23-1.64 1.13.39-.19.12-.05 1.1-.58a4.08 4.08 0 00-.59.45l.18 0c-.22.28-.18.1-.87.67 0 .12 1.9-1.13.87.28l.41-.2a8.16 8.16 0 00-1.52 1.66l0 0c0 .07-2.42 1.69-2.07 1.69a8.79 8.79 0 00-1.29 1.08c.09 0 0 .07.22-.06a21.76 21.76 0 00-2.23 2c.33-.11.07 0 .73-.48 0 .07 0 0-.14.28A22.36 22.36 0 0064 48.24c-.4.38-1.51 1.42-2.36 2.2l.15-.1a54 54 0 00-4.24 4.39c-.12.08-.2.06-.6.62h.27C52.68 60.33 43 68.87 39 78.13c-.49.79-.16 0-1.56 3.33a3.63 3.63 0 00-.57 1.24v.22c1.59 2.2-2.86 6.68-2 10l-.21 0c.47.09.1 1.57-.93 1.61-.39 0-.77 2.79-.07 3.39 1 .83-.91 3.34-.76 5.09l.08-.1 0 .09 0-.06c.57-.16-.39 4.4.58 2.74C33.72 102.33 35 97.5 35.17 93l.25 0A10.79 10.79 0 0137 88.17c.18 0-.24.62.47.34 0 0-.48 1 0 .54-.15.36-.92 2.45-1.3 3.88-.21.23-.22.28-.58 1.2.14 0 .14 0 .38-.17 0 6.5-.26 12.58-.6 20.39 0-.21.07-.41.11-.61.5 2.27 4.92 9.66 7.44 7.62.36-.57 1.35-.59 1.91.45.87 2.08 1.77 4.24 4 5.27.72-.18 1.4 1.66 2.44.34-.2.87.73 3.34 2.1 4.53a4.13 4.13 0 00.78 4c.1-.37 0-.78.3-1.07 1 .79 1.13 3.28 3 4.57-.45-1.14 2.1-.61 1.24.54-.75-.83-.11 2.14.36.23 0 0 0 .13.32 0 .16 1 2.73 1.48 1.05-1.42.57-.29.61.1 1.11-1.22s3.64 4 3 6.64c0 .74 1.07 3.11-.08 3-.42.44.34 1.25.87 1.5-.07 1.12-1.66 1.61-1.58 3.55-.53 0-.64.41-.07 1.13-1.37.37-1.84 1.33-1.46 3.71-.55.59-.65 3.17 1 4.46C61.18 168 71.44 178 76.79 184.13a15.89 15.89 0 005.23 4c2.94 1.54 5.49 2.57 8.25 10a23.57 23.57 0 001.48 3.35c2.59 4.92 6.69 9.39 8.76 14.14a37.9 37.9 0 013.24 2.68h0a4.34 4.34 0 001.93 1.83.3.3 0 00-.21-.05c.44.19.75 1.27 2 1.41-.32-.57-.2-.08-1.42-1.5.58 0 1.12 1.13 2 1.51 0 .09.55.55 1 1.06-.34-.15 0 0-1.07-.56a28.75 28.75 0 002.57 2.32.85.85 0 01-.15-.21c.11.08.47.39.68 0l-.09-.17a7.08 7.08 0 011.1.8 2.17 2.17 0 00-.56-.13s0 0 .27.24l-.09 0c.76 1.16 3.14 1.81 4.58 2.72 0 0 0 0 0-.12a1.81 1.81 0 00.31.22s0 0-.11-.13l.26.07h0c.06.08.18 0 .46.21a1.38 1.38 0 00-.34-.05s.16.2.35.19.44.18.43.05a.34.34 0 00.22.1h0a3.43 3.43 0 00.44.19s0 0 0-.06a.56.56 0 00.26.09l0 0a2.55 2.55 0 00.51.2l.16.07 0 0 .19.07s0 0 0 0 0 0 .23.06c.06 0 0 0 .22.07a.39.39 0 01-.08-.09 3.69 3.69 0 00.65.23s0 0-.07-.08a7.12 7.12 0 001.49.35l-.22-.13c.1 0 .4.26.64.21-.09-.09 0 0-.4-.19 0 0 .17.1.13-.08 0 0 .16.09.14-.09-3.4-1-7.63-4.17-8.36-7.41-.25-.12-.56-.12-.79-.34 1.76-.2.39.34-1.62-1.68a4.72 4.72 0 001.52.29c.66 0 .87-.46-1-2.15 5 1 3.8-2.92.31-4.9 1.48.32 6.5 2.34 5-3.12.23-.42 0-1.43 1.09-1.72 0 4.66.9-5.15 1.8-7.57.26-.09 1.23-1.53 2.87-1.07-.13-.84-.15-.5 1.55-1.52 2.24.08 3.86.13 4.24-3.07 2.56-2.77-1.49-9.19 2.56-12.81C139.07 174.76 141.11 167.21 134.48 166.41zM116.8 52.66c.22-.24.16.08.48 0-.3.17-1 .55-1.34.4C116.24 52.93 116.51 52.78 116.8 52.66zM104 38.21a4.26 4.26 0 01.61 0 .51.51 0 01.52.49c-.29.09-.8 0-.43-.46l-.09 0a1.15 1.15 0 01-.78 0zm-47.2 54c.13-.34.32-.15.53.27-.17 0-.11.08-.55-.26zm-2.25 40c0 .26-.42-.45-1.13-.24 0-.26-.38-3.46 1.14.23zM73.4 134c0 .91 1.77 1.87.24 3.18C72.69 137.11 72.63 135.42 73.4 134zm40.54-90.61c0 .13 0 0 0 0zM174.54 33h0zM194.67 46.48A120 120 0 00176 33.83c-.24-.13-.52-.27-.89-.44.24.15.09 0 .62.32l.21.13-.09 0 .46.27-.08 0c.07.05 0 .1.55.4-.3 0-.55-.29-1.34-.66a4.51 4.51 0 00.8.53l-.15-.06c.32.31.05.07.78.61h-.07c.24.23.81.48 1.56 1a.94.94 0 01-.31-.08 7.08 7.08 0 01-1.21-.67l.1 0a6 6 0 00-2.06-.85c.57.38 1 .45 2.14 1.17H177a15.37 15.37 0 012.05 1.1 9.61 9.61 0 00-1.07-.41 17.84 17.84 0 002.66 2c0 .15-2.27-1-1.24-.28h0c.17.23.66.32 1.76.89-1.57-.13-3.25-1.64-5.39-2.56 2.63.92 3.71.54-.61-1.31a.49.49 0 01.06.09A19.64 19.64 0 00172 34s0 0 .29.22c-.33-.1-.8-.39-1.58-.67.06.1 0 0 .21.21-.21-.07-.43.3-.74-.25h.08c-.42-.34-.74-.31-1.68-.62l.09.11a3.43 3.43 0 00-.7-.22 3.55 3.55 0 01.68.52 5.25 5.25 0 00-.75-.42c.66.56.66.56.8.7-.39-.24 0 0-1.19-.79 0 .06 0 0 .1.16a3.1 3.1 0 01-.33-.1 6.8 6.8 0 00.65.45l-.31-.11s0 0 0 .08a.47.47 0 00-.62-.06c.05.09.26.1.82.36-.07 0-.21-.09-.27.11l-.3-.12a5 5 0 01.63.53c-.72-.6-1.41-.5.09.46-.42-.22-1.19-.51.05.31l-.39-.17.19.22c-.07 0-.3-.45-.66-.34s-1.08.41-.64.78 1.64 1.62 1.66 0c.59.32 1 1.22 1.89 2.07l-.2-.1c.1.2.75.52 1 1.09 0 0 0-.06-.2-.12l.21.24-.25 0c.33.06.91.73.66 1 .1.16 0 .09.29.43-.27 0 0 0-.58-.26 0 .19.06 0 .28.43a2.47 2.47 0 01-.49-.26c.18.4.31.18.93.91-.14 0 0 0-.56-.22.14.2 0 .08.4.43 0 .06-.13-.14-.31 0a1 1 0 00.11.29l-.23-.11c0 .06 0 0 0 .36a2 2 0 00-.3-.17l.65.66a32.65 32.65 0 003.09 2.93s0 0 0-.16A2 2 0 01175 45c-.39.07 2.81 3.13 2.62.15a2.85 2.85 0 00-.3-.51 34.32 34.32 0 014.78 3.76l-.12 0a1.89 1.89 0 00.13.48c-1.12-.68.65 1.67 1.62 1.85.24-.68-.38-.41-.7-1.44.57.21 1.76.95.57-.69.38-.11.05 0 .75 0 0-.07 0-.07-.17-.3a2.44 2.44 0 01.27.17 6.09 6.09 0 00-1.12-1.47 1.66 1.66 0 00.15.39c-.72-.7-.71-.77-1.9-2 .12-.11 0 0 .09-.5.07 0 0-.07.18 0-.41-.87-1.45-1.31-2.54-1.93a7.17 7.17 0 01-1.37-1H178a36.6 36.6 0 01-3.34-4.42 3.23 3.23 0 011.63.7 5.21 5.21 0 01-.52-.24 8 8 0 011.61 1.91c-.05 0 0 0-.1 0a19.28 19.28 0 004.26 3.29.39.39 0 00.1.08.74.74 0 00.69.13c.65-.14 1.47-.75 2.55-.09-.07.22 0 .46-.09.59s-.24.18-.88-.12a1.87 1.87 0 010 .25c-.11 0-.19.05-.22.36a2.22 2.22 0 00.37.44l-.26-.13c.31.56 0 .74 1.09 1.44 0 0-.2-.33 0-.49a3.7 3.7 0 00-.37-.42c.42.1.06 0 .89.38l-.06-.11c.3.5.85.45 1.46 1.56-3.47-1.65.51 1 .91 2.71.61 1.54.08-.7-2 1.58-.37-.3-.23-.15-1.23-.89 0 0 .13.14-.07.32.09.09-.51.21-.41.62-1.65-.48-3-3-5-4.86-.16-.19.42 1-.17.66-.13.59 1.22 2.69 2.73 3.38.09.57.75.39.85 1.41-.22-.07-1.08-.64-.73.32-.45 0-1.32-.26-.93.83l-.07-.06c0 .19 1 2.09-.5 2.79.34.35-.43 1.09 0 2.38-.62.42-1.06-.15-2.08-.56-.56.11 2.52 1.93.27 2-.36-.24-.14-.3-1.76 0-.6.78 1.19 1.25 2.73 1.9a.6.6 0 00.13-.09c0 .06 5.83 5.72 2.59 6.39-1.55.46-4.8-1.09-6.39.38a60 60 0 002.63 9.57c.28 1-.51 2.57 2.39 1.29 3.26 2.42.59 2.34 6.4.73.37-.35-.27-1.14 1.09-1.54-.74-.69.38-1.53.19-2.34-1.75-.91-1.14-3.62.92-5.48-1.55-2.14-.75-2.83 2.58-2.49-.39-4.53 3 1.14 3.14.49a7.57 7.57 0 002 1.52c.27.61 1.13.94 2.22 1.44 1 1.16 3.23 1.88 3.85 3.9.64 1.41-1.24 1.1-2 1.35l-.23-.23c-.07 1.22 5.17 5.37 2.54.28a1.21 1.21 0 00.53.39c.07-.14-.13-.39 0-.76 0 0 0 0 .13 0 .05-.26-.3-.43-.31-1.13.78-.86-1.47-1.12-1.39-3 .17 0 .14.46.81.39 3.33 1.5-7.65-5.12-9.15-8.48.61-.75.54-.08 1.89 1.09l0-.28c0 .16 1 .81.53.12 2.75 3.14 6 3.38 8.64 8.09l-.17-.08c.35.79 1.54 1.37 2.62 2.78 0 0 0 0 0-.17s.31.09.61.18a.67.67 0 00.68-.05c.32.24 0 .49 1 .57l-.4-.52a4 4 0 00.66.45c-.62-1.32-2.5-2.15-3.73-4.38 1.91 1.42-.49-1.14 1.6-.85.19.63.61 0 1 1.19-.23-.14.34 1.85 1.22 2.07-.07-.36-.2-.39-.36-.91a2.66 2.66 0 01.68 1.35s0-.06-.07-.07-.05 0 0 .25a1.54 1.54 0 00-.29-.08c.19.58-.13 0 .61.93a.87.87 0 00-.13-.4c.21.16.1.3.61.7a.51.51 0 010-.15c.19 0 .21.23.57.23h-.15l.12.24a4 4 0 01-.4-.29c.1.12-.18.3.48.73 0 0-.06 0 0-.09s0 .48.6.7a4 4 0 00.35 1.46c0-.37 0 0-.1-1.07 0 0 0 0 .25 0l0 .19-.06 0a.55.55 0 00.18.71c.41-.19-.08-.71.73 1.24.15-.11-.23-.92-.35-1.72.1.15 0 0 .35.41l0-.23c.2.67 1.92 2.53.84-.3.49-.16 1.23 1.67 1.91 1.1 0 0 0 0 .12 0-.07-.31-.22-.82-.32-1.27.18.18.75.73.47-.06 1 2.39 4.53 7.61 3.7 10.48 0 1.19-1.48-2.14-1.55.13l-.1 0c-.12 0 .12.14-.2.87-1.94-.33-9.45-7.83-6.17.71.58 2.53-5.84-3.44-10-5.24-1.08.23-.93-3.88-2.28-6.41a10.87 10.87 0 00-3.67.47c-.24.53-.77-1.16-.82 0 .05.43-1-.19-.77.88-2.27-2.75-5.94 3.41-8.18 2.43-1.22 1.93-4.18-3-4 .89.12 1.46-1.28 2.48-2.73 4.29-1.43 2 1.95 5.43-2.14 8.93-2.26.95-3.67 4.06-4.63 8.15-.49.72-3.9 7.36-2 7.52 3.4 5-1.95 13.18.4 18.73.19 1.31 1.61.2 1.89 1.51.67 2.1 2.94 2.74 3.21 5.49s3.31 4.9 5.69 7.36c1 .41 1 3.44 3.44 1.85 4-3.71 6.11 1.48 11-3.14.46.38 1.53-1.07 2.42-1.1 5.27-1.67.94 6.35 7.33 3.41 0 .27.15 2.06.79 1.16.24 3.33-2.66 7-2.62 10.75.13 10.48-1.1 17.11-7.42 27.66-4.34 7.25-8.12 19-16.67 25.94.14 0 0 0 .37-.18-.15.06 0 .23-.38.63a2.3 2.3 0 00.29 0c.06 0 .2-.11.68-.34 0 0 0 0-.06.1a.65.65 0 00.4-.15 6.7 6.7 0 011.2-.43c.1.18 0 .24.49 0 0 .06-.09 0 0 .22a4.73 4.73 0 00.71-.35l.07.13c3.49-1.55 12.08-8 14.68-11 0 0 0 0-.05 0a37.39 37.39 0 009-9.86v0c9.12-7.87 13.36-20.07 18.15-31.94l0 0c.71-1.66 2.64-8.09 2.55-8.07 2.6-6.41 6.6-33.12-3.14-59.78A101.56 101.56 0 00194.67 46.48zm17.14 29.71h.09S211.87 76.19 211.81 76.19zM175.28 33.41l.74.42.69.36c-.34-.23-.57-.3-.6-.34A6.58 6.58 0 00175.28 33.41zM174.54 33a.79.79 0 01-.2-.07c.11.06 0 0 .32.19a7.88 7.88 0 00-1.22-.54c.23.12.63.33 1.56.73v0a1.8 1.8 0 00.28.13C175 33.28 174.79 33.13 174.54 33zM232 129.19v0h0v0z"></path><path fill="#0dca6f" d="M209.67 76.39l-.54 0c.14.21.19.21.3.2l.12.06.19.18.15.17.18 0-.11-.23A3.58 3.58 0 00209.67 76.39zM205.68 195.49l-.1.14-.05.07c-.39.41-.39.41-.78.85l-.19.21c-.14.16-.29.31-.43.48l-.08.08-.25.3-.11.1c-.16.2-.34.39-.5.57l-.13.15a.38.38 0 010 .1.57.57 0 01.16-.15l0-.06.05-.05c.13-.12.25-.26.38-.39l0 0c.86-1 1.79-2.09 2.75-3.22a2.36 2.36 0 00-.2.23C206.06 195.07 205.87 195.29 205.68 195.49zM215.27 183.08V183l0 0zM215.7 182.42l.05-.09-.21.33A1.43 1.43 0 01215.7 182.42zM215.92 182.07l0 0L216 182s0 0 0 0l-.11.17zM207.93 192.85c.65-.77.75-.87 1.39-1.64s.73-.9 1-1.28.39-.51.58-.76l.09-.12.1-.15.16-.24.35-.45c.1-.14.18-.27.28-.4-1.29 1.67-2.68 3.41-4.07 5.13zM215 183.42l0 0-.1.13 0 .07 0 0a3.45 3.45 0 00.28-.48v0l-.05.1c-.14.2-.17.26-.3.46l-.06.11a2.68 2.68 0 01-.18.28c-.59.86-.63.94-.85 1.21l0 .09c-.24.33-.48.66-.71 1h0c-.32.44-.63.87-.94 1.32l0 .06c.63-.83 1.27-1.65 1.83-2.41l1.53-2.31a1.6 1.6 0 00-.23.3zM168.51 30.13a.91.91 0 00.22.09l-.31-.13zM168.26 30l.16.06-.09 0z"></path><path fill="#0dca6f" d="M168.8 30.27a3.8 3.8 0 00-.43-.19zM169.31 30.48h0s0 0 0 0zM169.34 30.49l.14.06.18.08a2.75 2.75 0 00-.33-.15zM157.84 26.22a5.86 5.86 0 00.67.21l-.33-.09C158.07 26.31 158 26.25 157.84 26.22zM159.9 26.88h-.05l.55.18-.25-.08z"></path><polygon fill="#0dca6f" points="172.82 32.52 172.82 32.52 172.82 32.52 172.82 32.52"></polygon><path fill="#0dca6f" d="M173 32.42l-.46-.19-.08 0h0l-.07 0h0l-.13-.06-.08 0L172 32l0 0h0l-.63-.26-.46-.21-.07 0-.12 0-.08 0-.14-.06-.07 0-.14-.06-.27-.14-.12-.05s0 0-.18-.09l-.21-.11-.15-.07a1.13 1.13 0 01-.22-.11l-.15-.07-.14-.06-.27-.13-.19-.08a1.63 1.63 0 00-.3-.16l-.3-.12-.26-.12h-.05l-.19-.09h0l0 0 0 0 .08 0-.16-.08 0 0-.19-.08-.1 0-.25-.12-.16-.06h.08l-.08 0-.12-.05-.05 0 0 0-.05 0-.13-.06 0 0-.32-.14h0l0 0h0l-.1-.05-.06 0h0l0 0a3.13 3.13 0 00-.32-.15h0l-.23-.1-.28-.11-.25-.1a1.35 1.35 0 01-.24-.08l-.09 0-.12 0-.13 0 0 0h0l-.19-.05h0l0 0 .07 0 .19.07.07 0 .08 0 .08 0a.76.76 0 00.16.06l.1.05.36.16 0 0 .05 0-.08 0 0 0v0l.08 0h-.05l0 0h0l0 0-.05 0h0l0 0 .1 0 .25.1h0l0 0 0 0h0l.07 0 .11.05.05 0a.09.09 0 01-.07 0 .53.53 0 00.1.06l-.15-.06.07 0c.44.2.53.22.71.31h0l.15.09.2.07H166c.23.1.3.13.64.25l.07 0 0 0 0 0 .18.08.09 0 .08 0 .15.06a2.45 2.45 0 00.29.14l.12.06h0l.08 0 .06 0 .16.08h0l.07 0c.35.15.35.15.45.15l.08 0 .19.12h0v0l0 0 .2.08.19.1h0l.5.24.17.07h0l.05 0 0 0 .23.12.09 0 .18.09.06 0h0a.24.24 0 00-.12 0h0c.21.11.27.13.7.32l.07 0c.43.2.43.2.49.2a.59.59 0 00-.17-.1l.08 0 .16.09a1.52 1.52 0 00.44.18l.16.06h0l-.11 0-.29-.15.16.07.12.06 0 0a5.05 5.05 0 00.53.24v0l.19.07.06 0 .07 0h0a.35.35 0 00.13 0l-.05 0-.08 0h0l.19.06-.05 0v0l0 0h.05l.09 0 0 0zM170.38 31.51h0l0 0z"></path><polygon fill="#0dca6f" points="164.49 28.71 164.49 28.7 164.48 28.69 164.49 28.71"></polygon><path fill="#0dca6f" d="M175.4,34.05l0,0-.05,0-.2-.12-.18-.09h0l-.3-.12h0l0,0-.15-.06-.08,0-.16,0h0v0l.13.08.27.15,0,0,.3.15L175,34h0l.18.11.13.06.11.05.1,0,.07,0h.09l.09,0-.08-.06Z"></path><polygon fill="#0dca6f" points="174.59 33.63 174.62 33.65 174.62 33.64 174.59 33.63"></polygon><path fill="#0dca6f" d="M159.45,27l-.13-.05-.06,0-.06,0-.55-.21h0l-.06,0-.05,0h0l-.11,0-.08,0h0l-.19-.07-.17-.05c-.16-.05-.32-.08-.49-.12h0l.35.12.07,0h-.07l-.12,0a.55.55,0,0,1,.17.05h0l-.07,0h-.06l-.06,0h0l-.07,0-.19-.06h0l.17.07h0l-.08,0-.14,0h0l-.13,0h0l0,0-.09,0-.09,0-.09,0,0,0c-.15,0-.3-.08-.44-.12l.1.06h0l.22.07.28.09,0,0,0,0-.1,0c.15.06.29.1.43.17l0,0h0l0,0-.1,0h0l.1,0,.06,0h0l.32.12.06,0,0,0,.13.05.05,0h0l0,0h.09l.13.06,0,0-.2,0,.12,0,.1,0,.22.07.29.06h.12l-.11,0-.18-.07h.07l0,0,.12,0,.19.06h0a4.57,4.57,0,0,1-.45-.16l0,0h0l0,0,0,0,.15,0,.1,0a1,1,0,0,0,.31.06h-.05l-.13-.06h0l0,0-.22-.1,0,0,.09,0h0l.33.12.14,0h.08l-.07,0Z"></path><polygon fill="#0dca6f" points="158.46 26.59 158.36 26.57 158.44 26.59 158.46 26.59"></polygon><polygon fill="#0dca6f" points="158.62 26.73 158.62 26.73 158.61 26.72 158.62 26.73"></polygon><path fill="#0dca6f" d="M157.29,26.28h0l-.06,0-.29-.08,0,0,.27.08.06,0h0l0,0a1.67,1.67,0,0,0,.3.08l0,0v0Z"></path><polygon fill="#0dca6f" points="157.07 26.71 157.09 26.72 157.08 26.71 157.07 26.71"></polygon><polygon fill="#0dca6f" points="157.06 26.71 157.07 26.71 157.06 26.71 157.06 26.71"></polygon><polygon fill="#0dca6f" points="157.04 26.57 157.04 26.57 157 26.56 157.04 26.57"></polygon><path fill="#0dca6f" d="M159.09,27.2a.67.67,0,0,0-.14-.07s0,0,0,0l-.17,0-.11,0-.1,0h0l-.06,0h0l0,0,.08,0h0l-.1,0-.12-.05h-.06v0h0l-.07-.05-.11,0a2.92,2.92,0,0,0-.48-.13h-.09l0,0-.15-.05-.23-.05h0l.23.08,0,0h-.06l0,0,.19.07h0l-.18-.05h-.06l0,0h-.12l-.09,0H157l.1,0,0,0h0l.06,0,.08,0h-.17l-.11,0h0l.12.05.15.08.14,0,.27.08h0l-.12-.06h0l.19.06.06,0c.18.05.18.05.2,0h0l-.1-.05-.12,0s0,0,0,0l0,0-.15-.05-.07,0,0,0,.31.12.08,0c.29.1.31.12.37.1h0l0,0,.3.1h.16l-.11,0-.17-.06h0l.51.15H159l0,0-.1,0h0l.08,0Z"></path><polygon fill="#0dca6f" points="158.56 27.05 158.51 27.04 158.5 27.04 158.52 27.04 158.56 27.05"></polygon><path fill="#0dca6f" d="M156.91 26.41a4.26 4.26 0 00.54.17l-.22-.08zM184.46 47.3l-.1-.13-.09-.13s0-.07-.13-.2l-.12-.12-.15-.15-.11-.11 0 0v-.07a1.91 1.91 0 00-.18-.29v0l-.1-.11-.1-.06-.09.08-.05 0h-.05v.09l0 .1v.07l.06.09.08.14 0 .07.23.19.06.06.18.18L184 47l.05.06.1.13.1.11.07.06.14.14.07 0v0l0 0 0-.13zM185 49.73l-.08 0h0l-.11-.08-.28-.18-.06 0 0 .06.14.21.19.19 0 0 .2.1.15 0h0l-.05-.13z"></path><path fill="#fff" d="M228.17,64.61a17.14,17.14,0,0,1,3.56,7.57,29.2,29.2,0,0,1,.32,8.45,59.82,59.82,0,0,1-4.56,16.27c-4.5,10.36-10.7,19.86-17.44,28.86-13.65,17.92-30,33.65-47.45,47.76s-36.51,26.43-57,35.83c-10.25,4.61-20.88,8.57-32,10.69a59.32,59.32,0,0,1-16.87.89,29.27,29.27,0,0,1-8.18-2.17,17.06,17.06,0,0,1-6.6-5.13,16.91,16.91,0,0,0,6.78,4.71,28.7,28.7,0,0,0,8.07,1.8,58.48,58.48,0,0,0,16.51-1.54c10.86-2.37,21.27-6.53,31.29-11.34a271.29,271.29,0,0,0,29-16.5,331.34,331.34,0,0,0,27.08-19.58,330.78,330.78,0,0,0,25-22.13,270.73,270.73,0,0,0,22.46-24.7c6.89-8.72,13.22-18,17.92-28a58.22,58.22,0,0,0,5.11-15.77,28.23,28.23,0,0,0,0-8.26A16.84,16.84,0,0,0,228.17,64.61Z"></path><path fill="#fff" d="M222 181.8a13.08 13.08 0 01-1.46 6.3 22.32 22.32 0 01-3.86 5.29 46.21 46.21 0 01-10.58 7.69 108.51 108.51 0 01-24.44 9.11c-16.9 4.25-34.33 5.89-51.7 6s-34.79-1.72-51.69-6a108.77 108.77 0 01-24.45-9.11 45.64 45.64 0 01-10.57-7.69 22.51 22.51 0 01-3.87-5.28 13.26 13.26 0 01-1.46-6.31 13 13 0 001.86 6.09 21.93 21.93 0 004 4.93 45.35 45.35 0 0010.7 7 114.92 114.92 0 0024.32 8.13 207.41 207.41 0 0025.42 4A256.74 256.74 0 00130 213.16a256.94 256.94 0 0025.73-1.24 207.71 207.71 0 0025.42-4 115.14 115.14 0 0024.32-8.14 45.31 45.31 0 0010.7-6.95 22.16 22.16 0 004-4.94A12.78 12.78 0 00222 181.8zM30.15 84.76a13.08 13.08 0 01.69-6.43A22.91 22.91 0 0134 72.62a46.31 46.31 0 019.59-8.9 109 109 0 0123.18-12c16.27-6.23 33.38-9.95 50.61-12.1 17.25-2 34.76-2.45 52-.25a108.77 108.77 0 0125.36 6.12 46.22 46.22 0 0111.42 6.37 22.78 22.78 0 014.46 4.79 13.13 13.13 0 012.2 6.09A12.92 12.92 0 00210.33 57a22.32 22.32 0 00-4.58-4.42 45.14 45.14 0 00-11.45-5.62 115.27 115.27 0 00-25.11-5.17 206.34 206.34 0 00-25.72-.94 267.86 267.86 0 00-51.09 6.14 208.35 208.35 0 00-24.76 7 115.13 115.13 0 00-23.17 11 45.25 45.25 0 00-9.79 8.19 22 22 0 00-3.4 5.37A12.94 12.94 0 0030.15 84.76z"></path><path fill="#fff" d="M25.88,148.91a16.67,16.67,0,0,1-2.22-7,24.19,24.19,0,0,1,.55-7.44,50.09,50.09,0,0,1,5.64-13.79A115.58,115.58,0,0,1,48.49,97.49C62.66,83.56,79,72.06,96.22,62.26c17.29-9.65,35.6-17.68,54.86-22.59a115.35,115.35,0,0,1,29.47-3.94,50.36,50.36,0,0,1,14.72,2.32,24.06,24.06,0,0,1,6.64,3.38A16.59,16.59,0,0,1,206.77,47a16.34,16.34,0,0,0-5.12-5.18,23.73,23.73,0,0,0-6.63-3,49,49,0,0,0-14.47-1.61A96.47,96.47,0,0,0,166,38.69c-4.81.85-9.59,1.92-14.3,3.24A218.75,218.75,0,0,0,124,51.8,280.9,280.9,0,0,0,72.87,80.62,217.73,217.73,0,0,0,50.11,99.17a145.07,145.07,0,0,0-10.19,10.56,97.16,97.16,0,0,0-8.82,11.68A49,49,0,0,0,25,134.63a23.48,23.48,0,0,0-.87,7.22A16.6,16.6,0,0,0,25.88,148.91Z"></path><path fill="#fff" d="M227.07,195.31a17,17,0,0,1-6,5.76,29.14,29.14,0,0,1-7.92,3,59.32,59.32,0,0,1-16.87.8c-11.26-1-22.23-3.89-32.89-7.45-21.32-7.3-41.38-17.82-60.28-30s-36.61-26.31-52-42.78c-7.6-8.28-14.72-17.12-20.23-27a59.73,59.73,0,0,1-6.16-15.74,29.52,29.52,0,0,1-.52-8.44A17,17,0,0,1,27,65.6a16.88,16.88,0,0,0-2.34,7.92,28.53,28.53,0,0,0,.85,8.23,58.53,58.53,0,0,0,6.66,15.18c5.68,9.55,12.9,18.12,20.62,26.12a271,271,0,0,0,24.82,22.34,332,332,0,0,0,27.12,19.52,331,331,0,0,0,28.89,16.79,272.3,272.3,0,0,0,30.52,13.53c10.45,3.78,21.23,6.87,32.27,8.16a58.58,58.58,0,0,0,16.57-.12,28.91,28.91,0,0,0,7.86-2.59A16.92,16.92,0,0,0,227.07,195.31Z"></path><path fill="#fff" d="M62.56,25.75a17.13,17.13,0,0,1,7.93-2.66,29.17,29.17,0,0,1,8.43.66,59.59,59.59,0,0,1,15.63,6.41c9.77,5.67,18.49,12.93,26.65,20.67,16.22,15.63,30,33.65,41.94,52.65s22,39.33,29,60.76c3.38,10.72,6.09,21.74,6.92,33A60,60,0,0,1,198,214.1a29.08,29.08,0,0,1-3.1,7.87,17.09,17.09,0,0,1-5.86,6,16.86,16.86,0,0,0,5.47-6.19,28.85,28.85,0,0,0,2.71-7.81,58.65,58.65,0,0,0,.39-16.58c-1.11-11.05-4-21.88-7.64-32.39a272.87,272.87,0,0,0-13-30.74,332.87,332.87,0,0,0-16.32-29.16,330.59,330.59,0,0,0-19.08-27.43,269.08,269.08,0,0,0-21.93-25.17c-7.87-7.85-16.33-15.21-25.79-21a58.41,58.41,0,0,0-15.07-6.9,28.81,28.81,0,0,0-8.21-1A16.83,16.83,0,0,0,62.56,25.75Z"></path><path fill="#fff" d="M133.18,18.18a21.64,21.64,0,0,1,10.6,10.27,47,47,0,0,1,4.59,14.33c1.63,9.95,1.26,20.1,0,30-2.52,19.93-8.65,39.22-16.66,57.56-8.17,18.26-18.32,35.78-31.37,51.06-6.52,7.6-13.78,14.7-22.24,20.19a47,47,0,0,1-13.69,6.24,21.56,21.56,0,0,1-14.73-.93A19.28,19.28,0,0,0,57,208.25a25.24,25.24,0,0,0,3.68-.29,31.6,31.6,0,0,0,3.58-.86,46.19,46.19,0,0,0,13.09-6.69,87.66,87.66,0,0,0,11.3-9.51,136,136,0,0,0,10-11c3.13-3.83,6.08-7.8,8.9-11.86s5.45-8.25,8-12.51A248.67,248.67,0,0,0,129,129.17a248.3,248.3,0,0,0,10.41-27.79c1.45-4.73,2.77-9.5,3.89-14.32s2.06-9.67,2.79-14.56a137.4,137.4,0,0,0,1.42-14.74A87.64,87.64,0,0,0,146.93,43a46.21,46.21,0,0,0-3.86-14.19,31.68,31.68,0,0,0-1.77-3.23A26.63,26.63,0,0,0,139,22.67,19.41,19.41,0,0,0,133.18,18.18Z"></path><path fill="#ffde91" d="M113.31,169.23a4.62,4.62,0,1,1-4.62-4.61A4.61,4.61,0,0,1,113.31,169.23Z"></path><path fill="#fff" d="M108.69,174.85a5.62,5.62,0,1,1,5.62-5.62A5.62,5.62,0,0,1,108.69,174.85Zm0-9.23a3.62,3.62,0,1,0,3.62,3.61A3.61,3.61,0,0,0,108.69,165.62Z"></path><path fill="#ffde91" d="M145.72,187.36a3.45,3.45,0,1,1-3.45-3.44A3.45,3.45,0,0,1,145.72,187.36Z"></path><path fill="#fff" d="M142.27,191.81a4.45,4.45,0,1,1,4.45-4.45A4.46,4.46,0,0,1,142.27,191.81Zm0-6.89a2.45,2.45,0,1,0,2.45,2.44A2.45,2.45,0,0,0,142.27,184.92Z"></path><path fill="#ffde91" d="M100,212a4.62,4.62,0,1,1-4.62-4.62A4.62,4.62,0,0,1,100,212Z"></path><path fill="#fff" d="M95.42,217.65A5.62,5.62,0,1,1,101,212,5.62,5.62,0,0,1,95.42,217.65Zm0-9.24A3.62,3.62,0,1,0,99,212,3.63,3.63,0,0,0,95.42,208.41Z"></path><path fill="#ffde91" d="M203.8,204.79a4.62,4.62,0,1,1-4.62-4.62A4.62,4.62,0,0,1,203.8,204.79Z"></path><path fill="#fff" d="M199.18,210.41a5.62,5.62,0,1,1,5.62-5.62A5.62,5.62,0,0,1,199.18,210.41Zm0-9.24a3.62,3.62,0,1,0,3.62,3.62A3.63,3.63,0,0,0,199.18,201.17Z"></path><path fill="#ffde91" d="M47.93,108.61a8.43,8.43,0,1,1-8.43-8.42A8.42,8.42,0,0,1,47.93,108.61Z"></path><path fill="#fff" d="M39.5,118a9.43,9.43,0,1,1,9.43-9.43A9.44,9.44,0,0,1,39.5,118Zm0-16.85a7.43,7.43,0,1,0,7.43,7.42A7.43,7.43,0,0,0,39.5,101.19Z"></path><path fill="#ffde91" d="M193.61,151.09a8.43,8.43,0,1,1-8.43-8.42A8.43,8.43,0,0,1,193.61,151.09Z"></path><path fill="#fff" d="M185.18,160.52a9.43,9.43,0,1,1,9.43-9.43A9.44,9.44,0,0,1,185.18,160.52Zm0-16.85a7.43,7.43,0,1,0,7.43,7.42A7.44,7.44,0,0,0,185.18,143.67Z"></path><path fill="#ffde91" d="M125.36,52.76a4.62,4.62,0,1,1-4.62-4.62A4.62,4.62,0,0,1,125.36,52.76Z"></path><path fill="#fff" d="M120.74,58.38a5.62,5.62,0,1,1,5.62-5.62A5.62,5.62,0,0,1,120.74,58.38Zm0-9.24a3.62,3.62,0,1,0,3.62,3.62A3.63,3.63,0,0,0,120.74,49.14Z"></path><path fill="#ffde91" d="M111.8,42.2a2.5,2.5,0,1,1-2.5-2.49A2.5,2.5,0,0,1,111.8,42.2Z"></path><path fill="#fff" d="M109.3,45.7a3.5,3.5,0,1,1,3.5-3.5A3.5,3.5,0,0,1,109.3,45.7Zm0-5a1.5,1.5,0,1,0,1.5,1.49A1.49,1.49,0,0,0,109.3,40.71Z"></path><path fill="#ffde91" d="M154.43,40.39a6.95,6.95,0,1,1-7-7A6.95,6.95,0,0,1,154.43,40.39Z"></path><path fill="#fff" d="M147.48,48.34a8,8,0,1,1,8-8A8,8,0,0,1,147.48,48.34Zm0-13.9a6,6,0,1,0,6,6A5.95,5.95,0,0,0,147.48,34.44Z"></path></svg>