<svg xmlns="http://www.w3.org/2000/svg" enable-background="new 0 0 1200 900" viewBox="0 0 1200 900" id="software-development"><path fill="#edf5fc" d="M1002.597 688.025c15.753-22.486 21.5-49.45 21.5-75.773 0-68.723-38.822-136.684-102.253-178.889 44.078-9.965 80.154-42.411 89.592-80.58 9.436-38.17-8.244-80.325-43.84-104.698-49.634-34.029-121.906-30.454-182.112-13.029-60.265 17.475-115.455 46.803-177.035 60.396-61.46 13.592-125.907 10.833-189.336 10.169-63.432-.716-128.836 1.02-187.01 22.634-58.176 21.617-108.227 67.4-111.511 121.613-2.75 46.037 27.236 88.244 55.067 127.742 24.009 34.072 47.898 71.492 49.082 110.415h777.856z"></path><path fill="#9bb2e1" d="M884.716 433.646a.5.5 0 0 1-.218-.951c1.782-.86 3.57-1.776 5.317-2.725a.5.5 0 0 1 .477.879c-1.76.956-3.563 1.88-5.36 2.747a.498.498 0 0 1-.216.05zm10.539-5.725a.5.5 0 0 1-.26-.928 127.424 127.424 0 0 0 5.034-3.22.5.5 0 0 1 .558.83 128.744 128.744 0 0 1-5.073 3.245.497.497 0 0 1-.26.073zm9.95-6.698a.5.5 0 0 1-.3-.902 128.913 128.913 0 0 0 4.711-3.676.5.5 0 1 1 .634.774 129.98 129.98 0 0 1-4.748 3.705.497.497 0 0 1-.297.099zm9.28-7.598a.5.5 0 0 1-.334-.872 128.544 128.544 0 0 0 4.349-4.098.5.5 0 0 1 .703.711 130.286 130.286 0 0 1-4.383 4.13.5.5 0 0 1-.335.13zm8.535-8.428a.5.5 0 0 1-.368-.839 128.164 128.164 0 0 0 3.948-4.486.5.5 0 1 1 .765.642 128.81 128.81 0 0 1-3.977 4.522.499.499 0 0 1-.368.161zm7.708-9.19a.5.5 0 0 1-.397-.803 126.066 126.066 0 0 0 3.505-4.838.5.5 0 1 1 .824.567 126.628 126.628 0 0 1-3.534 4.877.5.5 0 0 1-.398.197zm6.802-9.878a.498.498 0 0 1-.425-.764 123.483 123.483 0 0 0 3.024-5.153.5.5 0 1 1 .875.486 124.636 124.636 0 0 1-3.049 5.194.5.5 0 0 1-.425.237zm5.817-10.49a.5.5 0 0 1-.448-.72c.876-1.779 1.72-3.603 2.506-5.423a.499.499 0 1 1 .918.397 123.012 123.012 0 0 1-2.527 5.468.5.5 0 0 1-.449.279zm4.76-11.01a.5.5 0 0 1-.468-.675c.69-1.846 1.346-3.746 1.95-5.646a.5.5 0 0 1 .953.303 122.063 122.063 0 0 1-1.967 5.694.5.5 0 0 1-.469.325zm3.639-11.429a.5.5 0 0 1-.484-.628c.506-1.906.976-3.86 1.397-5.81a.5.5 0 0 1 .978.21 128.88 128.88 0 0 1-1.408 5.857.5.5 0 0 1-.483.371zm2.534-11.724a.5.5 0 0 1-.494-.583c.328-1.945.617-3.935.861-5.915a.5.5 0 1 1 .992.122c-.245 1.995-.536 4-.867 5.959a.5.5 0 0 1-.492.417zm-628.014-.298h-.003c-2.004-.01-4.008-.034-6.01-.072a.5.5 0 0 1 .02-1c1.997.038 3.996.062 5.995.072a.5.5 0 0 1-.002 1zm6-.01a.5.5 0 0 1-.004-1 452.89 452.89 0 0 0 5.996-.091c.232-.003.505.212.51.489a.5.5 0 0 1-.489.51 454.81 454.81 0 0 1-6.008.091h-.004zm-18.002-.219a.5.5 0 0 1-6.498-.767.509.509 0 0 1 .524-.475c1.995.095 3.992.176 5.99.242a.5.5 0 0 1-.016 1zm30.005-.042a.5.5 0 0 1-.017-1c1.996-.068 3.994-.15 5.992-.244a.5.5 0 0 1 .047.999 479.87 479.87 0 0 1-6.005.245h-.017zm-41.995-.533a.5.5 0 1 1 0 0zm53.987-.031a.5.5 0 0 1-.029-1c1.995-.118 3.99-.249 5.984-.39a.493.493 0 0 1 .535.462.5.5 0 0 1-.463.535 507.385 507.385 0 0 1-6.027.393zm11.975-.854a.5.5 0 0 1-.04-.998c1.99-.166 3.982-.342 5.973-.53a.5.5 0 0 1 .094.996 537.851 537.851 0 0 1-6.027.532zm-77.929-.053a.5.5 0 1 1-5.916-1.608c1.985.22 3.973.423 5.963.61a.5.5 0 0 1-.047.998zm89.881-1.073a.5.5 0 0 1-.052-.997c1.988-.21 3.975-.43 5.961-.66a.5.5 0 0 1 .115.993c-1.99.231-3.98.451-5.971.661a.509.509 0 0 1-.053.003zm-101.81-.245a.51.51 0 0 1-.064-.004 357.975 357.975 0 0 1-5.954-.807.5.5 0 0 1 .142-.99c1.977.285 3.957.553 5.938.805a.5.5 0 0 1-.062.996zm113.735-1.139a.5.5 0 0 1-.063-.996c1.984-.25 3.966-.512 5.947-.783a.501.501 0 0 1 .135.99c-1.985.272-3.97.534-5.956.785a.515.515 0 0 1-.063.004zm-125.613-.574a.51.51 0 0 1-.08-.007 342.7 342.7 0 0 1-5.923-1.01.5.5 0 1 1 .176-.985c1.966.354 3.934.69 5.906 1.008a.5.5 0 0 1-.079.994zm137.506-1.052a.5.5 0 0 1-.072-.995c1.977-.29 3.954-.59 5.93-.899a.5.5 0 0 1 .154.988c-1.979.31-3.958.61-5.939.9a.52.52 0 0 1-.073.006zm-149.316-1.07a.503.503 0 0 1-.097-.01 330.49 330.49 0 0 1-5.883-1.221.5.5 0 1 1 .212-.978c1.952.424 3.907.83 5.865 1.218a.5.5 0 0 1-.097.99zm161.175-.785a.5.5 0 0 1-.082-.993c1.972-.327 3.943-.664 5.912-1.009a.5.5 0 1 1 .173.985 668.76 668.76 0 0 1-5.92 1.01.513.513 0 0 1-.083.007zm-172.899-1.76a.506.506 0 0 1-.115-.014c-1.949-.46-3.893-.94-5.833-1.437a.5.5 0 0 1 .248-.969c1.934.496 3.873.973 5.815 1.433a.5.5 0 0 1-.115.986zm184.722-.31a.5.5 0 0 1-.09-.992c1.965-.362 3.93-.732 5.892-1.11a.5.5 0 1 1 .19.982c-1.966.379-3.933.75-5.902 1.112a.5.5 0 0 1-.09.008zm528.059-1.858c-.014 0-.027 0-.04-.002a.5.5 0 0 1-.46-.538c.157-1.975.273-3.983.345-5.968a.5.5 0 0 1 1 .037c-.073 1.999-.19 4.021-.347 6.01a.5.5 0 0 1-.498.46zm-516.276-.413a.5.5 0 0 1-.098-.99 750.26 750.26 0 0 0 5.873-1.207.501.501 0 0 1 .205.978c-1.958.41-3.918.814-5.88 1.209a.5.5 0 0 1-.1.01zm-208.125-.399a.499.499 0 0 1-.133-.018 311.217 311.217 0 0 1-5.774-1.658.5.5 0 1 1 .286-.958c1.914.57 3.832 1.12 5.755 1.652a.5.5 0 0 1-.134.982zm219.87-2.063a.5.5 0 0 1-.107-.988 810.2 810.2 0 0 0 5.854-1.297.5.5 0 0 1 .22.975c-1.952.44-3.906.873-5.86 1.299a.501.501 0 0 1-.108.011zm-231.363-1.358a.498.498 0 0 1-.152-.024 301.973 301.973 0 0 1-5.703-1.882.5.5 0 1 1 .322-.946c1.89.644 3.785 1.27 5.684 1.875a.5.5 0 0 1-.151.977zm243.066-1.28a.5.5 0 0 1-.113-.987c1.947-.454 3.892-.915 5.834-1.382a.5.5 0 1 1 .234.973c-1.945.467-3.892.928-5.84 1.383a.499.499 0 0 1-.115.013zm-254.414-2.59a.5.5 0 0 1-.171-.031 299.94 299.94 0 0 1-5.622-2.108.5.5 0 1 1 .36-.933c1.864.72 3.731 1.42 5.604 2.101a.5.5 0 0 1-.171.97zm266.079-.215a.5.5 0 0 1-.12-.985c1.94-.481 3.878-.968 5.813-1.46a.5.5 0 1 1 .247.97 904.87 904.87 0 0 1-5.82 1.46.497.497 0 0 1-.12.015zm11.624-2.96a.5.5 0 0 1-.126-.984 978.46 978.46 0 0 0 5.794-1.534.5.5 0 0 1 .259.966c-1.93.517-3.864 1.03-5.8 1.536a.5.5 0 0 1-.127.016zm469.978-.71a.5.5 0 0 1-.5-.497c-.01-1.976-.06-3.987-.15-5.978a.5.5 0 0 1 .998-.045c.091 2.004.142 4.029.152 6.018a.5.5 0 0 1-.498.502h-.002zm-758.86-.439a.502.502 0 0 1-.19-.037 293.04 293.04 0 0 1-5.53-2.335.5.5 0 1 1 .398-.918c1.832.796 3.67 1.572 5.512 2.327a.5.5 0 0 1-.19.963zm300.466-1.955a.5.5 0 0 1-.132-.983 968.773 968.773 0 0 0 5.779-1.603.499.499 0 1 1 .27.963 961.598 961.598 0 0 1-5.785 1.605.504.504 0 0 1-.132.018zm-311.458-2.82a.495.495 0 0 1-.208-.046 288.791 288.791 0 0 1-5.428-2.56.5.5 0 0 1 .436-.9c1.798.87 3.6 1.721 5.408 2.552a.5.5 0 0 1-.208.954zm323.01-.428a.5.5 0 0 1-.138-.98 676.62 676.62 0 0 0 5.753-1.689.5.5 0 1 1 .287.959 683.19 683.19 0 0 1-5.763 1.69.5.5 0 0 1-.139.02zm11.5-3.434a.5.5 0 0 1-.149-.977c1.909-.59 3.815-1.192 5.717-1.805a.501.501 0 0 1 .307.952 521.984 521.984 0 0 1-5.728 1.808.5.5 0 0 1-.148.022zm-345.294-1.364a.498.498 0 0 1-.227-.055c-.762-.389-1.524-.782-2.284-1.179a.5.5 0 0 1 .462-.886c.758.395 1.517.787 2.277 1.175a.5.5 0 0 1-.228.945zm780.092-1.545a.5.5 0 0 1-.497-.457 151.39 151.39 0 0 0-.628-5.947.5.5 0 0 1 .433-.558.494.494 0 0 1 .559.433c.249 1.981.461 3.996.632 5.987a.5.5 0 0 1-.499.542zm-423.377-.772a.5.5 0 0 1-.159-.974 425.004 425.004 0 0 0 5.666-1.95.5.5 0 0 1 .332.943 420.577 420.577 0 0 1-5.68 1.955.497.497 0 0 1-.159.026zm11.318-3.989a.5.5 0 0 1-.174-.969c1.873-.693 3.74-1.4 5.602-2.125a.5.5 0 1 1 .363.932c-1.867.727-3.74 1.437-5.618 2.131a.5.5 0 0 1-.173.031zm11.18-4.353a.5.5 0 0 1-.19-.963 306.282 306.282 0 0 0 5.52-2.327.5.5 0 1 1 .398.917 306.477 306.477 0 0 1-5.537 2.335.5.5 0 0 1-.19.038zm399.387-2.79a.5.5 0 0 1-.493-.419 154.438 154.438 0 0 0-1.088-5.88.5.5 0 1 1 .98-.201c.402 1.961.77 3.952 1.095 5.919a.5.5 0 0 1-.494.581zm-388.377-1.983a.5.5 0 0 1-.209-.955 269.99 269.99 0 0 0 5.417-2.555.5.5 0 1 1 .436.9c-1.804.875-3.616 1.73-5.436 2.564a.5.5 0 0 1-.208.046zm10.793-5.242a.5.5 0 0 1-.23-.945 243.906 243.906 0 0 0 5.291-2.805.5.5 0 1 1 .48.878 246.505 246.505 0 0 1-5.312 2.816.5.5 0 0 1-.229.056zm375.174-4.528a.5.5 0 0 1-.486-.38 154.936 154.936 0 0 0-1.537-5.78.5.5 0 1 1 .961-.276c.55 1.914 1.07 3.871 1.548 5.817a.5.5 0 0 1-.486.62zm-364.644-1.226a.5.5 0 0 1-.251-.933 221.619 221.619 0 0 0 5.14-3.073.5.5 0 1 1 .525.85 223.817 223.817 0 0 1-5.163 3.088.5.5 0 0 1-.25.068zm10.22-6.291a.5.5 0 0 1-.272-.92 274.224 274.224 0 0 0 4.985-3.32.5.5 0 1 1 .563.827 275.613 275.613 0 0 1-5.003 3.332.498.498 0 0 1-.272.081zm351.118-4.016a.5.5 0 0 1-.475-.344 153.77 153.77 0 0 0-1.978-5.644.5.5 0 1 1 .937-.349 154.874 154.874 0 0 1 1.991 5.68.5.5 0 0 1-.475.657zm-341.197-2.739a.5.5 0 0 1-.29-.908 361.776 361.776 0 0 0 4.855-3.51.5.5 0 0 1 .593.805 363.787 363.787 0 0 1-4.87 3.52.498.498 0 0 1-.288.093zm9.67-7.107a.498.498 0 0 1-.302-.898 514.11 514.11 0 0 0 4.757-3.648.5.5 0 0 1 .613.79 531.922 531.922 0 0 1-4.767 3.655.498.498 0 0 1-.3.101zm327.338-1.397a.5.5 0 0 1-.462-.307 150.408 150.408 0 0 0-2.415-5.47.5.5 0 1 1 .906-.423c.843 1.809 1.66 3.662 2.432 5.507a.5.5 0 0 1-.46.693zm-317.852-5.955a.499.499 0 0 1-.31-.892 943.823 943.823 0 0 0 4.691-3.736.5.5 0 1 1 .625.78 909.12 909.12 0 0 1-4.696 3.74.497.497 0 0 1-.31.108zm312.788-4.92a.5.5 0 0 1-.445-.271 143.56 143.56 0 0 0-2.85-5.256.5.5 0 0 1 .868-.495c.985 1.728 1.95 3.508 2.87 5.292a.5.5 0 0 1-.443.73zm-303.42-2.58a.5.5 0 0 1-.315-.889l4.662-3.778a.5.5 0 1 1 .63.777l-4.662 3.778a.498.498 0 0 1-.314.111zm9.323-7.559a.499.499 0 0 1-.315-.888c1.554-1.26 3.109-2.519 4.667-3.774a.5.5 0 1 1 .626.779c-1.556 1.254-3.11 2.512-4.664 3.771a.498.498 0 0 1-.314.112zm288.158-.285a.499.499 0 0 1-.424-.235 137.085 137.085 0 0 0-3.286-4.994.5.5 0 0 1 .823-.568 138.13 138.13 0 0 1 3.31 5.03.5.5 0 0 1-.423.767zm-278.81-7.24a.5.5 0 0 1-.313-.891 770.845 770.845 0 0 1 4.708-3.725.5.5 0 0 1 .617.787 773.634 773.634 0 0 0-4.702 3.72.497.497 0 0 1-.31.109zm271.94-2.657a.424.424 0 0 1-.342-.173 144.726 144.726 0 0 0-3.712-4.688.5.5 0 1 1 .77-.636 144.813 144.813 0 0 1 3.678 4.64c.167.219.154.571-.065.739a.546.546 0 0 1-.328.118zm-262.498-4.746a.5.5 0 0 1-.305-.896 473.815 473.815 0 0 1 4.784-3.63.5.5 0 0 1 .6.8 468.216 468.216 0 0 0-4.775 3.623.499.499 0 0 1-.304.103zm254.905-4.482a.498.498 0 0 1-.372-.166 145.44 145.44 0 0 0-4.094-4.366.5.5 0 1 1 .714-.699c1.4 1.432 2.787 2.911 4.123 4.396a.5.5 0 0 1-.371.835zm-245.296-2.704a.499.499 0 0 1-.294-.904 341.256 341.256 0 0 1 4.894-3.485.5.5 0 1 1 .573.82 337.52 337.52 0 0 0-4.88 3.474.497.497 0 0 1-.293.095zm236.899-5.883a.499.499 0 0 1-.343-.136 145.276 145.276 0 0 0-4.44-4.01.5.5 0 1 1 .653-.756 146.24 146.24 0 0 1 4.473 4.038.5.5 0 0 1-.343.864zm-227.06-.983a.5.5 0 0 1-.279-.915 282.589 282.589 0 0 1 5.03-3.29.5.5 0 0 1 .538.843 285.571 285.571 0 0 0-5.011 3.278.498.498 0 0 1-.278.084zm10.108-6.462a.5.5 0 0 1-.261-.926 275.444 275.444 0 0 1 5.164-3.074.5.5 0 1 1 .501.865 276.365 276.365 0 0 0-5.145 3.062.495.495 0 0 1-.26.073zm207.877-.417a.497.497 0 0 1-.311-.109 148.922 148.922 0 0 0-4.754-3.633.5.5 0 0 1 .591-.807 149.124 149.124 0 0 1 4.786 3.658.5.5 0 0 1-.312.891zm-197.503-5.605a.5.5 0 0 1-.242-.938 264.865 264.865 0 0 1 5.295-2.841.5.5 0 0 1 .463.886 264.873 264.873 0 0 0-5.275 2.83.496.496 0 0 1-.24.063zm187.82-1.49a.498.498 0 0 1-.278-.086 150.899 150.899 0 0 0-5.03-3.239.5.5 0 0 1 .524-.851 150.749 150.749 0 0 1 5.064 3.26.5.5 0 0 1-.28.915zm-177.187-4.06a.5.5 0 0 1-.222-.948c1.797-.885 3.62-1.757 5.422-2.592a.5.5 0 1 1 .42.907c-1.793.832-3.61 1.7-5.4 2.582a.5.5 0 0 1-.22.051zm166.97-2.237a.497.497 0 0 1-.245-.065 153.637 153.637 0 0 0-5.27-2.831.5.5 0 0 1 .456-.89c1.778.911 3.563 1.87 5.304 2.85a.5.5 0 0 1-.246.936zm-156.088-2.803a.5.5 0 0 1-.199-.96c1.84-.798 3.706-1.58 5.543-2.321a.5.5 0 0 1 .375.927c-1.83.739-3.686 1.517-5.52 2.312a.502.502 0 0 1-.2.042zm145.406-2.67a.497.497 0 0 1-.21-.047 156.339 156.339 0 0 0-5.474-2.413.5.5 0 1 1 .386-.923c1.846.772 3.7 1.59 5.509 2.43a.5.5 0 0 1-.21.953zm-134.286-1.821a.5.5 0 0 1-.175-.969 225.262 225.262 0 0 1 5.657-2.03.5.5 0 1 1 .325.946 224.48 224.48 0 0 0-5.632 2.02.5.5 0 0 1-.175.033zm123.214-2.81a.502.502 0 0 1-.175-.03 157.699 157.699 0 0 0-5.643-1.988.5.5 0 1 1 .315-.95c1.897.628 3.808 1.301 5.679 2a.5.5 0 0 1-.176.969zm-111.873-1.088a.5.5 0 0 1-.15-.977c1.915-.6 3.853-1.177 5.762-1.716a.499.499 0 1 1 .271.963c-1.899.536-3.828 1.11-5.734 1.707a.502.502 0 0 1-.15.023zm100.481-2.682a.501.501 0 0 1-.14-.02 159.334 159.334 0 0 0-5.776-1.555.5.5 0 0 1 .24-.97c1.94.483 3.896 1.01 5.815 1.564a.5.5 0 0 1-.139.98zm-88.94-.574a.5.5 0 0 1-.12-.986 200.66 200.66 0 0 1 5.852-1.376.5.5 0 0 1 .214.977c-1.93.423-3.89.884-5.824 1.37a.498.498 0 0 1-.122.015zm77.295-2.325a.504.504 0 0 1-.103-.011 159.897 159.897 0 0 0-5.878-1.115.5.5 0 0 1 .168-.986c1.968.335 3.958.713 5.915 1.122a.5.5 0 0 1-.102.99zm-65.579-.243a.5.5 0 0 1-.092-.992c1.968-.368 3.963-.71 5.928-1.013a.5.5 0 0 1 .152.988c-1.954.303-3.938.642-5.896 1.008a.496.496 0 0 1-.092.009zm53.748-1.771a.51.51 0 0 1-.066-.005c-1.97-.259-3.971-.484-5.946-.668a.5.5 0 1 1 .093-.996c1.988.186 4 .412 5.984.673a.5.5 0 0 1-.065.996zm-41.895-.06a.5.5 0 0 1-.06-.996c1.99-.242 4.003-.452 5.983-.626a.5.5 0 0 1 .087.996c-1.968.173-3.97.382-5.95.623a.48.48 0 0 1-.06.003zm11.95-1.047a.5.5 0 0 1-.026-1c2.002-.107 4.025-.18 6.014-.217a.515.515 0 0 1 .51.49.5.5 0 0 1-.491.51 173.376 173.376 0 0 0-6.006.217zm17.995-.008a.5.5 0 0 1-6.497-.724c.006-.276.198-.5.51-.491 1.995.033 4.019.106 6.014.216a.5.5 0 0 1-.027 1z"></path><path fill="#c2d1f2" d="M817.882 385.116a.5.5 0 0 1-.5-.5v-58.988a.5.5 0 1 1 1 0v58.988a.5.5 0 0 1-.5.5zM817.882 521.413a.5.5 0 0 1-.5-.5v-127.97a.5.5 0 1 1 1 0v127.97a.5.5 0 0 1-.5.5zM805.349 633.711h-7.413a.5.5 0 1 1 0-1h7.413c6.635 0 12.033-6.27 12.033-13.976v-84.626a.5.5 0 1 1 1 0v84.626c0 8.258-5.847 14.976-13.033 14.976zM665.597 687.577h-13.944a.5.5 0 1 1 0-1h13.437c-.239-9.13-7.004-16.475-15.284-16.475h-9.887a.5.5 0 0 1-.5-.5V644.63a.5.5 0 1 1 1 0v24.472h9.387c8.983 0 16.29 8.064 16.29 17.975a.5.5 0 0 1-.5.5z"></path><path fill="#0039b2" d="M548.969 622.384h78.51v50.15h-78.51z"></path><path d="M627.49 624.304v50.15h-5.02v-1.92h-73.5v-6.82h73.5v-18.18c0-5.73-4.65-10.37-10.38-10.37h-63.11v-12.86h78.51z" opacity=".1"></path><path fill="#0039b2" d="M805.968 303.89v314.35c0 8.27-6.71 14.98-14.99 14.98h-405.51c-3.41 0-6.55-1.14-9.07-3.06-3.59-2.74-5.91-7.06-5.91-11.92V303.89c0-8.28 6.71-14.99 14.98-14.99h405.51c8.28 0 14.99 6.71 14.99 14.99z"></path><path fill="#fff" d="M385.47 602.128c-6.055 0-10.98-4.925-10.98-10.98V303.884c0-6.06 4.925-10.99 10.98-10.99h405.51c6.06 0 10.99 4.93 10.99 10.99v287.264c0 6.055-4.93 10.98-10.99 10.98H385.47z"></path><path fill="#0039b2" d="M653.158 687.642H523.302c0-4.826 1.763-9.197 4.624-12.35 2.85-3.168 6.8-5.118 11.161-5.118h98.285c8.712 0 15.786 7.816 15.786 17.468z"></path><circle cx="588.224" cy="617.894" r="5.479" fill="#fff"></circle><path fill="#ff5d5d" d="M232.71 713.73a.4.4 0 0 0 .395.434h3.005a.387.387 0 0 0 .385-.346l.366-2.967h1.57l.289.655.212.481.857 1.937c.058.144.202.24.356.24h15.583a.39.39 0 0 0 .395-.395v-2.147c0-.77-.221-1.512-.645-2.148a2.187 2.187 0 0 0-.366-.482 3.685 3.685 0 0 0-1.127-.896l-6.876-3.591s-.704-2.62-.877-2.794c-.173-.173-12.443 0-12.443 0l-.52 5.75-.039.482-.52 5.788z"></path><path fill="#fff" d="M233.23 707.943h7.657v-.482h-7.618zM238.72 711.506l.212.481h10.883c.125 0 .24-.105.24-.24v-2.273h5.423a2.187 2.187 0 0 0-.366-.482h-5.297a.238.238 0 0 0-.24.241v2.273H238.72z"></path><path d="m267.922 714.185-35.657-60.473-35.647 60.473h-2.632l38.279-64.939 38.29 64.939z"></path><path fill="#ffc6b2" d="M270.73 584.77s6.293 34.775 6.032 34.67c-.26-.104-23.043.262-23.251 0-.209-.26 2.502-45.98 2.502-45.98l4.484 1.615 10.233 9.696z"></path><path fill="#ff784b" d="M304.968 657.415a8.096 8.096 0 0 1-2.39 5.751 8.06 8.06 0 0 1-5.75 2.39h-92.296c-9.012 0-16.302-7.29-16.302-16.282h108.597a8.141 8.141 0 0 1 8.141 8.14zM260.909 649.246h-72.701l-.257-1.005-18.72-74.176c-2.548-10.109 5.088-19.907 15.506-19.907h52.175l23.997 95.088z"></path><path fill="#d250dc" d="M271.392 585.113c-.087-.56-.228-1.133-.375-1.766-3.553-15.358-11.207-23.324-12.752-24.125l-9.672 12.062-3.192 13.829c0 .935 25.99.935 25.99 0z"></path><path fill="#1258ff" d="m277.613 616.191-12.162-.828s-16.62-9.233-17.278-8.987c-.656.246-6.156 15.187-5.91 15.433s13.873 14.941 13.873 14.941L230.6 703.36c0 2.145 17.986 1.694 17.986-.45l40.712-62.545c6.782-9.863.259-23.36-11.684-24.174z"></path><path fill="#fff" d="M228.077 648.24v1.006h-39.84l-.286-1.005"></path><path fill="#ff5d5d" d="M286.253 713.73a.4.4 0 0 0 .394.434h3.005a.387.387 0 0 0 .386-.346l.366-2.967h1.57l.288.655.212.481.857 1.937c.058.144.203.24.357.24h15.583a.39.39 0 0 0 .395-.395v-2.147c0-.77-.222-1.512-.645-2.148a2.188 2.188 0 0 0-.366-.482 3.685 3.685 0 0 0-1.127-.896l-6.877-3.591s-.703-2.62-.876-2.794c-.174-.173-12.444 0-12.444 0l-.52 5.75-.038.482-.52 5.788z"></path><path fill="#fff" d="M286.773 707.943h7.656v-.482h-7.618zM292.262 711.506l.212.481h10.883c.126 0 .241-.105.241-.24v-2.273h5.423a2.188 2.188 0 0 0-.366-.482h-5.298a.238.238 0 0 0-.24.241v2.273h-10.855z"></path><path fill="#1258ff" d="m253.338 649.24 32.207 53.77 16.694-.301s-13.203-55.41-21.569-71.811a19.018 19.018 0 0 0-11.817-9.67l-26.919-5.33-26.068 1.16c-.328.845-3.489 29.707 9.79 32.183h27.682z"></path><path fill="#fff" d="M299.86 696.125c.023.142-1.173.466-3.625.921l-6.255 1.008c-2.468.337-3.706.405-3.729.26-.023-.145 1.174-.466 3.623-.924l6.254-1.008c2.471-.334 3.708-.405 3.732-.257z"></path><path fill="#d250dc" d="M265.834 615.36c-.831 3.773-47.76 5.375-51.948 1.694-2.827-2.473-8.588-54.186-4.672-59.653.643-.9 6.35-1.564 13.692-1.83h.008c6.139-.226 13.42-.165 19.838.273 8.014.552 14.405 1.912 16.066 3.637 4.037 4.19 2.74 18.689 3.643 31.459.85 12.022 3.615 23.324 3.373 24.42z"></path><path fill="#fff" d="m245.4 585.113-21.424-29.593c6.123-.237 11.687-.276 18.317.294.143.012 3.108 29.299 3.108 29.299z"></path><path fill="#719bff" d="M265.02 615.899h47.629c.843 0 1.59-.543 1.85-1.345l13.51-41.687a1.945 1.945 0 0 0-1.85-2.544h-46.37L265.02 615.9z"></path><path fill="#6385d2" d="M261.07 615.899h3.95l14.765-45.577h-2.57c-.816 0-1.542.534-1.794 1.31L261.07 615.9z"></path><path fill="#6385d2" d="M240.668 615.899h23.405v-3.146h-20.26a3.144 3.144 0 0 0-3.145 3.146z"></path><path fill="#ffc6b2" d="M198.732 605.392c.806 6.178 6.097 10.784 12.326 10.743l31.032-.232s21.983 4.164 21.83-7.589c-.126-9.616-13.81-2.181-13.94-2.302-.121-.131 2.457-1.27.388-3.278-.936-.908-6.535 2.506-6.535 2.506l-25.6-5.825.394-15.692-22.344 2.096c-.05.292 1.33 10.965 2.449 19.573z"></path><path fill="#d250dc" d="M221.735 586.703c-.128 3.598-25.97 2.2-26.189 1.21 0 0 2.049-20.202 2.7-21.813 3.28-8.188 11.634-9.027 11.634-9.027s7.853 1.704 10.409 9.143c1.761 5.127 1.507 18.846 1.446 20.487z"></path><path fill="#0df3ff" d="M221.016 536.39c.02-.02.02-.041.02-.041v.04h-.02z"></path><path fill="#ffc6b2" d="M229.337 528.872v6.627c.842.613 1.943.228 2.452-.675.498-.904.498-1.995.56-3.023.073-1.038.281-2.15 1.06-2.835 1.215-1.05 3.074-.51 4.57.093 2.379.966 4.767 1.974 7.302 2.42 1.9.333 3.905.333 5.744-.228-.104-2.452-.219-4.155-.219-4.155s-5.93-5.027-6.543-5.027c-.623 0-10.023 2.98-10.47 3.147-.446.156-4.456 3.656-4.456 3.656z"></path><path fill="#fff" d="M187.884 567.578h1v82.894h-1z" transform="rotate(-14.963 188.384 609.025)"></path><path fill="#fff" d="M262.994 620.064c.014-.07.756.007 2.23.24l2.765.467c.276.05.564.1.864.155.342.084.617.175.947.268.635.202 1.305.454 2.004.76a19.33 19.33 0 0 1 8.534 7.66c.68 1.114 1.154 2.29 1.707 3.438 1.242 2.735 2.147 4.79 2.724 6.167s.828 2.078.76 2.108c-.066.03-.442-.616-1.124-1.942s-1.67-3.336-2.963-6.035c-.548-1.141-1.033-2.331-1.681-3.39a18.67 18.67 0 0 0-8.237-7.394c-.67-.31-1.31-.569-1.919-.782l-.867-.28-.857-.186-2.734-.621c-1.453-.347-2.167-.56-2.153-.633zM262.34 662.898c-.12.08-1.165-1.271-3.11-4.113l-4.818-7.306-.709-1.126-.31-.502c-.094-.152-.222-.359-.201-.338l-1.03-.057-.838-.065c-.447-.046-.669-.097-.669-.15s.222-.104.669-.15l.838-.064.546-.03.776-.026 1.49 2.138 4.817 7.306c1.843 2.909 2.675 4.4 2.55 4.483zM221.25 638.224c-.023-.08.423-.243 1.247-.674a10.64 10.64 0 0 0 3.228-2.587 9.419 9.419 0 0 0 2.086-4.139c.353-1.53.386-3.132.227-4.711-.167-1.87-.458-3.264-.604-4.199-.155-.935-.2-1.41-.128-1.427.07-.016.25.425.519 1.338.259.914.648 2.298.882 4.221.164 1.632.133 3.306-.24 4.93a10.106 10.106 0 0 1-2.234 4.428c-1.326 1.471-2.675 2.164-3.57 2.51-.909.342-1.397.372-1.413.31zM253.158 696.728c-.01.143-1.514.165-4.542.006l-7.683-.554c-3.016-.277-4.501-.514-4.49-.66s1.514-.165 4.539-.01l7.683.553c3.018.281 4.504.515 4.493.665zM253.875 689.602c-.124-.073.725-1.77 2.616-5.098l4.935-8.383c1.992-3.264 3.064-4.83 3.19-4.755s-.724 1.77-2.61 5.097l-4.936 8.382c-1.996 3.266-3.066 4.833-3.195 4.757zM296.502 694.681c-.066.025-.517-.971-1.344-3.007a298.69 298.69 0 0 1-3.525-9.268 623.237 623.237 0 0 1-7.156-21.283 296.75 296.75 0 0 1-2.787-9.508c-.57-2.122-.812-3.188-.742-3.209.071-.02.445 1.007 1.126 3.094l3.044 9.42a622.991 622.991 0 0 0 7.148 21.26l3.267 9.354c.718 2.075 1.04 3.12.97 3.147z"></path><path fill="#253066" d="M240.182 550.205c-.097-.002-2.38-.082-5.023-1.57l.245-.436c2.537 1.429 4.77 1.506 4.791 1.507l-.013.5zM225.665 539.439c-.017.067-.155.11-.42.069-.258-.046-.662-.172-1.076-.57-.662-.693-.834-1.967 0-2.72.501-.377 1.008-.344 1.274-.239.278.113.343.267.307.322-.06.143-.57-.092-1.143.428-.47.39-.417 1.274.06 1.756.543.634 1.057.789.998.954z"></path><path fill="#fff" d="M261.396 586.076c-.144-.001-.267-.996-.313-3.006l.033-5.108c.073-2.008.209-3.001.356-3 .147 0 .266.996.316 3.004l-.033 5.108c-.076 2.01-.209 3.002-.36 3.002zM218.627 570.276c-.164.027-.363-1.105-.878-3.292-.407-1.847-1.147-3.643-2.484-4.942-1.546-1.564-2.768-1.674-2.704-1.869.01-.063.31-.099.886.049.566.153 1.414.522 2.29 1.34 1.463 1.424 2.25 3.367 2.668 5.274.41 2.285.348 3.42.222 3.44zM221.061 583.727c.144-.004.268.366.316 1.121l-.028 1.918c-.07.752-.206 1.12-.353 1.114-.147-.006-.267-.381-.32-1.13l.029-1.899c.074-.748.205-1.12.356-1.124z"></path><path d="M334.554 714.185v-86.247c0-3.943-3.208-7.15-7.15-7.15H202.866c-3.943 0-7.15 3.207-7.15 7.15v86.247h-4.89v-86.247c0-6.638 5.401-12.04 12.04-12.04h124.538c6.638 0 12.04 5.402 12.04 12.04v86.247h-4.89zM214.278 601.705c.026-.158.493-.132 1.317-.35a3.305 3.305 0 0 0 1.83-1.063c.595-.608.803-1.027.957-.97.122.03.16.586-.453 1.414a3.975 3.975 0 0 1-2.198 1.278c-1.024.124-1.488-.185-1.453-.309z"></path><path fill="#253066" d="M247.625 590.305c-.073.053-.748-.824-2.19-2.509-1.435-1.69-3.663-4.171-6.781-7.366-5.235-5.461-10.803-10.619-15.818-16.34l-.431-.503-.41-.474-.201-.234-.1-.116.152-.033 1.65-.353 1.123-.236.165-.033.03-.003.075-.01-3.899-2.124 1.392-1.296.857-.767c.462-.404.707-.59.734-.563.027.028-.165.268-.579.721l-1.7 1.8.2.09.481.238 1.051.523 3.165 1.603-2.96.675c-.19.044-.385.09-.582.134l-.125.029-.005.002-.007.005.014.01.417.474c4.979 5.68 10.546 10.84 15.795 16.314 3.085 3.248 5.256 5.808 6.608 7.581.688.878 1.158 1.57 1.465 2.033.307.464.444.706.414.728z"></path><path fill="#253066" d="M247.624 590.303c-.072-.009-.037-.874.105-2.603l.68-7.797c.258-2.938.474-5.885.47-8.821l-.035-4.432-.02-2.218c-.028-.722.042-1.527-.088-2.13-.086-.343-.237-.527-.552-.683l-1.003-.475-2.357-1.108 1.974-.994.646-.317.243-.106-.103-.073-.172-.116c-.19-.12-.365-.233-.527-.337l-.802-.532c-.424-.29-.624-.453-.604-.488.02-.034.26.062.72.29l.855.441.552.295.97.542-1.546.846-.686.377c-.16.086-.164.09-.18.102l-.053.037.078.027c.024.01-.006-.006.061.024l.23.1.96.422 1.037.463c.398.153.824.625.911 1.097.169.851.073 1.54.11 2.29l.018 2.218.037 4.435c.002 2.977-.216 5.934-.475 8.884a162.603 162.603 0 0 1-.951 7.782c-.258 1.718-.428 2.566-.503 2.558z"></path><path fill="#ffc6b2" d="M226.055 542.749v12.692l13.129 8.569.904-8.299.103-5.754s10.512.872 11-5.266c.239-3.023.02-8.06-.083-11.405-.021-.716-.052-1.402-.083-2.035-1.839.56-3.844.56-5.744.228-2.535-.446-4.923-1.454-7.302-2.42-1.496-.602-3.355-1.142-4.57-.093-.779.685-.987 1.797-1.06 2.835-.062 1.028-.062 2.12-.56 3.023-.51.903-1.61 1.288-2.452.675 0 0-5.826-4.113-7.976 0-.146.28-.24.57-.322.83v.063h-.021c-.831 3.687 5.037 6.357 5.037 6.357z"></path><path fill="#2a0054" d="M226.055 542.749s-5.868-2.67-5.016-6.357v-.062c.083-.26.176-.55.322-.831 2.15-4.113 7.976 0 7.976 0 .842.613 1.943.228 2.452-.675.498-.904.498-1.995.56-3.023.073-1.038.281-2.15 1.06-2.835 1.215-1.05 3.074-.51 4.57.093 2.379.966 4.767 1.974 7.302 2.42 2.475.436 4.773.13 7.133-.665.994-.335 1.827-1.225 2.596-1.923.924-.839 1.792-1.745 2.514-2.766 1.33-1.882 2.141-4.244 1.709-6.508-.402-2.1-1.841-3.904-3.614-5.1-1.773-1.197-3.86-1.846-5.955-2.275-3.867-.793-7.956-.876-11.701.373s-7.108 3.946-8.609 7.597c-.632 1.538-1.028 3.344-2.411 4.268-1.309.874-3.027.633-4.595.764-3.305.277-6.37 2.51-7.647 5.57-1.277 3.06-.707 6.81 1.421 9.354 2.387 2.851 6.514 4.04 9.933 2.58z"></path><path d="M723.838 288.9v281.82c0 8.49-6.87 15.37-15.36 15.37h-299.1c-8.49 0-15.37-6.88-15.37-15.37V288.9h329.83z" opacity=".08"></path><path fill="#719bff" d="M702.523 579.958H403.416c-8.484 0-15.362-6.878-15.362-15.362V269.232c0-8.484 6.878-15.362 15.362-15.362h299.107c8.484 0 15.361 6.878 15.361 15.362v295.364c0 8.484-6.877 15.362-15.361 15.362z"></path><path fill="#fff" d="M403.416 575.958c-6.265 0-11.362-5.097-11.362-11.362V269.232c0-6.265 5.097-11.362 11.362-11.362h299.107c6.265 0 11.361 5.097 11.361 11.362v295.364c0 6.265-5.096 11.362-11.361 11.362H403.416z"></path><path fill="#719bff" d="M717.884 283.194v-13.962c0-8.484-6.877-15.362-15.361-15.362H403.416c-8.484 0-15.362 6.878-15.362 15.362v13.962h329.83z"></path><circle cx="403.756" cy="270.275" r="4.394" fill="#fff"></circle><circle cx="414.947" cy="270.275" r="4.394" fill="#fff"></circle><circle cx="426.139" cy="270.275" r="4.394" fill="#fff"></circle><path fill="#f0e6ff" d="M425.784 375.423h20.846c.674 0 1.223.549 1.223 1.223v.016c0 .675-.549 1.223-1.223 1.223h-20.846a1.225 1.225 0 0 1-1.223-1.223v-.016c0-.674.549-1.223 1.223-1.223zM406.696 376.662v-.016c0-.674.549-1.223 1.223-1.223h5.96c.675 0 1.224.549 1.224 1.223v.016c0 .675-.55 1.223-1.223 1.223h-5.96a1.225 1.225 0 0 1-1.224-1.223z"></path><path fill="#b05efa" d="M406.696 363.814c0-.674.549-1.223 1.223-1.223h29.535c.675 0 1.224.549 1.224 1.223 0 .675-.55 1.224-1.224 1.224H407.92c-.674 0-1.223-.55-1.223-1.224z" opacity=".6"></path><path fill="#f0e6ff" d="M461.249 453.685c0 .674-.55 1.223-1.224 1.223H407.92c-.674 0-1.223-.549-1.223-1.223 0-.675.549-1.224 1.223-1.224h52.106c.674 0 1.224.55 1.224 1.224zM406.696 312.455c0-.674.549-1.223 1.239-1.223h22.68c.675 0 1.224.549 1.224 1.223 0 .69-.55 1.24-1.224 1.24h-22.68c-.69 0-1.24-.55-1.24-1.24zM406.696 428.005c0-.674.549-1.223 1.223-1.223h39.15c.674 0 1.224.549 1.224 1.223 0 .675-.55 1.224-1.224 1.224h-39.15c-.674 0-1.223-.55-1.223-1.224zM466.048 402.326c0-.675.549-1.224 1.224-1.224h142.19c.674 0 1.223.55 1.223 1.224 0 .674-.549 1.223-1.223 1.223h-142.19a1.225 1.225 0 0 1-1.224-1.223zM406.696 402.326c0-.675.549-1.224 1.223-1.224h46.271c.675 0 1.224.55 1.224 1.224 0 .674-.55 1.223-1.224 1.223h-46.27a1.225 1.225 0 0 1-1.224-1.223z"></path><path fill="#ff5d5d" d="M406.696 440.853v-.016c0-.674.549-1.223 1.223-1.223h20.657c.675 0 1.224.549 1.224 1.223v.016c0 .674-.55 1.223-1.224 1.223H407.92a1.225 1.225 0 0 1-1.223-1.223z" opacity=".6"></path><path fill="#f0e6ff" d="M615.783 363.814c0 .675-.55 1.224-1.224 1.224H442.38c-.674 0-1.223-.55-1.223-1.224 0-.674.549-1.223 1.223-1.223h172.18c.675 0 1.224.549 1.224 1.223zM452.794 428.005c0-.674.55-1.223 1.224-1.223h175.395c.674 0 1.224.549 1.224 1.223 0 .675-.55 1.224-1.224 1.224H454.018c-.675 0-1.224-.55-1.224-1.224zM437.517 312.455c0-.674.549-1.223 1.223-1.223h184.98a1.232 1.232 0 1 1 0 2.463H438.74c-.674 0-1.223-.55-1.223-1.24z"></path><path fill="#ff5d5d" d="M424.843 389.494c0-.675.55-1.224 1.224-1.224h194.61c.674 0 1.223.55 1.223 1.224 0 .674-.55 1.223-1.224 1.223h-194.61c-.674 0-1.223-.549-1.223-1.223z" opacity=".6"></path><path fill="#f0e6ff" d="M557.858 350.982c0-.674.548-1.223 1.223-1.223h72.653c.675 0 1.224.55 1.224 1.223s-.55 1.224-1.224 1.224h-72.653c-.675 0-1.223-.55-1.223-1.224z"></path><path fill="#ff5d5d" d="M636.252 326.527H471.773c-.674 0-1.223-.55-1.223-1.224 0-.675.549-1.223 1.223-1.223h164.479c.674 0 1.223.548 1.223 1.223 0 .674-.549 1.224-1.223 1.224z" opacity=".6"></path><path fill="#f0e6ff" d="M611.062 336.912c.674 0 1.223.548 1.223 1.223 0 .674-.55 1.223-1.223 1.223H461.876a1.225 1.225 0 0 1-1.224-1.223c0-.675.55-1.223 1.224-1.223h149.186zM699.243 402.326c0 .674-.549 1.223-1.223 1.223h-25.99a1.225 1.225 0 0 1-1.224-1.223c0-.675.549-1.224 1.223-1.224h25.99c.675 0 1.224.55 1.224 1.224zM615.406 401.102h25.206a1.225 1.225 0 0 1 0 2.447h-25.206a1.225 1.225 0 0 1-1.223-1.223c0-.675.549-1.224 1.223-1.224zM647.812 440.837v.016c0 .674-.55 1.223-1.224 1.223H437.423a1.225 1.225 0 0 1-1.224-1.223v-.016c0-.674.55-1.223 1.224-1.223h209.165c.675 0 1.224.549 1.224 1.223z"></path><path fill="#ff5d5d" d="M653.349 415.173c0 .675-.55 1.224-1.224 1.224H473.232c-.675 0-1.224-.55-1.224-1.224 0-.674.55-1.223 1.224-1.223h178.893c.674 0 1.224.549 1.224 1.223z" opacity=".6"></path><path fill="#b05efa" d="M675.182 376.646v.016c0 .675-.549 1.223-1.223 1.223h-27.402a1.225 1.225 0 0 1-1.224-1.223v-.016c0-.674.55-1.223 1.224-1.223h27.402c.674 0 1.223.549 1.223 1.223z" opacity=".6"></path><path fill="#ff5d5d" d="M655.388 363.814c0 .675-.55 1.224-1.224 1.224h-32.5a1.225 1.225 0 0 1 0-2.447h32.5c.675 0 1.224.549 1.224 1.223z" opacity=".6"></path><path fill="#f0e6ff" d="M630.495 312.455c0-.674.55-1.223 1.224-1.223h33.629a1.232 1.232 0 1 1 0 2.463h-33.63c-.674 0-1.223-.55-1.223-1.24z"></path><path fill="#ff5d5d" d="M672.5 312.455c0-.674.55-1.223 1.24-1.223h24.264a1.232 1.232 0 1 1 0 2.463h-24.265c-.69 0-1.239-.55-1.239-1.24z" opacity=".6"></path><path fill="#f0e6ff" d="M675.559 326.527h-32.5c-.674 0-1.223-.55-1.223-1.224 0-.675.549-1.223 1.223-1.223h32.5c.674 0 1.223.548 1.223 1.223 0 .674-.549 1.224-1.223 1.224zM699.243 325.303c0 .674-.549 1.224-1.223 1.224h-13.615a1.225 1.225 0 0 1 0-2.447h13.615c.674 0 1.223.548 1.223 1.223zM616.661 338.135c0-.675.549-1.223 1.224-1.223h33.064c.674 0 1.223.548 1.223 1.223 0 .674-.549 1.223-1.223 1.223h-33.064a1.225 1.225 0 0 1-1.224-1.223zM699.243 389.494c0 .674-.549 1.223-1.223 1.223h-12.595c-.675 0-1.224-.549-1.224-1.223 0-.675.55-1.224 1.224-1.224h12.595c.674 0 1.223.55 1.223 1.224zM452.277 375.423H637.71c.674 0 1.223.549 1.223 1.223v.016c0 .675-.55 1.223-1.223 1.223H452.277a1.225 1.225 0 0 1-1.224-1.223v-.016c0-.674.55-1.223 1.224-1.223zM675.84 390.717h-43.839c-.674 0-1.223-.549-1.223-1.223 0-.675.549-1.224 1.223-1.224h43.84c.675 0 1.223.55 1.223 1.224 0 .674-.548 1.223-1.223 1.223z"></path><path fill="#b05efa" d="M699.243 440.837v.016c0 .674-.549 1.223-1.223 1.223h-43.166a1.225 1.225 0 0 1-1.223-1.223v-.016c0-.674.549-1.223 1.223-1.223h43.166c.674 0 1.223.549 1.223 1.223z" opacity=".6"></path><path fill="#f0e6ff" d="M425.784 476.534h20.846c.674 0 1.223.549 1.223 1.223v.016c0 .675-.549 1.223-1.223 1.223h-20.846a1.225 1.225 0 0 1-1.223-1.223v-.016c0-.674.549-1.223 1.223-1.223zM406.696 477.773v-.016c0-.674.549-1.223 1.223-1.223h5.96c.675 0 1.224.549 1.224 1.223v.016c0 .675-.55 1.223-1.223 1.223h-5.96a1.225 1.225 0 0 1-1.224-1.223z"></path><path fill="#b05efa" d="M406.696 464.926c0-.675.549-1.224 1.223-1.224h29.535c.675 0 1.224.549 1.224 1.224 0 .674-.55 1.223-1.224 1.223H407.92c-.674 0-1.223-.55-1.223-1.223z" opacity=".6"></path><path fill="#f0e6ff" d="M461.249 554.796c0 .674-.55 1.223-1.224 1.223H407.92c-.674 0-1.223-.549-1.223-1.223 0-.675.549-1.224 1.223-1.224h52.106c.674 0 1.224.55 1.224 1.224zM406.696 529.116c0-.674.549-1.223 1.223-1.223h39.15c.674 0 1.224.549 1.224 1.223 0 .675-.55 1.224-1.224 1.224h-39.15c-.674 0-1.223-.55-1.223-1.224zM466.048 503.437c0-.675.549-1.223 1.224-1.223h142.19c.674 0 1.223.548 1.223 1.223 0 .674-.549 1.223-1.223 1.223h-142.19a1.225 1.225 0 0 1-1.224-1.223zM406.696 503.437c0-.675.549-1.223 1.223-1.223h46.271c.675 0 1.224.548 1.224 1.223 0 .674-.55 1.223-1.224 1.223h-46.27a1.225 1.225 0 0 1-1.224-1.223z"></path><path fill="#ff5d5d" d="M406.696 541.964v-.016c0-.674.549-1.223 1.223-1.223h20.657c.675 0 1.224.549 1.224 1.223v.016c0 .674-.55 1.223-1.224 1.223H407.92a1.225 1.225 0 0 1-1.223-1.223z" opacity=".6"></path><path fill="#f0e6ff" d="M566.037 464.926c0 .674-.549 1.223-1.223 1.223H442.379c-.674 0-1.223-.55-1.223-1.223 0-.675.549-1.224 1.223-1.224h122.435c.674 0 1.223.549 1.223 1.224zM452.794 529.116c0-.674.55-1.223 1.224-1.223h124.308c.674 0 1.223.549 1.223 1.223 0 .675-.549 1.224-1.223 1.224H454.018c-.675 0-1.224-.55-1.224-1.224z"></path><path fill="#ff5d5d" d="M424.843 490.605c0-.674.55-1.224 1.224-1.224h194.61c.674 0 1.223.55 1.223 1.224s-.55 1.223-1.224 1.223h-194.61c-.674 0-1.223-.549-1.223-1.223z" opacity=".6"></path><path fill="#f0e6ff" d="M699.243 503.437c0 .674-.549 1.223-1.223 1.223h-25.99a1.225 1.225 0 0 1-1.224-1.223c0-.675.549-1.223 1.223-1.223h25.99c.675 0 1.224.548 1.224 1.223zM615.406 502.214h25.206c.675 0 1.224.548 1.224 1.223 0 .674-.55 1.223-1.224 1.223h-25.206a1.225 1.225 0 0 1-1.223-1.223c0-.675.549-1.223 1.223-1.223zM609.375 541.948v.016c0 .674-.548 1.223-1.223 1.223h-170.73a1.225 1.225 0 0 1-1.223-1.223v-.016c0-.674.55-1.223 1.224-1.223h170.729c.675 0 1.223.549 1.223 1.223z"></path><path fill="#ff5d5d" d="M653.349 516.284c0 .675-.55 1.224-1.224 1.224h-71.964c-.675 0-1.224-.55-1.224-1.224 0-.674.55-1.223 1.224-1.223h71.964c.674 0 1.224.549 1.224 1.223z" opacity=".6"></path><path fill="#f0e6ff" d="M452.277 476.534h149.562c.674 0 1.223.549 1.223 1.223v.016c0 .675-.549 1.223-1.223 1.223H452.277a1.225 1.225 0 0 1-1.224-1.223v-.016c0-.674.55-1.223 1.224-1.223zM675.84 491.828h-43.839c-.674 0-1.223-.549-1.223-1.223s.549-1.224 1.223-1.224h43.84c.675 0 1.223.55 1.223 1.224s-.548 1.223-1.223 1.223z"></path><path fill="#b05efa" d="M699.243 541.948v.016c0 .674-.549 1.223-1.223 1.223h-81.602a1.225 1.225 0 01-1.223-1.223v-.016c0-.674.549-1.223 1.223-1.223h81.602c.674 0 1.223.549 1.223 1.223zM699.243 338.135c0 .674-.549 1.223-1.223 1.223h-40.107a1.225 1.225 0 01-1.223-1.223c0-.675.548-1.223 1.223-1.223h40.107c.674 0 1.223.548 1.223 1.223z" opacity=".6"></path><path d="M805.968 337.38v162.6h-54.31c-3.93 0-7.11-3.18-7.11-7.11V344.5c0-3.93 3.18-7.12 7.11-7.12h54.31z" opacity=".05"></path><path fill="#719bff" d="M932.42 339.905v148.368a7.109 7.109 0 0 1-7.112 7.111H748.465a7.109 7.109 0 0 1-7.111-7.111V339.905c0-3.929 3.182-7.123 7.11-7.123h176.844c3.929 0 7.111 3.194 7.111 7.123z"></path><path fill="#fff" d="M929.853 352.352v135.989a4.487 4.487 0 0 1-4.48 4.48H748.413c-2.47 0-4.498-2.01-4.498-4.48V352.352c0-2.47 2.029-4.498 4.498-4.498h176.958c2.47 0 4.481 2.029 4.481 4.498zM754.64 341.816a2.392 2.392 0 1 1-4.783.008 2.392 2.392 0 0 1 4.783-.008zM761.025 341.816a2.392 2.392 0 1 1-4.783.008 2.392 2.392 0 0 1 4.783-.008zM767.41 341.816a2.392 2.392 0 1 1-4.783.008 2.392 2.392 0 0 1 4.784-.008z"></path><path d="M854.962 727.435h28.248v4.725h-28.248z" transform="rotate(-.222 869.082 729.79)"></path><path d="m854.953 727.494 28.248-.119-.052-13.462-16.372.074z"></path><path fill="#fff" d="M854.949 727.214h13.925v.5h-13.925z" transform="rotate(-.223 861.921 727.462)"></path><path fill="#fff" d="M877.243 730.854c.002.465.048.873.152 1.27l.566-.003c0-.023 0-.045-.011-.068a5.065 5.065 0 0 1-.14-1.2 5.311 5.311 0 0 1 1.108-3.291c.046-.057.09-.114.147-.17a5.385 5.385 0 0 1 4.128-1.966l-.002-.566a5.964 5.964 0 0 0-4.727 2.363c-.045.058-.08.114-.124.171a5.873 5.873 0 0 0-1.097 3.46z"></path><path d="M818.4 727.435h28.248v4.725H818.4z" transform="rotate(-.222 832.52 729.79)"></path><path d="m818.391 727.494 28.248-.119-.052-13.462-16.372.074z"></path><path fill="#fff" d="M818.387 727.214h13.925v.5h-13.925z" transform="rotate(-.223 825.36 727.462)"></path><path fill="#fff" d="M840.681 730.854c.002.465.048.873.152 1.27l.567-.003c0-.023 0-.045-.012-.068a5.065 5.065 0 0 1-.14-1.2 5.311 5.311 0 0 1 1.109-3.291c.045-.057.09-.114.146-.17a5.385 5.385 0 0 1 4.128-1.966l-.002-.566a5.964 5.964 0 0 0-4.727 2.363c-.045.058-.08.114-.124.171a5.873 5.873 0 0 0-1.097 3.46z"></path><path fill="#d250dc" d="M827.346 715.418c3.719 1.643 18.886.982 19.96.137.236-.19 13.937-74.24 13.937-74.24s3.051 73.3 3.241 73.488c1.047 1.062 15.416 2.61 19.469.309.59-.334 2.387-76.165 2.387-76.165-.12.247 6.584-26.068-4.404-36.43l-43.797.753s-11.458 111.854-10.793 112.148z"></path><path fill="#fff" d="M861.217 641.67c-.069 0-.156-.55-.152-1.663.013-.558.02-1.252.21-2.11.05-.214.12-.442.262-.69l.437-.594c.33-.382.708-.766 1.132-1.136 1.46-1.22 2.944-2.331 4.003-3.829 1.066-1.479 1.711-3.231 1.986-5.05.385-2.144.323-3.795.262-4.878-.071-1.089-.15-1.634-.07-1.65.063-.016.278.502.468 1.604.178 1.097.34 2.795.004 5.032-.285 1.892-.967 3.76-2.105 5.336-1.125 1.59-2.697 2.762-4.108 3.944a11.94 11.94 0 0 0-1.101 1.032l-.416.516c-.087.14-.165.323-.216.51-.214.754-.28 1.449-.348 1.988-.12 1.088-.17 1.637-.248 1.637z"></path><path fill="#ffbdae" d="M890.02 569.772s.056 14.42-1.713 18.207c-1.96 4.194-11.857 9.76-11.857 9.76s-4.718-23.969-4.587-24.167c.132-.2 2.16-5.361 2.424-5.362.265-.001 6.625-3.97 6.625-3.97l9.109 5.532z"></path><path fill="#30005c" d="m808.43 589.53 73.52.41-27.476-52.469-71.009.275a1.152 1.152 0 0 0-1.017 1.685l25.982 50.1z"></path><path fill="#3cd278" d="m880.968 569.807-10.921-16.11 11.829-13.866s7.091 5.829 8.777 13.426c1.28 5.769.763 12.461.234 16.512l-9.92.038z"></path><path fill="#3cd278" d="M836.425 542.848c8.155-9.817 40.057-11.015 47.7-.793 6.674 8.927 1.638 64.687 1.638 64.687.067 2.605-48.677 3.862-48.745 1.257 0 0-3.954-61.105-.593-65.15z"></path><path fill="#ffc6b2" d="m822.487 562.668-6.124 11.376-12.846 4.184.141 9.372 19.056 2.801a15.377 15.377 0 0 0 13.62-8.917l5.149-11.131-18.996-7.685z"></path><path fill="#3cd278" d="M837.127 542.065s-9.929 8.02-16.481 19.56c-.525 1.96 16.669 12.383 22.024 10.217 1.965-.795 4.544-28.607-5.543-29.777z"></path><path fill="#fff" d="M847.976 560.464c.137.04-.139 1.456-.91 4.26-.71 2.361-1.395 4.714-2.186 7.071l-.101.26a1.328 1.328 0 0 1-.257.368c-.125.067-.334.06-.422.07l-.256-.016c-.327-.027-.62-.067-.891-.104a23.552 23.552 0 0 1-1.344-.23c-.711-.147-1.058-.265-1.048-.337.01-.073.374-.092 1.096-.061l1.35.074.869.038.228.001c.07 0 .038-.004.051-.007.006-.017-.01.02.01-.039l.082-.243c.775-2.31 1.467-4.685 2.174-7.037.888-2.767 1.41-4.11 1.555-4.068z"></path><path fill="#ffc6b2" d="m803.656 587.604-.139-9.372s.71-6.28-1.067-6.331c-1.658-.054-1.96 1.534-1.91 1.806-.204-.378-2.804-4.797-2.816-4.82-.083 0-5.72 3.868-6.032 9.385-.187 3.313 8.177 9.332 11.964 9.332zM840.05 513.367c.687 3.648 3.062 7.235 3.567 7.403.9.277 5.776-2.721 8.368-.427 2.593 2.294 1.213 8.647-1.754 10.905-2.969 2.258-5.832 2.831-5.832 2.831l-.49 3.99 13.518-5.05 2.055-6.3-.492-11.009s-10.585-6.139-16.534-4.656c-1.066.286-1.85 1.131-2.406 2.313z"></path><path fill="#ffc6b2" d="M839.621 533.368c.057.167.226.282.395.39h.057c1.238.67 4.326.321 4.326.321s2.863-.573 5.832-2.831c2.967-2.258 4.347-8.611 1.754-10.905-2.592-2.294-7.467.704-8.368.427-.505-.168-2.88-3.755-3.567-7.403-2.731 5.573-.882 19.048-.429 20z"></path><path d="M861.087 506.039c-8.165-5.137-18.408-2.25-21.819 1.976-1.23 1.522-2.24 3.325-1.838 5.345.688 3.648 5.682 7.242 6.187 7.41.9.277 5.776-2.721 8.369-.427 4.078 3.608-3.208 6.878-4.258 9.765-1.922 5.286-1.893 11.208.74 16.254 1.843 3.531 4.78 6.454 6.255 10.154 2.235 5.605.882 12.406 4.137 17.487 3.018 4.71 9.472 6.456 14.865 4.97 5.393-1.485 9.726-5.66 12.595-10.462 1.744-2.918 3.04-6.145 3.437-9.521.397-3.376-.146-6.911-1.856-9.85-1.502-2.58-3.803-4.58-5.732-6.859-3.106-3.67-5.234-8.05-7.328-12.378-2.199-4.543-4.892-9.025-6.387-13.803-1.297-4.144-3.669-7.7-7.367-10.061z"></path><circle cx="865.43" cy="507.179" r="7.601"></circle><path fill="#fff" d="M865.462 515.06a7.9 7.9 0 0 0 2.388-.378.281.281 0 1 0-.173-.534 7.35 7.35 0 0 1-2.217.35c-4.035.016-7.334-3.255-7.35-7.29a7.307 7.307 0 0 1 .408-2.441.28.28 0 0 0-.172-.359.277.277 0 0 0-.356.172 7.8 7.8 0 0 0-.44 2.63c.018 4.345 3.567 7.867 7.912 7.85zM850.935 628.538c-.461 0-.928-.053-1.393-.161-2.967-.697-4.966-3.729-4.551-6.903l.724-5.545a.914.914 0 0 1 .352-.612.903.903 0 0 1 .673-.186l10.106 1.334a.92.92 0 0 1 .799 1.023l-.771 5.808a6.035 6.035 0 0 1-2.538 4.169 5.932 5.932 0 0 1-3.4 1.073zm-1.28-.648a5.456 5.456 0 0 0 4.396-.836 5.533 5.533 0 0 0 2.327-3.824l.77-5.806a.419.419 0 0 0-.365-.463l-10.108-1.334a.406.406 0 0 0-.301.085.418.418 0 0 0-.163.28l-.724 5.547c-.383 2.923 1.449 5.712 4.169 6.35z"></path><circle cx="851.411" cy="619.144" r=".995" fill="#fff"></circle><path fill="#fff" d="M878.016 625.479a4.247 4.247 0 0 1-2.408-.75 4.32 4.32 0 0 1-1.84-2.971l-.574-4.08a.722.722 0 0 1 .621-.81l7.102-.994a.71.71 0 0 1 .53.142.718.718 0 0 1 .28.48l.54 3.896c.314 2.268-1.1 4.448-3.221 4.963h-.001a4.406 4.406 0 0 1-1.03.124zm2.997-9.111c-.009 0-.018 0-.027.002l-7.103.993a.219.219 0 0 0-.194.247l.574 4.079a3.82 3.82 0 0 0 1.627 2.627 3.768 3.768 0 0 0 3.038.553c1.874-.455 3.123-2.392 2.843-4.409l-.54-3.898a.221.221 0 0 0-.087-.148.216.216 0 0 0-.13-.046z"></path><circle cx="877.663" cy="618.797" r=".7" fill="#fff"></circle><path fill="#30005c" d="M848.538 525.61c-.286 0-.576-.043-.858-.13a.25.25 0 1 1 .147-.478c.592.183 1.22.133 1.72-.137.52-.279.89-.814.945-1.362.057-.572-.235-1.156-.71-1.42-.4-.223-.949-.253-1.673-.092a.25.25 0 0 1-.108-.488c.849-.19 1.511-.142 2.025.143.643.359 1.04 1.142.963 1.906-.071.72-.533 1.392-1.205 1.754a2.631 2.631 0 0 1-1.246.305z"></path><path fill="#ff784b" d="M830.984 359.692v51.41c0 1.88-1.53 3.4-3.4 3.4h-73.12c-1.88 0-3.4-1.52-3.4-3.4v-51.41c0-1.88 1.52-3.4 3.4-3.4h73.12c1.87 0 3.4 1.52 3.4 3.4z"></path><path fill="#fff" d="m780.675 393.935-12.455-5.588a2.05 2.05 0 0 1-.827-.671 1.61 1.61 0 0 1-.297-.952v-.25c0-.354.098-.671.297-.952.197-.281.473-.504.827-.671l12.455-5.588c.167-.062.333-.094.5-.094.353 0 .65.12.89.36.239.239.358.535.358.889 0 .25-.078.484-.233.702a1.39 1.39 0 0 1-.61.484l-11.237 4.995 11.238 4.995c.25.104.452.265.609.484.155.218.233.452.233.702 0 .354-.12.65-.358.89-.24.24-.537.359-.89.359-.167 0-.333-.032-.5-.094zM785.966 398.43a1.26 1.26 0 0 1-.358-.905c0-.125.03-.281.093-.468l8.273-24.193c.082-.25.228-.458.437-.625.207-.166.468-.25.78-.25.375 0 .681.125.92.375.24.25.36.552.36.905 0 .125-.031.281-.094.469l-8.272 24.193c-.084.25-.23.457-.437.624-.208.166-.469.25-.78.25-.375 0-.683-.125-.922-.375zM799.983 393.67a1.206 1.206 0 0 1-.36-.89c0-.25.078-.484.235-.702.155-.219.358-.38.608-.484l11.238-4.995-11.238-4.995a1.388 1.388 0 0 1-.608-.484 1.185 1.185 0 0 1-.235-.702c0-.354.12-.65.36-.89.238-.239.535-.359.89-.359.186 0 .353.032.499.094l12.455 5.588c.354.167.63.39.827.671.198.28.297.598.297.952v.25c0 .354-.1.67-.297.952a2.054 2.054 0 0 1-.827.671l-12.455 5.588a1.26 1.26 0 0 1-.5.094c-.354 0-.65-.12-.89-.36z"></path><path fill="#d7e7ff" d="M922.89 361.702v16.51c0 1.06-.86 1.92-1.93 1.92h-81.13a1.92 1.92 0 0 1-1.92-1.92v-16.51c0-1.07.86-1.93 1.92-1.93h81.13c1.07 0 1.93.86 1.93 1.93zM837.909 387.365h84.98v1.979h-84.98zM837.909 396.521h84.98v1.979h-84.98zM837.909 405.677h84.98v1.979h-84.98zM837.909 414.833h84.98v1.979h-84.98zM752.249 423.989h170.64v1.979h-170.64zM752.249 433.145h170.64v1.979h-170.64zM752.249 442.301h170.64v1.979h-170.64zM752.249 451.457h170.64v1.979h-170.64zM752.249 460.613h170.64v1.979h-170.64zM752.249 469.769h170.64v1.979h-170.64zM752.249 478.925h170.64v1.979h-170.64z"></path><path d="M999.711 708.527h27.232v4.223h-27.232z" transform="rotate(-.222 1013.322 710.63)"></path><path d="m999.712 708.58 27.23-.106-.046-12.031-16.912.066z"></path><path fill="#fff" d="M999.708 708.304h14.431v.5h-14.431z" transform="rotate(-.223 1006.934 708.55)"></path><path fill="#fff" d="M1021.618 711.583c.002.416.043.78.136 1.134l.506-.002c0-.02 0-.04-.01-.06a4.525 4.525 0 0 1-.125-1.074 4.747 4.747 0 0 1 .99-2.94c.041-.051.081-.102.132-.152a4.813 4.813 0 0 1 3.69-1.757l-.003-.506a5.33 5.33 0 0 0-4.225 2.112c-.04.051-.07.102-.11.153a5.25 5.25 0 0 0-.98 3.092z"></path><path d="M1044.997 708.527h27.232v4.223h-27.232z" transform="rotate(-.222 1058.608 710.63)"></path><path d="m1044.998 708.58 27.23-.106-.046-12.031-16.911.066z"></path><path fill="#fff" d="M1044.994 708.304h14.431v.5h-14.431z" transform="rotate(-.223 1052.22 708.55)"></path><path fill="#fff" d="M1066.904 711.583c.002.416.044.78.136 1.134l.506-.002c0-.02 0-.04-.01-.06a4.522 4.522 0 0 1-.125-1.074 4.747 4.747 0 0 1 .99-2.94c.041-.051.081-.102.132-.152a4.813 4.813 0 0 1 3.689-1.757l-.002-.506a5.33 5.33 0 0 0-4.225 2.112c-.04.051-.07.102-.11.153a5.249 5.249 0 0 0-.98 3.092z"></path><path fill="#ffc6b2" d="m1028.623 566.05-11.926 30.893s-.977 10.438-7.417 9.972c-6.44-.476-3.044-7.348-3.123-7.768-.08-.432-1.925.886-2.533 0-1.24-1.808 2.783-4.226 2.783-4.226l5.406-33.187 16.81 4.316z"></path><path fill="#ff784b" d="M1024.022 528.033c-.092.076-5.515 3.412-8.541 11.442-3.027 8.03-1.606 12.786-1.112 13.218.494.433 12.6 2.78 14.269 2.718 1.667-.061 7.72-7.412 7.72-7.412l-12.336-19.966z"></path><path fill="#fff" d="M1019.157 550.412c-.12.01-.411-1.53-.282-4.668.173-2.65.6-5.283 1.272-7.852.865-3.015 1.627-4.384 1.742-4.337.158.06-.359 1.512-1.092 4.506a41.07 41.07 0 0 0-1.25 7.728c-.25 3.076-.217 4.616-.39 4.623z"></path><path fill="#1258ff" d="M1073.465 697.251c-3.134 4.827-19.565 2.233-21.008-.06-.204-.33-9.353-76.396-9.353-76.396s-14.807 75.769-15.272 76.041c-5.656 3.374-16.467 1.76-19.375.307-.454-.228 12.136-105.515 12.136-105.515s47.692-4.26 49.623.681c1.556 3.976 3.692 104.272 3.25 104.942z"></path><path fill="#fff" d="M1068.827 676.333c-.143 0-.273-4.47-.332-13.507v-22.967c.06-9.029.19-13.498.338-13.498s.273 4.47.335 13.498v22.967c-.064 9.038-.19 13.507-.34 13.507zM1071.991 609.69c-.023.058-.475-.026-1.309-.406-.821-.39-2.043-1.09-3.34-2.424a13.03 13.03 0 0 1-2.545-3.94 13.027 13.027 0 0 1-.94-4.595c-.008-1.859.373-3.213.687-4.066.33-.855.594-1.232.652-1.205.077.032-.06.461-.269 1.321-.195.86-.465 2.172-.399 3.934a12.09 12.09 0 0 0 3.305 8.09c1.187 1.307 2.3 2.055 3.041 2.532.752.47 1.15.681 1.117.76zM1015.718 607.378c-.025-.076.36-.252 1.1-.634.734-.39 1.837-.99 3.097-2.071a12.956 12.956 0 0 0 4.362-7.022c.41-1.607.462-2.861.487-3.691.013-.833.002-1.256.083-1.268.065-.01.213.396.317 1.25.092.848.137 2.162-.233 3.865a13.63 13.63 0 0 1-4.587 7.383c-1.363 1.087-2.563 1.628-3.365 1.922-.812.284-1.241.33-1.261.266z"></path><path fill="#ff784b" d="M1023.251 528.856c2.558-5.81 39.737-8.02 48.289.526 3.537 3.537.963 61.944 0 64.429-1.638 4.22-49.162 3.807-52.35-.518-.585-.792-2.496-49.543 4.061-64.437z"></path><path fill="#ffc6b2" d="M1059.32 557.91c.064.322-.06 6.863-.06 6.863-1.22.706-19.864 3.019-19.864 3.019s.272 9.176.978 10.267c.706 1.091 34.096 4.297 38.313-1.832 2.371-3.444-.709-18.703-.709-18.703l-18.659.387z"></path><path fill="#ff784b" d="M1057.407 557.976s-2.17-16.782-1.422-19.666c2.426-9.364 10.791-11.524 14.846-9.34 3.174 1.71 8.297 18.516 8.643 26.097.596 4.52-21.471 7.43-22.067 2.909z"></path><path fill="#719bff" d="m997.356 547.867 12.534 34.083a.988.988 0 0 0 .927.648h25.293l-13.26-36.06h-24.566a.988.988 0 0 0-.928 1.329z"></path><path fill="#ffc6b2" d="m1039.392 567.792-5.042-.922c-.204-.215-2.036-2.096-1.569-3.365.503-1.354 6.61 4.287 6.61 4.287z"></path><path fill="#6385d2" d="m1022.85 546.537 13.26 36.06h2.281a.988.988 0 0 0 .928-1.329l-12.533-34.083a.988.988 0 0 0-.928-.648h-3.008z"></path><path fill="#ffc6b2" d="M1040.928 516.816c1.194 1.383.63 4.184.594 6.758-.827 3.455 11.221 4.799 12.945.538-.94-3.806-.755-8.937.248-12.89s-13.787 5.594-13.787 5.594z"></path><path fill="#ffc6b2" d="M1040.336 517.51c5.643 2.938 11.519-2.891 13.804-5.594.606-.7.979-1.214.979-1.214.14-.187 4.944-1.491 3.591-5.595-.7-2.147-4.803 0-4.803 0s-2.052-8.022-5.643-8.348c-3.591-.328-9.607 4.523-9.607 4.523s-.14.512-.28 1.352c-.653 3.546-1.959 12.825 1.959 14.877z"></path><path fill="#2a0054" d="M1034.786 500.863c.513 1.259 1.866 1.726 3.591 1.771 3.87.142 9.514-1.958 10.96-2.051 2.051-.187 2.331 4.618 2.798 5.037.512.419 1.772-.513 1.772-.513s4.104-2.147 4.803 0c1.353 4.104-3.451 5.408-3.591 5.595 0 0-.373.515-.98 1.214l.018 2.58s6.139-6.638 7.025-9.25c.932-2.612-2.285-6.155-3.405-6.528-1.119-.326.234-8.023-.792-9.794-1.026-1.726-8.441.512-11.193 1.12-2.751.651-6.435-.747-9.747 1.257-3.31 2.006-2.938 5.458-1.259 9.562z"></path><path fill="#ffc6b2" d="M1040.374 578.055s-12.49 3.15-14.275-5.976c-1.737-8.85 7.7-5.413 8.251-5.21l5.042.923.982 10.263z"></path><path fill="#fff" d="M1056.224 540.379c.169.015.016 1.837.062 5.505 0 3.107.27 6.213.797 9.275.15.901.256 1.707.434 2.333.176.633.443 1.098.74 1.401.6.617 1.106.614 1.088.707.028.048-.558.218-1.36-.412-.39-.307-.761-.842-.998-1.525-.243-.69-.383-1.482-.567-2.39a55.307 55.307 0 0 1-.806-9.389c.077-3.716.487-5.52.61-5.505z"></path><path fill="#2a0054" d="M1043.512 518.378a8.06 8.06 0 0 1-2.059-.265l.064-.242a7.957 7.957 0 0 0 5.78-.696l.119.22a8.201 8.201 0 0 1-3.904.983z"></path><path fill="#fff" d="M1041.833 601.785c.065.033-.083.471-.434 1.32-.34.853-.922 2.108-1.449 3.846-.46 1.463-.703 2.995-.556 4.501a9.281 9.281 0 0 0 1.518 4.228c.474.756 1.028 1.309 1.477 1.869.45.55.75 1.113.858 1.595.22.99-.16 1.454-.197 1.41-.09-.022.111-.479-.186-1.294-.15-.405-.44-.857-.898-1.35-.447-.49-1.074-1.06-1.613-1.856a9.954 9.954 0 0 1-1.628-4.535c-.159-1.622.105-3.248.583-4.769.608-1.788 1.285-3.011 1.73-3.82.458-.803.729-1.178.795-1.145zM1056.359 524.4s-7.179 6.908-7.315 6.908c-.023-.08-3.18-4.839-3.18-4.839l8.133-5.12c.012.09 2.362 3.051 2.362 3.051z"></path><path fill="#fff" d="M1045.913 526.607s-3.472 3.165-3.548 3.19c-.076.026-3.484-5.551-3.484-5.551l2.723-2.486 4.26 4.709"></path><path d="M1066.357 567.543c-.025.132-.792.1-2.079-.546-1.057-.582-2.042-1.228-3.12-1.593-1.245-.487-1.935-.44-1.95-.611-.037-.118.731-.443 2.168-.026 1.182.404 2.202 1.08 3.225 1.64 1.172.723 1.795.98 1.756 1.136z"></path><path fill="#fff" d="M1012.31 677.037c-.036-.005-.015-.33.062-.97l.4-2.884 1.705-11.562 3.886-26.187c.812-5.14 1.484-8.974 1.971-11.519.243-1.272.445-2.22.587-2.852.143-.63.233-.941.27-.935s.015.33-.062.972l-.4 2.882-1.7 11.554-3.887 26.186c-.815 5.146-1.488 8.982-1.974 11.528a91.08 91.08 0 0 1-.587 2.853c-.144.63-.234.941-.271.934z"></path><path fill="#719bff" d="M1042.397 406.995a2.45 2.45 0 0 0-2.026-2.3l-2.25-.415c-.777-.15-1.461-.643-1.787-1.37a8.515 8.515 0 0 0-.361-.761 2.461 2.461 0 0 1 .079-2.282l1.121-1.969a2.471 2.471 0 0 0-.485-3.032l-5.198-4.738a2.456 2.456 0 0 0-3.058-.201l-1.87 1.29c-.654.448-1.498.572-2.241.29-.265-.093-.54-.205-.814-.298-.76-.255-1.331-.891-1.552-1.655l-.598-2.186a2.473 2.473 0 0 0-2.495-1.802l-7.024.33a2.441 2.441 0 0 0-2.292 2.008l-.413 2.26c-.15.785-.661 1.46-1.388 1.785-.272.118-.526.236-.789.362-.709.352-1.555.309-2.255-.079l-1.968-1.113a2.486 2.486 0 0 0-3.032.485l-4.738 5.199a2.455 2.455 0 0 0-.202 3.058l1.3 1.878c.456.646.572 1.49.29 2.233-.103.265-.214.548-.307.822-.238.76-.874 1.323-1.647 1.543l-2.176.598a2.46 2.46 0 0 0-1.802 2.496l.329 7.023a2.451 2.451 0 0 0 2.026 2.31l2.224.396c.785.15 1.47.643 1.786 1.388.118.254.244.517.38.788.351.709.308 1.555-.097 2.255l-1.113 1.969a2.484 2.484 0 0 0 .485 3.032l5.207 4.737a2.467 2.467 0 0 0 3.067.202l1.869-1.29c.655-.448 1.5-.572 2.233-.29.275.11.54.204.823.298.769.255 1.322.892 1.543 1.655l.598 2.185c.295 1.106 1.342 1.852 2.487 1.803l7.032-.33a2.443 2.443 0 0 0 2.3-2.026l.414-2.241c.15-.777.644-1.461 1.37-1.777.272-.127.535-.245.789-.371.709-.37 1.572-.327 2.264.08l1.968 1.112c1.01.56 2.267.352 3.032-.485l4.738-5.208a2.47 2.47 0 0 0 .21-3.066l-1.308-1.887a2.373 2.373 0 0 1-.281-2.216c.102-.274.196-.54.272-.796.255-.768.892-1.322 1.664-1.543l2.194-.615a2.473 2.473 0 0 0 1.802-2.479l-.33-7.049zm-25.7 15.321c-5.85.07-10.643-4.62-10.712-10.462-.068-5.843 4.612-10.643 10.463-10.712 5.842-.069 10.642 4.62 10.711 10.462.07 5.843-4.619 10.643-10.462 10.712z"></path><path fill="#598aea" d="M1016.434 399.987c-6.488.076-11.68 5.393-11.604 11.88.076 6.488 5.393 11.68 11.88 11.604 6.488-.076 11.68-5.393 11.604-11.88s-5.393-11.68-11.88-11.604zm.263 22.33c-5.85.068-10.643-4.62-10.712-10.463-.069-5.843 4.612-10.643 10.462-10.712 5.843-.069 10.643 4.62 10.712 10.462.069 5.843-4.62 10.643-10.462 10.712z"></path><path d="M982.592 412.479a.75.75 0 0 1-.75-.75c0-19.15 15.58-34.73 34.73-34.73a.75.75 0 0 1 0 1.5c-18.323 0-33.23 14.907-33.23 33.23a.75.75 0 0 1-.75.75zM1016.572 446.459a.75.75 0 0 1 0-1.5c18.323 0 33.23-14.907 33.23-33.23a.75.75 0 0 1 1.5 0c0 19.15-15.58 34.73-34.73 34.73z"></path><path d="M1053.62 412.489h-6.133a.86.86 0 0 1-.707-1.35l3.067-4.462a.85.85 0 0 1 1.414 0l3.067 4.462a.862.862 0 0 1-.708 1.35zM979.883 409.002h6.133a.86.86 0 0 1 .707 1.35l-3.066 4.462a.85.85 0 0 1-1.414 0l-3.067-4.462a.862.862 0 0 1 .707-1.35z"></path><path fill="#9bb2e1" d="M911.707 250.954a.5.5 0 0 1-.17-.97 35.938 35.938 0 0 0 11.692-6.958.5.5 0 1 1 .665.748 36.938 36.938 0 0 1-12.017 7.15.499.499 0 0 1-.17.03zM928.48 238.582a.5.5 0 0 1-.398-.802c4.776-6.31 7.301-13.84 7.301-21.777 0-19.916-16.203-36.119-36.119-36.119-.76 0-1.528.024-2.283.071a.5.5 0 0 1-.063-.998 37.883 37.883 0 0 1 2.346-.073c20.468 0 37.12 16.652 37.12 37.119 0 8.156-2.595 15.895-7.505 22.381a.499.499 0 0 1-.399.198z"></path><circle cx="891.672" cy="214.919" r="36.619" fill="#d250dc"></circle><path d="M881.74 208.336c-.964-.514-2.222-.775-3.74-.775h-5.416c-.335 0-.62.12-.85.36a1.199 1.199 0 0 0-.344.858v14.536c0 .335.116.62.346.849.229.229.514.345.848.345.333 0 .622-.116.858-.343.24-.23.36-.516.36-.85v-4.959H878c1.518 0 2.776-.26 3.74-.774.968-.517 1.673-1.19 2.095-2a5.626 5.626 0 0 0 .631-2.624c0-.934-.212-1.816-.631-2.622-.422-.811-1.127-1.485-2.095-2zm.315 4.623c0 .878-.318 1.623-.946 2.213-.63.592-1.748.893-3.323.893h-3.984v-6.21h3.984c1.575 0 2.693.3 3.323.891.628.591.946 1.336.946 2.213zM899.709 207.443c-.335 0-.62.12-.85.359a1.199 1.199 0 0 0-.344.858v6.193h-8.752v-6.193c0-.333-.12-.623-.357-.86a1.176 1.176 0 0 0-.86-.357c-.336 0-.621.12-.85.359a1.199 1.199 0 0 0-.344.858v14.655c0 .335.116.62.345.849.23.229.515.345.848.345.333 0 .622-.116.859-.343.239-.23.36-.516.36-.85v-6.194h8.751v6.193c0 .335.116.62.346.849.229.229.514.345.848.345a1.2 1.2 0 0 0 .858-.343c.24-.23.36-.516.36-.85V208.66c0-.333-.12-.623-.358-.86s-.527-.357-.86-.357zM917.729 210.337c-.422-.811-1.127-1.485-2.095-2-.964-.515-2.222-.776-3.74-.776h-5.416c-.335 0-.62.12-.85.36a1.199 1.199 0 0 0-.344.858v14.536c0 .335.116.62.346.849.229.229.515.345.848.345.333 0 .622-.116.858-.343.24-.23.36-.516.36-.85v-4.959h4.198c1.518 0 2.776-.26 3.74-.774.968-.517 1.673-1.19 2.095-2a5.626 5.626 0 0 0 .631-2.624c0-.934-.212-1.816-.631-2.622zm-1.78 2.622c0 .878-.318 1.623-.946 2.213-.63.592-1.748.893-3.323.893h-3.984v-6.21h3.984c1.575 0 2.693.3 3.323.891.628.591.946 1.336.946 2.213z" opacity=".1"></path><path fill="#fff" d="M880.757 207.394c-.964-.514-2.222-.775-3.74-.775H871.6c-.335 0-.62.12-.85.36a1.199 1.199 0 0 0-.344.858v14.536c0 .335.116.62.346.849.229.229.514.345.848.345.333 0 .622-.116.858-.343.24-.23.36-.516.36-.85v-4.959h4.197c1.519 0 2.777-.26 3.74-.774.969-.517 1.674-1.19 2.096-2a5.626 5.626 0 0 0 .631-2.624c0-.934-.212-1.816-.631-2.622-.422-.811-1.127-1.485-2.095-2zm.315 4.623c0 .878-.318 1.623-.946 2.213-.63.592-1.748.893-3.323.893h-3.984v-6.21h3.984c1.575 0 2.692.3 3.323.891.628.591.946 1.336.946 2.213zM898.726 206.5c-.335 0-.62.121-.85.36a1.199 1.199 0 0 0-.344.858v6.193h-8.752v-6.193c0-.333-.12-.623-.357-.86a1.176 1.176 0 0 0-.86-.357c-.336 0-.621.12-.85.358a1.199 1.199 0 0 0-.344.86v14.654c0 .335.116.62.345.849.23.229.515.345.848.345.333 0 .622-.116.859-.343.239-.23.36-.516.36-.85v-6.194h8.751v6.193c0 .335.116.62.346.849.229.229.514.345.848.345a1.2 1.2 0 0 0 .858-.343c.24-.23.36-.516.36-.85v-14.656c0-.333-.12-.623-.358-.86s-.527-.357-.86-.357zM916.746 209.395c-.422-.811-1.127-1.485-2.095-2-.964-.515-2.222-.776-3.74-.776h-5.416c-.335 0-.62.12-.85.36a1.199 1.199 0 0 0-.344.858v14.536c0 .335.116.62.346.849.229.229.514.345.848.345.333 0 .622-.116.858-.343.24-.23.36-.516.36-.85v-4.959h4.198c1.518 0 2.776-.26 3.74-.774.968-.517 1.673-1.19 2.095-2a5.626 5.626 0 0 0 .631-2.624c0-.934-.212-1.816-.631-2.622zm-1.78 2.622c0 .878-.318 1.623-.946 2.213-.63.592-1.748.893-3.323.893h-3.984v-6.21h3.984c1.575 0 2.693.3 3.323.891.628.591.946 1.336.946 2.213z"></path><path fill="#719bff" d="m195.009 331.972-40.653-38.112 59.179-.824a.05.05 0 0 1 .047.072l-18.493 38.849a.05.05 0 0 1-.08.015z"></path><path fill="#5388f2" d="m154.356 293.86 47.912 23.005a.05.05 0 0 1 .008.005l7.468 5.367a.05.05 0 0 0 .08-.05l-2.74-15.385a.05.05 0 0 0-.038-.04l-52.69-12.902z"></path><path fill="#5388f2" d="m209.654 322.29-9.406-1.014a.05.05 0 0 1-.04-.072l2.038-4.282a.05.05 0 0 1 .076-.02l7.367 5.295c.043.03.017.098-.035.092z"></path><path fill="#ffc837" d="m318.776 460.481-1.172.486a.645.645 0 0 1-.494-1.191l1.173-.486a.643.643 0 0 1 .842.349.643.643 0 0 1-.349.842zM322.296 469.845h-3.182a.645.645 0 0 1 0-1.29h3.182c.358 0 .645.288.645.645a.643.643 0 0 1-.645.645z"></path><path fill="#6385d2" d="M302.11 503.065a5.906 5.906 0 0 1-5.908 5.908 5.906 5.906 0 0 1-5.91-5.908 5.91 5.91 0 0 1 11.819 0z"></path><path d="M302.11 503.065c0 .087-.002.177-.007.264H290.3a5.91 5.91 0 1 1 11.812-.265z" opacity=".15"></path><path fill="#ffc837" d="M310.37 484.275c-2.758 2.619-4.752 5.876-5.903 9.431-.103.315-.198.635-.288.955h-15.99a24.88 24.88 0 0 0-.298-.955c-1.212-3.612-3.298-6.917-6.08-9.643a20.52 20.52 0 0 1-6.189-14.712c0-11.739 9.83-21.182 21.707-20.548 10.568.565 19.057 9.211 19.439 19.789a20.526 20.526 0 0 1-6.398 15.683z"></path><path fill="#fff" d="M300.015 495.745c-.122-.21-.171 3.904-.107-17.124h-4.562v-1.291h4.566l.007-1.98a3.26 3.26 0 0 1 3.256-3.241h.652a3.26 3.26 0 0 1 3.257 3.256 3.26 3.26 0 0 1-3.257 3.256H301.2c-.054 18.092-.01 16.47.012 16.71l-.575.053-.622.361zm1.189-18.415h2.623a1.967 1.967 0 0 0 1.965-1.965 1.967 1.967 0 0 0-1.965-1.965h-.652c-1.08 0-1.962.877-1.965 1.955l-.006 1.975z"></path><path fill="#fff" d="m292.389 495.745-1.117-.65.558.325-.638-.089c.046-.499.05-4.215.012-16.71h-2.627a3.26 3.26 0 0 1-3.257-3.256 3.26 3.26 0 0 1 3.257-3.256h.652a3.26 3.26 0 0 1 3.256 3.241l.007 1.98h4.566v1.291h-4.562c.067 21.024.013 16.917-.107 17.124zm-3.812-22.345a1.967 1.967 0 0 0-1.965 1.965c0 1.084.88 1.965 1.965 1.965h2.624l-.007-1.976a1.967 1.967 0 0 0-1.965-1.954h-.652z"></path><path d="M304.467 493.706c-.103.315-.198.635-.288.955h-15.99a24.88 24.88 0 0 0-.298-.955h16.576z" opacity=".1"></path><path fill="#829ed9" d="M305.433 494.965v7.125c0 .333-.267.6-.597.6h-17.27a.598.598 0 0 1-.597-.6v-7.125c0-.33.267-.597.597-.597h17.27c.33 0 .597.268.597.597z"></path><path d="M305.433 496.507v1.71H287.3a.803.803 0 0 1-.33-.067v-1.576a.811.811 0 0 1 .33-.067h18.134zM305.433 499.335v1.713H287.3a.803.803 0 0 1-.33-.067v-1.579a.855.855 0 0 1 .33-.067h18.134z" opacity=".15"></path><path fill="#ddeefe" d="M306.118 496.96c0 .237-.097.45-.25.607a.862.862 0 0 1-.607.25h-18.12a.855.855 0 1 1 0-1.713h18.12c.474 0 .857.386.857.857zM306.118 499.79c0 .237-.097.45-.25.606a.862.862 0 0 1-.607.25h-18.12a.855.855 0 1 1 0-1.712h18.12c.474 0 .857.385.857.856z"></path><ellipse cx="291.972" cy="457.384" fill="#fff" opacity=".14" rx="4.129" ry="3.182" transform="rotate(-53.281 291.972 457.384)"></ellipse><ellipse cx="288.37" cy="463.947" fill="#fff" opacity=".14" rx="2.247" ry="1.997" transform="rotate(-53.281 288.37 463.947)"></ellipse><path fill="#ffc837" d="M296.686 442.946v3.183a.645.645 0 0 1-1.29 0v-3.183c0-.358.287-.645.645-.645.358 0 .645.287.645.645zM287.322 446.466l.485 1.172a.645.645 0 0 1-1.191.494l-.486-1.172a.643.643 0 0 1 .35-.843.643.643 0 0 1 .842.349zM305.952 446.96l-.486 1.172a.645.645 0 0 1-1.191-.494l.485-1.172c.137-.33.512-.486.843-.35s.485.513.349.843zM277.932 450.18l2.25 2.25a.645.645 0 0 1-.911.913l-2.25-2.25a.643.643 0 0 1 0-.913.643.643 0 0 1 .91 0zM272.726 460.481l1.173.486a.645.645 0 0 0 .493-1.191l-1.172-.486a.643.643 0 0 0-.842.349.643.643 0 0 0 .348.842zM269.206 469.845h3.183a.645.645 0 0 0 0-1.29h-3.183a.643.643 0 0 0-.644.645c0 .358.287.645.644.645zM315.062 451.091l-2.25 2.25a.645.645 0 0 1-.912-.91l2.25-2.251c.253-.253.659-.253.912 0s.253.659 0 .911z"></path><path fill="#fff" d="M279.796 476.475c-.058.023-.345-.463-.724-1.527-.366-1.063-.827-2.721-.948-5.003a20.374 20.374 0 0 1 2.77-11.1c1.177-1.956 2.362-3.202 3.184-3.968.835-.76 1.318-1.054 1.359-1.005.054.062-.337.46-1.072 1.285-.724.832-1.803 2.104-2.89 4.026a19.698 19.698 0 0 0-2.679 10.736c.056 2.21.412 3.841.66 4.916.262 1.075.42 1.61.34 1.64z"></path></svg>